G04 Layer_Color=16711935*
%FSLAX44Y44*%
%MOMM*%
G71*
G01*
G75*
%ADD31R,1.1032X0.8032*%
%ADD32R,0.8032X1.1032*%
%ADD35C,1.7032*%
%ADD36R,1.7032X1.7032*%
%ADD37C,2.0532*%
%ADD38R,2.0532X2.0532*%
%ADD39R,1.7032X1.7032*%
%ADD40R,1.4032X1.4032*%
%ADD41C,1.4032*%
%ADD42O,2.7032X1.4032*%
%ADD43R,2.7032X1.4032*%
%ADD44R,1.3972X0.7622*%
%ADD45R,1.1400X0.6900*%
%ADD46R,1.1032X1.5032*%
D31*
X186000Y66500D02*
D03*
Y51500D02*
D03*
X185000Y32500D02*
D03*
Y17500D02*
D03*
D32*
X72500Y53000D02*
D03*
X87500D02*
D03*
D35*
X330000Y70800D02*
D03*
Y45400D02*
D03*
Y260800D02*
D03*
Y235400D02*
D03*
X32000Y229200D02*
D03*
Y254600D02*
D03*
Y316200D02*
D03*
Y341600D02*
D03*
X330000Y165800D02*
D03*
Y140400D02*
D03*
X58400Y451000D02*
D03*
X33000Y425600D02*
D03*
X58400D02*
D03*
X235400Y20000D02*
D03*
X260800D02*
D03*
X286200D02*
D03*
X210000Y45400D02*
D03*
X235400D02*
D03*
X260800D02*
D03*
X286200D02*
D03*
X204600Y110000D02*
D03*
X179200D02*
D03*
X153800D02*
D03*
X128400D02*
D03*
D36*
X330000Y20000D02*
D03*
Y210000D02*
D03*
X32000Y280000D02*
D03*
Y367000D02*
D03*
X330000Y115000D02*
D03*
X33000Y451000D02*
D03*
D37*
X21000Y83400D02*
D03*
Y123600D02*
D03*
D38*
Y32600D02*
D03*
Y174400D02*
D03*
D39*
X210000Y20000D02*
D03*
X230000Y110000D02*
D03*
D40*
X52500Y32000D02*
D03*
D41*
X87500D02*
D03*
D42*
X256000Y144900D02*
D03*
Y170300D02*
D03*
Y195700D02*
D03*
Y221100D02*
D03*
Y246500D02*
D03*
Y271900D02*
D03*
Y297300D02*
D03*
Y322700D02*
D03*
Y348100D02*
D03*
Y373500D02*
D03*
Y398900D02*
D03*
Y424300D02*
D03*
Y449700D02*
D03*
Y475100D02*
D03*
X104000Y144900D02*
D03*
Y170300D02*
D03*
Y195700D02*
D03*
Y221100D02*
D03*
Y246500D02*
D03*
Y271900D02*
D03*
Y297300D02*
D03*
Y322700D02*
D03*
Y348100D02*
D03*
Y373500D02*
D03*
Y398900D02*
D03*
Y424300D02*
D03*
Y449700D02*
D03*
D43*
Y475100D02*
D03*
D44*
X165270Y59050D02*
D03*
Y46350D02*
D03*
Y33650D02*
D03*
Y20950D02*
D03*
X114730Y59050D02*
D03*
Y46350D02*
D03*
Y33650D02*
D03*
Y20950D02*
D03*
D45*
X73150Y72500D02*
D03*
Y91500D02*
D03*
X96850Y82000D02*
D03*
D46*
X70500Y110000D02*
D03*
X89500D02*
D03*
M02*
