G04 Layer_Color=65535*
%FSLAX44Y44*%
%MOMM*%
G71*
G01*
G75*
%ADD15C,0.2000*%
%ADD28C,0.2500*%
%ADD29C,0.2540*%
D15*
X173650Y487800D02*
G03*
X186350Y487800I6350J0D01*
G01*
X317300Y7300D02*
X342700D01*
X317300D02*
Y83500D01*
X342700D01*
Y7300D02*
Y83500D01*
X317300Y197300D02*
X342700D01*
X317300D02*
Y273500D01*
X342700D01*
Y197300D02*
Y273500D01*
X19300Y292700D02*
X44700D01*
Y216500D02*
Y292700D01*
X19300Y216500D02*
X44700D01*
X19300D02*
Y292700D01*
Y379700D02*
X44700D01*
Y303500D02*
Y379700D01*
X19300Y303500D02*
X44700D01*
X19300D02*
Y379700D01*
X317300Y102300D02*
X342700D01*
X317300D02*
Y178500D01*
X342700D01*
Y102300D02*
Y178500D01*
X8300Y15200D02*
X33700D01*
Y100800D01*
X8300D02*
X33700D01*
X8300Y15200D02*
Y100800D01*
Y191800D02*
X33700D01*
X8300Y106200D02*
Y191800D01*
Y106200D02*
X33700D01*
Y191800D01*
X20300Y412900D02*
Y463700D01*
Y412900D02*
X71100D01*
X20300Y463700D02*
X71100D01*
Y412900D02*
Y463700D01*
X298900Y7300D02*
Y58100D01*
X197300D02*
X298900D01*
X197300Y7300D02*
Y58100D01*
Y7300D02*
X298900D01*
X49500Y105500D02*
X88590D01*
X45500Y101500D02*
X49500Y105500D01*
X45500Y94000D02*
Y101500D01*
Y62500D02*
Y74000D01*
X88500Y62500D02*
Y74000D01*
Y94000D02*
Y105500D01*
X45500Y62500D02*
X88500D01*
X43000Y57000D02*
X96750D01*
X43000Y7000D02*
X96750D01*
X43000D02*
Y57000D01*
X97000Y7000D02*
Y57000D01*
X124850Y132200D02*
Y487800D01*
Y132200D02*
X235150D01*
Y487800D01*
X186350D02*
X235150D01*
X124850D02*
X173650D01*
X134750Y25750D02*
Y52250D01*
Y25750D02*
X149250D01*
Y52250D01*
X134750D02*
X149250D01*
X129000Y4000D02*
Y18000D01*
X155000D01*
Y4000D02*
Y18000D01*
X129000Y4000D02*
X155000D01*
X103000Y79000D02*
X147250D01*
X103000Y57000D02*
Y79000D01*
X147250Y58500D02*
Y79000D01*
X145750Y57000D02*
X147250Y58500D01*
X103000Y57000D02*
X145750D01*
X158000Y31000D02*
Y75250D01*
Y31000D02*
X180000D01*
X158000Y75250D02*
X178500D01*
X180000Y73750D01*
Y31000D02*
Y73750D01*
X104000Y37000D02*
Y51000D01*
X130000D01*
Y37000D02*
Y51000D01*
X104000Y37000D02*
X130000D01*
X49750Y137750D02*
X76250D01*
Y152250D01*
X49750D02*
X76250D01*
X49750Y137750D02*
Y152250D01*
Y162750D02*
X76250D01*
Y177250D01*
X49750D02*
X76250D01*
X49750Y162750D02*
Y177250D01*
X103750Y3750D02*
Y30250D01*
Y3750D02*
X118250D01*
Y30250D01*
X103750D02*
X118250D01*
X115700Y97300D02*
Y122700D01*
X242700D01*
X115700Y97300D02*
X242700D01*
Y122700D01*
D28*
X22260Y10390D02*
G03*
X22260Y10390I-1250J0D01*
G01*
X22240Y196610D02*
G03*
X22240Y196610I-1250J0D01*
G01*
D29*
X286304Y110157D02*
X283765Y107618D01*
Y102539D01*
X286304Y100000D01*
X296461D01*
X299000Y102539D01*
Y107618D01*
X296461Y110157D01*
X291383D01*
Y105078D01*
X288843Y117774D02*
Y122853D01*
X291383Y125392D01*
X299000D01*
Y117774D01*
X296461Y115235D01*
X293922Y117774D01*
Y125392D01*
X299000Y130470D02*
Y135548D01*
Y133009D01*
X283765D01*
Y130470D01*
X299000Y143166D02*
Y148244D01*
Y145705D01*
X288843D01*
Y143166D01*
X299000Y155862D02*
Y160940D01*
Y158401D01*
X283765D01*
Y155862D01*
X299000Y176175D02*
Y171097D01*
X296461Y168558D01*
X291383D01*
X288843Y171097D01*
Y176175D01*
X291383Y178715D01*
X293922D01*
Y168558D01*
X299000Y186332D02*
Y191410D01*
X296461Y193950D01*
X291383D01*
X288843Y191410D01*
Y186332D01*
X291383Y183793D01*
X296461D01*
X299000Y186332D01*
X283765Y214263D02*
X299000D01*
X291383D01*
Y224420D01*
X283765D01*
X299000D01*
X288843Y232037D02*
Y237116D01*
X291383Y239655D01*
X299000D01*
Y232037D01*
X296461Y229498D01*
X293922Y232037D01*
Y239655D01*
X299000Y244733D02*
X288843D01*
Y252351D01*
X291383Y254890D01*
X299000D01*
X283765Y270125D02*
X299000D01*
Y262507D01*
X296461Y259968D01*
X291383D01*
X288843Y262507D01*
Y270125D01*
X286304Y300595D02*
X283765Y298056D01*
Y292978D01*
X286304Y290438D01*
X296461D01*
X299000Y292978D01*
Y298056D01*
X296461Y300595D01*
X299000Y308213D02*
Y313291D01*
X296461Y315830D01*
X291383D01*
X288843Y313291D01*
Y308213D01*
X291383Y305674D01*
X296461D01*
X299000Y308213D01*
Y320909D02*
X288843D01*
Y328526D01*
X291383Y331065D01*
X299000D01*
X286304Y338683D02*
X288843D01*
Y336144D01*
Y341222D01*
Y338683D01*
X296461D01*
X299000Y341222D01*
X288843Y348839D02*
X299000D01*
X293922D01*
X291383Y351379D01*
X288843Y353918D01*
Y356457D01*
X299000Y366614D02*
Y371692D01*
X296461Y374231D01*
X291383D01*
X288843Y371692D01*
Y366614D01*
X291383Y364075D01*
X296461D01*
X299000Y366614D01*
Y379310D02*
Y384388D01*
Y381849D01*
X283765D01*
Y379310D01*
Y407241D02*
X299000D01*
Y414858D01*
X296461Y417397D01*
X293922D01*
X291383Y414858D01*
Y407241D01*
Y414858D01*
X288843Y417397D01*
X286304D01*
X283765Y414858D01*
Y407241D01*
X299000Y425015D02*
Y430093D01*
X296461Y432632D01*
X291383D01*
X288843Y430093D01*
Y425015D01*
X291383Y422476D01*
X296461D01*
X299000Y425015D01*
X288843Y440250D02*
Y445328D01*
X291383Y447868D01*
X299000D01*
Y440250D01*
X296461Y437711D01*
X293922Y440250D01*
Y447868D01*
X288843Y452946D02*
X299000D01*
X293922D01*
X291383Y455485D01*
X288843Y458024D01*
Y460563D01*
X283765Y478338D02*
X299000D01*
Y470720D01*
X296461Y468181D01*
X291383D01*
X288843Y470720D01*
Y478338D01*
X335000Y291000D02*
X321004D01*
Y297998D01*
X323337Y300330D01*
X328002D01*
X330335Y297998D01*
Y291000D01*
Y295665D02*
X335000Y300330D01*
X321004Y314326D02*
Y304995D01*
X335000D01*
Y314326D01*
X328002Y304995D02*
Y309661D01*
X321004Y318991D02*
X330335D01*
X335000Y323656D01*
X330335Y328321D01*
X321004D01*
X335000Y332986D02*
X325670D01*
X321004Y337652D01*
X325670Y342317D01*
X335000D01*
X328002D01*
Y332986D01*
X335000Y346982D02*
Y351647D01*
Y349314D01*
X321004D01*
X323337Y346982D01*
X335000Y372640D02*
Y377305D01*
Y374973D01*
X321004D01*
X323337Y372640D01*
Y384303D02*
X321004Y386636D01*
Y391301D01*
X323337Y393633D01*
X332667D01*
X335000Y391301D01*
Y386636D01*
X332667Y384303D01*
X323337D01*
X335000Y398299D02*
X325670Y407629D01*
X323337Y412294D02*
X321004Y414627D01*
Y419292D01*
X323337Y421624D01*
X332667D01*
X335000Y419292D01*
Y414627D01*
X332667Y412294D01*
X323337D01*
X335000Y435620D02*
Y426290D01*
X325670Y435620D01*
X323337D01*
X321004Y433287D01*
Y428622D01*
X323337Y426290D01*
X335000Y440285D02*
X325670Y449615D01*
X335000Y454281D02*
Y458946D01*
Y456613D01*
X321004D01*
X323337Y454281D01*
X321004Y475274D02*
X323337Y470609D01*
X328002Y465943D01*
X332667D01*
X335000Y468276D01*
Y472941D01*
X332667Y475274D01*
X330335D01*
X328002Y472941D01*
Y465943D01*
M02*
