G04 Layer_Physical_Order=1*
G04 Layer_Color=255*
%FSLAX44Y44*%
%MOMM*%
G71*
G01*
G75*
%ADD10R,1.8000X0.6500*%
%ADD11R,0.9000X0.6000*%
%ADD12R,0.6000X0.9000*%
%ADD13R,0.9000X1.6000*%
%ADD14R,1.6000X0.9000*%
%ADD15C,0.2000*%
%ADD16C,1.5000*%
%ADD17R,1.5000X1.5000*%
%ADD18C,1.8500*%
%ADD19R,1.8500X1.8500*%
%ADD20R,1.5000X1.5000*%
%ADD21R,1.2000X1.2000*%
%ADD22C,1.2000*%
%ADD23O,2.5000X1.2000*%
%ADD24R,2.5000X1.2000*%
G36*
X80410Y128255D02*
X80460Y128005D01*
X80460Y127750D01*
X80485Y127691D01*
X80488Y127627D01*
X80488Y127627D01*
X80570Y127453D01*
X80607Y127264D01*
X80628Y127232D01*
X80639Y127207D01*
X80639Y127206D01*
X80639Y127206D01*
X80760Y127026D01*
X80847Y126817D01*
X80868Y126785D01*
X80901Y126751D01*
X80919Y126713D01*
X80969Y126668D01*
X81059Y126578D01*
X81200Y126366D01*
X81201Y126366D01*
X81201Y126366D01*
X81275Y126292D01*
X81321Y126261D01*
X81392Y126190D01*
X81429Y126165D01*
X81455Y126129D01*
X81595Y126042D01*
X81667Y125970D01*
X81714Y125939D01*
X81784Y125868D01*
X81816Y125847D01*
X82051Y125749D01*
X82233Y125628D01*
X82233Y125628D01*
X82264Y125607D01*
X82311Y125598D01*
X82314Y125596D01*
X82314Y125596D01*
X82349Y125590D01*
X82514Y125558D01*
X82749Y125460D01*
X83005Y125460D01*
X83255Y125410D01*
X174693D01*
X175591Y124673D01*
Y119372D01*
X174137Y118770D01*
X172039Y117161D01*
X170430Y115063D01*
X169418Y112621D01*
X169073Y110000D01*
X169418Y107379D01*
X170430Y104937D01*
X172039Y102839D01*
X174137Y101230D01*
X176579Y100218D01*
X179200Y99873D01*
X181821Y100218D01*
X184263Y101230D01*
X186361Y102839D01*
X187970Y104937D01*
X188982Y107379D01*
X189327Y110000D01*
X188982Y112621D01*
X187970Y115063D01*
X186361Y117161D01*
X184263Y118770D01*
X182809Y119372D01*
Y125410D01*
X200991D01*
Y119372D01*
X199537Y118770D01*
X197439Y117161D01*
X195830Y115063D01*
X194818Y112621D01*
X194473Y110000D01*
X194818Y107379D01*
X195830Y104937D01*
X197439Y102839D01*
X199537Y101230D01*
X201979Y100218D01*
X204600Y99873D01*
X207221Y100218D01*
X209663Y101230D01*
X211761Y102839D01*
X213370Y104937D01*
X214382Y107379D01*
X214727Y110000D01*
X214382Y112621D01*
X213370Y115063D01*
X211761Y117161D01*
X209663Y118770D01*
X208209Y119372D01*
Y125410D01*
X247410D01*
Y89590D01*
X233380D01*
X232827Y90860D01*
X233335Y91619D01*
X233609Y93000D01*
Y99960D01*
X240040D01*
Y120040D01*
X219960D01*
Y99960D01*
X226391D01*
Y94609D01*
X144000D01*
X142619Y94335D01*
X141448Y93552D01*
X140000Y92104D01*
X138552Y93552D01*
X137381Y94335D01*
X136000Y94609D01*
X55000D01*
X53619Y94335D01*
X52448Y93552D01*
X50448Y91552D01*
X49665Y90381D01*
X49548Y89790D01*
X41460D01*
Y87009D01*
X32266D01*
X31298Y89346D01*
X30797Y90000D01*
X29409Y91809D01*
X26946Y93699D01*
X24609Y94666D01*
Y112334D01*
X26946Y113301D01*
X29409Y115191D01*
X31298Y117654D01*
X32487Y120522D01*
X32892Y123600D01*
X32487Y126678D01*
X31298Y129546D01*
X29791Y131511D01*
X30417Y132781D01*
X68000D01*
X69381Y133055D01*
X70552Y133838D01*
X73052Y136338D01*
X73835Y137509D01*
X73924Y137960D01*
X76040D01*
Y140391D01*
X80410D01*
Y128255D01*
D02*
G37*
G36*
X15054Y113301D02*
X17922Y112114D01*
X21000Y111708D01*
X21065Y111717D01*
X22020Y110879D01*
Y96121D01*
X21065Y95283D01*
X21000Y95292D01*
X17922Y94887D01*
X15054Y93699D01*
X12879Y92030D01*
X11609Y92455D01*
Y114545D01*
X12879Y114970D01*
X15054Y113301D01*
D02*
G37*
G36*
X292492Y461999D02*
X292746D01*
X292757Y461992D01*
X293166Y461822D01*
X293179Y461820D01*
X293182Y461818D01*
X293361Y461638D01*
X293362Y461638D01*
X297639Y457361D01*
X297639Y457361D01*
X297640Y457360D01*
X297640Y457360D01*
X297820Y457180D01*
X297823Y457166D01*
X297992Y456757D01*
X298000Y456745D01*
X298000Y456745D01*
X298000Y456491D01*
X298000Y456491D01*
Y456490D01*
X298000Y456489D01*
Y364609D01*
X266671D01*
X266418Y365879D01*
X266807Y366040D01*
X268591Y367409D01*
X269960Y369193D01*
X270820Y371271D01*
X270947Y372230D01*
X241054D01*
X241112Y371789D01*
X239909Y371196D01*
X235052Y376052D01*
X233881Y376835D01*
X232500Y377109D01*
X118249D01*
X117960Y377807D01*
X116591Y379591D01*
X114807Y380960D01*
X112729Y381820D01*
X110500Y382114D01*
X97500D01*
X95271Y381820D01*
X93193Y380960D01*
X91409Y379591D01*
X90040Y377807D01*
X89180Y375729D01*
X88886Y373500D01*
X89180Y371271D01*
X90040Y369193D01*
X91409Y367409D01*
X93193Y366040D01*
X95271Y365180D01*
X97500Y364886D01*
X110500D01*
X112729Y365180D01*
X114807Y366040D01*
X116591Y367409D01*
X117960Y369193D01*
X118249Y369891D01*
X231005D01*
X242448Y358448D01*
X243619Y357665D01*
X245000Y357391D01*
X246295D01*
X246548Y356121D01*
X245193Y355560D01*
X243409Y354191D01*
X242040Y352407D01*
X241180Y350329D01*
X241054Y349370D01*
X270947D01*
X270820Y350329D01*
X269960Y352407D01*
X268591Y354191D01*
X266807Y355560D01*
X265452Y356121D01*
X265705Y357391D01*
X297102D01*
X298000Y356493D01*
X298000Y17647D01*
Y8396D01*
X297957Y8200D01*
X297956Y8173D01*
X297946Y8149D01*
X297907Y7952D01*
X297747Y7588D01*
X297633Y7424D01*
X297616Y7384D01*
X297575Y7366D01*
X297411Y7252D01*
X297048Y7093D01*
X296850Y7054D01*
X296826Y7044D01*
X296800Y7043D01*
X296603Y7000D01*
X291047D01*
X290833Y6957D01*
X290614Y6963D01*
X289599Y6791D01*
X289576Y6782D01*
X289552Y6783D01*
X289549Y6782D01*
X289366Y6709D01*
X289361D01*
X289359Y6708D01*
X289357Y6707D01*
X289354D01*
X289350Y6706D01*
X289350Y6706D01*
X289349D01*
X289282Y6679D01*
X289039Y6630D01*
X288871Y6561D01*
X288868Y6559D01*
X288864Y6558D01*
X288863Y6558D01*
X288752Y6483D01*
X288682Y6464D01*
X288610Y6408D01*
X288471Y6355D01*
X288447Y6332D01*
X288425Y6323D01*
X288425Y6323D01*
X288416Y6320D01*
X288416Y6320D01*
X288416Y6319D01*
X288407Y6313D01*
X288226Y6133D01*
X288061Y6029D01*
X288048Y6011D01*
X288031Y5999D01*
X288030Y5998D01*
X288024Y5995D01*
X287967Y5909D01*
X287884Y5844D01*
X287831Y5752D01*
X287736Y5661D01*
X287732Y5656D01*
X287731Y5654D01*
X287729Y5652D01*
X287715Y5622D01*
X287692Y5598D01*
X287622Y5428D01*
X287612Y5419D01*
X287590Y5365D01*
X287476Y5204D01*
X287469Y5189D01*
X287469Y5188D01*
X287469Y5188D01*
X287401Y5036D01*
X287386Y4971D01*
X287383Y4966D01*
X287383Y4966D01*
X287381Y4950D01*
X287347Y4799D01*
X287318Y4735D01*
X287318Y4732D01*
X287317Y4729D01*
X287315Y4722D01*
X287314Y4700D01*
X287226Y4485D01*
X287145Y4079D01*
X287051Y3853D01*
X287051Y3853D01*
X286953Y3617D01*
X286928Y3579D01*
X286871Y3535D01*
X286836Y3495D01*
X286756Y3354D01*
X286641Y3239D01*
X286633Y3227D01*
X286521Y2958D01*
X286435Y2830D01*
X286425Y2778D01*
X286331Y2614D01*
X286309Y2448D01*
X286245Y2294D01*
X286245Y1952D01*
X286201Y1612D01*
X286224Y1270D01*
X285226Y52D01*
X285081Y-0D01*
X164000Y0D01*
X155000D01*
Y3960D01*
X155040D01*
Y8960D01*
Y18040D01*
X155000D01*
Y61896D01*
X156995Y63891D01*
X158460D01*
Y60460D01*
X179540D01*
Y63891D01*
X202005D01*
X206391Y59505D01*
Y54772D01*
X204937Y54170D01*
X202839Y52561D01*
X201230Y50463D01*
X200218Y48021D01*
X199873Y45400D01*
X200218Y42779D01*
X201230Y40337D01*
X202839Y38239D01*
X204937Y36630D01*
X206391Y36028D01*
Y30040D01*
X199960D01*
Y9960D01*
X220040D01*
Y30040D01*
X213609D01*
Y36028D01*
X215063Y36630D01*
X217161Y38239D01*
X218770Y40337D01*
X219782Y42779D01*
X220127Y45400D01*
X219782Y48021D01*
X218770Y50463D01*
X217161Y52561D01*
X215063Y54170D01*
X213609Y54772D01*
Y61000D01*
X213335Y62381D01*
X212552Y63552D01*
X206052Y70052D01*
X204881Y70835D01*
X203500Y71109D01*
X179540D01*
Y74540D01*
X158460D01*
Y71109D01*
X155500D01*
X155000Y71520D01*
Y71010D01*
X154119Y70835D01*
X152948Y70052D01*
X148448Y65552D01*
X147810Y64598D01*
X146804Y64708D01*
X146540Y64809D01*
Y78540D01*
X145609D01*
Y87000D01*
X250000D01*
Y128000D01*
X208209D01*
Y262400D01*
X207935Y263781D01*
X207152Y264952D01*
X197652Y274452D01*
X196481Y275235D01*
X195100Y275509D01*
X118249D01*
X117960Y276207D01*
X116591Y277991D01*
X114807Y279360D01*
X112729Y280220D01*
X110500Y280514D01*
X97500D01*
X95271Y280220D01*
X93193Y279360D01*
X91409Y277991D01*
X90040Y276207D01*
X89180Y274129D01*
X88886Y271900D01*
X89180Y269671D01*
X90040Y267593D01*
X91409Y265809D01*
X93193Y264440D01*
X95271Y263580D01*
X97500Y263286D01*
X110500D01*
X112729Y263580D01*
X114807Y264440D01*
X116591Y265809D01*
X117960Y267593D01*
X118249Y268291D01*
X193605D01*
X200991Y260905D01*
Y128000D01*
X182809D01*
Y240800D01*
X182535Y242181D01*
X181752Y243352D01*
X176052Y249052D01*
X174881Y249835D01*
X173500Y250109D01*
X118249D01*
X117960Y250807D01*
X116591Y252591D01*
X114807Y253960D01*
X112729Y254820D01*
X110500Y255114D01*
X97500D01*
X95271Y254820D01*
X93193Y253960D01*
X91409Y252591D01*
X90040Y250807D01*
X89180Y248729D01*
X88886Y246500D01*
X89180Y244271D01*
X90040Y242193D01*
X91409Y240409D01*
X93193Y239040D01*
X95271Y238180D01*
X97500Y237886D01*
X110500D01*
X112729Y238180D01*
X114807Y239040D01*
X116591Y240409D01*
X117960Y242193D01*
X118249Y242891D01*
X172005D01*
X175591Y239305D01*
Y128000D01*
X83510D01*
X83510Y128000D01*
X83000Y129164D01*
Y140391D01*
X90196D01*
X91409Y138809D01*
X93193Y137440D01*
X95271Y136580D01*
X97500Y136286D01*
X110500D01*
X112729Y136580D01*
X114807Y137440D01*
X116591Y138809D01*
X117960Y140593D01*
X118820Y142671D01*
X119114Y144900D01*
X118820Y147129D01*
X117960Y149207D01*
X116591Y150991D01*
X114807Y152360D01*
X112729Y153220D01*
X110500Y153514D01*
X97500D01*
X95271Y153220D01*
X93193Y152360D01*
X91409Y150991D01*
X90040Y149207D01*
X89379Y147609D01*
X83000D01*
Y166391D01*
X89876D01*
X90040Y165993D01*
X91409Y164209D01*
X93193Y162840D01*
X95271Y161980D01*
X97500Y161686D01*
X110500D01*
X112729Y161980D01*
X114807Y162840D01*
X116591Y164209D01*
X117960Y165993D01*
X118820Y168071D01*
X119114Y170300D01*
X118820Y172529D01*
X117960Y174607D01*
X116591Y176391D01*
X114807Y177760D01*
X112729Y178620D01*
X110500Y178914D01*
X97500D01*
X95271Y178620D01*
X93193Y177760D01*
X91409Y176391D01*
X90040Y174607D01*
X89627Y173609D01*
X83000D01*
Y217491D01*
X89751D01*
X90040Y216793D01*
X91409Y215009D01*
X93193Y213640D01*
X95271Y212780D01*
X97500Y212486D01*
X110500D01*
X112729Y212780D01*
X114807Y213640D01*
X116591Y215009D01*
X117960Y216793D01*
X118820Y218871D01*
X119114Y221100D01*
X118820Y223329D01*
X117960Y225407D01*
X116591Y227191D01*
X114807Y228560D01*
X112729Y229420D01*
X110500Y229714D01*
X97500D01*
X95271Y229420D01*
X93193Y228560D01*
X91409Y227191D01*
X90040Y225407D01*
X89751Y224709D01*
X83000D01*
Y293691D01*
X89751D01*
X90040Y292993D01*
X91409Y291209D01*
X93193Y289840D01*
X95271Y288980D01*
X97500Y288686D01*
X110500D01*
X112729Y288980D01*
X114807Y289840D01*
X116591Y291209D01*
X117960Y292993D01*
X118820Y295071D01*
X119114Y297300D01*
X118820Y299529D01*
X117960Y301607D01*
X116591Y303391D01*
X114807Y304760D01*
X112729Y305620D01*
X110500Y305914D01*
X97500D01*
X95271Y305620D01*
X93193Y304760D01*
X91409Y303391D01*
X90040Y301607D01*
X89751Y300909D01*
X83000D01*
Y421991D01*
X89213D01*
X90040Y419993D01*
X91409Y418209D01*
X93193Y416840D01*
X95271Y415980D01*
X97500Y415686D01*
X110500D01*
X112729Y415980D01*
X114807Y416840D01*
X116591Y418209D01*
X117960Y419993D01*
X118820Y422071D01*
X119114Y424300D01*
X118820Y426529D01*
X117960Y428607D01*
X116591Y430391D01*
X114807Y431760D01*
X112729Y432620D01*
X110500Y432914D01*
X97500D01*
X95271Y432620D01*
X93193Y431760D01*
X91409Y430391D01*
X90503Y429209D01*
X83000D01*
Y446091D01*
X89751D01*
X90040Y445393D01*
X91409Y443609D01*
X93193Y442240D01*
X95271Y441380D01*
X97500Y441086D01*
X110500D01*
X112729Y441380D01*
X114807Y442240D01*
X116591Y443609D01*
X117960Y445393D01*
X118820Y447471D01*
X119114Y449700D01*
X118820Y451929D01*
X117960Y454007D01*
X116591Y455791D01*
X114807Y457160D01*
X112729Y458020D01*
X110500Y458314D01*
X97500D01*
X95271Y458020D01*
X93193Y457160D01*
X91409Y455791D01*
X90040Y454007D01*
X89751Y453309D01*
X83000D01*
Y461490D01*
X83000Y461490D01*
X84164Y462000D01*
X292488D01*
X292492Y461999D01*
D02*
G37*
G36*
X350000Y499102D02*
Y-0D01*
X350000Y-0D01*
X289491D01*
X289403Y44D01*
X289191Y161D01*
X289175Y174D01*
X289112Y240D01*
X288864Y603D01*
X288785Y1786D01*
X288793Y1798D01*
X288828Y1839D01*
X288984Y1995D01*
X289107Y2178D01*
X289204Y2414D01*
X289346Y2626D01*
X289538Y3088D01*
X289587Y3338D01*
X289685Y3574D01*
X289766Y3980D01*
X289833Y4131D01*
X289840Y4147D01*
X289840Y4147D01*
X289842Y4155D01*
X289846Y4160D01*
X289855Y4166D01*
X289859Y4167D01*
X289860Y4167D01*
X289861Y4168D01*
X290030Y4237D01*
X290033Y4238D01*
X291047Y4410D01*
X296835D01*
X296861Y4415D01*
X296887Y4411D01*
X297356Y4514D01*
X297826Y4607D01*
X297848Y4622D01*
X297873Y4627D01*
X298683Y4982D01*
X299056Y5242D01*
X299439Y5487D01*
X299469Y5530D01*
X299512Y5559D01*
X299757Y5943D01*
X300018Y6316D01*
X300372Y7126D01*
X300378Y7151D01*
X300393Y7173D01*
X300486Y7644D01*
X300589Y8113D01*
X300585Y8139D01*
X300590Y8164D01*
Y17647D01*
X301763Y18133D01*
X302448Y17448D01*
X303619Y16665D01*
X305000Y16391D01*
X319960D01*
Y9960D01*
X340040D01*
Y30040D01*
X319960D01*
Y23609D01*
X306609D01*
Y358000D01*
X306335Y359381D01*
X305552Y360552D01*
X302552Y363552D01*
X301381Y364335D01*
X300567Y364496D01*
X300590Y364609D01*
Y456490D01*
X300590Y456491D01*
X300590Y456745D01*
X300540Y456995D01*
X300540Y457249D01*
X300529Y457277D01*
X300528Y457307D01*
X300528Y457307D01*
X300437Y457514D01*
X300393Y457736D01*
X300385Y457748D01*
X300384Y457748D01*
X300215Y458157D01*
X300215Y458157D01*
X300212Y458171D01*
X300105Y458331D01*
X300040Y458512D01*
X300040Y458513D01*
X299997Y458560D01*
X299973Y458619D01*
X299793Y458799D01*
X299651Y459011D01*
X299471Y459191D01*
X299471Y459191D01*
X299471Y459192D01*
X295013Y463649D01*
X294800Y463792D01*
X294618Y463973D01*
X294617Y463974D01*
X294391Y464067D01*
X294189Y464204D01*
X294187Y464205D01*
X294179Y464207D01*
X294173Y464211D01*
X294160Y464213D01*
X294157Y464215D01*
X293748Y464384D01*
X293746Y464385D01*
X293735Y464393D01*
X293726Y464394D01*
X293718Y464400D01*
X293717Y464400D01*
X293482Y464445D01*
X293262Y464537D01*
X293260Y464538D01*
X293255Y464538D01*
X293251Y464539D01*
X292997D01*
X292744Y464590D01*
X83255D01*
X83005Y464540D01*
X82750Y464540D01*
X82691Y464515D01*
X82627Y464512D01*
X82627Y464512D01*
X82453Y464430D01*
X82264Y464393D01*
X82232Y464371D01*
X82207Y464361D01*
X82206Y464361D01*
X82206Y464361D01*
X82026Y464240D01*
X81817Y464154D01*
X81785Y464132D01*
X81751Y464099D01*
X81713Y464081D01*
X81668Y464031D01*
X81578Y463941D01*
X81366Y463800D01*
X81366Y463799D01*
X81366Y463799D01*
X81292Y463725D01*
X81261Y463679D01*
X81190Y463608D01*
X81165Y463571D01*
X81129Y463545D01*
X81042Y463405D01*
X80970Y463333D01*
X80939Y463286D01*
X80868Y463216D01*
X80847Y463184D01*
X80749Y462948D01*
X80628Y462767D01*
X80628Y462767D01*
X80607Y462736D01*
X80598Y462689D01*
X80596Y462686D01*
X80596Y462686D01*
X80590Y462651D01*
X80558Y462486D01*
X80460Y462251D01*
X80460Y461995D01*
X80410Y461745D01*
Y454207D01*
X79673Y453309D01*
X68223D01*
X68182Y453621D01*
X67170Y456063D01*
X65561Y458161D01*
X63463Y459770D01*
X61021Y460782D01*
X58400Y461127D01*
X55779Y460782D01*
X53337Y459770D01*
X51239Y458161D01*
X49630Y456063D01*
X48618Y453621D01*
X48273Y451000D01*
X48618Y448379D01*
X49630Y445937D01*
X51239Y443839D01*
X53337Y442230D01*
X55779Y441218D01*
X58400Y440873D01*
X61021Y441218D01*
X63463Y442230D01*
X65561Y443839D01*
X67170Y445937D01*
X67234Y446091D01*
X80410D01*
Y429209D01*
X67772D01*
X67170Y430663D01*
X65561Y432761D01*
X63463Y434370D01*
X61021Y435382D01*
X58400Y435727D01*
X55779Y435382D01*
X53337Y434370D01*
X51239Y432761D01*
X49630Y430663D01*
X48618Y428221D01*
X48273Y425600D01*
X48618Y422979D01*
X49630Y420537D01*
X51239Y418439D01*
X53337Y416830D01*
X55779Y415818D01*
X58400Y415473D01*
X61021Y415818D01*
X63463Y416830D01*
X65561Y418439D01*
X67170Y420537D01*
X67772Y421991D01*
X80410D01*
Y300909D01*
X53609D01*
Y365000D01*
X53335Y366381D01*
X52552Y367552D01*
X50552Y369552D01*
X49381Y370335D01*
X48000Y370609D01*
X42040D01*
Y377040D01*
X21960D01*
Y356960D01*
X42040D01*
Y363391D01*
X46391D01*
Y299000D01*
X46665Y297619D01*
X47448Y296448D01*
X49148Y294748D01*
X50319Y293965D01*
X51700Y293691D01*
X80410D01*
Y224709D01*
X66395D01*
X60609Y230495D01*
Y277000D01*
X60335Y278381D01*
X59552Y279552D01*
X56552Y282552D01*
X55381Y283335D01*
X54000Y283609D01*
X42040D01*
Y290040D01*
X21960D01*
Y269960D01*
X42040D01*
Y276391D01*
X52505D01*
X53391Y275505D01*
Y229000D01*
X53665Y227619D01*
X54448Y226448D01*
X62348Y218548D01*
X63519Y217765D01*
X64900Y217491D01*
X80410D01*
Y173609D01*
X76040D01*
Y177040D01*
X73609D01*
Y185000D01*
X73335Y186381D01*
X72552Y187552D01*
X69552Y190552D01*
X68381Y191335D01*
X67000Y191609D01*
X24000D01*
X22619Y191335D01*
X21448Y190552D01*
X18448Y187552D01*
X17665Y186381D01*
X17627Y186190D01*
X9210D01*
Y162610D01*
X32790D01*
Y184391D01*
X65505D01*
X66391Y183505D01*
Y177040D01*
X64960D01*
Y162960D01*
X76040D01*
Y166391D01*
X80410D01*
Y147609D01*
X76040D01*
Y152040D01*
X64960D01*
Y139999D01*
X61040D01*
Y143730D01*
X49960D01*
Y139999D01*
X11390D01*
X10009Y139725D01*
X8838Y138942D01*
X5448Y135552D01*
X4665Y134381D01*
X4391Y133000D01*
Y90000D01*
Y35000D01*
X4665Y33619D01*
X5448Y32448D01*
X7848Y30048D01*
X9019Y29265D01*
X9210Y29227D01*
Y20810D01*
X32790D01*
Y44390D01*
X11609D01*
Y74345D01*
X12879Y74770D01*
X15054Y73102D01*
X17922Y71913D01*
X21000Y71508D01*
X24078Y71913D01*
X26946Y73102D01*
X29409Y74991D01*
X31298Y77454D01*
X32266Y79791D01*
X41460D01*
Y78210D01*
X49391D01*
Y40540D01*
X43960D01*
Y23460D01*
X61040D01*
Y40540D01*
X56609D01*
Y78210D01*
X64540D01*
Y87391D01*
X69460D01*
Y85270D01*
X92540D01*
Y87391D01*
X134391D01*
Y78540D01*
X132460D01*
Y57460D01*
X137391D01*
Y52040D01*
X134960D01*
Y50109D01*
X130040D01*
Y51040D01*
X118960D01*
Y36960D01*
X130040D01*
Y42891D01*
X134960D01*
Y40960D01*
X147391D01*
Y37040D01*
X134960D01*
Y25960D01*
X144391D01*
Y18040D01*
X143960D01*
Y6569D01*
X140040D01*
Y18040D01*
X128960D01*
Y13109D01*
X118040D01*
Y15040D01*
X103960D01*
Y3960D01*
X118040D01*
Y5891D01*
X128960D01*
Y3960D01*
X130998D01*
X131165Y3119D01*
X131948Y1948D01*
X132626Y1270D01*
X132100Y-0D01*
X898D01*
X-0Y898D01*
Y500000D01*
X-0Y500000D01*
X349102D01*
X350000Y499102D01*
D02*
G37*
%LPC*%
G36*
X152530Y119959D02*
X151179Y119782D01*
X148737Y118770D01*
X146639Y117161D01*
X145030Y115063D01*
X144018Y112621D01*
X143841Y111270D01*
X152530D01*
Y119959D01*
D02*
G37*
G36*
X61040Y152040D02*
X56770D01*
Y146270D01*
X61040D01*
Y152040D01*
D02*
G37*
G36*
X340040Y125040D02*
X319960D01*
Y104960D01*
X340040D01*
Y125040D01*
D02*
G37*
G36*
X330000Y150527D02*
X327379Y150182D01*
X324937Y149170D01*
X322839Y147561D01*
X321230Y145463D01*
X320218Y143021D01*
X319873Y140400D01*
X320218Y137779D01*
X321230Y135337D01*
X322839Y133239D01*
X324937Y131630D01*
X327379Y130618D01*
X330000Y130273D01*
X332621Y130618D01*
X335063Y131630D01*
X337161Y133239D01*
X338770Y135337D01*
X339782Y137779D01*
X340127Y140400D01*
X339782Y143021D01*
X338770Y145463D01*
X337161Y147561D01*
X335063Y149170D01*
X332621Y150182D01*
X330000Y150527D01*
D02*
G37*
G36*
X54230Y152040D02*
X49960D01*
Y146270D01*
X54230D01*
Y152040D01*
D02*
G37*
G36*
X155070Y119959D02*
Y111270D01*
X163759D01*
X163582Y112621D01*
X162570Y115063D01*
X160961Y117161D01*
X158863Y118770D01*
X156421Y119782D01*
X155070Y119959D01*
D02*
G37*
G36*
X92540Y82730D02*
X82270D01*
Y78210D01*
X92540D01*
Y82730D01*
D02*
G37*
G36*
X79730D02*
X69460D01*
Y78210D01*
X79730D01*
Y82730D01*
D02*
G37*
G36*
X331270Y80759D02*
Y72070D01*
X339959D01*
X339782Y73421D01*
X338770Y75863D01*
X337161Y77961D01*
X335063Y79570D01*
X332621Y80582D01*
X331270Y80759D01*
D02*
G37*
G36*
X163759Y108730D02*
X155070D01*
Y100041D01*
X156421Y100218D01*
X158863Y101230D01*
X160961Y102839D01*
X162570Y104937D01*
X163582Y107379D01*
X163759Y108730D01*
D02*
G37*
G36*
X152530D02*
X143841D01*
X144018Y107379D01*
X145030Y104937D01*
X146639Y102839D01*
X148737Y101230D01*
X151179Y100218D01*
X152530Y100041D01*
Y108730D01*
D02*
G37*
G36*
X128400Y120127D02*
X125779Y119782D01*
X123337Y118770D01*
X121239Y117161D01*
X119630Y115063D01*
X118618Y112621D01*
X118273Y110000D01*
X118618Y107379D01*
X119630Y104937D01*
X121239Y102839D01*
X123337Y101230D01*
X125779Y100218D01*
X128400Y99873D01*
X131021Y100218D01*
X133463Y101230D01*
X135561Y102839D01*
X137170Y104937D01*
X138182Y107379D01*
X138527Y110000D01*
X138182Y112621D01*
X137170Y115063D01*
X135561Y117161D01*
X133463Y118770D01*
X131021Y119782D01*
X128400Y120127D01*
D02*
G37*
G36*
X328730Y164530D02*
X320041D01*
X320218Y163179D01*
X321230Y160737D01*
X322839Y158639D01*
X324937Y157030D01*
X327379Y156018D01*
X328730Y155841D01*
Y164530D01*
D02*
G37*
G36*
X340040Y220040D02*
X319960D01*
Y199960D01*
X340040D01*
Y220040D01*
D02*
G37*
G36*
X110500Y204314D02*
X97500D01*
X95271Y204020D01*
X93193Y203160D01*
X91409Y201791D01*
X90040Y200007D01*
X89180Y197929D01*
X88886Y195700D01*
X89180Y193471D01*
X90040Y191393D01*
X91409Y189609D01*
X93193Y188240D01*
X95271Y187380D01*
X97500Y187086D01*
X110500D01*
X112729Y187380D01*
X114807Y188240D01*
X116591Y189609D01*
X117960Y191393D01*
X118820Y193471D01*
X119114Y195700D01*
X118820Y197929D01*
X117960Y200007D01*
X116591Y201791D01*
X114807Y203160D01*
X112729Y204020D01*
X110500Y204314D01*
D02*
G37*
G36*
X262500D02*
X249500D01*
X247271Y204020D01*
X245193Y203160D01*
X243409Y201791D01*
X242040Y200007D01*
X241180Y197929D01*
X240886Y195700D01*
X241180Y193471D01*
X242040Y191393D01*
X243409Y189609D01*
X245193Y188240D01*
X247271Y187380D01*
X249500Y187086D01*
X262500D01*
X264729Y187380D01*
X266807Y188240D01*
X268591Y189609D01*
X269960Y191393D01*
X270249Y192091D01*
X271805D01*
X273391Y190505D01*
Y173324D01*
X272999Y173162D01*
X272121Y172940D01*
X271081Y173635D01*
X270298Y173790D01*
X269960Y174607D01*
X268591Y176391D01*
X266807Y177760D01*
X264729Y178620D01*
X262500Y178914D01*
X249500D01*
X247271Y178620D01*
X245193Y177760D01*
X243409Y176391D01*
X242040Y174607D01*
X241180Y172529D01*
X240886Y170300D01*
X241180Y168071D01*
X242040Y165993D01*
X243409Y164209D01*
X245193Y162840D01*
X247271Y161980D01*
X249500Y161686D01*
X262500D01*
X264729Y161980D01*
X266807Y162840D01*
X267292Y163212D01*
X268431Y162651D01*
Y152549D01*
X267292Y151988D01*
X266807Y152360D01*
X264729Y153220D01*
X262500Y153514D01*
X249500D01*
X247271Y153220D01*
X245193Y152360D01*
X243409Y150991D01*
X242040Y149207D01*
X241180Y147129D01*
X240886Y144900D01*
X241180Y142671D01*
X242040Y140593D01*
X243409Y138809D01*
X245193Y137440D01*
X247271Y136580D01*
X249500Y136286D01*
X262500D01*
X264729Y136580D01*
X266807Y137440D01*
X267292Y137812D01*
X268431Y137251D01*
Y55535D01*
X266544Y53648D01*
X265863Y54170D01*
X263421Y55182D01*
X260800Y55527D01*
X258179Y55182D01*
X255737Y54170D01*
X253639Y52561D01*
X252030Y50463D01*
X251018Y48021D01*
X250673Y45400D01*
X251018Y42779D01*
X252030Y40337D01*
X253639Y38239D01*
X255737Y36630D01*
X258179Y35618D01*
X260800Y35273D01*
X263421Y35618D01*
X265863Y36630D01*
X267961Y38239D01*
X269570Y40337D01*
X270281Y42052D01*
X271551Y41800D01*
Y25846D01*
X270596Y25031D01*
X269391Y25296D01*
X267961Y27161D01*
X265863Y28770D01*
X263421Y29782D01*
X260800Y30127D01*
X258179Y29782D01*
X255737Y28770D01*
X253639Y27161D01*
X252030Y25063D01*
X251018Y22621D01*
X250673Y20000D01*
X251018Y17379D01*
X252030Y14937D01*
X253639Y12839D01*
X255737Y11230D01*
X258179Y10218D01*
X260800Y9873D01*
X263421Y10218D01*
X265863Y11230D01*
X267961Y12839D01*
X269570Y14937D01*
X270172Y16391D01*
X271000D01*
X272381Y16665D01*
X273552Y17448D01*
X275062Y18957D01*
X276264Y18549D01*
X276418Y17379D01*
X277430Y14937D01*
X279039Y12839D01*
X281137Y11230D01*
X283579Y10218D01*
X284930Y10041D01*
Y20000D01*
Y29959D01*
X283579Y29782D01*
X281137Y28770D01*
X280039Y27928D01*
X278769Y28554D01*
Y36846D01*
X280039Y37472D01*
X281137Y36630D01*
X283579Y35618D01*
X284930Y35441D01*
Y45400D01*
Y55359D01*
X283579Y55182D01*
X281879Y54478D01*
X280609Y55302D01*
Y192000D01*
X280335Y193381D01*
X279552Y194552D01*
X275852Y198252D01*
X274681Y199035D01*
X273300Y199309D01*
X270249D01*
X269960Y200007D01*
X268591Y201791D01*
X266807Y203160D01*
X264729Y204020D01*
X262500Y204314D01*
D02*
G37*
G36*
X254730Y219830D02*
X241054D01*
X241180Y218871D01*
X242040Y216793D01*
X243409Y215009D01*
X245193Y213640D01*
X247271Y212780D01*
X249500Y212486D01*
X254730D01*
Y219830D01*
D02*
G37*
G36*
X41959Y227930D02*
X33270D01*
Y219241D01*
X34621Y219418D01*
X37063Y220430D01*
X39161Y222039D01*
X40770Y224137D01*
X41782Y226579D01*
X41959Y227930D01*
D02*
G37*
G36*
X30730D02*
X22041D01*
X22218Y226579D01*
X23230Y224137D01*
X24839Y222039D01*
X26937Y220430D01*
X29379Y219418D01*
X30730Y219241D01*
Y227930D01*
D02*
G37*
G36*
X270947Y219830D02*
X257270D01*
Y212486D01*
X262500D01*
X264729Y212780D01*
X266807Y213640D01*
X268591Y215009D01*
X269960Y216793D01*
X270820Y218871D01*
X270947Y219830D01*
D02*
G37*
G36*
X61040Y168730D02*
X56770D01*
Y162960D01*
X61040D01*
Y168730D01*
D02*
G37*
G36*
X54230D02*
X49960D01*
Y162960D01*
X54230D01*
Y168730D01*
D02*
G37*
G36*
X339959Y164530D02*
X331270D01*
Y155841D01*
X332621Y156018D01*
X335063Y157030D01*
X337161Y158639D01*
X338770Y160737D01*
X339782Y163179D01*
X339959Y164530D01*
D02*
G37*
G36*
X328730Y175759D02*
X327379Y175582D01*
X324937Y174570D01*
X322839Y172961D01*
X321230Y170863D01*
X320218Y168421D01*
X320041Y167070D01*
X328730D01*
Y175759D01*
D02*
G37*
G36*
X61040Y177040D02*
X56770D01*
Y171270D01*
X61040D01*
Y177040D01*
D02*
G37*
G36*
X54230D02*
X49960D01*
Y171270D01*
X54230D01*
Y177040D01*
D02*
G37*
G36*
X331270Y175759D02*
Y167070D01*
X339959D01*
X339782Y168421D01*
X338770Y170863D01*
X337161Y172961D01*
X335063Y174570D01*
X332621Y175582D01*
X331270Y175759D01*
D02*
G37*
G36*
X167730Y37230D02*
X158460D01*
Y31460D01*
X167730D01*
Y37230D01*
D02*
G37*
G36*
X118040Y30040D02*
X112270D01*
Y25770D01*
X118040D01*
Y30040D01*
D02*
G37*
G36*
X109730D02*
X103960D01*
Y25770D01*
X109730D01*
Y30040D01*
D02*
G37*
G36*
X179540Y37230D02*
X170270D01*
Y31460D01*
X179540D01*
Y37230D01*
D02*
G37*
G36*
X330000Y55527D02*
X327379Y55182D01*
X324937Y54170D01*
X322839Y52561D01*
X321230Y50463D01*
X320218Y48021D01*
X319873Y45400D01*
X320218Y42779D01*
X321230Y40337D01*
X322839Y38239D01*
X324937Y36630D01*
X327379Y35618D01*
X330000Y35273D01*
X332621Y35618D01*
X335063Y36630D01*
X337161Y38239D01*
X338770Y40337D01*
X339782Y42779D01*
X340127Y45400D01*
X339782Y48021D01*
X338770Y50463D01*
X337161Y52561D01*
X335063Y54170D01*
X332621Y55182D01*
X330000Y55527D01*
D02*
G37*
G36*
X88770Y40447D02*
Y33270D01*
X95947D01*
X95820Y34229D01*
X94960Y36307D01*
X93591Y38091D01*
X91807Y39460D01*
X89729Y40320D01*
X88770Y40447D01*
D02*
G37*
G36*
X86230D02*
X85271Y40320D01*
X83193Y39460D01*
X81409Y38091D01*
X80040Y36307D01*
X79180Y34229D01*
X79054Y33270D01*
X86230D01*
Y40447D01*
D02*
G37*
G36*
X109730Y23230D02*
X103960D01*
Y18960D01*
X109730D01*
Y23230D01*
D02*
G37*
G36*
X296159Y18730D02*
X287470D01*
Y10041D01*
X288821Y10218D01*
X291263Y11230D01*
X293361Y12839D01*
X294970Y14937D01*
X295982Y17379D01*
X296159Y18730D01*
D02*
G37*
G36*
X235400Y55527D02*
X232779Y55182D01*
X230337Y54170D01*
X228239Y52561D01*
X226630Y50463D01*
X225618Y48021D01*
X225273Y45400D01*
X225618Y42779D01*
X226630Y40337D01*
X228239Y38239D01*
X230337Y36630D01*
X231791Y36028D01*
Y29372D01*
X230337Y28770D01*
X228239Y27161D01*
X226630Y25063D01*
X225618Y22621D01*
X225273Y20000D01*
X225618Y17379D01*
X226630Y14937D01*
X228239Y12839D01*
X230337Y11230D01*
X232779Y10218D01*
X235400Y9873D01*
X238021Y10218D01*
X240463Y11230D01*
X242561Y12839D01*
X244170Y14937D01*
X245182Y17379D01*
X245527Y20000D01*
X245182Y22621D01*
X244170Y25063D01*
X242561Y27161D01*
X240463Y28770D01*
X239009Y29372D01*
Y36028D01*
X240463Y36630D01*
X242561Y38239D01*
X244170Y40337D01*
X245182Y42779D01*
X245527Y45400D01*
X245182Y48021D01*
X244170Y50463D01*
X242561Y52561D01*
X240463Y54170D01*
X238021Y55182D01*
X235400Y55527D01*
D02*
G37*
G36*
X118040Y23230D02*
X112270D01*
Y18960D01*
X118040D01*
Y23230D01*
D02*
G37*
G36*
X95947Y30730D02*
X88770D01*
Y23554D01*
X89729Y23680D01*
X91807Y24540D01*
X93591Y25909D01*
X94960Y27693D01*
X95820Y29771D01*
X95947Y30730D01*
D02*
G37*
G36*
X86230D02*
X79054D01*
X79180Y29771D01*
X80040Y27693D01*
X81409Y25909D01*
X83193Y24540D01*
X85271Y23680D01*
X86230Y23554D01*
Y30730D01*
D02*
G37*
G36*
X287470Y29959D02*
Y21270D01*
X296159D01*
X295982Y22621D01*
X294970Y25063D01*
X293361Y27161D01*
X291263Y28770D01*
X288821Y29782D01*
X287470Y29959D01*
D02*
G37*
G36*
X296159Y44130D02*
X287470D01*
Y35441D01*
X288821Y35618D01*
X291263Y36630D01*
X293361Y38239D01*
X294970Y40337D01*
X295982Y42779D01*
X296159Y44130D01*
D02*
G37*
G36*
X328730Y69530D02*
X320041D01*
X320218Y68179D01*
X321230Y65737D01*
X322839Y63639D01*
X324937Y62030D01*
X327379Y61018D01*
X328730Y60841D01*
Y69530D01*
D02*
G37*
G36*
X117540Y66730D02*
X111770D01*
Y57460D01*
X117540D01*
Y66730D01*
D02*
G37*
G36*
X109230D02*
X103460D01*
Y57460D01*
X109230D01*
Y66730D01*
D02*
G37*
G36*
X339959Y69530D02*
X331270D01*
Y60841D01*
X332621Y61018D01*
X335063Y62030D01*
X337161Y63639D01*
X338770Y65737D01*
X339782Y68179D01*
X339959Y69530D01*
D02*
G37*
G36*
X328730Y80759D02*
X327379Y80582D01*
X324937Y79570D01*
X322839Y77961D01*
X321230Y75863D01*
X320218Y73421D01*
X320041Y72070D01*
X328730D01*
Y80759D01*
D02*
G37*
G36*
X117540Y78540D02*
X111770D01*
Y69270D01*
X117540D01*
Y78540D01*
D02*
G37*
G36*
X109230D02*
X103460D01*
Y69270D01*
X109230D01*
Y78540D01*
D02*
G37*
G36*
X167730Y45540D02*
X158460D01*
Y39770D01*
X167730D01*
Y45540D01*
D02*
G37*
G36*
X115040Y42730D02*
X110770D01*
Y36960D01*
X115040D01*
Y42730D01*
D02*
G37*
G36*
X108230D02*
X103960D01*
Y36960D01*
X108230D01*
Y42730D01*
D02*
G37*
G36*
X179540Y45540D02*
X170270D01*
Y39770D01*
X179540D01*
Y45540D01*
D02*
G37*
G36*
X287470Y55359D02*
Y46670D01*
X296159D01*
X295982Y48021D01*
X294970Y50463D01*
X293361Y52561D01*
X291263Y54170D01*
X288821Y55182D01*
X287470Y55359D01*
D02*
G37*
G36*
X115040Y51040D02*
X110770D01*
Y45270D01*
X115040D01*
Y51040D01*
D02*
G37*
G36*
X108230D02*
X103960D01*
Y45270D01*
X108230D01*
Y51040D01*
D02*
G37*
G36*
X254730Y229714D02*
X249500D01*
X247271Y229420D01*
X245193Y228560D01*
X243409Y227191D01*
X242040Y225407D01*
X241180Y223329D01*
X241054Y222370D01*
X254730D01*
Y229714D01*
D02*
G37*
G36*
Y407514D02*
X249500D01*
X247271Y407220D01*
X245193Y406360D01*
X243409Y404991D01*
X242040Y403207D01*
X241180Y401129D01*
X241054Y400170D01*
X254730D01*
Y407514D01*
D02*
G37*
G36*
X270947Y397630D02*
X257270D01*
Y390286D01*
X262500D01*
X264729Y390580D01*
X266807Y391440D01*
X268591Y392809D01*
X269960Y394593D01*
X270820Y396671D01*
X270947Y397630D01*
D02*
G37*
G36*
X254730D02*
X241054D01*
X241180Y396671D01*
X242040Y394593D01*
X243409Y392809D01*
X245193Y391440D01*
X247271Y390580D01*
X249500Y390286D01*
X254730D01*
Y397630D01*
D02*
G37*
G36*
X262500Y407514D02*
X257270D01*
Y400170D01*
X270947D01*
X270820Y401129D01*
X269960Y403207D01*
X268591Y404991D01*
X266807Y406360D01*
X264729Y407220D01*
X262500Y407514D01*
D02*
G37*
G36*
X254730Y423030D02*
X241054D01*
X241180Y422071D01*
X242040Y419993D01*
X243409Y418209D01*
X245193Y416840D01*
X247271Y415980D01*
X249500Y415686D01*
X254730D01*
Y423030D01*
D02*
G37*
G36*
X42959Y424330D02*
X34270D01*
Y415641D01*
X35621Y415818D01*
X38063Y416830D01*
X40161Y418439D01*
X41770Y420537D01*
X42782Y422979D01*
X42959Y424330D01*
D02*
G37*
G36*
X31730D02*
X23041D01*
X23218Y422979D01*
X24230Y420537D01*
X25839Y418439D01*
X27937Y416830D01*
X30379Y415818D01*
X31730Y415641D01*
Y424330D01*
D02*
G37*
G36*
X254730Y346830D02*
X241054D01*
X241180Y345871D01*
X242040Y343793D01*
X243409Y342009D01*
X245193Y340640D01*
X247271Y339780D01*
X249500Y339486D01*
X254730D01*
Y346830D01*
D02*
G37*
G36*
X110500Y356714D02*
X97500D01*
X95271Y356420D01*
X93193Y355560D01*
X91409Y354191D01*
X90040Y352407D01*
X89180Y350329D01*
X88886Y348100D01*
X89180Y345871D01*
X90040Y343793D01*
X91409Y342009D01*
X93193Y340640D01*
X95271Y339780D01*
X97500Y339486D01*
X110500D01*
X112729Y339780D01*
X114807Y340640D01*
X116591Y342009D01*
X117960Y343793D01*
X118820Y345871D01*
X119114Y348100D01*
X118820Y350329D01*
X117960Y352407D01*
X116591Y354191D01*
X114807Y355560D01*
X112729Y356420D01*
X110500Y356714D01*
D02*
G37*
G36*
X32000Y351727D02*
X29379Y351382D01*
X26937Y350370D01*
X24839Y348761D01*
X23230Y346663D01*
X22218Y344221D01*
X21873Y341600D01*
X22218Y338979D01*
X23230Y336537D01*
X24839Y334439D01*
X26937Y332830D01*
X29379Y331818D01*
X32000Y331473D01*
X34621Y331818D01*
X37063Y332830D01*
X39161Y334439D01*
X40770Y336537D01*
X41782Y338979D01*
X42127Y341600D01*
X41782Y344221D01*
X40770Y346663D01*
X39161Y348761D01*
X37063Y350370D01*
X34621Y351382D01*
X32000Y351727D01*
D02*
G37*
G36*
X270947Y346830D02*
X257270D01*
Y339486D01*
X262500D01*
X264729Y339780D01*
X266807Y340640D01*
X268591Y342009D01*
X269960Y343793D01*
X270820Y345871D01*
X270947Y346830D01*
D02*
G37*
G36*
X110500Y407514D02*
X97500D01*
X95271Y407220D01*
X93193Y406360D01*
X91409Y404991D01*
X90040Y403207D01*
X89180Y401129D01*
X88886Y398900D01*
X89180Y396671D01*
X90040Y394593D01*
X91409Y392809D01*
X93193Y391440D01*
X95271Y390580D01*
X97500Y390286D01*
X110500D01*
X112729Y390580D01*
X114807Y391440D01*
X116591Y392809D01*
X117960Y394593D01*
X118820Y396671D01*
X119114Y398900D01*
X118820Y401129D01*
X117960Y403207D01*
X116591Y404991D01*
X114807Y406360D01*
X112729Y407220D01*
X110500Y407514D01*
D02*
G37*
G36*
X262500Y382114D02*
X257270D01*
Y374770D01*
X270947D01*
X270820Y375729D01*
X269960Y377807D01*
X268591Y379591D01*
X266807Y380960D01*
X264729Y381820D01*
X262500Y382114D01*
D02*
G37*
G36*
X254730D02*
X249500D01*
X247271Y381820D01*
X245193Y380960D01*
X243409Y379591D01*
X242040Y377807D01*
X241180Y375729D01*
X241054Y374770D01*
X254730D01*
Y382114D01*
D02*
G37*
G36*
X270947Y423030D02*
X257270D01*
Y415686D01*
X262500D01*
X264729Y415980D01*
X266807Y416840D01*
X268591Y418209D01*
X269960Y419993D01*
X270820Y422071D01*
X270947Y423030D01*
D02*
G37*
G36*
X262500Y483714D02*
X249500D01*
X247271Y483420D01*
X245193Y482560D01*
X243409Y481191D01*
X242040Y479407D01*
X241180Y477329D01*
X240886Y475100D01*
X241180Y472871D01*
X242040Y470793D01*
X243409Y469009D01*
X245193Y467640D01*
X247271Y466780D01*
X249500Y466486D01*
X262500D01*
X264729Y466780D01*
X266807Y467640D01*
X268591Y469009D01*
X269960Y470793D01*
X270820Y472871D01*
X271114Y475100D01*
X270820Y477329D01*
X269960Y479407D01*
X268591Y481191D01*
X266807Y482560D01*
X264729Y483420D01*
X262500Y483714D01*
D02*
G37*
G36*
Y458314D02*
X257270D01*
Y450970D01*
X270947D01*
X270820Y451929D01*
X269960Y454007D01*
X268591Y455791D01*
X266807Y457160D01*
X264729Y458020D01*
X262500Y458314D01*
D02*
G37*
G36*
X254730D02*
X249500D01*
X247271Y458020D01*
X245193Y457160D01*
X243409Y455791D01*
X242040Y454007D01*
X241180Y451929D01*
X241054Y450970D01*
X254730D01*
Y458314D01*
D02*
G37*
G36*
X102730Y473830D02*
X88960D01*
Y466560D01*
X102730D01*
Y473830D01*
D02*
G37*
G36*
X119040Y483640D02*
X105270D01*
Y476370D01*
X119040D01*
Y483640D01*
D02*
G37*
G36*
X102730D02*
X88960D01*
Y476370D01*
X102730D01*
Y483640D01*
D02*
G37*
G36*
X119040Y473830D02*
X105270D01*
Y466560D01*
X119040D01*
Y473830D01*
D02*
G37*
G36*
X31730Y435559D02*
X30379Y435382D01*
X27937Y434370D01*
X25839Y432761D01*
X24230Y430663D01*
X23218Y428221D01*
X23041Y426870D01*
X31730D01*
Y435559D01*
D02*
G37*
G36*
X262500Y432914D02*
X257270D01*
Y425570D01*
X270947D01*
X270820Y426529D01*
X269960Y428607D01*
X268591Y430391D01*
X266807Y431760D01*
X264729Y432620D01*
X262500Y432914D01*
D02*
G37*
G36*
X254730D02*
X249500D01*
X247271Y432620D01*
X245193Y431760D01*
X243409Y430391D01*
X242040Y428607D01*
X241180Y426529D01*
X241054Y425570D01*
X254730D01*
Y432914D01*
D02*
G37*
G36*
X34270Y435559D02*
Y426870D01*
X42959D01*
X42782Y428221D01*
X41770Y430663D01*
X40161Y432761D01*
X38063Y434370D01*
X35621Y435382D01*
X34270Y435559D01*
D02*
G37*
G36*
X270947Y448430D02*
X257270D01*
Y441086D01*
X262500D01*
X264729Y441380D01*
X266807Y442240D01*
X268591Y443609D01*
X269960Y445393D01*
X270820Y447471D01*
X270947Y448430D01*
D02*
G37*
G36*
X254730D02*
X241054D01*
X241180Y447471D01*
X242040Y445393D01*
X243409Y443609D01*
X245193Y442240D01*
X247271Y441380D01*
X249500Y441086D01*
X254730D01*
Y448430D01*
D02*
G37*
G36*
X43040Y461040D02*
X22960D01*
Y440960D01*
X43040D01*
Y461040D01*
D02*
G37*
G36*
X262500Y331314D02*
X257270D01*
Y323970D01*
X270947D01*
X270820Y324929D01*
X269960Y327007D01*
X268591Y328791D01*
X266807Y330160D01*
X264729Y331020D01*
X262500Y331314D01*
D02*
G37*
G36*
X328730Y259530D02*
X320041D01*
X320218Y258179D01*
X321230Y255737D01*
X322839Y253639D01*
X324937Y252030D01*
X327379Y251018D01*
X328730Y250841D01*
Y259530D01*
D02*
G37*
G36*
X262500Y255114D02*
X257270D01*
Y247770D01*
X270947D01*
X270820Y248729D01*
X269960Y250807D01*
X268591Y252591D01*
X266807Y253960D01*
X264729Y254820D01*
X262500Y255114D01*
D02*
G37*
G36*
X254730D02*
X249500D01*
X247271Y254820D01*
X245193Y253960D01*
X243409Y252591D01*
X242040Y250807D01*
X241180Y248729D01*
X241054Y247770D01*
X254730D01*
Y255114D01*
D02*
G37*
G36*
X339959Y259530D02*
X331270D01*
Y250841D01*
X332621Y251018D01*
X335063Y252030D01*
X337161Y253639D01*
X338770Y255737D01*
X339782Y258179D01*
X339959Y259530D01*
D02*
G37*
G36*
X254730Y270630D02*
X241054D01*
X241180Y269671D01*
X242040Y267593D01*
X243409Y265809D01*
X245193Y264440D01*
X247271Y263580D01*
X249500Y263286D01*
X254730D01*
Y270630D01*
D02*
G37*
G36*
X331270Y270759D02*
Y262070D01*
X339959D01*
X339782Y263421D01*
X338770Y265863D01*
X337161Y267961D01*
X335063Y269570D01*
X332621Y270582D01*
X331270Y270759D01*
D02*
G37*
G36*
X328730D02*
X327379Y270582D01*
X324937Y269570D01*
X322839Y267961D01*
X321230Y265863D01*
X320218Y263421D01*
X320041Y262070D01*
X328730D01*
Y270759D01*
D02*
G37*
G36*
X30730Y239159D02*
X29379Y238982D01*
X26937Y237970D01*
X24839Y236361D01*
X23230Y234263D01*
X22218Y231821D01*
X22041Y230470D01*
X30730D01*
Y239159D01*
D02*
G37*
G36*
X330000Y245527D02*
X327379Y245182D01*
X324937Y244170D01*
X322839Y242561D01*
X321230Y240463D01*
X320218Y238021D01*
X319873Y235400D01*
X320218Y232779D01*
X321230Y230337D01*
X322839Y228239D01*
X324937Y226630D01*
X327379Y225618D01*
X330000Y225273D01*
X332621Y225618D01*
X335063Y226630D01*
X337161Y228239D01*
X338770Y230337D01*
X339782Y232779D01*
X340127Y235400D01*
X339782Y238021D01*
X338770Y240463D01*
X337161Y242561D01*
X335063Y244170D01*
X332621Y245182D01*
X330000Y245527D01*
D02*
G37*
G36*
X262500Y229714D02*
X257270D01*
Y222370D01*
X270947D01*
X270820Y223329D01*
X269960Y225407D01*
X268591Y227191D01*
X266807Y228560D01*
X264729Y229420D01*
X262500Y229714D01*
D02*
G37*
G36*
X33270Y239159D02*
Y230470D01*
X41959D01*
X41782Y231821D01*
X40770Y234263D01*
X39161Y236361D01*
X37063Y237970D01*
X34621Y238982D01*
X33270Y239159D01*
D02*
G37*
G36*
X32000Y264727D02*
X29379Y264382D01*
X26937Y263370D01*
X24839Y261761D01*
X23230Y259663D01*
X22218Y257221D01*
X21873Y254600D01*
X22218Y251979D01*
X23230Y249537D01*
X24839Y247439D01*
X26937Y245830D01*
X29379Y244818D01*
X32000Y244473D01*
X34621Y244818D01*
X37063Y245830D01*
X39161Y247439D01*
X40770Y249537D01*
X41782Y251979D01*
X42127Y254600D01*
X41782Y257221D01*
X40770Y259663D01*
X39161Y261761D01*
X37063Y263370D01*
X34621Y264382D01*
X32000Y264727D01*
D02*
G37*
G36*
X270947Y245230D02*
X257270D01*
Y237886D01*
X262500D01*
X264729Y238180D01*
X266807Y239040D01*
X268591Y240409D01*
X269960Y242193D01*
X270820Y244271D01*
X270947Y245230D01*
D02*
G37*
G36*
X254730D02*
X241054D01*
X241180Y244271D01*
X242040Y242193D01*
X243409Y240409D01*
X245193Y239040D01*
X247271Y238180D01*
X249500Y237886D01*
X254730D01*
Y245230D01*
D02*
G37*
G36*
X270947Y270630D02*
X257270D01*
Y263286D01*
X262500D01*
X264729Y263580D01*
X266807Y264440D01*
X268591Y265809D01*
X269960Y267593D01*
X270820Y269671D01*
X270947Y270630D01*
D02*
G37*
G36*
X254730Y321430D02*
X241054D01*
X241180Y320471D01*
X242040Y318393D01*
X243409Y316609D01*
X245193Y315240D01*
X247271Y314380D01*
X249500Y314086D01*
X254730D01*
Y321430D01*
D02*
G37*
G36*
X110500Y331314D02*
X97500D01*
X95271Y331020D01*
X93193Y330160D01*
X91409Y328791D01*
X90040Y327007D01*
X89180Y324929D01*
X88886Y322700D01*
X89180Y320471D01*
X90040Y318393D01*
X91409Y316609D01*
X93193Y315240D01*
X95271Y314380D01*
X97500Y314086D01*
X110500D01*
X112729Y314380D01*
X114807Y315240D01*
X116591Y316609D01*
X117960Y318393D01*
X118820Y320471D01*
X119114Y322700D01*
X118820Y324929D01*
X117960Y327007D01*
X116591Y328791D01*
X114807Y330160D01*
X112729Y331020D01*
X110500Y331314D01*
D02*
G37*
G36*
X41959Y314930D02*
X33270D01*
Y306241D01*
X34621Y306418D01*
X37063Y307430D01*
X39161Y309039D01*
X40770Y311137D01*
X41782Y313579D01*
X41959Y314930D01*
D02*
G37*
G36*
X270947Y321430D02*
X257270D01*
Y314086D01*
X262500D01*
X264729Y314380D01*
X266807Y315240D01*
X268591Y316609D01*
X269960Y318393D01*
X270820Y320471D01*
X270947Y321430D01*
D02*
G37*
G36*
X254730Y331314D02*
X249500D01*
X247271Y331020D01*
X245193Y330160D01*
X243409Y328791D01*
X242040Y327007D01*
X241180Y324929D01*
X241054Y323970D01*
X254730D01*
Y331314D01*
D02*
G37*
G36*
X33270Y326159D02*
Y317470D01*
X41959D01*
X41782Y318821D01*
X40770Y321263D01*
X39161Y323361D01*
X37063Y324970D01*
X34621Y325982D01*
X33270Y326159D01*
D02*
G37*
G36*
X30730D02*
X29379Y325982D01*
X26937Y324970D01*
X24839Y323361D01*
X23230Y321263D01*
X22218Y318821D01*
X22041Y317470D01*
X30730D01*
Y326159D01*
D02*
G37*
G36*
X254730Y296030D02*
X241054D01*
X241180Y295071D01*
X242040Y292993D01*
X243409Y291209D01*
X245193Y289840D01*
X247271Y288980D01*
X249500Y288686D01*
X254730D01*
Y296030D01*
D02*
G37*
G36*
X262500Y280514D02*
X257270D01*
Y273170D01*
X270947D01*
X270820Y274129D01*
X269960Y276207D01*
X268591Y277991D01*
X266807Y279360D01*
X264729Y280220D01*
X262500Y280514D01*
D02*
G37*
G36*
X254730D02*
X249500D01*
X247271Y280220D01*
X245193Y279360D01*
X243409Y277991D01*
X242040Y276207D01*
X241180Y274129D01*
X241054Y273170D01*
X254730D01*
Y280514D01*
D02*
G37*
G36*
X270947Y296030D02*
X257270D01*
Y288686D01*
X262500D01*
X264729Y288980D01*
X266807Y289840D01*
X268591Y291209D01*
X269960Y292993D01*
X270820Y295071D01*
X270947Y296030D01*
D02*
G37*
G36*
X30730Y314930D02*
X22041D01*
X22218Y313579D01*
X23230Y311137D01*
X24839Y309039D01*
X26937Y307430D01*
X29379Y306418D01*
X30730Y306241D01*
Y314930D01*
D02*
G37*
G36*
X262500Y305914D02*
X257270D01*
Y298570D01*
X270947D01*
X270820Y299529D01*
X269960Y301607D01*
X268591Y303391D01*
X266807Y304760D01*
X264729Y305620D01*
X262500Y305914D01*
D02*
G37*
G36*
X254730D02*
X249500D01*
X247271Y305620D01*
X245193Y304760D01*
X243409Y303391D01*
X242040Y301607D01*
X241180Y299529D01*
X241054Y298570D01*
X254730D01*
Y305914D01*
D02*
G37*
%LPD*%
D10*
X81000Y84000D02*
D03*
X53000D02*
D03*
D11*
X142000Y46500D02*
D03*
Y31500D02*
D03*
X111000Y24500D02*
D03*
Y9500D02*
D03*
D12*
X149500Y11000D02*
D03*
X134500D02*
D03*
X124500Y44000D02*
D03*
X109500D02*
D03*
X55500Y145000D02*
D03*
X70500D02*
D03*
X55500Y170000D02*
D03*
X70500D02*
D03*
D13*
X139500Y68000D02*
D03*
X110500D02*
D03*
D14*
X169000Y67500D02*
D03*
Y38500D02*
D03*
D15*
X87500Y32000D02*
Y41716D01*
X81000Y48217D02*
X87500Y41716D01*
X81000Y48217D02*
Y84000D01*
X151000Y63000D02*
X155500Y67500D01*
X151000Y12500D02*
Y63000D01*
X149500Y11000D02*
X151000Y12500D01*
X155500Y67500D02*
X169000D01*
X144000Y91000D02*
X228000D01*
X142000Y89000D02*
X144000Y91000D01*
X146500Y31500D02*
X148000Y30000D01*
Y12500D02*
Y30000D01*
Y12500D02*
X149500Y11000D01*
X204600Y110000D02*
Y262400D01*
X195100Y271900D02*
X204600Y262400D01*
X104000Y271900D02*
X195100D01*
X179200Y110000D02*
Y240800D01*
X173500Y246500D02*
X179200Y240800D01*
X104000Y246500D02*
X173500D01*
X228000Y91000D02*
X230000Y93000D01*
X166000Y6000D02*
Y35500D01*
X163000Y3000D02*
X166000Y6000D01*
X154006Y3000D02*
X163000D01*
X170800Y7200D02*
X286200D01*
X169000Y9000D02*
X170800Y7200D01*
X169000Y9000D02*
Y38500D01*
X286200Y7200D02*
Y20000D01*
X303000Y22000D02*
Y358000D01*
X300000Y361000D02*
X303000Y358000D01*
X245000Y361000D02*
X300000D01*
X305000Y20000D02*
X330000D01*
X303000Y22000D02*
X305000Y20000D01*
X344000Y263000D02*
X347000Y266000D01*
X332200Y263000D02*
X344000D01*
X330000Y260800D02*
X342200D01*
X346000Y257000D01*
X342200Y165800D02*
X346000Y162000D01*
X330000Y165800D02*
X342200D01*
X347000Y266000D02*
Y489000D01*
X346000Y74000D02*
Y162000D01*
X343000Y493000D02*
X347000Y489000D01*
X232500Y373500D02*
X245000Y361000D01*
X104000Y373500D02*
X232500D01*
X235400Y20000D02*
Y45400D01*
X275160Y24160D02*
Y50739D01*
X271000Y20000D02*
X275160Y24160D01*
X260800Y20000D02*
X271000D01*
X277000Y52579D02*
Y192000D01*
X275160Y50739D02*
X277000Y52579D01*
X272040Y54040D02*
Y167960D01*
X263400Y45400D02*
X272040Y54040D01*
X260800Y45400D02*
X263400D01*
X269700Y170300D02*
X272040Y167960D01*
X256000Y170300D02*
X269700D01*
X256000Y195700D02*
X273300D01*
X277000Y192000D01*
X51700Y297300D02*
X104000D01*
X50000Y299000D02*
X51700Y297300D01*
X50000Y299000D02*
Y365000D01*
X48000Y367000D02*
X50000Y365000D01*
X32000Y367000D02*
X48000D01*
X54000Y280000D02*
X57000Y277000D01*
X32000Y280000D02*
X54000D01*
X57000Y229000D02*
Y277000D01*
Y229000D02*
X64900Y221100D01*
X330000Y70800D02*
X342800D01*
X346000Y74000D01*
X330000Y165800D02*
X332200Y168000D01*
X342000D01*
X346000Y172000D01*
Y257000D01*
X104000Y493000D02*
X343000D01*
X330000Y260800D02*
X332200Y263000D01*
X104000Y475100D02*
Y493000D01*
X7000Y428000D02*
X30600D01*
X3000Y432000D02*
X7000Y428000D01*
X3000Y432000D02*
Y471000D01*
X30600Y428000D02*
X33000Y425600D01*
X7100Y475100D02*
X104000D01*
X3000Y471000D02*
X7100Y475100D01*
X8000Y424000D02*
X31400D01*
X3000Y419000D02*
X8000Y424000D01*
X3000Y321000D02*
Y419000D01*
X31400Y424000D02*
X33000Y425600D01*
X30200Y318000D02*
X32000Y316200D01*
X6000Y318000D02*
X30200D01*
X3000Y321000D02*
X6000Y318000D01*
X8000Y314000D02*
X29800D01*
X4000Y310000D02*
X8000Y314000D01*
X4000Y234000D02*
Y310000D01*
X29800Y314000D02*
X32000Y316200D01*
X4000Y234000D02*
X7000Y231000D01*
X30200D02*
X32000Y229200D01*
X7000Y231000D02*
X30200D01*
X29800Y227000D02*
X32000Y229200D01*
X8000Y227000D02*
X29800D01*
X4000Y223000D02*
X8000Y227000D01*
X64900Y221100D02*
X104000D01*
X110500Y68000D02*
Y80500D01*
X109500Y44000D02*
Y67000D01*
X110500Y68000D01*
X109500Y26000D02*
X111000Y24500D01*
X109500Y26000D02*
Y44000D01*
X133000Y9500D02*
X134500Y11000D01*
X111000Y9500D02*
X133000D01*
X134500Y4500D02*
Y11000D01*
Y4500D02*
X136040Y2960D01*
X153966D01*
X154006Y3000D01*
X143000Y31500D02*
X146500D01*
X127000Y46500D02*
X143000D01*
X124500Y44000D02*
X127000Y46500D01*
X81000Y84000D02*
X107000D01*
X110500Y80500D01*
X138000Y69500D02*
X139500Y68000D01*
X138000Y69500D02*
Y89000D01*
X136000Y91000D02*
X138000Y89000D01*
X210000Y20000D02*
Y45400D01*
X169000Y67500D02*
X203500D01*
X210000Y61000D01*
Y45400D02*
Y61000D01*
X166000Y35500D02*
X169000Y38500D01*
X286200Y20000D02*
Y45400D01*
X100100Y352000D02*
X104000Y348100D01*
X59700Y449700D02*
X104000D01*
X58400Y425600D02*
X102700D01*
X53000Y84000D02*
Y89000D01*
X55000Y91000D01*
X136000D01*
X52400Y83400D02*
X53000Y84000D01*
X87500Y10500D02*
Y32000D01*
X84000Y7000D02*
X87500Y10500D01*
X9000Y7000D02*
X84000D01*
X10400Y32600D02*
X21000D01*
Y83400D02*
X52400D01*
X21000D02*
Y123600D01*
X3460Y12540D02*
X9000Y7000D01*
X8000Y35000D02*
X10400Y32600D01*
X68000Y136390D02*
X70500Y138890D01*
Y144000D01*
Y145000D01*
Y144000D02*
X103100D01*
X8000Y35000D02*
Y133000D01*
X11390Y136390D01*
X68000D01*
X70500Y170000D02*
X103700D01*
X104000Y170300D01*
X21000Y174400D02*
Y185000D01*
X24000Y188000D01*
X55500Y170000D02*
X57000Y168500D01*
X53500Y147000D02*
X55500Y145000D01*
X53500Y147000D02*
Y170000D01*
X55100Y144200D02*
X57500Y143000D01*
X3460Y12540D02*
Y139460D01*
X7000Y143000D01*
X57500D01*
X4000Y151000D02*
Y223000D01*
Y151000D02*
X8000Y147000D01*
X53500D01*
X139500Y68000D02*
X142000Y70500D01*
Y89000D01*
X230000Y93000D02*
Y110000D01*
X24000Y188000D02*
X67000D01*
X70000Y170500D02*
X70500Y170000D01*
X67000Y188000D02*
X70000Y185000D01*
Y170500D02*
Y185000D01*
X21000Y123600D02*
X21600Y123000D01*
X141000Y48500D02*
X143000Y46500D01*
X141000Y48500D02*
Y66500D01*
X139500Y68000D02*
X141000Y66500D01*
X53000Y32500D02*
Y84000D01*
X52500Y32000D02*
X53000Y32500D01*
D16*
X330000Y70800D02*
D03*
Y45400D02*
D03*
Y260800D02*
D03*
Y235400D02*
D03*
X32000Y229200D02*
D03*
Y254600D02*
D03*
Y316200D02*
D03*
Y341600D02*
D03*
X330000Y165800D02*
D03*
Y140400D02*
D03*
X58400Y451000D02*
D03*
X33000Y425600D02*
D03*
X58400D02*
D03*
X235400Y20000D02*
D03*
X260800D02*
D03*
X286200D02*
D03*
X210000Y45400D02*
D03*
X235400D02*
D03*
X260800D02*
D03*
X286200D02*
D03*
X204600Y110000D02*
D03*
X179200D02*
D03*
X153800D02*
D03*
X128400D02*
D03*
D17*
X330000Y20000D02*
D03*
Y210000D02*
D03*
X32000Y280000D02*
D03*
Y367000D02*
D03*
X330000Y115000D02*
D03*
X33000Y451000D02*
D03*
D18*
X21000Y83400D02*
D03*
Y123600D02*
D03*
D19*
Y32600D02*
D03*
Y174400D02*
D03*
D20*
X210000Y20000D02*
D03*
X230000Y110000D02*
D03*
D21*
X52500Y32000D02*
D03*
D22*
X87500D02*
D03*
D23*
X256000Y144900D02*
D03*
Y170300D02*
D03*
Y195700D02*
D03*
Y221100D02*
D03*
Y246500D02*
D03*
Y271900D02*
D03*
Y297300D02*
D03*
Y322700D02*
D03*
Y348100D02*
D03*
Y373500D02*
D03*
Y398900D02*
D03*
Y424300D02*
D03*
Y449700D02*
D03*
Y475100D02*
D03*
X104000Y144900D02*
D03*
Y170300D02*
D03*
Y195700D02*
D03*
Y221100D02*
D03*
Y246500D02*
D03*
Y271900D02*
D03*
Y297300D02*
D03*
Y322700D02*
D03*
Y348100D02*
D03*
Y373500D02*
D03*
Y398900D02*
D03*
Y424300D02*
D03*
Y449700D02*
D03*
D24*
Y475100D02*
D03*
M02*
