M48
;Layer_Color=9474304
;FILE_FORMAT=2:4
INCH
;TYPE=PLATED
T1F00S00C0.0236
T2F00S00C0.0354
T3F00S00C0.0433
%
T01
X012067Y011260
X013445
X020079Y015705
Y016705
Y017705
Y018705
Y019705
Y020705
Y021705
Y022705
Y023705
Y024705
Y025705
Y026705
Y027705
Y028705
X014094
Y027705
Y026705
Y025705
Y024705
Y023705
Y022705
Y021705
Y020705
Y019705
Y018705
Y017705
Y016705
Y015705
T02
X015055Y014331
X016055
X017055
X018055
X019055
X019268Y011787
Y010787
X018268
Y011787
X020268
Y010787
X021268
Y011787
X022992
Y012787
Y014528
Y015528
Y010787
Y016528
Y018268
Y019268
Y020268
X011260Y020024
Y019024
Y021024
Y022449
Y023449
Y024449
X011299Y026756
Y027756
X012299
Y026756
T03
X010827Y011283
Y013283
Y014866
Y016866
M30
