G04 Layer_Color=65535*
%FSLAX44Y44*%
%MOMM*%
G71*
G01*
G75*
%ADD30C,0.2000*%
%ADD31C,0.2540*%
D30*
X658853Y586980D02*
G03*
X665147Y586980I3147J420D01*
G01*
X465000Y508000D02*
Y526000D01*
X497000D01*
Y508000D02*
Y526000D01*
X465000Y508000D02*
X497000D01*
X466000Y435000D02*
Y453000D01*
X498000D01*
Y435000D02*
Y453000D01*
X466000Y435000D02*
X498000D01*
X466000Y462000D02*
Y480000D01*
X498000D01*
Y462000D02*
Y480000D01*
X466000Y462000D02*
X498000D01*
X511000Y517250D02*
X521500D01*
Y506750D02*
Y517250D01*
X511000Y506750D02*
X521500D01*
X511000D02*
Y517250D01*
X600500Y470750D02*
X635780D01*
X600500D02*
Y489250D01*
X635780D01*
Y475500D02*
Y484500D01*
Y489250D01*
Y470750D02*
Y475500D01*
X466000Y485000D02*
Y503000D01*
X498000D01*
Y485000D02*
Y503000D01*
X466000Y485000D02*
X498000D01*
X331500Y407500D02*
Y510500D01*
X434500Y407500D02*
Y510500D01*
X391250D02*
X434500D01*
X331500D02*
X374750D01*
X391250Y407500D02*
X434500D01*
X331500D02*
X375000D01*
X331500Y411500D02*
X375000D01*
X391250Y411500D02*
X434250D01*
X514140Y451500D02*
Y472750D01*
X559860D01*
Y451500D02*
Y472750D01*
X514140Y451500D02*
X559860D01*
X392500Y593860D02*
X413750D01*
Y548140D02*
Y593860D01*
X392500Y548140D02*
X413750D01*
X392500D02*
Y593860D01*
X445250Y548140D02*
X466500D01*
X445250D02*
Y593860D01*
X466500D01*
Y548140D02*
Y593860D01*
X418500D02*
X439750D01*
Y548140D02*
Y593860D01*
X418500Y548140D02*
X439750D01*
X418500D02*
Y593860D01*
X595000Y474000D02*
Y488000D01*
X569000Y474000D02*
X595000D01*
X569000D02*
Y488000D01*
X595000D01*
X565250Y537140D02*
X586500D01*
X565250D02*
Y582860D01*
X586500D01*
Y537140D02*
Y582860D01*
X560000Y480000D02*
Y498000D01*
X528000Y480000D02*
X560000D01*
X528000D02*
Y498000D01*
X560000D01*
X568000Y436000D02*
Y466000D01*
X614000D01*
Y436000D02*
Y466000D01*
X568000Y436000D02*
X614000D01*
X585000Y390500D02*
X667000D01*
Y425500D01*
X585000Y390500D02*
Y422250D01*
X588250Y425500D01*
X667000D01*
X599750Y495750D02*
Y523250D01*
X588500Y495750D02*
X599750D01*
X588500D02*
Y523250D01*
Y523250D02*
X599750D01*
X528000Y503000D02*
Y521000D01*
X560000D01*
Y503000D02*
Y521000D01*
X528000Y503000D02*
X560000D01*
X566750Y588220D02*
Y623500D01*
X585250D01*
Y588220D02*
Y623500D01*
X571500Y588220D02*
X580500D01*
X585250D01*
X566750D02*
X571500D01*
X618000Y530000D02*
Y544000D01*
X592000Y530000D02*
X618000D01*
X592000D02*
Y544000D01*
X618000D01*
X630750Y597750D02*
X657250D01*
Y612250D01*
X630750D02*
X657250D01*
X630750Y597750D02*
Y612250D01*
X593000Y573250D02*
X621000D01*
Y565250D02*
Y573250D01*
X593000Y565000D02*
X621000D01*
X593000D02*
Y573000D01*
X642000Y537000D02*
X682000D01*
X665175Y587000D02*
X682000D01*
X642000D02*
X658825D01*
X691000Y598000D02*
Y612000D01*
X665000Y598000D02*
X691000D01*
X665000D02*
Y612000D01*
X691000D01*
D31*
X475250Y574500D02*
X555500D01*
Y671250D01*
X475250D02*
X555500D01*
X475250Y574500D02*
Y671250D01*
X318997Y561000D02*
X312332D01*
X309000Y557668D01*
X312332Y554336D01*
X318997D01*
Y551003D02*
Y547671D01*
Y549337D01*
X309000D01*
Y551003D01*
Y547671D01*
Y542673D02*
X318997D01*
X309000Y536008D01*
X318997D01*
X313998Y532676D02*
Y526011D01*
X317331Y529343D02*
X310666D01*
X318997Y612000D02*
X312332D01*
X309000Y608668D01*
X312332Y605336D01*
X318997D01*
Y602003D02*
Y598671D01*
Y600337D01*
X309000D01*
Y602003D01*
Y598671D01*
Y593673D02*
X318997D01*
X309000Y587008D01*
X318997D01*
X313998Y583676D02*
Y577011D01*
X503665Y368331D02*
X501998Y369997D01*
X498666D01*
X497000Y368331D01*
Y361666D01*
X498666Y360000D01*
X501998D01*
X503665Y361666D01*
Y364998D01*
X500332D01*
X506997Y360000D02*
Y369997D01*
X513661Y360000D01*
Y369997D01*
X516994D02*
Y360000D01*
X521992D01*
X523658Y361666D01*
Y368331D01*
X521992Y369997D01*
X516994D01*
X545000Y364998D02*
X551665D01*
X548332Y368331D02*
Y361666D01*
X561661Y369997D02*
X554997D01*
Y364998D01*
X558329Y366665D01*
X559995D01*
X561661Y364998D01*
Y361666D01*
X559995Y360000D01*
X556663D01*
X554997Y361666D01*
X564994Y369997D02*
Y363332D01*
X568326Y360000D01*
X571658Y363332D01*
Y369997D01*
X681669Y433665D02*
X680003Y431998D01*
Y428666D01*
X681669Y427000D01*
X688334D01*
X690000Y428666D01*
Y431998D01*
X688334Y433665D01*
X685002D01*
Y430332D01*
X690000Y436997D02*
X680003D01*
X690000Y443661D01*
X680003D01*
Y446993D02*
X690000D01*
Y451992D01*
X688334Y453658D01*
X681669D01*
X680003Y451992D01*
Y446993D01*
X713664Y532331D02*
X711998Y533997D01*
X708666D01*
X707000Y532331D01*
Y525666D01*
X708666Y524000D01*
X711998D01*
X713664Y525666D01*
Y528998D01*
X710332D01*
X716997Y524000D02*
Y533997D01*
X723661Y524000D01*
Y533997D01*
X726994D02*
Y524000D01*
X731992D01*
X733658Y525666D01*
Y532331D01*
X731992Y533997D01*
X726994D01*
X685002Y466000D02*
Y472664D01*
X681669Y469332D02*
X688334D01*
X681669Y475997D02*
X680003Y477663D01*
Y480995D01*
X681669Y482661D01*
X683335D01*
X685002Y480995D01*
Y479329D01*
Y480995D01*
X686668Y482661D01*
X688334D01*
X690000Y480995D01*
Y477663D01*
X688334Y475997D01*
X690000Y485993D02*
X688334D01*
Y487660D01*
X690000D01*
Y485993D01*
X681669Y494324D02*
X680003Y495990D01*
Y499323D01*
X681669Y500989D01*
X683335D01*
X685002Y499323D01*
Y497656D01*
Y499323D01*
X686668Y500989D01*
X688334D01*
X690000Y499323D01*
Y495990D01*
X688334Y494324D01*
X680003Y504321D02*
X686668D01*
X690000Y507653D01*
X686668Y510985D01*
X680003D01*
X687000Y642998D02*
X693664D01*
X690332Y646331D02*
Y639666D01*
X696997Y638000D02*
X700329D01*
X698663D01*
Y647997D01*
X696997Y646331D01*
X705327Y638000D02*
Y639666D01*
X706994D01*
Y638000D01*
X705327D01*
X720323D02*
X713658D01*
X720323Y644665D01*
Y646331D01*
X718656Y647997D01*
X715324D01*
X713658Y646331D01*
X730319Y647997D02*
X723655D01*
Y642998D01*
X726987Y644665D01*
X728653D01*
X730319Y642998D01*
Y639666D01*
X728653Y638000D01*
X725321D01*
X723655Y639666D01*
X733652Y647997D02*
Y641332D01*
X736984Y638000D01*
X740316Y641332D01*
Y647997D01*
X324664Y679331D02*
X322998Y680997D01*
X319666D01*
X318000Y679331D01*
Y672666D01*
X319666Y671000D01*
X322998D01*
X324664Y672666D01*
Y675998D01*
X321332D01*
X327997Y671000D02*
Y677664D01*
X331329Y680997D01*
X334661Y677664D01*
Y671000D01*
Y675998D01*
X327997D01*
X337994Y680997D02*
Y671000D01*
X344658D01*
X347990Y680997D02*
X351323D01*
X349656D01*
Y671000D01*
X347990D01*
X351323D01*
X356321Y680997D02*
Y671000D01*
X362985D01*
X372982Y680997D02*
X366318D01*
Y671000D01*
X372982D01*
X366318Y675998D02*
X369650D01*
X381313Y680997D02*
X377981D01*
X376315Y679331D01*
Y672666D01*
X377981Y671000D01*
X381313D01*
X382979Y672666D01*
Y679331D01*
X381313Y680997D01*
X396308D02*
Y671000D01*
Y675998D01*
X402973D01*
Y680997D01*
Y671000D01*
X406305D02*
Y677664D01*
X409637Y680997D01*
X412969Y677664D01*
Y671000D01*
Y675998D01*
X406305D01*
X416302Y671000D02*
Y680997D01*
X422966Y671000D01*
Y680997D01*
X426298D02*
Y671000D01*
X431297D01*
X432963Y672666D01*
Y679331D01*
X431297Y680997D01*
X426298D01*
X324664Y658331D02*
X322998Y659997D01*
X319666D01*
X318000Y658331D01*
Y656665D01*
X319666Y654998D01*
X322998D01*
X324664Y653332D01*
Y651666D01*
X322998Y650000D01*
X319666D01*
X318000Y651666D01*
X327997Y659997D02*
Y650000D01*
X331329Y653332D01*
X334661Y650000D01*
Y659997D01*
X337994D02*
X341326D01*
X339660D01*
Y650000D01*
X337994D01*
X341326D01*
X346324Y659997D02*
X352989D01*
X349656D01*
Y650000D01*
X362985Y658331D02*
X361319Y659997D01*
X357987D01*
X356321Y658331D01*
Y651666D01*
X357987Y650000D01*
X361319D01*
X362985Y651666D01*
X366318Y659997D02*
Y650000D01*
Y654998D01*
X372982D01*
Y659997D01*
Y650000D01*
X376315Y659997D02*
X379647D01*
X377981D01*
Y650000D01*
X376315D01*
X379647D01*
X384645D02*
Y659997D01*
X391310Y650000D01*
Y659997D01*
X401306Y658331D02*
X399640Y659997D01*
X396308D01*
X394642Y658331D01*
Y651666D01*
X396308Y650000D01*
X399640D01*
X401306Y651666D01*
Y654998D01*
X397974D01*
X414636Y650000D02*
Y659997D01*
X417968Y656665D01*
X421300Y659997D01*
Y650000D01*
X429631Y659997D02*
X426298D01*
X424632Y658331D01*
Y651666D01*
X426298Y650000D01*
X429631D01*
X431297Y651666D01*
Y658331D01*
X429631Y659997D01*
X434629D02*
Y650000D01*
X439627D01*
X441294Y651666D01*
Y658331D01*
X439627Y659997D01*
X434629D01*
X451290D02*
X444626D01*
Y650000D01*
X451290D01*
X444626Y654998D02*
X447958D01*
X318000Y629000D02*
Y638997D01*
X322998D01*
X324664Y637331D01*
Y633998D01*
X322998Y632332D01*
X318000D01*
X332995Y638997D02*
X329663D01*
X327997Y637331D01*
Y630666D01*
X329663Y629000D01*
X332995D01*
X334661Y630666D01*
Y637331D01*
X332995Y638997D01*
X337994D02*
Y629000D01*
X341326Y632332D01*
X344658Y629000D01*
Y638997D01*
X354655D02*
X347990D01*
Y629000D01*
X354655D01*
X347990Y633998D02*
X351323D01*
X357987Y629000D02*
Y638997D01*
X362985D01*
X364652Y637331D01*
Y633998D01*
X362985Y632332D01*
X357987D01*
X361319D02*
X364652Y629000D01*
X384645Y637331D02*
X382979Y638997D01*
X379647D01*
X377981Y637331D01*
Y635664D01*
X379647Y633998D01*
X382979D01*
X384645Y632332D01*
Y630666D01*
X382979Y629000D01*
X379647D01*
X377981Y630666D01*
X387977Y638997D02*
Y630666D01*
X389644Y629000D01*
X392976D01*
X394642Y630666D01*
Y638997D01*
X397974Y629000D02*
Y638997D01*
X402973D01*
X404639Y637331D01*
Y633998D01*
X402973Y632332D01*
X397974D01*
X407971Y629000D02*
Y638997D01*
X412969D01*
X414636Y637331D01*
Y633998D01*
X412969Y632332D01*
X407971D01*
X417968Y638997D02*
Y629000D01*
X424632D01*
X427965Y638997D02*
Y637331D01*
X431297Y633998D01*
X434629Y637331D01*
Y638997D01*
X431297Y633998D02*
Y629000D01*
M02*
