G04 Layer_Color=32896*
%FSLAX44Y44*%
%MOMM*%
G71*
G01*
G75*
%ADD31C,0.2540*%
D31*
X733000Y667000D02*
Y682235D01*
X725382D01*
X722843Y679696D01*
Y674617D01*
X725382Y672078D01*
X733000D01*
X727922D02*
X722843Y667000D01*
X707608Y682235D02*
X717765D01*
Y667000D01*
X707608D01*
X717765Y674617D02*
X712687D01*
X702530Y682235D02*
Y672078D01*
X697451Y667000D01*
X692373Y672078D01*
Y682235D01*
X672060Y667000D02*
Y677157D01*
X666981Y682235D01*
X661903Y677157D01*
Y667000D01*
Y674617D01*
X672060D01*
X656825Y667000D02*
X651746D01*
X654285D01*
Y682235D01*
X656825Y679696D01*
X628894Y674617D02*
X618737D01*
X598424Y679696D02*
X595884Y682235D01*
X590806D01*
X588267Y679696D01*
Y669539D01*
X590806Y667000D01*
X595884D01*
X598424Y669539D01*
Y679696D01*
X575571Y667000D02*
Y682235D01*
X583188Y674617D01*
X573032D01*
X567953Y667000D02*
X557797Y677157D01*
X552718Y679696D02*
X550179Y682235D01*
X545101D01*
X542562Y679696D01*
Y669539D01*
X545101Y667000D01*
X550179D01*
X552718Y669539D01*
Y679696D01*
X527327Y667000D02*
X537483D01*
X527327Y677157D01*
Y679696D01*
X529866Y682235D01*
X534944D01*
X537483Y679696D01*
X522248Y667000D02*
X512091Y677157D01*
X507013Y667000D02*
X501935D01*
X504474D01*
Y682235D01*
X507013Y679696D01*
X484160Y682235D02*
X489239Y679696D01*
X494317Y674617D01*
Y669539D01*
X491778Y667000D01*
X486700D01*
X484160Y669539D01*
Y672078D01*
X486700Y674617D01*
X494317D01*
M02*
