G04 Layer_Physical_Order=2*
G04 Layer_Color=16711680*
%FSLAX44Y44*%
%MOMM*%
G71*
G01*
G75*
%ADD25C,0.7000*%
%ADD28C,4.0000*%
%ADD29C,0.4500*%
G36*
X745000Y354000D02*
X305000D01*
Y695000D01*
X745000D01*
Y354000D01*
D02*
G37*
%LPC*%
G36*
X721270Y462524D02*
Y441270D01*
X742524D01*
X742214Y444419D01*
X740925Y448667D01*
X738832Y452583D01*
X736015Y456015D01*
X732583Y458832D01*
X728667Y460925D01*
X724419Y462214D01*
X721270Y462524D01*
D02*
G37*
G36*
X718730D02*
X715581Y462214D01*
X711333Y460925D01*
X707417Y458832D01*
X703985Y456015D01*
X701168Y452583D01*
X699075Y448667D01*
X697786Y444419D01*
X697476Y441270D01*
X718730D01*
Y462524D01*
D02*
G37*
G36*
X507000Y477158D02*
X504643Y476689D01*
X502645Y475355D01*
X501311Y473357D01*
X500842Y471000D01*
Y455551D01*
X495449Y450158D01*
X460000D01*
X457643Y449690D01*
X455645Y448355D01*
X454310Y446357D01*
X453842Y444000D01*
X454310Y441643D01*
X455645Y439645D01*
X457643Y438311D01*
X460000Y437842D01*
X498000D01*
X500357Y438311D01*
X502355Y439645D01*
X511355Y448645D01*
X512690Y450643D01*
X513158Y453000D01*
Y471000D01*
X512690Y473357D01*
X511355Y475355D01*
X509357Y476689D01*
X507000Y477158D01*
D02*
G37*
G36*
X457631Y515730D02*
X454270D01*
Y512369D01*
X454869Y512488D01*
X456453Y513547D01*
X457512Y515131D01*
X457631Y515730D01*
D02*
G37*
G36*
X451730D02*
X448369D01*
X448488Y515131D01*
X449547Y513547D01*
X451131Y512488D01*
X451730Y512369D01*
Y515730D01*
D02*
G37*
G36*
X720000Y512649D02*
X715581Y512214D01*
X711333Y510925D01*
X707417Y508832D01*
X703985Y506015D01*
X701168Y502583D01*
X699075Y498667D01*
X697786Y494419D01*
X697351Y490000D01*
X697786Y485581D01*
X699075Y481333D01*
X701168Y477417D01*
X703985Y473985D01*
X707417Y471168D01*
X711333Y469075D01*
X715581Y467786D01*
X720000Y467351D01*
X724419Y467786D01*
X728667Y469075D01*
X732583Y471168D01*
X736015Y473985D01*
X738832Y477417D01*
X740925Y481333D01*
X742214Y485581D01*
X742649Y490000D01*
X742214Y494419D01*
X740925Y498667D01*
X738832Y502583D01*
X736015Y506015D01*
X732583Y508832D01*
X728667Y510925D01*
X724419Y512214D01*
X720000Y512649D01*
D02*
G37*
G36*
X742524Y438730D02*
X721270D01*
Y417476D01*
X724419Y417786D01*
X728667Y419075D01*
X732583Y421168D01*
X736015Y423985D01*
X738832Y427417D01*
X740925Y431333D01*
X742214Y435581D01*
X742524Y438730D01*
D02*
G37*
G36*
X532524Y398730D02*
X511270D01*
Y377476D01*
X514419Y377786D01*
X518667Y379075D01*
X522583Y381168D01*
X526015Y383985D01*
X528832Y387417D01*
X530925Y391333D01*
X532214Y395581D01*
X532524Y398730D01*
D02*
G37*
G36*
X508730D02*
X487476D01*
X487786Y395581D01*
X489075Y391333D01*
X491168Y387417D01*
X493985Y383985D01*
X497417Y381168D01*
X501333Y379075D01*
X505581Y377786D01*
X508730Y377476D01*
Y398730D01*
D02*
G37*
G36*
X560000Y422649D02*
X555581Y422214D01*
X551333Y420925D01*
X547417Y418832D01*
X543985Y416015D01*
X541168Y412583D01*
X539075Y408667D01*
X537786Y404419D01*
X537351Y400000D01*
X537786Y395581D01*
X539075Y391333D01*
X541168Y387417D01*
X543985Y383985D01*
X547417Y381168D01*
X551333Y379075D01*
X555581Y377786D01*
X560000Y377351D01*
X564419Y377786D01*
X568667Y379075D01*
X572583Y381168D01*
X576015Y383985D01*
X578832Y387417D01*
X580925Y391333D01*
X582214Y395581D01*
X582649Y400000D01*
X582214Y404419D01*
X580925Y408667D01*
X578832Y412583D01*
X576015Y416015D01*
X572583Y418832D01*
X568667Y420925D01*
X564419Y422214D01*
X560000Y422649D01*
D02*
G37*
G36*
X718730Y438730D02*
X697476D01*
X697786Y435581D01*
X699075Y431333D01*
X701168Y427417D01*
X703985Y423985D01*
X707417Y421168D01*
X711333Y419075D01*
X715581Y417786D01*
X718730Y417476D01*
Y438730D01*
D02*
G37*
G36*
X511270Y422524D02*
Y401270D01*
X532524D01*
X532214Y404419D01*
X530925Y408667D01*
X528832Y412583D01*
X526015Y416015D01*
X522583Y418832D01*
X518667Y420925D01*
X514419Y422214D01*
X511270Y422524D01*
D02*
G37*
G36*
X508730D02*
X505581Y422214D01*
X501333Y420925D01*
X497417Y418832D01*
X493985Y416015D01*
X491168Y412583D01*
X489075Y408667D01*
X487786Y404419D01*
X487476Y401270D01*
X508730D01*
Y422524D01*
D02*
G37*
G36*
X370524Y594730D02*
X349270D01*
Y573476D01*
X352419Y573786D01*
X356667Y575075D01*
X360583Y577168D01*
X364015Y579985D01*
X366832Y583417D01*
X368925Y587333D01*
X370214Y591581D01*
X370524Y594730D01*
D02*
G37*
G36*
X346730D02*
X325476D01*
X325786Y591581D01*
X327075Y587333D01*
X329168Y583417D01*
X331985Y579985D01*
X335417Y577168D01*
X339333Y575075D01*
X343581Y573786D01*
X346730Y573476D01*
Y594730D01*
D02*
G37*
G36*
X721270Y582524D02*
Y561270D01*
X742524D01*
X742214Y564419D01*
X740925Y568667D01*
X738832Y572583D01*
X736015Y576015D01*
X732583Y578832D01*
X728667Y580925D01*
X724419Y582214D01*
X721270Y582524D01*
D02*
G37*
G36*
X670000Y629158D02*
X609000D01*
X606643Y628689D01*
X604645Y627355D01*
X592645Y615355D01*
X591311Y613357D01*
X590842Y611000D01*
Y581000D01*
X591311Y578643D01*
X592645Y576645D01*
X594643Y575310D01*
X597000Y574842D01*
X599357Y575310D01*
X601355Y576645D01*
X602690Y578643D01*
X603158Y581000D01*
Y608449D01*
X611551Y616842D01*
X670000D01*
X672357Y617310D01*
X674355Y618645D01*
X675689Y620643D01*
X676158Y623000D01*
X675689Y625357D01*
X674355Y627355D01*
X672357Y628689D01*
X670000Y629158D01*
D02*
G37*
G36*
X349270Y618524D02*
Y597270D01*
X370524D01*
X370214Y600419D01*
X368925Y604667D01*
X366832Y608583D01*
X364015Y612015D01*
X360583Y614832D01*
X356667Y616925D01*
X352419Y618214D01*
X349270Y618524D01*
D02*
G37*
G36*
X346730D02*
X343581Y618214D01*
X339333Y616925D01*
X335417Y614832D01*
X331985Y612015D01*
X329168Y608583D01*
X327075Y604667D01*
X325786Y600419D01*
X325476Y597270D01*
X346730D01*
Y618524D01*
D02*
G37*
G36*
X720000Y632649D02*
X715581Y632214D01*
X711333Y630925D01*
X707417Y628832D01*
X703985Y626015D01*
X701168Y622583D01*
X699075Y618667D01*
X697786Y614419D01*
X697351Y610000D01*
X697786Y605581D01*
X699075Y601333D01*
X701168Y597417D01*
X703985Y593985D01*
X707417Y591168D01*
X711333Y589075D01*
X715581Y587786D01*
X720000Y587351D01*
X724419Y587786D01*
X728667Y589075D01*
X732583Y591168D01*
X736015Y593985D01*
X738832Y597417D01*
X740925Y601333D01*
X742214Y605581D01*
X742649Y610000D01*
X742214Y614419D01*
X740925Y618667D01*
X738832Y622583D01*
X736015Y626015D01*
X732583Y628832D01*
X728667Y630925D01*
X724419Y632214D01*
X720000Y632649D01*
D02*
G37*
G36*
X576000Y536158D02*
X573643Y535690D01*
X571645Y534355D01*
X570449Y533158D01*
X542000D01*
X539643Y532690D01*
X537645Y531355D01*
X536310Y529357D01*
X535842Y527000D01*
X536310Y524643D01*
X537645Y522645D01*
X539643Y521310D01*
X542000Y520842D01*
X573000D01*
X575357Y521310D01*
X577355Y522645D01*
X580355Y525645D01*
X581689Y527643D01*
X582158Y530000D01*
X581689Y532357D01*
X580355Y534355D01*
X578357Y535690D01*
X576000Y536158D01*
D02*
G37*
G36*
X454270Y521631D02*
Y518270D01*
X457631D01*
X457512Y518869D01*
X456453Y520453D01*
X454869Y521512D01*
X454270Y521631D01*
D02*
G37*
G36*
X451730D02*
X451131Y521512D01*
X449547Y520453D01*
X448488Y518869D01*
X448369Y518270D01*
X451730D01*
Y521631D01*
D02*
G37*
G36*
X348000Y568649D02*
X343581Y568214D01*
X339333Y566925D01*
X335417Y564832D01*
X331985Y562015D01*
X329168Y558583D01*
X327075Y554667D01*
X325786Y550419D01*
X325351Y546000D01*
X325786Y541581D01*
X327075Y537333D01*
X329168Y533417D01*
X331985Y529985D01*
X335417Y527168D01*
X339333Y525075D01*
X343581Y523786D01*
X348000Y523351D01*
X352419Y523786D01*
X356667Y525075D01*
X360583Y527168D01*
X364015Y529985D01*
X366832Y533417D01*
X368925Y537333D01*
X370214Y541581D01*
X370649Y546000D01*
X370214Y550419D01*
X368925Y554667D01*
X366832Y558583D01*
X364015Y562015D01*
X360583Y564832D01*
X356667Y566925D01*
X352419Y568214D01*
X348000Y568649D01*
D02*
G37*
G36*
X718730Y582524D02*
X715581Y582214D01*
X711333Y580925D01*
X707417Y578832D01*
X703985Y576015D01*
X701168Y572583D01*
X699075Y568667D01*
X697786Y564419D01*
X697476Y561270D01*
X718730D01*
Y582524D01*
D02*
G37*
G36*
X742524Y558730D02*
X721270D01*
Y537476D01*
X724419Y537786D01*
X728667Y539075D01*
X732583Y541168D01*
X736015Y543985D01*
X738832Y547417D01*
X740925Y551333D01*
X742214Y555581D01*
X742524Y558730D01*
D02*
G37*
G36*
X718730D02*
X697476D01*
X697786Y555581D01*
X699075Y551333D01*
X701168Y547417D01*
X703985Y543985D01*
X707417Y541168D01*
X711333Y539075D01*
X715581Y537786D01*
X718730Y537476D01*
Y558730D01*
D02*
G37*
%LPD*%
D25*
X609000Y623000D02*
X670000D01*
X597000Y611000D02*
X609000Y623000D01*
X597000Y581000D02*
Y611000D01*
X573000Y527000D02*
X576000Y530000D01*
X542000Y527000D02*
X573000D01*
X507000Y453000D02*
Y471000D01*
X498000Y444000D02*
X507000Y453000D01*
X460000Y444000D02*
X498000D01*
D28*
X348000Y596000D02*
D03*
X510000Y400000D02*
D03*
X720000Y440000D02*
D03*
Y490000D02*
D03*
X348000Y546000D02*
D03*
X560000Y400000D02*
D03*
X720000Y560000D02*
D03*
Y610000D02*
D03*
D29*
X670000Y623000D02*
D03*
X597000Y581000D02*
D03*
X576000Y530000D02*
D03*
X542000Y527000D02*
D03*
X460000Y444000D02*
D03*
X507000Y471000D02*
D03*
X453000Y517000D02*
D03*
X498000Y594000D02*
D03*
X510000D02*
D03*
X522000D02*
D03*
X535000D02*
D03*
Y605000D02*
D03*
X522000D02*
D03*
X510000D02*
D03*
X498000D02*
D03*
Y617000D02*
D03*
X510000D02*
D03*
X522000D02*
D03*
X535000D02*
D03*
Y629000D02*
D03*
X522000D02*
D03*
X510000D02*
D03*
X498000D02*
D03*
Y641000D02*
D03*
Y653000D02*
D03*
X510000D02*
D03*
Y641000D02*
D03*
X522000D02*
D03*
Y653000D02*
D03*
X535000D02*
D03*
Y641000D02*
D03*
M02*
