G04 Layer_Color=8421504*
%FSLAX44Y44*%
%MOMM*%
G71*
G01*
G75*
%ADD10R,0.7000X1.3000*%
%ADD11R,0.4500X0.5900*%
%ADD12R,0.9000X1.3000*%
%ADD13R,0.9000X2.8500*%
%ADD14R,0.9000X1.6000*%
%ADD15R,1.6000X0.9000*%
%ADD16R,0.6000X0.9000*%
%ADD17R,0.9000X2.5000*%
%ADD18R,1.3000X2.4000*%
%ADD19R,1.0000X0.5500*%
%ADD20R,1.3000X0.9000*%
%ADD21R,0.8900X3.0600*%
%ADD22R,5.3500X8.5400*%
%ADD23R,0.5500X1.0000*%
%ADD24R,1.1940X0.5590*%
D10*
X490500Y517000D02*
D03*
X471500D02*
D03*
X491500Y444000D02*
D03*
X472500D02*
D03*
X491500Y471000D02*
D03*
X472500D02*
D03*
X491500Y494000D02*
D03*
X472500D02*
D03*
X534500Y489000D02*
D03*
X553500D02*
D03*
X553500Y512000D02*
D03*
X534500D02*
D03*
D11*
X516000Y501450D02*
D03*
Y522550D02*
D03*
D12*
X608500Y480000D02*
D03*
X627500D02*
D03*
D13*
X383000Y496250D02*
D03*
Y421750D02*
D03*
D14*
X552500Y462000D02*
D03*
X521500D02*
D03*
D15*
X403000Y555500D02*
D03*
Y586500D02*
D03*
X456000D02*
D03*
Y555500D02*
D03*
X429000D02*
D03*
Y586500D02*
D03*
X576000Y575500D02*
D03*
Y544500D02*
D03*
D16*
X574500Y481000D02*
D03*
X589500D02*
D03*
X597500Y537000D02*
D03*
X612500D02*
D03*
X636500Y605000D02*
D03*
X651500D02*
D03*
X670500D02*
D03*
X685500D02*
D03*
D17*
X606500Y451000D02*
D03*
X575500D02*
D03*
D18*
X596000Y408000D02*
D03*
X656000D02*
D03*
D19*
X580500Y518500D02*
D03*
Y509000D02*
D03*
Y499500D02*
D03*
X607500Y518500D02*
D03*
Y499500D02*
D03*
D20*
X576000Y615500D02*
D03*
Y596500D02*
D03*
D21*
X477900Y551000D02*
D03*
X490600D02*
D03*
X503300D02*
D03*
X516000D02*
D03*
X528700D02*
D03*
X541400D02*
D03*
X554100D02*
D03*
D22*
X516000Y624050D02*
D03*
D23*
X597500Y557150D02*
D03*
X616500D02*
D03*
X607000Y580850D02*
D03*
D24*
X687270Y542950D02*
D03*
Y555650D02*
D03*
Y568350D02*
D03*
Y581050D02*
D03*
X636730Y542950D02*
D03*
Y555650D02*
D03*
Y568350D02*
D03*
Y581050D02*
D03*
M02*
