G04 Layer_Physical_Order=1*
G04 Layer_Color=255*
%FSLAX44Y44*%
%MOMM*%
G71*
G01*
G75*
%ADD10R,0.7000X1.3000*%
%ADD11R,0.4500X0.5900*%
%ADD12R,0.9000X1.3000*%
%ADD13R,0.9000X2.8500*%
%ADD14R,0.9000X1.6000*%
%ADD15R,1.6000X0.9000*%
%ADD16R,0.6000X0.9000*%
%ADD17R,0.9000X2.5000*%
%ADD18R,1.3000X2.4000*%
%ADD19R,1.0000X0.5500*%
%ADD20R,1.3000X0.9000*%
%ADD21R,0.8900X3.0600*%
%ADD22R,5.3500X8.5400*%
%ADD23R,0.5500X1.0000*%
%ADD24R,1.1940X0.5590*%
%ADD25C,0.7000*%
%ADD26C,0.4000*%
%ADD27C,0.5000*%
%ADD28C,4.0000*%
%ADD29C,0.4500*%
G36*
X745000Y525102D02*
X745000Y467590D01*
X728146D01*
X727958Y468860D01*
X728667Y469075D01*
X732583Y471168D01*
X736015Y473985D01*
X738832Y477417D01*
X740925Y481333D01*
X742214Y485581D01*
X742524Y488730D01*
X697476D01*
X697786Y485581D01*
X699075Y481333D01*
X701168Y477417D01*
X703985Y473985D01*
X707417Y471168D01*
X711333Y469075D01*
X712042Y468860D01*
X711854Y467590D01*
X640898D01*
X640000Y468488D01*
X640000Y493000D01*
X615185D01*
X615040Y494210D01*
X615040Y494210D01*
X615040Y494210D01*
Y504790D01*
X599960D01*
X599000Y505538D01*
Y512462D01*
X599960Y513210D01*
X600270Y513210D01*
X606230D01*
Y518500D01*
Y523790D01*
X600270D01*
X599960Y523790D01*
X599000Y524538D01*
Y526000D01*
X744102D01*
X745000Y525102D01*
D02*
G37*
G36*
X547460Y512595D02*
X547342Y512000D01*
X547460Y511405D01*
Y502960D01*
X553831D01*
X557578Y499213D01*
X557091Y498040D01*
X554770D01*
Y489000D01*
Y479960D01*
X559540D01*
X560000Y478881D01*
Y473619D01*
X559540Y472540D01*
X558730Y472540D01*
X553770D01*
Y462000D01*
Y451460D01*
X558730D01*
X559540Y451460D01*
X560000Y450381D01*
Y434898D01*
X559102Y434000D01*
X531000D01*
Y411221D01*
X529730Y410903D01*
X528832Y412583D01*
X526015Y416015D01*
X522583Y418832D01*
X518667Y420925D01*
X514419Y422214D01*
X511270Y422524D01*
Y400000D01*
Y377476D01*
X514419Y377786D01*
X518667Y379075D01*
X522583Y381168D01*
X526015Y383985D01*
X528832Y387417D01*
X529730Y389097D01*
X531000Y388779D01*
Y354000D01*
X305000D01*
X305000Y449102D01*
X305898Y450000D01*
X455822Y450000D01*
X456207Y448730D01*
X455645Y448355D01*
X454310Y446357D01*
X453842Y444000D01*
X454310Y441643D01*
X455645Y439645D01*
X457643Y438311D01*
X460000Y437842D01*
X466460D01*
Y434960D01*
X478540D01*
Y443405D01*
X478658Y444000D01*
X478540Y444595D01*
Y449102D01*
X479438Y450000D01*
X485460D01*
Y445270D01*
X497540D01*
Y449102D01*
X498438Y450000D01*
X531000D01*
Y471707D01*
X531382Y472604D01*
X531385Y472617D01*
X531393Y472628D01*
X531489Y473111D01*
X531590Y473593D01*
X531587Y473606D01*
X531590Y473619D01*
Y479960D01*
X540540D01*
Y488405D01*
X540658Y489000D01*
Y512000D01*
X540540Y512595D01*
Y514405D01*
X540658Y515000D01*
X540540Y515595D01*
Y519540D01*
X541000Y520000D01*
X547460D01*
Y512595D01*
D02*
G37*
G36*
X745000Y590000D02*
X732876D01*
X732748Y590512D01*
X732707Y591270D01*
X736015Y593985D01*
X738832Y597417D01*
X740925Y601333D01*
X742214Y605581D01*
X742524Y608730D01*
X720000D01*
Y610000D01*
X718730D01*
Y632524D01*
X715581Y632214D01*
X711333Y630925D01*
X707417Y628832D01*
X703985Y626015D01*
X701168Y622583D01*
X699262Y619018D01*
X698000Y619000D01*
X698000Y619000D01*
X698000Y619000D01*
X676158D01*
Y623000D01*
X675689Y625357D01*
X674355Y627355D01*
X672357Y628689D01*
X670000Y629158D01*
X667643Y628689D01*
X665645Y627355D01*
X664310Y625357D01*
X663842Y623000D01*
Y619000D01*
X646000D01*
Y617507D01*
X645423Y617393D01*
X644583Y616831D01*
X644022Y615991D01*
X643607Y614991D01*
X643410Y614000D01*
Y612938D01*
X643607Y611947D01*
X644169Y611107D01*
X645067Y610209D01*
X645907Y609647D01*
X645771Y608403D01*
X645342Y607590D01*
X642658D01*
X642040Y608705D01*
Y612040D01*
X637770D01*
Y605000D01*
X636500D01*
Y603730D01*
X630960D01*
Y601761D01*
X630658Y600532D01*
X630319Y600422D01*
X629969Y600353D01*
X629842Y600268D01*
X629697Y600221D01*
X628668Y599646D01*
X628397Y599415D01*
X628100Y599216D01*
X627798Y598914D01*
X627236Y598074D01*
X627039Y597083D01*
Y595000D01*
X622738D01*
Y601420D01*
X622270Y603777D01*
X620935Y605775D01*
X607709Y619000D01*
X606855Y619855D01*
X604857Y621189D01*
X602500Y621658D01*
X585040D01*
Y622540D01*
X566960D01*
Y619000D01*
D01*
Y608749D01*
X565928Y607885D01*
X565000Y608116D01*
Y619000D01*
X563000D01*
Y695000D01*
X745000D01*
Y590000D01*
D02*
G37*
G36*
X470910Y552270D02*
X477900D01*
Y551000D01*
X479170D01*
Y533160D01*
X484442D01*
Y517100D01*
X484460Y517008D01*
Y507960D01*
X496540D01*
X497142Y506939D01*
Y503851D01*
X496331Y503040D01*
X485460D01*
Y497909D01*
X484287Y497422D01*
X483355Y498355D01*
X481357Y499690D01*
X479000Y500158D01*
X478540D01*
Y503040D01*
X466460D01*
Y494595D01*
X466342Y494000D01*
X466460Y493405D01*
Y484960D01*
X475809D01*
X475882Y484595D01*
Y480040D01*
X473770D01*
Y471000D01*
Y461960D01*
X478540D01*
Y468091D01*
X479713Y468577D01*
X481645Y466645D01*
X483643Y465310D01*
X485460Y464949D01*
Y461960D01*
X497540D01*
Y464842D01*
X507000D01*
X509357Y465310D01*
X511355Y466645D01*
X512690Y468643D01*
X513158Y471000D01*
X512690Y473357D01*
X511355Y475355D01*
X509357Y476689D01*
X507000Y477158D01*
X504527D01*
X504041Y478332D01*
X520355Y494645D01*
X521689Y496643D01*
X522158Y499000D01*
Y501450D01*
X521689Y503807D01*
X520790Y505153D01*
Y506940D01*
X518655D01*
X518357Y507140D01*
X516000Y507608D01*
X513643Y507140D01*
X513345Y506940D01*
X511210D01*
Y505555D01*
X510728Y505114D01*
X509458Y505674D01*
Y518326D01*
X510728Y518886D01*
X511210Y518445D01*
Y517060D01*
X513345D01*
X513643Y516860D01*
X516000Y516392D01*
X518357Y516860D01*
X518655Y517060D01*
X520790D01*
Y518844D01*
X521535Y519809D01*
X522774Y519631D01*
X523010Y518443D01*
X524345Y516445D01*
X528416Y512375D01*
X528342Y512000D01*
Y489000D01*
X528460Y488405D01*
Y479960D01*
X529000D01*
Y473619D01*
X528540Y472540D01*
X522770D01*
Y462000D01*
X521500D01*
Y460730D01*
X514460D01*
Y453000D01*
X497540D01*
Y453040D01*
X485460D01*
Y453000D01*
X478540D01*
Y453040D01*
X466460D01*
Y453000D01*
X305000D01*
Y567000D01*
X336779D01*
X337097Y565730D01*
X335417Y564832D01*
X331985Y562015D01*
X329168Y558583D01*
X327075Y554667D01*
X325786Y550419D01*
X325476Y547270D01*
X370524D01*
X370214Y550419D01*
X368925Y554667D01*
X366832Y558583D01*
X364015Y562015D01*
X360583Y564832D01*
X358903Y565730D01*
X359221Y567000D01*
X470910D01*
Y552270D01*
D02*
G37*
G36*
X663842Y605500D02*
X664310Y603143D01*
X664342Y603097D01*
Y578027D01*
X663168Y577541D01*
X657658Y583051D01*
Y605000D01*
X657189Y607357D01*
X657040Y607580D01*
Y612040D01*
X646988D01*
X646718Y612220D01*
X646180Y612758D01*
X646047Y612957D01*
X646000Y613193D01*
Y613745D01*
X646098Y614236D01*
X646317Y614764D01*
X646444Y614955D01*
X646505Y614967D01*
X646584Y615000D01*
X663842D01*
Y605500D01*
D02*
G37*
G36*
X590000Y490000D02*
X600712D01*
X601460Y489040D01*
Y470960D01*
X615540D01*
Y489040D01*
X616288Y490000D01*
X619712D01*
X620460Y489040D01*
X620460Y488730D01*
Y481270D01*
X634540D01*
Y488006D01*
X635656Y488890D01*
X635810Y488913D01*
X636000Y488847D01*
Y465000D01*
X745000D01*
Y354000D01*
X610898D01*
X610000Y354898D01*
Y435000D01*
X610398Y435960D01*
X613540D01*
Y449730D01*
X599460D01*
Y436000D01*
X587000D01*
Y473960D01*
X588230D01*
Y481000D01*
Y488040D01*
X587000D01*
Y491341D01*
X588173Y491827D01*
X590000Y490000D01*
D02*
G37*
G36*
X560000Y605000D02*
X604291D01*
X610422Y598869D01*
Y588390D01*
X608270D01*
Y580850D01*
Y573310D01*
X610422D01*
Y563420D01*
X610891Y561063D01*
X611210Y560585D01*
Y549610D01*
X619635D01*
X620230Y549492D01*
X628067D01*
X628220Y548285D01*
X628220Y548222D01*
Y544220D01*
X645240D01*
Y548285D01*
X636173D01*
X636048Y549555D01*
X638087Y549960D01*
X638617Y550315D01*
X645240D01*
Y560985D01*
X638617D01*
X638087Y561339D01*
X636048Y561745D01*
X636173Y563015D01*
X645240D01*
Y573685D01*
X633334D01*
X632478Y574542D01*
X632964Y575715D01*
X635460D01*
Y581050D01*
Y586385D01*
X629629D01*
Y596828D01*
X629676Y597063D01*
X629786Y597228D01*
X629836Y597261D01*
X629944Y597369D01*
X630077Y597444D01*
X630154Y597510D01*
X630819Y597881D01*
X630824Y597882D01*
X630965Y597941D01*
X631117Y597958D01*
X631122Y597960D01*
X642040D01*
Y602420D01*
X642189Y602643D01*
X642658Y605000D01*
X645342D01*
Y587613D01*
X645240Y586385D01*
X638000D01*
Y581050D01*
Y575715D01*
X645240D01*
Y576711D01*
X646510Y577096D01*
X647145Y576145D01*
X671995Y551295D01*
X673993Y549960D01*
X676350Y549492D01*
X678607D01*
X678760Y548285D01*
X678760Y548222D01*
Y544220D01*
X695780D01*
Y548285D01*
X686713D01*
X686588Y549555D01*
X688627Y549960D01*
X689157Y550315D01*
X695780D01*
Y560985D01*
X689226D01*
X689149Y561111D01*
X689062Y562440D01*
X689068Y562456D01*
X689679Y563015D01*
X695780D01*
Y573685D01*
X689157D01*
X688627Y574039D01*
X686588Y574445D01*
X686713Y575715D01*
X695780D01*
Y579780D01*
X678760D01*
Y577608D01*
X677587Y577122D01*
X676658Y578051D01*
Y605000D01*
X676189Y607357D01*
X676158Y607403D01*
Y615000D01*
X696766D01*
X697718Y613730D01*
X697351Y610000D01*
X697786Y605581D01*
X699075Y601333D01*
X701168Y597417D01*
X703985Y593985D01*
X707417Y591168D01*
X711333Y589075D01*
X715581Y587786D01*
X720000Y587351D01*
X720059Y587357D01*
X721000Y586504D01*
Y586000D01*
X745000D01*
Y529000D01*
X618788D01*
X618040Y529960D01*
X618040Y530270D01*
Y535730D01*
X606960D01*
Y530270D01*
X606960Y529960D01*
X606212Y529000D01*
X603788D01*
X603040Y529960D01*
Y534420D01*
X603190Y534643D01*
X603658Y537000D01*
Y540008D01*
X603618Y540210D01*
Y556949D01*
X603658Y557150D01*
X603190Y559507D01*
X603158Y559553D01*
Y573310D01*
X605730D01*
Y580850D01*
Y588390D01*
X601710D01*
Y586645D01*
X600440Y585966D01*
X599357Y586689D01*
X597000Y587158D01*
X594643Y586689D01*
X592645Y585355D01*
X591311Y583357D01*
X590842Y581000D01*
Y563308D01*
X561090D01*
Y568840D01*
X560000D01*
Y570000D01*
X517270D01*
Y551000D01*
X514730D01*
Y570000D01*
X305000D01*
Y695000D01*
X560000D01*
Y605000D01*
D02*
G37*
G36*
X555370Y533160D02*
X561090D01*
Y534000D01*
X569842D01*
Y530000D01*
X570310Y527643D01*
X571645Y525645D01*
X572689Y524948D01*
X572960Y523790D01*
X572960Y523790D01*
Y519770D01*
X580500D01*
Y517230D01*
X572960D01*
Y513210D01*
Y503710D01*
Y500770D01*
X580500D01*
Y498230D01*
X572960D01*
Y494210D01*
X579000D01*
Y488040D01*
X575770D01*
Y481000D01*
Y473960D01*
X579000D01*
Y466040D01*
X576770D01*
Y451000D01*
Y435960D01*
X579000D01*
Y433000D01*
X606102D01*
X607000Y432102D01*
Y355000D01*
X606204Y354000D01*
X534000D01*
Y430000D01*
X565000D01*
Y504000D01*
X563000Y506000D01*
X559540D01*
Y510730D01*
X553500D01*
Y512000D01*
X552230D01*
Y521040D01*
X550000D01*
Y533160D01*
X552830D01*
Y551000D01*
X555370D01*
Y533160D01*
D02*
G37*
%LPC*%
G36*
X471230Y480040D02*
X466460D01*
Y472270D01*
X471230D01*
Y480040D01*
D02*
G37*
G36*
X381730Y494980D02*
X375960D01*
Y479460D01*
X381730D01*
Y494980D01*
D02*
G37*
G36*
X390040D02*
X384270D01*
Y479460D01*
X390040D01*
Y494980D01*
D02*
G37*
G36*
X573230Y479730D02*
X568960D01*
Y473960D01*
X573230D01*
Y479730D01*
D02*
G37*
G36*
X595040D02*
X590770D01*
Y473960D01*
X595040D01*
Y479730D01*
D02*
G37*
G36*
X634540Y478730D02*
X628770D01*
Y470960D01*
X634540D01*
Y478730D01*
D02*
G37*
G36*
X520230Y472540D02*
X514460D01*
Y463270D01*
X520230D01*
Y472540D01*
D02*
G37*
G36*
X471230Y469730D02*
X466460D01*
Y461960D01*
X471230D01*
Y469730D01*
D02*
G37*
G36*
X613540Y466040D02*
X607770D01*
Y452270D01*
X613540D01*
Y466040D01*
D02*
G37*
G36*
X626230Y478730D02*
X620460D01*
Y470960D01*
X626230D01*
Y478730D01*
D02*
G37*
G36*
X551230Y472540D02*
X545460D01*
Y463270D01*
X551230D01*
Y472540D01*
D02*
G37*
G36*
X615040Y517230D02*
X608770D01*
Y513210D01*
X615040D01*
Y517230D01*
D02*
G37*
G36*
X477540Y526040D02*
X465460D01*
Y523158D01*
X453000D01*
X450643Y522690D01*
X448645Y521355D01*
X447310Y519357D01*
X446842Y517000D01*
X447310Y514643D01*
X448645Y512645D01*
X450643Y511310D01*
X453000Y510842D01*
X465460D01*
Y507960D01*
X477540D01*
Y516405D01*
X477658Y517000D01*
X477540Y517595D01*
Y526040D01*
D02*
G37*
G36*
X390040Y513040D02*
X384270D01*
Y497520D01*
X390040D01*
Y513040D01*
D02*
G37*
G36*
X559540Y521040D02*
X554770D01*
Y513270D01*
X559540D01*
Y521040D01*
D02*
G37*
G36*
X370524Y544730D02*
X349270D01*
Y523476D01*
X352419Y523786D01*
X356667Y525075D01*
X360583Y527168D01*
X364015Y529985D01*
X366832Y533417D01*
X368925Y537333D01*
X370214Y541581D01*
X370524Y544730D01*
D02*
G37*
G36*
X346730D02*
X325476D01*
X325786Y541581D01*
X327075Y537333D01*
X329168Y533417D01*
X331985Y529985D01*
X335417Y527168D01*
X339333Y525075D01*
X343581Y523786D01*
X346730Y523476D01*
Y544730D01*
D02*
G37*
G36*
X608770Y523790D02*
Y519770D01*
X615040D01*
Y523790D01*
X608770D01*
D02*
G37*
G36*
X595040Y488040D02*
X590770D01*
Y482270D01*
X595040D01*
Y488040D01*
D02*
G37*
G36*
X573230D02*
X568960D01*
Y482270D01*
X573230D01*
Y488040D01*
D02*
G37*
G36*
X552230Y487730D02*
X547460D01*
Y479960D01*
X552230D01*
Y487730D01*
D02*
G37*
G36*
Y498040D02*
X547460D01*
Y490270D01*
X552230D01*
Y498040D01*
D02*
G37*
G36*
X381730Y513040D02*
X375960D01*
Y497520D01*
X381730D01*
Y513040D01*
D02*
G37*
G36*
X721270Y512524D02*
Y491270D01*
X742524D01*
X742214Y494419D01*
X740925Y498667D01*
X738832Y502583D01*
X736015Y506015D01*
X732583Y508832D01*
X728667Y510925D01*
X724419Y512214D01*
X721270Y512524D01*
D02*
G37*
G36*
X718730D02*
X715581Y512214D01*
X711333Y510925D01*
X707417Y508832D01*
X703985Y506015D01*
X701168Y502583D01*
X699075Y498667D01*
X697786Y494419D01*
X697476Y491270D01*
X718730D01*
Y512524D01*
D02*
G37*
G36*
X561270Y422524D02*
Y401270D01*
X582524D01*
X582214Y404419D01*
X580925Y408667D01*
X578832Y412583D01*
X576015Y416015D01*
X572583Y418832D01*
X568667Y420925D01*
X564419Y422214D01*
X561270Y422524D01*
D02*
G37*
G36*
X558730D02*
X555581Y422214D01*
X551333Y420925D01*
X547417Y418832D01*
X543985Y416015D01*
X541168Y412583D01*
X539075Y408667D01*
X537786Y404419D01*
X537476Y401270D01*
X558730D01*
Y422524D01*
D02*
G37*
G36*
X508730D02*
X505581Y422214D01*
X501333Y420925D01*
X497417Y418832D01*
X493985Y416015D01*
X491168Y412583D01*
X489075Y408667D01*
X487786Y404419D01*
X487476Y401270D01*
X508730D01*
Y422524D01*
D02*
G37*
G36*
X381730Y420480D02*
X375960D01*
Y404960D01*
X381730D01*
Y420480D01*
D02*
G37*
G36*
X605040Y422540D02*
X597270D01*
Y409270D01*
X605040D01*
Y422540D01*
D02*
G37*
G36*
X594730D02*
X586960D01*
Y409270D01*
X594730D01*
Y422540D01*
D02*
G37*
G36*
X390040Y420480D02*
X384270D01*
Y404960D01*
X390040D01*
Y420480D01*
D02*
G37*
G36*
X582524Y398730D02*
X561270D01*
Y377476D01*
X564419Y377786D01*
X568667Y379075D01*
X572583Y381168D01*
X576015Y383985D01*
X578832Y387417D01*
X580925Y391333D01*
X582214Y395581D01*
X582524Y398730D01*
D02*
G37*
G36*
X558730D02*
X537476D01*
X537786Y395581D01*
X539075Y391333D01*
X541168Y387417D01*
X543985Y383985D01*
X547417Y381168D01*
X551333Y379075D01*
X555581Y377786D01*
X558730Y377476D01*
Y398730D01*
D02*
G37*
G36*
X508730D02*
X487476D01*
X487786Y395581D01*
X489075Y391333D01*
X491168Y387417D01*
X493985Y383985D01*
X497417Y381168D01*
X501333Y379075D01*
X505581Y377786D01*
X508730Y377476D01*
Y398730D01*
D02*
G37*
G36*
X594730Y406730D02*
X586960D01*
Y393460D01*
X594730D01*
Y406730D01*
D02*
G37*
G36*
X665040D02*
X657270D01*
Y393460D01*
X665040D01*
Y406730D01*
D02*
G37*
G36*
X654730D02*
X646960D01*
Y393460D01*
X654730D01*
Y406730D01*
D02*
G37*
G36*
X605040D02*
X597270D01*
Y393460D01*
X605040D01*
Y406730D01*
D02*
G37*
G36*
X718730Y462524D02*
X715581Y462214D01*
X711333Y460925D01*
X707417Y458832D01*
X703985Y456015D01*
X701168Y452583D01*
X699075Y448667D01*
X697786Y444419D01*
X697476Y441270D01*
X718730D01*
Y462524D01*
D02*
G37*
G36*
X574230Y449730D02*
X568460D01*
Y435960D01*
X574230D01*
Y449730D01*
D02*
G37*
G36*
X497540Y442730D02*
X492770D01*
Y434960D01*
X497540D01*
Y442730D01*
D02*
G37*
G36*
X721270Y462524D02*
Y441270D01*
X742524D01*
X742214Y444419D01*
X740925Y448667D01*
X738832Y452583D01*
X736015Y456015D01*
X732583Y458832D01*
X728667Y460925D01*
X724419Y462214D01*
X721270Y462524D01*
D02*
G37*
G36*
X605230Y466040D02*
X599460D01*
Y452270D01*
X605230D01*
Y466040D01*
D02*
G37*
G36*
X574230D02*
X568460D01*
Y452270D01*
X574230D01*
Y466040D01*
D02*
G37*
G36*
X551230Y460730D02*
X545460D01*
Y451460D01*
X551230D01*
Y460730D01*
D02*
G37*
G36*
X718730Y438730D02*
X697476D01*
X697786Y435581D01*
X699075Y431333D01*
X701168Y427417D01*
X703985Y423985D01*
X707417Y421168D01*
X711333Y419075D01*
X715581Y417786D01*
X718730Y417476D01*
Y438730D01*
D02*
G37*
G36*
X665040Y422540D02*
X657270D01*
Y409270D01*
X665040D01*
Y422540D01*
D02*
G37*
G36*
X654730D02*
X646960D01*
Y409270D01*
X654730D01*
Y422540D01*
D02*
G37*
G36*
X742524Y438730D02*
X721270D01*
Y417476D01*
X724419Y417786D01*
X728667Y419075D01*
X732583Y421168D01*
X736015Y423985D01*
X738832Y427417D01*
X740925Y431333D01*
X742214Y435581D01*
X742524Y438730D01*
D02*
G37*
G36*
X490230Y442730D02*
X485460D01*
Y434960D01*
X490230D01*
Y442730D01*
D02*
G37*
G36*
X390040Y438540D02*
X384270D01*
Y423020D01*
X390040D01*
Y438540D01*
D02*
G37*
G36*
X381730D02*
X375960D01*
Y423020D01*
X381730D01*
Y438540D01*
D02*
G37*
G36*
X476630Y549730D02*
X470910D01*
Y533160D01*
X476630D01*
Y549730D01*
D02*
G37*
G36*
X401730Y593540D02*
X392460D01*
Y587770D01*
X401730D01*
Y593540D01*
D02*
G37*
G36*
X695780Y586385D02*
X688540D01*
Y582320D01*
X695780D01*
Y586385D01*
D02*
G37*
G36*
X686000D02*
X678760D01*
Y582320D01*
X686000D01*
Y586385D01*
D02*
G37*
G36*
X413540Y593540D02*
X404270D01*
Y587770D01*
X413540D01*
Y593540D01*
D02*
G37*
G36*
X454730D02*
X445460D01*
Y587770D01*
X454730D01*
Y593540D01*
D02*
G37*
G36*
X439540D02*
X430270D01*
Y587770D01*
X439540D01*
Y593540D01*
D02*
G37*
G36*
X427730D02*
X418460D01*
Y587770D01*
X427730D01*
Y593540D01*
D02*
G37*
G36*
X413540Y585230D02*
X404270D01*
Y579460D01*
X413540D01*
Y585230D01*
D02*
G37*
G36*
X401730D02*
X392460D01*
Y579460D01*
X401730D01*
Y585230D01*
D02*
G37*
G36*
X545290Y622780D02*
X517270D01*
Y578810D01*
X545290D01*
Y622780D01*
D02*
G37*
G36*
X427730Y585230D02*
X418460D01*
Y579460D01*
X427730D01*
Y585230D01*
D02*
G37*
G36*
X466540D02*
X457270D01*
Y579460D01*
X466540D01*
Y585230D01*
D02*
G37*
G36*
X454730D02*
X445460D01*
Y579460D01*
X454730D01*
Y585230D01*
D02*
G37*
G36*
X439540D02*
X430270D01*
Y579460D01*
X439540D01*
Y585230D01*
D02*
G37*
G36*
X466540Y593540D02*
X457270D01*
Y587770D01*
X466540D01*
Y593540D01*
D02*
G37*
G36*
X684230Y612040D02*
X679960D01*
Y606270D01*
X684230D01*
Y612040D01*
D02*
G37*
G36*
X635230D02*
X630960D01*
Y606270D01*
X635230D01*
Y612040D01*
D02*
G37*
G36*
X691040Y603730D02*
X686770D01*
Y597960D01*
X691040D01*
Y603730D01*
D02*
G37*
G36*
Y612040D02*
X686770D01*
Y606270D01*
X691040D01*
Y612040D01*
D02*
G37*
G36*
X545290Y669290D02*
X517270D01*
Y625320D01*
X545290D01*
Y669290D01*
D02*
G37*
G36*
X514730D02*
X486710D01*
Y625320D01*
X514730D01*
Y669290D01*
D02*
G37*
G36*
X721270Y632524D02*
Y611270D01*
X742524D01*
X742214Y614419D01*
X740925Y618667D01*
X738832Y622583D01*
X736015Y626015D01*
X732583Y628832D01*
X728667Y630925D01*
X724419Y632214D01*
X721270Y632524D01*
D02*
G37*
G36*
X346730Y618524D02*
X343581Y618214D01*
X339333Y616925D01*
X335417Y614832D01*
X331985Y612015D01*
X329168Y608583D01*
X327075Y604667D01*
X325786Y600419D01*
X325476Y597270D01*
X346730D01*
Y618524D01*
D02*
G37*
G36*
X585040Y595230D02*
X577270D01*
Y589460D01*
X585040D01*
Y595230D01*
D02*
G37*
G36*
X574730D02*
X566960D01*
Y589460D01*
X574730D01*
Y595230D01*
D02*
G37*
G36*
X349270Y618524D02*
Y597270D01*
X370524D01*
X370214Y600419D01*
X368925Y604667D01*
X366832Y608583D01*
X364015Y612015D01*
X360583Y614832D01*
X356667Y616925D01*
X352419Y618214D01*
X349270Y618524D01*
D02*
G37*
G36*
X684230Y603730D02*
X679960D01*
Y597960D01*
X684230D01*
Y603730D01*
D02*
G37*
G36*
X585040Y603540D02*
X577270D01*
Y597770D01*
X585040D01*
Y603540D01*
D02*
G37*
G36*
X574730D02*
X566960D01*
Y597770D01*
X574730D01*
Y603540D01*
D02*
G37*
G36*
X413540Y554230D02*
X404270D01*
Y548460D01*
X413540D01*
Y554230D01*
D02*
G37*
G36*
X401730D02*
X392460D01*
Y548460D01*
X401730D01*
Y554230D01*
D02*
G37*
G36*
X618040Y544040D02*
X613770D01*
Y538270D01*
X618040D01*
Y544040D01*
D02*
G37*
G36*
X427730Y554230D02*
X418460D01*
Y548460D01*
X427730D01*
Y554230D01*
D02*
G37*
G36*
X466540D02*
X457270D01*
Y548460D01*
X466540D01*
Y554230D01*
D02*
G37*
G36*
X454730D02*
X445460D01*
Y548460D01*
X454730D01*
Y554230D01*
D02*
G37*
G36*
X439540D02*
X430270D01*
Y548460D01*
X439540D01*
Y554230D01*
D02*
G37*
G36*
X635460Y541680D02*
X628220D01*
Y537615D01*
X635460D01*
Y541680D01*
D02*
G37*
G36*
X742524Y558730D02*
X721270D01*
Y537476D01*
X724419Y537786D01*
X728667Y539075D01*
X732583Y541168D01*
X736015Y543985D01*
X738832Y547417D01*
X740925Y551333D01*
X742214Y555581D01*
X742524Y558730D01*
D02*
G37*
G36*
X718730D02*
X697476D01*
X697786Y555581D01*
X699075Y551333D01*
X701168Y547417D01*
X703985Y543985D01*
X707417Y541168D01*
X711333Y539075D01*
X715581Y537786D01*
X718730Y537476D01*
Y558730D01*
D02*
G37*
G36*
X645240Y541680D02*
X638000D01*
Y537615D01*
X645240D01*
Y541680D01*
D02*
G37*
G36*
X611230Y544040D02*
X606960D01*
Y538270D01*
X611230D01*
Y544040D01*
D02*
G37*
G36*
X695780Y541680D02*
X688540D01*
Y537615D01*
X695780D01*
Y541680D01*
D02*
G37*
G36*
X686000D02*
X678760D01*
Y537615D01*
X686000D01*
Y541680D01*
D02*
G37*
G36*
X401730Y562540D02*
X392460D01*
Y556770D01*
X401730D01*
Y562540D01*
D02*
G37*
G36*
X346730Y594730D02*
X325476D01*
X325786Y591581D01*
X327075Y587333D01*
X329168Y583417D01*
X331985Y579985D01*
X335417Y577168D01*
X339333Y575075D01*
X343581Y573786D01*
X346730Y573476D01*
Y594730D01*
D02*
G37*
G36*
X586540Y574230D02*
X577270D01*
Y568460D01*
X586540D01*
Y574230D01*
D02*
G37*
G36*
X574730D02*
X565460D01*
Y568460D01*
X574730D01*
Y574230D01*
D02*
G37*
G36*
X370524Y594730D02*
X349270D01*
Y573476D01*
X352419Y573786D01*
X356667Y575075D01*
X360583Y577168D01*
X364015Y579985D01*
X366832Y583417D01*
X368925Y587333D01*
X370214Y591581D01*
X370524Y594730D01*
D02*
G37*
G36*
X514730Y622780D02*
X486710D01*
Y578810D01*
X514730D01*
Y622780D01*
D02*
G37*
G36*
X586540Y582540D02*
X577270D01*
Y576770D01*
X586540D01*
Y582540D01*
D02*
G37*
G36*
X574730D02*
X565460D01*
Y576770D01*
X574730D01*
Y582540D01*
D02*
G37*
G36*
X439540Y562540D02*
X430270D01*
Y556770D01*
X439540D01*
Y562540D01*
D02*
G37*
G36*
X427730D02*
X418460D01*
Y556770D01*
X427730D01*
Y562540D01*
D02*
G37*
G36*
X413540D02*
X404270D01*
Y556770D01*
X413540D01*
Y562540D01*
D02*
G37*
G36*
X454730D02*
X445460D01*
Y556770D01*
X454730D01*
Y562540D01*
D02*
G37*
G36*
X721270Y582524D02*
Y561270D01*
X742524D01*
X742214Y564419D01*
X740925Y568667D01*
X738832Y572583D01*
X736015Y576015D01*
X732583Y578832D01*
X728667Y580925D01*
X724419Y582214D01*
X721270Y582524D01*
D02*
G37*
G36*
X718730D02*
X715581Y582214D01*
X711333Y580925D01*
X707417Y578832D01*
X703985Y576015D01*
X701168Y572583D01*
X699075Y568667D01*
X697786Y564419D01*
X697476Y561270D01*
X718730D01*
Y582524D01*
D02*
G37*
G36*
X466540Y562540D02*
X457270D01*
Y556770D01*
X466540D01*
Y562540D01*
D02*
G37*
%LPD*%
D10*
X490500Y517000D02*
D03*
X471500D02*
D03*
X491500Y444000D02*
D03*
X472500D02*
D03*
X491500Y471000D02*
D03*
X472500D02*
D03*
X491500Y494000D02*
D03*
X472500D02*
D03*
X534500Y489000D02*
D03*
X553500D02*
D03*
X553500Y512000D02*
D03*
X534500D02*
D03*
D11*
X516000Y501450D02*
D03*
Y522550D02*
D03*
D12*
X608500Y480000D02*
D03*
X627500D02*
D03*
D13*
X383000Y496250D02*
D03*
Y421750D02*
D03*
D14*
X552500Y462000D02*
D03*
X521500D02*
D03*
D15*
X403000Y555500D02*
D03*
Y586500D02*
D03*
X456000D02*
D03*
Y555500D02*
D03*
X429000D02*
D03*
Y586500D02*
D03*
X576000Y575500D02*
D03*
Y544500D02*
D03*
D16*
X574500Y481000D02*
D03*
X589500D02*
D03*
X597500Y537000D02*
D03*
X612500D02*
D03*
X636500Y605000D02*
D03*
X651500D02*
D03*
X670500D02*
D03*
X685500D02*
D03*
D17*
X606500Y451000D02*
D03*
X575500D02*
D03*
D18*
X596000Y408000D02*
D03*
X656000D02*
D03*
D19*
X580500Y518500D02*
D03*
Y509000D02*
D03*
Y499500D02*
D03*
X607500Y518500D02*
D03*
Y499500D02*
D03*
D20*
X576000Y615500D02*
D03*
Y596500D02*
D03*
D21*
X477900Y551000D02*
D03*
X490600D02*
D03*
X503300D02*
D03*
X516000D02*
D03*
X528700D02*
D03*
X541400D02*
D03*
X554100D02*
D03*
D22*
X516000Y624050D02*
D03*
D23*
X597500Y557150D02*
D03*
X616500D02*
D03*
X607000Y580850D02*
D03*
D24*
X687270Y542950D02*
D03*
Y555650D02*
D03*
Y568350D02*
D03*
Y581050D02*
D03*
X636730Y542950D02*
D03*
Y555650D02*
D03*
Y568350D02*
D03*
Y581050D02*
D03*
D25*
X686270Y535000D02*
Y542950D01*
X613770Y535000D02*
X686270D01*
X720000Y610000D02*
Y634000D01*
X713000Y641000D02*
X720000Y634000D01*
X643000Y641000D02*
X713000D01*
X636500Y634500D02*
X643000Y641000D01*
X636500Y605000D02*
Y634500D01*
X687270Y581050D02*
X690877D01*
X685500Y605000D02*
X687270Y603230D01*
Y581050D02*
Y603230D01*
X616580Y563420D02*
Y601420D01*
X602500Y615500D02*
X616580Y601420D01*
X651500Y580500D02*
X676350Y555650D01*
X651500Y580500D02*
Y605000D01*
X676350Y555650D02*
X686270D01*
X597000Y557150D02*
Y581000D01*
X670000Y605500D02*
X670500Y605000D01*
X670000Y605500D02*
Y623000D01*
X597000Y557150D02*
X597500D01*
X560250D02*
X597000D01*
X597460Y540048D02*
X597500Y540008D01*
X597000Y540508D02*
X597460Y540048D01*
X597000Y540508D02*
Y557150D01*
X597500Y537000D02*
X597500Y537000D01*
Y540008D01*
X670500Y575500D02*
Y605000D01*
Y575500D02*
X677650Y568350D01*
X686270D01*
X707320Y560000D02*
X720000D01*
X612500Y537000D02*
X633000D01*
X635730Y539730D01*
X607040Y553198D02*
Y580810D01*
X607000Y553158D02*
X607040Y553198D01*
X620230Y555650D02*
X635730D01*
X607000Y544000D02*
Y553158D01*
Y580850D02*
X607040Y580810D01*
X576000Y615500D02*
X602500D01*
X607000Y544000D02*
X612500Y538500D01*
Y537000D02*
Y538500D01*
X597460Y540048D02*
Y557110D01*
X597500Y557150D01*
X576000Y596500D02*
X599500D01*
X607000Y589000D01*
Y580850D02*
Y589000D01*
X554100Y551000D02*
X560250Y557150D01*
X720000Y490000D02*
Y516000D01*
X717000Y519000D02*
X720000Y516000D01*
X685000Y519000D02*
X717000D01*
X680000Y514000D02*
X685000Y519000D01*
X612000Y514000D02*
X680000D01*
X609000Y517000D02*
X612000Y514000D01*
X563000Y403000D02*
X584000D01*
X560000Y400000D02*
X563000Y403000D01*
X584000D02*
X586500Y405500D01*
X569000Y432000D02*
X576000Y439000D01*
X569000Y432000D02*
X573000Y428000D01*
X596000D01*
Y408000D02*
Y428000D01*
X593500Y405500D02*
X596000Y408000D01*
X586500Y405500D02*
X593500D01*
X576000Y439000D02*
Y450500D01*
X566000Y499500D02*
X580500D01*
X579960Y486460D02*
Y498960D01*
X589500Y481000D02*
X591000Y479500D01*
Y460000D02*
Y479500D01*
Y460000D02*
X600000Y451000D01*
X627500Y453500D02*
Y480000D01*
X619000Y445000D02*
X627500Y453500D01*
X612500Y445000D02*
X619000D01*
X606500Y451000D02*
X612500Y445000D01*
X553500Y596500D02*
X576000D01*
X550950Y599050D02*
X553500Y596500D01*
X550950Y599050D02*
Y624050D01*
X516000D02*
X550950D01*
X456000Y586500D02*
Y606000D01*
X474050Y624050D01*
X516000D01*
X348000Y596000D02*
X380000D01*
X389500Y586500D01*
X403000D01*
X429000D02*
X456000D01*
X403000D02*
X429000D01*
X434000Y400000D02*
X510000D01*
X412250Y421750D02*
X434000Y400000D01*
X383000Y421750D02*
X412250D01*
X422000Y471000D02*
X472500D01*
X396750Y496250D02*
X422000Y471000D01*
X383000Y496250D02*
X396750D01*
X553500Y451500D02*
Y464000D01*
X510000Y408000D02*
Y436000D01*
X552500Y463000D02*
X553500Y464000D01*
X546000Y444000D02*
X553500Y451500D01*
X531000Y444000D02*
X546000D01*
X520000Y433000D02*
X531000Y444000D01*
X520000Y418000D02*
Y433000D01*
X510000Y408000D02*
X520000Y418000D01*
X510000Y400000D02*
Y408000D01*
X576000Y530000D02*
Y544500D01*
X541400Y527600D02*
X542000Y527000D01*
X541400Y527600D02*
Y551000D01*
X403000Y555500D02*
X429000D01*
X366500D02*
X403000D01*
X473400D02*
X477900Y551000D01*
X456000Y555500D02*
X473400D01*
X429000D02*
X456000D01*
X357000Y546000D02*
X366500Y555500D01*
X348000Y546000D02*
X357000D01*
X352750Y496250D02*
X383000D01*
X348000Y501000D02*
X352750Y496250D01*
X348000Y501000D02*
Y546000D01*
X460000Y444000D02*
X472500D01*
X516000Y499000D02*
Y501450D01*
X493355Y476355D02*
X516000Y499000D01*
X491500Y471000D02*
X507000D01*
X453000Y517000D02*
X471500D01*
X503300Y501300D02*
Y551000D01*
X608500Y480000D02*
Y498500D01*
X656000Y408000D02*
X714000D01*
X720000Y414000D01*
Y440000D01*
X656000Y408000D02*
Y437000D01*
X650000Y443000D02*
X656000Y437000D01*
X609000Y443000D02*
X650000D01*
X606500Y445500D02*
X609000Y443000D01*
X606500Y445500D02*
Y451000D01*
X600000D02*
X606500D01*
X588000Y509000D02*
X591540Y505460D01*
Y494248D02*
Y505460D01*
X589500Y492208D02*
X591540Y494248D01*
X589500Y481000D02*
Y492208D01*
X579960Y498960D02*
X580500Y499500D01*
X574500Y481000D02*
X579960Y486460D01*
X574500Y452000D02*
Y481000D01*
Y452000D02*
X576000Y450500D01*
X553500Y512000D02*
X566000Y499500D01*
X562000Y512000D02*
X568500Y518500D01*
X553500Y512000D02*
X562000D01*
X568500Y518500D02*
X580500D01*
X481960Y484998D02*
Y491040D01*
Y484998D02*
X482040Y484918D01*
Y474960D02*
Y484918D01*
X486000Y471000D02*
X491500D01*
X482040Y474960D02*
X486000Y471000D01*
X479000Y494000D02*
X481960Y491040D01*
X472500Y494000D02*
X479000D01*
X534500Y489000D02*
Y512000D01*
X478540Y458460D02*
X522500D01*
X472500Y464500D02*
X478540Y458460D01*
X472500Y464500D02*
Y471000D01*
X491500Y444000D02*
X502000D01*
X510000Y436000D01*
X553500Y464000D02*
Y489000D01*
X553500Y512000D02*
X554100Y512600D01*
Y551000D01*
X516000Y624050D02*
X516500Y623550D01*
Y575500D02*
Y623550D01*
Y575500D02*
X576000D01*
Y596500D01*
X528700Y520800D02*
X534500Y515000D01*
X528700Y520800D02*
Y551000D01*
X516000Y522550D02*
Y551000D01*
X496000Y494000D02*
X503300Y501300D01*
X491500Y494000D02*
X496000D01*
X490600Y517100D02*
Y551000D01*
X516000D02*
Y624050D01*
D26*
X625000Y575473D02*
Y599000D01*
Y575473D02*
X632123Y568350D01*
X625000Y599000D02*
X631000Y605000D01*
X636500D01*
D27*
X632123Y568350D02*
X636730D01*
D28*
X348000Y596000D02*
D03*
X510000Y400000D02*
D03*
X720000Y440000D02*
D03*
Y490000D02*
D03*
X348000Y546000D02*
D03*
X560000Y400000D02*
D03*
X720000Y560000D02*
D03*
Y610000D02*
D03*
D29*
X670000Y623000D02*
D03*
X597000Y581000D02*
D03*
X576000Y530000D02*
D03*
X542000Y527000D02*
D03*
X460000Y444000D02*
D03*
X507000Y471000D02*
D03*
X453000Y517000D02*
D03*
X498000Y594000D02*
D03*
X510000D02*
D03*
X522000D02*
D03*
X535000D02*
D03*
Y605000D02*
D03*
X522000D02*
D03*
X510000D02*
D03*
X498000D02*
D03*
Y617000D02*
D03*
X510000D02*
D03*
X522000D02*
D03*
X535000D02*
D03*
Y629000D02*
D03*
X522000D02*
D03*
X510000D02*
D03*
X498000D02*
D03*
Y641000D02*
D03*
Y653000D02*
D03*
X510000D02*
D03*
Y641000D02*
D03*
X522000D02*
D03*
Y653000D02*
D03*
X535000D02*
D03*
Y641000D02*
D03*
M02*
