G04 Layer_Color=8388736*
%FSLAX44Y44*%
%MOMM*%
G71*
G01*
G75*
%ADD32R,0.9032X1.5032*%
%ADD33R,0.6532X0.7932*%
%ADD34R,1.1032X1.5032*%
%ADD35R,1.1032X3.0532*%
%ADD36R,1.1032X1.8032*%
%ADD37R,1.8032X1.1032*%
%ADD38R,0.8032X1.1032*%
%ADD39R,1.1032X2.7032*%
%ADD40R,1.5032X2.6032*%
%ADD41R,1.2032X0.7532*%
%ADD42R,1.5032X1.1032*%
%ADD43R,1.0932X3.2632*%
%ADD44R,5.5532X8.7432*%
%ADD45R,0.6900X1.1400*%
%ADD46R,1.3972X0.7622*%
%ADD47C,4.2032*%
%ADD48C,0.6532*%
D32*
X490500Y517000D02*
D03*
X471500D02*
D03*
X491500Y444000D02*
D03*
X472500D02*
D03*
X491500Y471000D02*
D03*
X472500D02*
D03*
X491500Y494000D02*
D03*
X472500D02*
D03*
X534500Y489000D02*
D03*
X553500D02*
D03*
X553500Y512000D02*
D03*
X534500D02*
D03*
D33*
X516000Y501450D02*
D03*
Y522550D02*
D03*
D34*
X608500Y480000D02*
D03*
X627500D02*
D03*
D35*
X383000Y496250D02*
D03*
Y421750D02*
D03*
D36*
X552500Y462000D02*
D03*
X521500D02*
D03*
D37*
X403000Y555500D02*
D03*
Y586500D02*
D03*
X456000D02*
D03*
Y555500D02*
D03*
X429000D02*
D03*
Y586500D02*
D03*
X576000Y575500D02*
D03*
Y544500D02*
D03*
D38*
X574500Y481000D02*
D03*
X589500D02*
D03*
X597500Y537000D02*
D03*
X612500D02*
D03*
X636500Y605000D02*
D03*
X651500D02*
D03*
X670500D02*
D03*
X685500D02*
D03*
D39*
X606500Y451000D02*
D03*
X575500D02*
D03*
D40*
X596000Y408000D02*
D03*
X656000D02*
D03*
D41*
X580500Y518500D02*
D03*
Y509000D02*
D03*
Y499500D02*
D03*
X607500Y518500D02*
D03*
Y499500D02*
D03*
D42*
X576000Y615500D02*
D03*
Y596500D02*
D03*
D43*
X477900Y551000D02*
D03*
X490600D02*
D03*
X503300D02*
D03*
X516000D02*
D03*
X528700D02*
D03*
X541400D02*
D03*
X554100D02*
D03*
D44*
X516000Y624050D02*
D03*
D45*
X597500Y557150D02*
D03*
X616500D02*
D03*
X607000Y580850D02*
D03*
D46*
X687270Y542950D02*
D03*
Y555650D02*
D03*
Y568350D02*
D03*
Y581050D02*
D03*
X636730Y542950D02*
D03*
Y555650D02*
D03*
Y568350D02*
D03*
Y581050D02*
D03*
D47*
X348000Y596000D02*
D03*
X510000Y400000D02*
D03*
X720000Y440000D02*
D03*
Y490000D02*
D03*
X348000Y546000D02*
D03*
X560000Y400000D02*
D03*
X720000Y560000D02*
D03*
Y610000D02*
D03*
D48*
X670000Y623000D02*
D03*
X597000Y581000D02*
D03*
X576000Y530000D02*
D03*
X542000Y527000D02*
D03*
X460000Y444000D02*
D03*
X507000Y471000D02*
D03*
X453000Y517000D02*
D03*
X498000Y594000D02*
D03*
X510000D02*
D03*
X522000D02*
D03*
X535000D02*
D03*
Y605000D02*
D03*
X522000D02*
D03*
X510000D02*
D03*
X498000D02*
D03*
Y617000D02*
D03*
X510000D02*
D03*
X522000D02*
D03*
X535000D02*
D03*
Y629000D02*
D03*
X522000D02*
D03*
X510000D02*
D03*
X498000D02*
D03*
Y641000D02*
D03*
Y653000D02*
D03*
X510000D02*
D03*
Y641000D02*
D03*
X522000D02*
D03*
Y653000D02*
D03*
X535000D02*
D03*
Y641000D02*
D03*
M02*
