M48
;Layer_Color=9474304
;FILE_FORMAT=2:4
INCH
;TYPE=PLATED
T1F00S00C0.0079
T2F00S00C0.0354
T3F00S00C0.0394
T4F00S00C0.0433
%
T01
X015709Y012677
T02
X015094Y013701
X016094
X017094
X018094
X019094
X019268Y011787
Y010787
X018268
Y011787
X020268
Y010787
X021268
Y011787
X022953Y016339
Y017339
Y018339
Y019567
Y020567
Y021567
Y022835
Y023835
Y024835
X011732Y024532
Y025531
Y026799
Y027799
Y028799
Y023531
Y022531
Y021142
Y020142
Y019142
T03
X012067Y011260
X013445
X020079Y015705
Y016705
Y017705
Y018705
Y019705
Y020705
Y021705
Y022705
Y023705
Y024705
Y025705
Y026705
Y027705
Y028705
X014094
Y027705
Y026705
Y025705
Y024705
Y023705
Y022705
Y021705
Y020705
Y019705
Y018705
Y017705
Y016705
Y015705
T04
X011272Y016260
X012272
X012232Y017677
X011232
M30
