G04 Layer_Color=65535*
%FSLAX44Y44*%
%MOMM*%
G71*
G01*
G75*
%ADD30C,0.2000*%
%ADD31C,0.2540*%
D30*
X158853Y86980D02*
G03*
X165147Y86980I3147J420D01*
G01*
X-35000Y8000D02*
Y26000D01*
X-3000D01*
Y8000D02*
Y26000D01*
X-35000Y8000D02*
X-3000D01*
X-34000Y-65000D02*
Y-47000D01*
X-2000D01*
Y-65000D02*
Y-47000D01*
X-34000Y-65000D02*
X-2000D01*
X-34000Y-38000D02*
Y-20000D01*
X-2000D01*
Y-38000D02*
Y-20000D01*
X-34000Y-38000D02*
X-2000D01*
X11000Y17250D02*
X21500D01*
Y6750D02*
Y17250D01*
X11000Y6750D02*
X21500D01*
X11000D02*
Y17250D01*
X100500Y-29250D02*
X135780D01*
X100500D02*
Y-10750D01*
X135780D01*
Y-24500D02*
Y-15500D01*
Y-10750D01*
Y-29250D02*
Y-24500D01*
X-34000Y-15000D02*
Y3000D01*
X-2000D01*
Y-15000D02*
Y3000D01*
X-34000Y-15000D02*
X-2000D01*
X-168500Y-92500D02*
Y10500D01*
X-65500Y-92500D02*
Y10500D01*
X-108750D02*
X-65500D01*
X-168500D02*
X-125250D01*
X-108750Y-92500D02*
X-65500D01*
X-168500D02*
X-125000D01*
X-168500Y-88500D02*
X-125000D01*
X-108750Y-88500D02*
X-65750D01*
X14140Y-48500D02*
Y-27250D01*
X59860D01*
Y-48500D02*
Y-27250D01*
X14140Y-48500D02*
X59860D01*
X-107500Y93860D02*
X-86250D01*
Y48140D02*
Y93860D01*
X-107500Y48140D02*
X-86250D01*
X-107500D02*
Y93860D01*
X-54750Y48140D02*
X-33500D01*
X-54750D02*
Y93860D01*
X-33500D01*
Y48140D02*
Y93860D01*
X-81500D02*
X-60250D01*
Y48140D02*
Y93860D01*
X-81500Y48140D02*
X-60250D01*
X-81500D02*
Y93860D01*
X95000Y-26000D02*
Y-12000D01*
X69000Y-26000D02*
X95000D01*
X69000D02*
Y-12000D01*
X95000D01*
X65250Y37140D02*
X86500D01*
X65250D02*
Y82860D01*
X86500D01*
Y37140D02*
Y82860D01*
X60000Y-20000D02*
Y-2000D01*
X28000Y-20000D02*
X60000D01*
X28000D02*
Y-2000D01*
X60000D01*
X68000Y-64000D02*
Y-34000D01*
X114000D01*
Y-64000D02*
Y-34000D01*
X68000Y-64000D02*
X114000D01*
X85000Y-109500D02*
X167000D01*
Y-74500D01*
X85000Y-109500D02*
Y-77750D01*
X88250Y-74500D01*
X167000D01*
X99750Y-4250D02*
Y23250D01*
X88500Y-4250D02*
X99750D01*
X88500D02*
Y23250D01*
Y23250D02*
X99750D01*
X28000Y3000D02*
Y21000D01*
X60000D01*
Y3000D02*
Y21000D01*
X28000Y3000D02*
X60000D01*
X66750Y88220D02*
Y123500D01*
X85250D01*
Y88220D02*
Y123500D01*
X71500Y88220D02*
X80500D01*
X85250D01*
X66750D02*
X71500D01*
X118000Y30000D02*
Y44000D01*
X92000Y30000D02*
X118000D01*
X92000D02*
Y44000D01*
X118000D01*
X130750Y97750D02*
X157250D01*
Y112250D01*
X130750D02*
X157250D01*
X130750Y97750D02*
Y112250D01*
X93000Y73250D02*
X121000D01*
Y65250D02*
Y73250D01*
X93000Y65000D02*
X121000D01*
X93000D02*
Y73000D01*
X142000Y37000D02*
X182000D01*
X165175Y87000D02*
X182000D01*
X142000D02*
X158825D01*
X191000Y98000D02*
Y112000D01*
X165000Y98000D02*
X191000D01*
X165000D02*
Y112000D01*
X191000D01*
D31*
X-24750Y74500D02*
X55500D01*
Y171250D01*
X-24750D02*
X55500D01*
X-24750Y74500D02*
Y171250D01*
X-181003Y61000D02*
X-187668D01*
X-191000Y57668D01*
X-187668Y54335D01*
X-181003D01*
Y51003D02*
Y47671D01*
Y49337D01*
X-191000D01*
Y51003D01*
Y47671D01*
Y42673D02*
X-181003D01*
X-191000Y36008D01*
X-181003D01*
X-186002Y32676D02*
Y26011D01*
X-182669Y29344D02*
X-189334D01*
X-181003Y112000D02*
X-187668D01*
X-191000Y108668D01*
X-187668Y105336D01*
X-181003D01*
Y102003D02*
Y98671D01*
Y100337D01*
X-191000D01*
Y102003D01*
Y98671D01*
Y93673D02*
X-181003D01*
X-191000Y87008D01*
X-181003D01*
X-186002Y83676D02*
Y77011D01*
X3665Y-131669D02*
X1998Y-130003D01*
X-1334D01*
X-3000Y-131669D01*
Y-138334D01*
X-1334Y-140000D01*
X1998D01*
X3665Y-138334D01*
Y-135002D01*
X332D01*
X6997Y-140000D02*
Y-130003D01*
X13661Y-140000D01*
Y-130003D01*
X16994D02*
Y-140000D01*
X21992D01*
X23658Y-138334D01*
Y-131669D01*
X21992Y-130003D01*
X16994D01*
X45000Y-135002D02*
X51665D01*
X48332Y-131669D02*
Y-138334D01*
X61661Y-130003D02*
X54997D01*
Y-135002D01*
X58329Y-133336D01*
X59995D01*
X61661Y-135002D01*
Y-138334D01*
X59995Y-140000D01*
X56663D01*
X54997Y-138334D01*
X64994Y-130003D02*
Y-136668D01*
X68326Y-140000D01*
X71658Y-136668D01*
Y-130003D01*
X181669Y-66336D02*
X180003Y-68002D01*
Y-71334D01*
X181669Y-73000D01*
X188334D01*
X190000Y-71334D01*
Y-68002D01*
X188334Y-66336D01*
X185002D01*
Y-69668D01*
X190000Y-63003D02*
X180003D01*
X190000Y-56339D01*
X180003D01*
Y-53006D02*
X190000D01*
Y-48008D01*
X188334Y-46342D01*
X181669D01*
X180003Y-48008D01*
Y-53006D01*
X213664Y32331D02*
X211998Y33997D01*
X208666D01*
X207000Y32331D01*
Y25666D01*
X208666Y24000D01*
X211998D01*
X213664Y25666D01*
Y28998D01*
X210332D01*
X216997Y24000D02*
Y33997D01*
X223661Y24000D01*
Y33997D01*
X226994D02*
Y24000D01*
X231992D01*
X233658Y25666D01*
Y32331D01*
X231992Y33997D01*
X226994D01*
X185002Y-34000D02*
Y-27336D01*
X181669Y-30668D02*
X188334D01*
X181669Y-24003D02*
X180003Y-22337D01*
Y-19005D01*
X181669Y-17339D01*
X183335D01*
X185002Y-19005D01*
Y-20671D01*
Y-19005D01*
X186668Y-17339D01*
X188334D01*
X190000Y-19005D01*
Y-22337D01*
X188334Y-24003D01*
X190000Y-14006D02*
X188334D01*
Y-12340D01*
X190000D01*
Y-14006D01*
X181669Y-5676D02*
X180003Y-4010D01*
Y-677D01*
X181669Y989D01*
X183335D01*
X185002Y-677D01*
Y-2344D01*
Y-677D01*
X186668Y989D01*
X188334D01*
X190000Y-677D01*
Y-4010D01*
X188334Y-5676D01*
X180003Y4321D02*
X186668D01*
X190000Y7653D01*
X186668Y10985D01*
X180003D01*
X187000Y142998D02*
X193664D01*
X190332Y146331D02*
Y139666D01*
X196997Y138000D02*
X200329D01*
X198663D01*
Y147997D01*
X196997Y146331D01*
X205327Y138000D02*
Y139666D01*
X206994D01*
Y138000D01*
X205327D01*
X220323D02*
X213658D01*
X220323Y144664D01*
Y146331D01*
X218657Y147997D01*
X215324D01*
X213658Y146331D01*
X230319Y147997D02*
X223655D01*
Y142998D01*
X226987Y144664D01*
X228653D01*
X230319Y142998D01*
Y139666D01*
X228653Y138000D01*
X225321D01*
X223655Y139666D01*
X233652Y147997D02*
Y141332D01*
X236984Y138000D01*
X240316Y141332D01*
Y147997D01*
X-175336Y179331D02*
X-177002Y180997D01*
X-180334D01*
X-182000Y179331D01*
Y172666D01*
X-180334Y171000D01*
X-177002D01*
X-175336Y172666D01*
Y175998D01*
X-178668D01*
X-172003Y171000D02*
Y177665D01*
X-168671Y180997D01*
X-165339Y177665D01*
Y171000D01*
Y175998D01*
X-172003D01*
X-162006Y180997D02*
Y171000D01*
X-155342D01*
X-152010Y180997D02*
X-148677D01*
X-150344D01*
Y171000D01*
X-152010D01*
X-148677D01*
X-143679Y180997D02*
Y171000D01*
X-137015D01*
X-127018Y180997D02*
X-133682D01*
Y171000D01*
X-127018D01*
X-133682Y175998D02*
X-130350D01*
X-118687Y180997D02*
X-122019D01*
X-123686Y179331D01*
Y172666D01*
X-122019Y171000D01*
X-118687D01*
X-117021Y172666D01*
Y179331D01*
X-118687Y180997D01*
X-103692D02*
Y171000D01*
Y175998D01*
X-97027D01*
Y180997D01*
Y171000D01*
X-93695D02*
Y177665D01*
X-90363Y180997D01*
X-87031Y177665D01*
Y171000D01*
Y175998D01*
X-93695D01*
X-83698Y171000D02*
Y180997D01*
X-77034Y171000D01*
Y180997D01*
X-73702D02*
Y171000D01*
X-68703D01*
X-67037Y172666D01*
Y179331D01*
X-68703Y180997D01*
X-73702D01*
X-175336Y158331D02*
X-177002Y159997D01*
X-180334D01*
X-182000Y158331D01*
Y156664D01*
X-180334Y154998D01*
X-177002D01*
X-175336Y153332D01*
Y151666D01*
X-177002Y150000D01*
X-180334D01*
X-182000Y151666D01*
X-172003Y159997D02*
Y150000D01*
X-168671Y153332D01*
X-165339Y150000D01*
Y159997D01*
X-162006D02*
X-158674D01*
X-160340D01*
Y150000D01*
X-162006D01*
X-158674D01*
X-153676Y159997D02*
X-147011D01*
X-150344D01*
Y150000D01*
X-137015Y158331D02*
X-138681Y159997D01*
X-142013D01*
X-143679Y158331D01*
Y151666D01*
X-142013Y150000D01*
X-138681D01*
X-137015Y151666D01*
X-133682Y159997D02*
Y150000D01*
Y154998D01*
X-127018D01*
Y159997D01*
Y150000D01*
X-123686Y159997D02*
X-120353D01*
X-122019D01*
Y150000D01*
X-123686D01*
X-120353D01*
X-115355D02*
Y159997D01*
X-108690Y150000D01*
Y159997D01*
X-98694Y158331D02*
X-100360Y159997D01*
X-103692D01*
X-105358Y158331D01*
Y151666D01*
X-103692Y150000D01*
X-100360D01*
X-98694Y151666D01*
Y154998D01*
X-102026D01*
X-85365Y150000D02*
Y159997D01*
X-82032Y156664D01*
X-78700Y159997D01*
Y150000D01*
X-70369Y159997D02*
X-73702D01*
X-75368Y158331D01*
Y151666D01*
X-73702Y150000D01*
X-70369D01*
X-68703Y151666D01*
Y158331D01*
X-70369Y159997D01*
X-65371D02*
Y150000D01*
X-60373D01*
X-58706Y151666D01*
Y158331D01*
X-60373Y159997D01*
X-65371D01*
X-48710D02*
X-55374D01*
Y150000D01*
X-48710D01*
X-55374Y154998D02*
X-52042D01*
X-182000Y129000D02*
Y138997D01*
X-177002D01*
X-175336Y137331D01*
Y133998D01*
X-177002Y132332D01*
X-182000D01*
X-167005Y138997D02*
X-170337D01*
X-172003Y137331D01*
Y130666D01*
X-170337Y129000D01*
X-167005D01*
X-165339Y130666D01*
Y137331D01*
X-167005Y138997D01*
X-162006D02*
Y129000D01*
X-158674Y132332D01*
X-155342Y129000D01*
Y138997D01*
X-145345D02*
X-152010D01*
Y129000D01*
X-145345D01*
X-152010Y133998D02*
X-148677D01*
X-142013Y129000D02*
Y138997D01*
X-137015D01*
X-135348Y137331D01*
Y133998D01*
X-137015Y132332D01*
X-142013D01*
X-138681D02*
X-135348Y129000D01*
X-115355Y137331D02*
X-117021Y138997D01*
X-120353D01*
X-122019Y137331D01*
Y135665D01*
X-120353Y133998D01*
X-117021D01*
X-115355Y132332D01*
Y130666D01*
X-117021Y129000D01*
X-120353D01*
X-122019Y130666D01*
X-112022Y138997D02*
Y130666D01*
X-110356Y129000D01*
X-107024D01*
X-105358Y130666D01*
Y138997D01*
X-102026Y129000D02*
Y138997D01*
X-97027D01*
X-95361Y137331D01*
Y133998D01*
X-97027Y132332D01*
X-102026D01*
X-92029Y129000D02*
Y138997D01*
X-87031D01*
X-85365Y137331D01*
Y133998D01*
X-87031Y132332D01*
X-92029D01*
X-82032Y138997D02*
Y129000D01*
X-75368D01*
X-72035Y138997D02*
Y137331D01*
X-68703Y133998D01*
X-65371Y137331D01*
Y138997D01*
X-68703Y133998D02*
Y129000D01*
M02*
