G04 Layer_Physical_Order=2*
G04 Layer_Color=16711680*
%FSLAX44Y44*%
%MOMM*%
G71*
G01*
G75*
%ADD25C,0.7000*%
%ADD28C,4.0000*%
%ADD29C,0.4500*%
G36*
X245000Y-146000D02*
X-195000D01*
Y195000D01*
X245000D01*
Y-146000D01*
D02*
G37*
%LPC*%
G36*
X221270Y-37476D02*
Y-58730D01*
X242524D01*
X242214Y-55581D01*
X240925Y-51333D01*
X238832Y-47417D01*
X236015Y-43985D01*
X232583Y-41168D01*
X228667Y-39075D01*
X224419Y-37786D01*
X221270Y-37476D01*
D02*
G37*
G36*
X218730D02*
X215581Y-37786D01*
X211333Y-39075D01*
X207417Y-41168D01*
X203985Y-43985D01*
X201168Y-47417D01*
X199075Y-51333D01*
X197786Y-55581D01*
X197476Y-58730D01*
X218730D01*
Y-37476D01*
D02*
G37*
G36*
X7000Y-22842D02*
X4643Y-23310D01*
X2645Y-24645D01*
X1311Y-26643D01*
X842Y-29000D01*
Y-44449D01*
X-4551Y-49842D01*
X-40000D01*
X-42357Y-50310D01*
X-44355Y-51645D01*
X-45690Y-53643D01*
X-46158Y-56000D01*
X-45690Y-58357D01*
X-44355Y-60355D01*
X-42357Y-61690D01*
X-40000Y-62158D01*
X-2000D01*
X357Y-61690D01*
X2355Y-60355D01*
X11355Y-51355D01*
X12690Y-49357D01*
X13158Y-47000D01*
Y-29000D01*
X12690Y-26643D01*
X11355Y-24645D01*
X9357Y-23310D01*
X7000Y-22842D01*
D02*
G37*
G36*
X-42369Y15730D02*
X-45730D01*
Y12369D01*
X-45131Y12488D01*
X-43547Y13547D01*
X-42488Y15131D01*
X-42369Y15730D01*
D02*
G37*
G36*
X-48270D02*
X-51631D01*
X-51512Y15131D01*
X-50453Y13547D01*
X-48869Y12488D01*
X-48270Y12369D01*
Y15730D01*
D02*
G37*
G36*
X220000Y12649D02*
X215581Y12214D01*
X211333Y10925D01*
X207417Y8832D01*
X203985Y6015D01*
X201168Y2583D01*
X199075Y-1333D01*
X197786Y-5581D01*
X197351Y-10000D01*
X197786Y-14419D01*
X199075Y-18667D01*
X201168Y-22583D01*
X203985Y-26015D01*
X207417Y-28832D01*
X211333Y-30925D01*
X215581Y-32214D01*
X220000Y-32649D01*
X224419Y-32214D01*
X228667Y-30925D01*
X232583Y-28832D01*
X236015Y-26015D01*
X238832Y-22583D01*
X240925Y-18667D01*
X242214Y-14419D01*
X242649Y-10000D01*
X242214Y-5581D01*
X240925Y-1333D01*
X238832Y2583D01*
X236015Y6015D01*
X232583Y8832D01*
X228667Y10925D01*
X224419Y12214D01*
X220000Y12649D01*
D02*
G37*
G36*
X242524Y-61270D02*
X221270D01*
Y-82524D01*
X224419Y-82214D01*
X228667Y-80925D01*
X232583Y-78832D01*
X236015Y-76015D01*
X238832Y-72583D01*
X240925Y-68667D01*
X242214Y-64419D01*
X242524Y-61270D01*
D02*
G37*
G36*
X32524Y-101270D02*
X11270D01*
Y-122524D01*
X14419Y-122214D01*
X18667Y-120925D01*
X22583Y-118832D01*
X26015Y-116015D01*
X28832Y-112583D01*
X30925Y-108667D01*
X32214Y-104419D01*
X32524Y-101270D01*
D02*
G37*
G36*
X8730D02*
X-12524D01*
X-12214Y-104419D01*
X-10925Y-108667D01*
X-8832Y-112583D01*
X-6015Y-116015D01*
X-2583Y-118832D01*
X1333Y-120925D01*
X5581Y-122214D01*
X8730Y-122524D01*
Y-101270D01*
D02*
G37*
G36*
X60000Y-77351D02*
X55581Y-77786D01*
X51333Y-79075D01*
X47417Y-81168D01*
X43985Y-83985D01*
X41168Y-87417D01*
X39075Y-91333D01*
X37786Y-95581D01*
X37351Y-100000D01*
X37786Y-104419D01*
X39075Y-108667D01*
X41168Y-112583D01*
X43985Y-116015D01*
X47417Y-118832D01*
X51333Y-120925D01*
X55581Y-122214D01*
X60000Y-122649D01*
X64419Y-122214D01*
X68667Y-120925D01*
X72583Y-118832D01*
X76015Y-116015D01*
X78832Y-112583D01*
X80925Y-108667D01*
X82214Y-104419D01*
X82649Y-100000D01*
X82214Y-95581D01*
X80925Y-91333D01*
X78832Y-87417D01*
X76015Y-83985D01*
X72583Y-81168D01*
X68667Y-79075D01*
X64419Y-77786D01*
X60000Y-77351D01*
D02*
G37*
G36*
X218730Y-61270D02*
X197476D01*
X197786Y-64419D01*
X199075Y-68667D01*
X201168Y-72583D01*
X203985Y-76015D01*
X207417Y-78832D01*
X211333Y-80925D01*
X215581Y-82214D01*
X218730Y-82524D01*
Y-61270D01*
D02*
G37*
G36*
X11270Y-77476D02*
Y-98730D01*
X32524D01*
X32214Y-95581D01*
X30925Y-91333D01*
X28832Y-87417D01*
X26015Y-83985D01*
X22583Y-81168D01*
X18667Y-79075D01*
X14419Y-77786D01*
X11270Y-77476D01*
D02*
G37*
G36*
X8730D02*
X5581Y-77786D01*
X1333Y-79075D01*
X-2583Y-81168D01*
X-6015Y-83985D01*
X-8832Y-87417D01*
X-10925Y-91333D01*
X-12214Y-95581D01*
X-12524Y-98730D01*
X8730D01*
Y-77476D01*
D02*
G37*
G36*
X-129476Y94730D02*
X-150730D01*
Y73476D01*
X-147581Y73786D01*
X-143333Y75075D01*
X-139417Y77168D01*
X-135985Y79985D01*
X-133168Y83417D01*
X-131075Y87333D01*
X-129786Y91581D01*
X-129476Y94730D01*
D02*
G37*
G36*
X-153270D02*
X-174524D01*
X-174214Y91581D01*
X-172925Y87333D01*
X-170832Y83417D01*
X-168015Y79985D01*
X-164583Y77168D01*
X-160667Y75075D01*
X-156419Y73786D01*
X-153270Y73476D01*
Y94730D01*
D02*
G37*
G36*
X221270Y82524D02*
Y61270D01*
X242524D01*
X242214Y64419D01*
X240925Y68667D01*
X238832Y72583D01*
X236015Y76015D01*
X232583Y78832D01*
X228667Y80925D01*
X224419Y82214D01*
X221270Y82524D01*
D02*
G37*
G36*
X170000Y129158D02*
X109000D01*
X106643Y128690D01*
X104645Y127355D01*
X92645Y115355D01*
X91311Y113357D01*
X90842Y111000D01*
Y81000D01*
X91311Y78643D01*
X92645Y76645D01*
X94643Y75310D01*
X97000Y74842D01*
X99357Y75310D01*
X101355Y76645D01*
X102690Y78643D01*
X103158Y81000D01*
Y108449D01*
X111551Y116842D01*
X170000D01*
X172357Y117310D01*
X174355Y118645D01*
X175690Y120643D01*
X176158Y123000D01*
X175690Y125357D01*
X174355Y127355D01*
X172357Y128690D01*
X170000Y129158D01*
D02*
G37*
G36*
X-150730Y118524D02*
Y97270D01*
X-129476D01*
X-129786Y100419D01*
X-131075Y104667D01*
X-133168Y108583D01*
X-135985Y112015D01*
X-139417Y114832D01*
X-143333Y116925D01*
X-147581Y118214D01*
X-150730Y118524D01*
D02*
G37*
G36*
X-153270D02*
X-156419Y118214D01*
X-160667Y116925D01*
X-164583Y114832D01*
X-168015Y112015D01*
X-170832Y108583D01*
X-172925Y104667D01*
X-174214Y100419D01*
X-174524Y97270D01*
X-153270D01*
Y118524D01*
D02*
G37*
G36*
X220000Y132649D02*
X215581Y132214D01*
X211333Y130925D01*
X207417Y128832D01*
X203985Y126015D01*
X201168Y122583D01*
X199075Y118667D01*
X197786Y114419D01*
X197351Y110000D01*
X197786Y105581D01*
X199075Y101333D01*
X201168Y97417D01*
X203985Y93985D01*
X207417Y91168D01*
X211333Y89075D01*
X215581Y87786D01*
X220000Y87351D01*
X224419Y87786D01*
X228667Y89075D01*
X232583Y91168D01*
X236015Y93985D01*
X238832Y97417D01*
X240925Y101333D01*
X242214Y105581D01*
X242649Y110000D01*
X242214Y114419D01*
X240925Y118667D01*
X238832Y122583D01*
X236015Y126015D01*
X232583Y128832D01*
X228667Y130925D01*
X224419Y132214D01*
X220000Y132649D01*
D02*
G37*
G36*
X76000Y36158D02*
X73643Y35689D01*
X71645Y34355D01*
X70449Y33158D01*
X42000D01*
X39643Y32689D01*
X37645Y31355D01*
X36310Y29357D01*
X35842Y27000D01*
X36310Y24643D01*
X37645Y22645D01*
X39643Y21310D01*
X42000Y20842D01*
X73000D01*
X75357Y21310D01*
X77355Y22645D01*
X80355Y25645D01*
X81690Y27643D01*
X82158Y30000D01*
X81690Y32357D01*
X80355Y34355D01*
X78357Y35689D01*
X76000Y36158D01*
D02*
G37*
G36*
X-45730Y21631D02*
Y18270D01*
X-42369D01*
X-42488Y18869D01*
X-43547Y20453D01*
X-45131Y21512D01*
X-45730Y21631D01*
D02*
G37*
G36*
X-48270D02*
X-48869Y21512D01*
X-50453Y20453D01*
X-51512Y18869D01*
X-51631Y18270D01*
X-48270D01*
Y21631D01*
D02*
G37*
G36*
X-152000Y68649D02*
X-156419Y68214D01*
X-160667Y66925D01*
X-164583Y64832D01*
X-168015Y62015D01*
X-170832Y58583D01*
X-172925Y54667D01*
X-174214Y50419D01*
X-174649Y46000D01*
X-174214Y41581D01*
X-172925Y37333D01*
X-170832Y33417D01*
X-168015Y29985D01*
X-164583Y27168D01*
X-160667Y25075D01*
X-156419Y23786D01*
X-152000Y23351D01*
X-147581Y23786D01*
X-143333Y25075D01*
X-139417Y27168D01*
X-135985Y29985D01*
X-133168Y33417D01*
X-131075Y37333D01*
X-129786Y41581D01*
X-129351Y46000D01*
X-129786Y50419D01*
X-131075Y54667D01*
X-133168Y58583D01*
X-135985Y62015D01*
X-139417Y64832D01*
X-143333Y66925D01*
X-147581Y68214D01*
X-152000Y68649D01*
D02*
G37*
G36*
X218730Y82524D02*
X215581Y82214D01*
X211333Y80925D01*
X207417Y78832D01*
X203985Y76015D01*
X201168Y72583D01*
X199075Y68667D01*
X197786Y64419D01*
X197476Y61270D01*
X218730D01*
Y82524D01*
D02*
G37*
G36*
X242524Y58730D02*
X221270D01*
Y37476D01*
X224419Y37786D01*
X228667Y39075D01*
X232583Y41168D01*
X236015Y43985D01*
X238832Y47417D01*
X240925Y51333D01*
X242214Y55581D01*
X242524Y58730D01*
D02*
G37*
G36*
X218730D02*
X197476D01*
X197786Y55581D01*
X199075Y51333D01*
X201168Y47417D01*
X203985Y43985D01*
X207417Y41168D01*
X211333Y39075D01*
X215581Y37786D01*
X218730Y37476D01*
Y58730D01*
D02*
G37*
%LPD*%
D25*
X109000Y123000D02*
X170000D01*
X97000Y111000D02*
X109000Y123000D01*
X97000Y81000D02*
Y111000D01*
X73000Y27000D02*
X76000Y30000D01*
X42000Y27000D02*
X73000D01*
X7000Y-47000D02*
Y-29000D01*
X-2000Y-56000D02*
X7000Y-47000D01*
X-40000Y-56000D02*
X-2000D01*
D28*
X-152000Y96000D02*
D03*
X10000Y-100000D02*
D03*
X220000Y-60000D02*
D03*
Y-10000D02*
D03*
X-152000Y46000D02*
D03*
X60000Y-100000D02*
D03*
X220000Y60000D02*
D03*
Y110000D02*
D03*
D29*
X170000Y123000D02*
D03*
X97000Y81000D02*
D03*
X76000Y30000D02*
D03*
X42000Y27000D02*
D03*
X-40000Y-56000D02*
D03*
X7000Y-29000D02*
D03*
X-47000Y17000D02*
D03*
X-2000Y94000D02*
D03*
X10000D02*
D03*
X22000D02*
D03*
X35000D02*
D03*
Y105000D02*
D03*
X22000D02*
D03*
X10000D02*
D03*
X-2000D02*
D03*
Y117000D02*
D03*
X10000D02*
D03*
X22000D02*
D03*
X35000D02*
D03*
Y129000D02*
D03*
X22000D02*
D03*
X10000D02*
D03*
X-2000D02*
D03*
Y141000D02*
D03*
Y153000D02*
D03*
X10000D02*
D03*
Y141000D02*
D03*
X22000D02*
D03*
Y153000D02*
D03*
X35000D02*
D03*
Y141000D02*
D03*
M02*
