M48
;Layer_Color=9474304
;FILE_FORMAT=2:4
INCH,LZ
;TYPE=PLATED
T1F00S00C0.0079
T2F00S00C0.0591
%
T01
X01811Y01748
X019961Y018543
X021339Y020748
X022677Y020866
X023504Y022874
X021063Y023386
Y023819
Y024291
Y024764
Y025236
Y025709
X020551
X020079
X019606
Y025236
Y024764
Y024291
Y023819
Y023386
X020079
Y023819
X020551
Y023386
Y024291
X020079
Y024764
X020551
Y025236
X020079
X026378Y024528
X017835Y020354
T02
X020079Y015748
X022047
X028346Y017323
Y019291
Y022047
Y024016
X013701Y023465
Y021496
M30
