G04 Layer_Color=32896*
%FSLAX44Y44*%
%MOMM*%
G71*
G01*
G75*
%ADD31C,0.2540*%
D31*
X233000Y167000D02*
Y182235D01*
X225382D01*
X222843Y179696D01*
Y174618D01*
X225382Y172078D01*
X233000D01*
X227922D02*
X222843Y167000D01*
X207608Y182235D02*
X217765D01*
Y167000D01*
X207608D01*
X217765Y174618D02*
X212687D01*
X202530Y182235D02*
Y172078D01*
X197451Y167000D01*
X192373Y172078D01*
Y182235D01*
X172060Y167000D02*
Y177157D01*
X166981Y182235D01*
X161903Y177157D01*
Y167000D01*
Y174618D01*
X172060D01*
X156825Y167000D02*
X151746D01*
X154285D01*
Y182235D01*
X156825Y179696D01*
X128894Y174618D02*
X118737D01*
X98424Y179696D02*
X95884Y182235D01*
X90806D01*
X88267Y179696D01*
Y169539D01*
X90806Y167000D01*
X95884D01*
X98424Y169539D01*
Y179696D01*
X75571Y167000D02*
Y182235D01*
X83188Y174618D01*
X73032D01*
X67953Y167000D02*
X57797Y177157D01*
X52718Y179696D02*
X50179Y182235D01*
X45101D01*
X42562Y179696D01*
Y169539D01*
X45101Y167000D01*
X50179D01*
X52718Y169539D01*
Y179696D01*
X27327Y167000D02*
X37483D01*
X27327Y177157D01*
Y179696D01*
X29866Y182235D01*
X34944D01*
X37483Y179696D01*
X22248Y167000D02*
X12091Y177157D01*
X7013Y167000D02*
X1935D01*
X4474D01*
Y182235D01*
X7013Y179696D01*
X-15840Y182235D02*
X-10761Y179696D01*
X-5683Y174618D01*
Y169539D01*
X-8222Y167000D01*
X-13300D01*
X-15840Y169539D01*
Y172078D01*
X-13300Y174618D01*
X-5683D01*
M02*
