G04 Layer_Color=8388736*
%FSLAX44Y44*%
%MOMM*%
G71*
G01*
G75*
%ADD32R,0.9032X1.5032*%
%ADD33R,0.6532X0.7932*%
%ADD34R,1.1032X1.5032*%
%ADD35R,1.1032X3.0532*%
%ADD36R,1.1032X1.8032*%
%ADD37R,1.8032X1.1032*%
%ADD38R,0.8032X1.1032*%
%ADD39R,1.1032X2.7032*%
%ADD40R,1.5032X2.6032*%
%ADD41R,1.2032X0.7532*%
%ADD42R,1.5032X1.1032*%
%ADD43R,1.0932X3.2632*%
%ADD44R,5.5532X8.7432*%
%ADD45R,0.6900X1.1400*%
%ADD46R,1.3972X0.7622*%
%ADD47C,4.2032*%
%ADD48C,0.6532*%
D32*
X-9500Y17000D02*
D03*
X-28500D02*
D03*
X-8500Y-56000D02*
D03*
X-27500D02*
D03*
X-8500Y-29000D02*
D03*
X-27500D02*
D03*
X-8500Y-6000D02*
D03*
X-27500D02*
D03*
X34500Y-11000D02*
D03*
X53500D02*
D03*
X53500Y12000D02*
D03*
X34500D02*
D03*
D33*
X16000Y1450D02*
D03*
Y22550D02*
D03*
D34*
X108500Y-20000D02*
D03*
X127500D02*
D03*
D35*
X-117000Y-3750D02*
D03*
Y-78250D02*
D03*
D36*
X52500Y-38000D02*
D03*
X21500D02*
D03*
D37*
X-97000Y55500D02*
D03*
Y86500D02*
D03*
X-44000D02*
D03*
Y55500D02*
D03*
X-71000D02*
D03*
Y86500D02*
D03*
X76000Y75500D02*
D03*
Y44500D02*
D03*
D38*
X74500Y-19000D02*
D03*
X89500D02*
D03*
X97500Y37000D02*
D03*
X112500D02*
D03*
X136500Y105000D02*
D03*
X151500D02*
D03*
X170500D02*
D03*
X185500D02*
D03*
D39*
X106500Y-49000D02*
D03*
X75500D02*
D03*
D40*
X96000Y-92000D02*
D03*
X156000D02*
D03*
D41*
X80500Y18500D02*
D03*
Y9000D02*
D03*
Y-500D02*
D03*
X107500Y18500D02*
D03*
Y-500D02*
D03*
D42*
X76000Y115500D02*
D03*
Y96500D02*
D03*
D43*
X-22100Y51000D02*
D03*
X-9400D02*
D03*
X3300D02*
D03*
X16000D02*
D03*
X28700D02*
D03*
X41400D02*
D03*
X54100D02*
D03*
D44*
X16000Y124050D02*
D03*
D45*
X97500Y57150D02*
D03*
X116500D02*
D03*
X107000Y80850D02*
D03*
D46*
X187270Y42950D02*
D03*
Y55650D02*
D03*
Y68350D02*
D03*
Y81050D02*
D03*
X136730Y42950D02*
D03*
Y55650D02*
D03*
Y68350D02*
D03*
Y81050D02*
D03*
D47*
X-152000Y96000D02*
D03*
X10000Y-100000D02*
D03*
X220000Y-60000D02*
D03*
Y-10000D02*
D03*
X-152000Y46000D02*
D03*
X60000Y-100000D02*
D03*
X220000Y60000D02*
D03*
Y110000D02*
D03*
D48*
X170000Y123000D02*
D03*
X97000Y81000D02*
D03*
X76000Y30000D02*
D03*
X42000Y27000D02*
D03*
X-40000Y-56000D02*
D03*
X7000Y-29000D02*
D03*
X-47000Y17000D02*
D03*
X-2000Y94000D02*
D03*
X10000D02*
D03*
X22000D02*
D03*
X35000D02*
D03*
Y105000D02*
D03*
X22000D02*
D03*
X10000D02*
D03*
X-2000D02*
D03*
Y117000D02*
D03*
X10000D02*
D03*
X22000D02*
D03*
X35000D02*
D03*
Y129000D02*
D03*
X22000D02*
D03*
X10000D02*
D03*
X-2000D02*
D03*
Y141000D02*
D03*
Y153000D02*
D03*
X10000D02*
D03*
Y141000D02*
D03*
X22000D02*
D03*
Y153000D02*
D03*
X35000D02*
D03*
Y141000D02*
D03*
M02*
