G04 Layer_Physical_Order=1*
G04 Layer_Color=255*
%FSLAX44Y44*%
%MOMM*%
G71*
G01*
G75*
%ADD10R,0.7000X1.3000*%
%ADD11R,0.4500X0.5900*%
%ADD12R,0.9000X1.3000*%
%ADD13R,0.9000X2.8500*%
%ADD14R,0.9000X1.6000*%
%ADD15R,1.6000X0.9000*%
%ADD16R,0.6000X0.9000*%
%ADD17R,0.9000X2.5000*%
%ADD18R,1.3000X2.4000*%
%ADD19R,1.0000X0.5500*%
%ADD20R,1.3000X0.9000*%
%ADD21R,0.8900X3.0600*%
%ADD22R,5.3500X8.5400*%
%ADD23R,0.5500X1.0000*%
%ADD24R,1.1940X0.5590*%
%ADD25C,0.7000*%
%ADD26C,0.4000*%
%ADD27C,0.5000*%
%ADD28C,4.0000*%
%ADD29C,0.4500*%
G36*
X245000Y24102D02*
X245000Y-32000D01*
X229350D01*
X229032Y-30730D01*
X232583Y-28832D01*
X236015Y-26015D01*
X238832Y-22583D01*
X240925Y-18667D01*
X242214Y-14419D01*
X242524Y-11270D01*
X197476D01*
X197786Y-14419D01*
X199075Y-18667D01*
X201168Y-22583D01*
X203985Y-26015D01*
X207417Y-28832D01*
X210968Y-30730D01*
X210650Y-32000D01*
X140898D01*
X140000Y-31102D01*
X140000Y-7000D01*
X115185D01*
X115040Y-5790D01*
X115040Y-5790D01*
X115040Y-5790D01*
Y4790D01*
X99960D01*
X99000Y5538D01*
Y12462D01*
X99960Y13210D01*
X100270Y13210D01*
X106230D01*
Y18500D01*
X107500D01*
Y19770D01*
X115040D01*
Y23730D01*
X115040Y23790D01*
X115185Y25000D01*
X244102D01*
X245000Y24102D01*
D02*
G37*
G36*
X47460Y12595D02*
X47342Y12000D01*
X47460Y11405D01*
Y2960D01*
X53831D01*
X57578Y-787D01*
X57091Y-1960D01*
X54770D01*
Y-11000D01*
Y-20040D01*
X59540D01*
X60000Y-21119D01*
Y-26381D01*
X59540Y-27460D01*
X58730Y-27460D01*
X53770D01*
Y-38000D01*
Y-48540D01*
X58730D01*
X59540Y-48540D01*
X60000Y-49619D01*
Y-65102D01*
X59102Y-66000D01*
X31000D01*
Y-88779D01*
X29730Y-89097D01*
X28832Y-87417D01*
X26015Y-83985D01*
X22583Y-81168D01*
X18667Y-79075D01*
X14419Y-77786D01*
X11270Y-77476D01*
Y-100000D01*
Y-122524D01*
X14419Y-122214D01*
X18667Y-120925D01*
X22583Y-118832D01*
X26015Y-116015D01*
X28832Y-112583D01*
X29730Y-110903D01*
X31000Y-111221D01*
Y-146000D01*
X-195000D01*
X-195000Y-50898D01*
X-194102Y-50000D01*
X-44178Y-50000D01*
X-43793Y-51270D01*
X-44355Y-51645D01*
X-45690Y-53643D01*
X-46158Y-56000D01*
X-45690Y-58357D01*
X-44355Y-60355D01*
X-42357Y-61690D01*
X-40000Y-62158D01*
X-33540D01*
Y-65040D01*
X-21460D01*
Y-56595D01*
X-21342Y-56000D01*
X-21460Y-55405D01*
Y-50898D01*
X-20562Y-50000D01*
X-14540D01*
Y-54730D01*
X-2460D01*
Y-50898D01*
X-1562Y-50000D01*
X31000D01*
Y-28293D01*
X31382Y-27396D01*
X31385Y-27383D01*
X31393Y-27372D01*
X31489Y-26889D01*
X31590Y-26407D01*
X31587Y-26394D01*
X31590Y-26381D01*
Y-20040D01*
X40540D01*
Y-11595D01*
X40658Y-11000D01*
Y12000D01*
X40540Y12595D01*
Y14405D01*
X40658Y15000D01*
X40540Y15595D01*
Y19540D01*
X41000Y20000D01*
X47460D01*
Y12595D01*
D02*
G37*
G36*
X245000Y90000D02*
X232876D01*
X232748Y90512D01*
X232707Y91270D01*
X236015Y93985D01*
X238832Y97417D01*
X240925Y101333D01*
X242214Y105581D01*
X242524Y108730D01*
X220000D01*
Y110000D01*
X218730D01*
Y132524D01*
X215581Y132214D01*
X211333Y130925D01*
X207417Y128832D01*
X203985Y126015D01*
X201168Y122583D01*
X199263Y119018D01*
X198000Y119000D01*
X198000Y119000D01*
X198000Y119000D01*
X176158D01*
Y123000D01*
X175690Y125357D01*
X174355Y127355D01*
X172357Y128690D01*
X170000Y129158D01*
X167643Y128690D01*
X165645Y127355D01*
X164310Y125357D01*
X163842Y123000D01*
Y119000D01*
X146000D01*
Y117507D01*
X145423Y117393D01*
X144583Y116831D01*
X144022Y115991D01*
X143607Y114991D01*
X143410Y114000D01*
Y112938D01*
X143607Y111947D01*
X144169Y111107D01*
X145067Y110209D01*
X145907Y109647D01*
X145771Y108403D01*
X145342Y107590D01*
X142658D01*
X142040Y108705D01*
Y112040D01*
X137770D01*
Y105000D01*
X136500D01*
Y103730D01*
X130960D01*
Y101761D01*
X130658Y100532D01*
X130319Y100422D01*
X129969Y100353D01*
X129842Y100268D01*
X129697Y100221D01*
X128668Y99646D01*
X128397Y99415D01*
X128100Y99216D01*
X127798Y98914D01*
X127236Y98074D01*
X127039Y97083D01*
Y95000D01*
X122738D01*
Y101420D01*
X122270Y103777D01*
X120935Y105775D01*
X107709Y119000D01*
X106855Y119855D01*
X104857Y121189D01*
X102500Y121658D01*
X85040D01*
Y122540D01*
X66960D01*
Y119000D01*
D01*
Y108749D01*
X65928Y107885D01*
X65000Y108116D01*
Y119000D01*
Y195000D01*
X245000D01*
Y90000D01*
D02*
G37*
G36*
X-29090Y52270D02*
X-22100D01*
Y51000D01*
X-20830D01*
Y33160D01*
X-15558D01*
Y17100D01*
X-15540Y17008D01*
Y7960D01*
X-3460D01*
X-2858Y6939D01*
Y3851D01*
X-3669Y3040D01*
X-14540D01*
Y-2092D01*
X-15713Y-2578D01*
X-16645Y-1645D01*
X-18643Y-310D01*
X-21000Y158D01*
X-21460D01*
Y3040D01*
X-33540D01*
Y-5405D01*
X-33658Y-6000D01*
X-33540Y-6595D01*
Y-15040D01*
X-24191D01*
X-24118Y-15404D01*
Y-19960D01*
X-26230D01*
Y-29000D01*
Y-38040D01*
X-21460D01*
Y-31909D01*
X-20287Y-31423D01*
X-18355Y-33355D01*
X-16357Y-34690D01*
X-14540Y-35051D01*
Y-38040D01*
X-2460D01*
Y-35158D01*
X7000D01*
X9357Y-34690D01*
X11355Y-33355D01*
X12690Y-31357D01*
X13158Y-29000D01*
X12690Y-26643D01*
X11355Y-24645D01*
X9357Y-23310D01*
X7000Y-22842D01*
X4527D01*
X4041Y-21668D01*
X20355Y-5355D01*
X21690Y-3357D01*
X22158Y-1000D01*
Y1450D01*
X21690Y3807D01*
X20790Y5153D01*
Y6940D01*
X18655D01*
X18357Y7139D01*
X16000Y7608D01*
X13643Y7139D01*
X13345Y6940D01*
X11210D01*
Y5555D01*
X10728Y5114D01*
X9458Y5674D01*
Y18326D01*
X10728Y18886D01*
X11210Y18445D01*
Y17060D01*
X13345D01*
X13643Y16860D01*
X16000Y16392D01*
X18357Y16860D01*
X18655Y17060D01*
X20790D01*
Y18844D01*
X21535Y19808D01*
X22774Y19632D01*
X23010Y18443D01*
X24345Y16445D01*
X28416Y12375D01*
X28342Y12000D01*
Y-11000D01*
X28460Y-11595D01*
Y-20040D01*
X29000D01*
Y-26381D01*
X28540Y-27460D01*
X22770D01*
Y-38000D01*
X21500D01*
Y-39270D01*
X14460D01*
Y-47000D01*
X-2460D01*
Y-46960D01*
X-14540D01*
Y-47000D01*
X-21460D01*
Y-46960D01*
X-33540D01*
Y-47000D01*
X-195000D01*
Y67000D01*
X-163221D01*
X-162903Y65730D01*
X-164583Y64832D01*
X-168015Y62015D01*
X-170832Y58583D01*
X-172925Y54667D01*
X-174214Y50419D01*
X-174524Y47270D01*
X-129476D01*
X-129786Y50419D01*
X-131075Y54667D01*
X-133168Y58583D01*
X-135985Y62015D01*
X-139417Y64832D01*
X-141097Y65730D01*
X-140779Y67000D01*
X-29090D01*
Y52270D01*
D02*
G37*
G36*
X163842Y105500D02*
X164310Y103143D01*
X164342Y103097D01*
Y78027D01*
X163168Y77541D01*
X157658Y83051D01*
Y105000D01*
X157190Y107357D01*
X157040Y107580D01*
Y112040D01*
X146898D01*
X146000Y112938D01*
Y114000D01*
X146414Y115000D01*
X163842D01*
Y105500D01*
D02*
G37*
G36*
X60000Y105000D02*
X104291D01*
X110422Y98869D01*
Y88390D01*
X108270D01*
Y80850D01*
Y73310D01*
X110422D01*
Y63420D01*
X110891Y61063D01*
X111210Y60585D01*
Y49610D01*
X119635D01*
X120230Y49492D01*
X128067D01*
X128220Y48285D01*
X128220Y48222D01*
Y44220D01*
X145240D01*
Y48285D01*
X136173D01*
X136048Y49555D01*
X138087Y49960D01*
X138617Y50315D01*
X145240D01*
Y60985D01*
X138617D01*
X138087Y61340D01*
X136048Y61745D01*
X136173Y63015D01*
X145240D01*
Y73685D01*
X133334D01*
X132478Y74542D01*
X132964Y75715D01*
X135460D01*
Y81050D01*
Y86385D01*
X129629D01*
Y97083D01*
X129932Y97385D01*
X130960Y97960D01*
Y97960D01*
X130960Y97960D01*
X142040D01*
Y102420D01*
X142190Y102643D01*
X142658Y105000D01*
X145342D01*
Y87613D01*
X145240Y86385D01*
X138000D01*
Y81050D01*
Y75715D01*
X145240D01*
Y76711D01*
X146510Y77096D01*
X147145Y76145D01*
X171995Y51295D01*
X173993Y49960D01*
X176350Y49492D01*
X178607D01*
X178760Y48285D01*
X178760Y48222D01*
Y44220D01*
X195780D01*
Y48285D01*
X186713D01*
X186588Y49555D01*
X188627Y49960D01*
X189157Y50315D01*
X195780D01*
Y60985D01*
X189226D01*
X189149Y61111D01*
X189062Y62440D01*
X189068Y62456D01*
X189679Y63015D01*
X195780D01*
Y73685D01*
X189157D01*
X188627Y74040D01*
X186588Y74445D01*
X186713Y75715D01*
X195780D01*
Y79780D01*
X178760D01*
Y77609D01*
X177587Y77123D01*
X176658Y78051D01*
Y105000D01*
X176189Y107357D01*
X176158Y107403D01*
Y115000D01*
X196766D01*
X197718Y113730D01*
X197351Y110000D01*
X197786Y105581D01*
X199075Y101333D01*
X201168Y97417D01*
X203985Y93985D01*
X207417Y91168D01*
X211333Y89075D01*
X215581Y87786D01*
X220000Y87351D01*
X220059Y87357D01*
X221000Y86504D01*
Y86000D01*
X245000D01*
Y30000D01*
X118040D01*
Y35730D01*
X106960D01*
Y30000D01*
X103040D01*
Y34420D01*
X103190Y34643D01*
X103658Y37000D01*
Y40008D01*
X103618Y40210D01*
Y56949D01*
X103658Y57150D01*
X103190Y59507D01*
X103158Y59553D01*
Y73310D01*
X105730D01*
Y80850D01*
Y88390D01*
X101710D01*
Y86645D01*
X100440Y85966D01*
X99357Y86690D01*
X97000Y87158D01*
X94643Y86690D01*
X92645Y85355D01*
X91311Y83357D01*
X90842Y81000D01*
Y63308D01*
X61090D01*
Y68840D01*
X60000D01*
Y71000D01*
X-195000D01*
Y195000D01*
X60000D01*
Y105000D01*
D02*
G37*
G36*
X90000Y-10000D02*
X100712D01*
X101460Y-10960D01*
Y-29040D01*
X115540D01*
Y-10960D01*
X116288Y-10000D01*
X119712D01*
X120460Y-10960D01*
X120460Y-11270D01*
Y-18730D01*
X134540D01*
Y-11994D01*
X135656Y-11110D01*
X135810Y-11087D01*
X136000Y-11153D01*
Y-35000D01*
X245000D01*
Y-146000D01*
X110898D01*
X110000Y-145102D01*
Y-65000D01*
X110398Y-64040D01*
X113540D01*
Y-50270D01*
X99460D01*
Y-64000D01*
X87000D01*
Y-26040D01*
X88230D01*
Y-19000D01*
Y-11960D01*
X87000D01*
Y-8659D01*
X88173Y-8173D01*
X90000Y-10000D01*
D02*
G37*
G36*
X55370Y33160D02*
X61090D01*
Y34000D01*
X69842D01*
Y30000D01*
X70311Y27643D01*
X71645Y25645D01*
X72689Y24948D01*
X72960Y23790D01*
X72960Y23790D01*
Y19770D01*
X80500D01*
Y17230D01*
X72960D01*
Y13210D01*
Y3710D01*
Y770D01*
X80500D01*
Y-1770D01*
X72960D01*
Y-5790D01*
X79000D01*
Y-11960D01*
X75770D01*
Y-19000D01*
Y-26040D01*
X79000D01*
Y-33960D01*
X76770D01*
Y-49000D01*
Y-64040D01*
X79000D01*
Y-67000D01*
X106102D01*
X107000Y-67898D01*
Y-145000D01*
X106204Y-146000D01*
X34000D01*
Y-70000D01*
X65000D01*
Y4000D01*
X63000Y6000D01*
X59540D01*
Y10730D01*
X53500D01*
Y12000D01*
X52230D01*
Y21040D01*
X50000D01*
Y33160D01*
X52830D01*
Y51000D01*
X55370D01*
Y33160D01*
D02*
G37*
%LPC*%
G36*
X-28770Y-19960D02*
X-33540D01*
Y-27730D01*
X-28770D01*
Y-19960D01*
D02*
G37*
G36*
X73230Y-20270D02*
X68960D01*
Y-26040D01*
X73230D01*
Y-20270D01*
D02*
G37*
G36*
X-109960Y-5020D02*
X-115730D01*
Y-20540D01*
X-109960D01*
Y-5020D01*
D02*
G37*
G36*
X-118270D02*
X-124040D01*
Y-20540D01*
X-118270D01*
Y-5020D01*
D02*
G37*
G36*
X95040Y-20270D02*
X90770D01*
Y-26040D01*
X95040D01*
Y-20270D01*
D02*
G37*
G36*
X134540Y-21270D02*
X128770D01*
Y-29040D01*
X134540D01*
Y-21270D01*
D02*
G37*
G36*
X20230Y-27460D02*
X14460D01*
Y-36730D01*
X20230D01*
Y-27460D01*
D02*
G37*
G36*
X-28770Y-30270D02*
X-33540D01*
Y-38040D01*
X-28770D01*
Y-30270D01*
D02*
G37*
G36*
X51230Y-27460D02*
X45460D01*
Y-36730D01*
X51230D01*
Y-27460D01*
D02*
G37*
G36*
X126230Y-21270D02*
X120460D01*
Y-29040D01*
X126230D01*
Y-21270D01*
D02*
G37*
G36*
X113540Y-33960D02*
X107770D01*
Y-47730D01*
X113540D01*
Y-33960D01*
D02*
G37*
G36*
X115040Y17230D02*
X108770D01*
Y13210D01*
X115040D01*
Y17230D01*
D02*
G37*
G36*
X-22460Y26040D02*
X-34540D01*
Y23158D01*
X-47000D01*
X-49357Y22689D01*
X-51355Y21355D01*
X-52690Y19357D01*
X-53158Y17000D01*
X-52690Y14643D01*
X-51355Y12645D01*
X-49357Y11310D01*
X-47000Y10842D01*
X-34540D01*
Y7960D01*
X-22460D01*
Y16405D01*
X-22342Y17000D01*
X-22460Y17595D01*
Y26040D01*
D02*
G37*
G36*
X-109960Y13040D02*
X-115730D01*
Y-2480D01*
X-109960D01*
Y13040D01*
D02*
G37*
G36*
X59540Y21040D02*
X54770D01*
Y13270D01*
X59540D01*
Y21040D01*
D02*
G37*
G36*
X-23370Y49730D02*
X-29090D01*
Y33160D01*
X-23370D01*
Y49730D01*
D02*
G37*
G36*
X-129476Y44730D02*
X-150730D01*
Y23476D01*
X-147581Y23786D01*
X-143333Y25075D01*
X-139417Y27168D01*
X-135985Y29985D01*
X-133168Y33417D01*
X-131075Y37333D01*
X-129786Y41581D01*
X-129476Y44730D01*
D02*
G37*
G36*
X-153270D02*
X-174524D01*
X-174214Y41581D01*
X-172925Y37333D01*
X-170832Y33417D01*
X-168015Y29985D01*
X-164583Y27168D01*
X-160667Y25075D01*
X-156419Y23786D01*
X-153270Y23476D01*
Y44730D01*
D02*
G37*
G36*
X95040Y-11960D02*
X90770D01*
Y-17730D01*
X95040D01*
Y-11960D01*
D02*
G37*
G36*
X73230D02*
X68960D01*
Y-17730D01*
X73230D01*
Y-11960D01*
D02*
G37*
G36*
X52230Y-12270D02*
X47460D01*
Y-20040D01*
X52230D01*
Y-12270D01*
D02*
G37*
G36*
Y-1960D02*
X47460D01*
Y-9730D01*
X52230D01*
Y-1960D01*
D02*
G37*
G36*
X-118270Y13040D02*
X-124040D01*
Y-2480D01*
X-118270D01*
Y13040D01*
D02*
G37*
G36*
X221270Y12524D02*
Y-8730D01*
X242524D01*
X242214Y-5581D01*
X240925Y-1333D01*
X238832Y2583D01*
X236015Y6015D01*
X232583Y8832D01*
X228667Y10925D01*
X224419Y12214D01*
X221270Y12524D01*
D02*
G37*
G36*
X218730D02*
X215581Y12214D01*
X211333Y10925D01*
X207417Y8832D01*
X203985Y6015D01*
X201168Y2583D01*
X199075Y-1333D01*
X197786Y-5581D01*
X197476Y-8730D01*
X218730D01*
Y12524D01*
D02*
G37*
G36*
X61270Y-77476D02*
Y-98730D01*
X82524D01*
X82214Y-95581D01*
X80925Y-91333D01*
X78832Y-87417D01*
X76015Y-83985D01*
X72583Y-81168D01*
X68667Y-79075D01*
X64419Y-77786D01*
X61270Y-77476D01*
D02*
G37*
G36*
X58730D02*
X55581Y-77786D01*
X51333Y-79075D01*
X47417Y-81168D01*
X43985Y-83985D01*
X41168Y-87417D01*
X39075Y-91333D01*
X37786Y-95581D01*
X37476Y-98730D01*
X58730D01*
Y-77476D01*
D02*
G37*
G36*
X8730D02*
X5581Y-77786D01*
X1333Y-79075D01*
X-2583Y-81168D01*
X-6015Y-83985D01*
X-8832Y-87417D01*
X-10925Y-91333D01*
X-12214Y-95581D01*
X-12524Y-98730D01*
X8730D01*
Y-77476D01*
D02*
G37*
G36*
X-118270Y-79520D02*
X-124040D01*
Y-95040D01*
X-118270D01*
Y-79520D01*
D02*
G37*
G36*
X105040Y-77460D02*
X97270D01*
Y-90730D01*
X105040D01*
Y-77460D01*
D02*
G37*
G36*
X94730D02*
X86960D01*
Y-90730D01*
X94730D01*
Y-77460D01*
D02*
G37*
G36*
X-109960Y-79520D02*
X-115730D01*
Y-95040D01*
X-109960D01*
Y-79520D01*
D02*
G37*
G36*
X82524Y-101270D02*
X61270D01*
Y-122524D01*
X64419Y-122214D01*
X68667Y-120925D01*
X72583Y-118832D01*
X76015Y-116015D01*
X78832Y-112583D01*
X80925Y-108667D01*
X82214Y-104419D01*
X82524Y-101270D01*
D02*
G37*
G36*
X58730D02*
X37476D01*
X37786Y-104419D01*
X39075Y-108667D01*
X41168Y-112583D01*
X43985Y-116015D01*
X47417Y-118832D01*
X51333Y-120925D01*
X55581Y-122214D01*
X58730Y-122524D01*
Y-101270D01*
D02*
G37*
G36*
X8730D02*
X-12524D01*
X-12214Y-104419D01*
X-10925Y-108667D01*
X-8832Y-112583D01*
X-6015Y-116015D01*
X-2583Y-118832D01*
X1333Y-120925D01*
X5581Y-122214D01*
X8730Y-122524D01*
Y-101270D01*
D02*
G37*
G36*
X94730Y-93270D02*
X86960D01*
Y-106540D01*
X94730D01*
Y-93270D01*
D02*
G37*
G36*
X165040D02*
X157270D01*
Y-106540D01*
X165040D01*
Y-93270D01*
D02*
G37*
G36*
X154730D02*
X146960D01*
Y-106540D01*
X154730D01*
Y-93270D01*
D02*
G37*
G36*
X105040D02*
X97270D01*
Y-106540D01*
X105040D01*
Y-93270D01*
D02*
G37*
G36*
X218730Y-37476D02*
X215581Y-37786D01*
X211333Y-39075D01*
X207417Y-41168D01*
X203985Y-43985D01*
X201168Y-47417D01*
X199075Y-51333D01*
X197786Y-55581D01*
X197476Y-58730D01*
X218730D01*
Y-37476D01*
D02*
G37*
G36*
X74230Y-50270D02*
X68460D01*
Y-64040D01*
X74230D01*
Y-50270D01*
D02*
G37*
G36*
X-2460Y-57270D02*
X-7230D01*
Y-65040D01*
X-2460D01*
Y-57270D01*
D02*
G37*
G36*
X221270Y-37476D02*
Y-58730D01*
X242524D01*
X242214Y-55581D01*
X240925Y-51333D01*
X238832Y-47417D01*
X236015Y-43985D01*
X232583Y-41168D01*
X228667Y-39075D01*
X224419Y-37786D01*
X221270Y-37476D01*
D02*
G37*
G36*
X105230Y-33960D02*
X99460D01*
Y-47730D01*
X105230D01*
Y-33960D01*
D02*
G37*
G36*
X74230D02*
X68460D01*
Y-47730D01*
X74230D01*
Y-33960D01*
D02*
G37*
G36*
X51230Y-39270D02*
X45460D01*
Y-48540D01*
X51230D01*
Y-39270D01*
D02*
G37*
G36*
X218730Y-61270D02*
X197476D01*
X197786Y-64419D01*
X199075Y-68667D01*
X201168Y-72583D01*
X203985Y-76015D01*
X207417Y-78832D01*
X211333Y-80925D01*
X215581Y-82214D01*
X218730Y-82524D01*
Y-61270D01*
D02*
G37*
G36*
X165040Y-77460D02*
X157270D01*
Y-90730D01*
X165040D01*
Y-77460D01*
D02*
G37*
G36*
X154730D02*
X146960D01*
Y-90730D01*
X154730D01*
Y-77460D01*
D02*
G37*
G36*
X242524Y-61270D02*
X221270D01*
Y-82524D01*
X224419Y-82214D01*
X228667Y-80925D01*
X232583Y-78832D01*
X236015Y-76015D01*
X238832Y-72583D01*
X240925Y-68667D01*
X242214Y-64419D01*
X242524Y-61270D01*
D02*
G37*
G36*
X-9770Y-57270D02*
X-14540D01*
Y-65040D01*
X-9770D01*
Y-57270D01*
D02*
G37*
G36*
X-109960Y-61460D02*
X-115730D01*
Y-76980D01*
X-109960D01*
Y-61460D01*
D02*
G37*
G36*
X-118270D02*
X-124040D01*
Y-76980D01*
X-118270D01*
Y-61460D01*
D02*
G37*
G36*
X-98270Y93540D02*
X-107540D01*
Y87770D01*
X-98270D01*
Y93540D01*
D02*
G37*
G36*
X195780Y86385D02*
X188540D01*
Y82320D01*
X195780D01*
Y86385D01*
D02*
G37*
G36*
X186000D02*
X178760D01*
Y82320D01*
X186000D01*
Y86385D01*
D02*
G37*
G36*
X-86460Y93540D02*
X-95730D01*
Y87770D01*
X-86460D01*
Y93540D01*
D02*
G37*
G36*
X-45270D02*
X-54540D01*
Y87770D01*
X-45270D01*
Y93540D01*
D02*
G37*
G36*
X-60460D02*
X-69730D01*
Y87770D01*
X-60460D01*
Y93540D01*
D02*
G37*
G36*
X-72270D02*
X-81540D01*
Y87770D01*
X-72270D01*
Y93540D01*
D02*
G37*
G36*
X-86460Y85230D02*
X-95730D01*
Y79460D01*
X-86460D01*
Y85230D01*
D02*
G37*
G36*
X-98270D02*
X-107540D01*
Y79460D01*
X-98270D01*
Y85230D01*
D02*
G37*
G36*
X45290Y122780D02*
X17270D01*
Y78810D01*
X45290D01*
Y122780D01*
D02*
G37*
G36*
X-72270Y85230D02*
X-81540D01*
Y79460D01*
X-72270D01*
Y85230D01*
D02*
G37*
G36*
X-33460D02*
X-42730D01*
Y79460D01*
X-33460D01*
Y85230D01*
D02*
G37*
G36*
X-45270D02*
X-54540D01*
Y79460D01*
X-45270D01*
Y85230D01*
D02*
G37*
G36*
X-60460D02*
X-69730D01*
Y79460D01*
X-60460D01*
Y85230D01*
D02*
G37*
G36*
X-33460Y93540D02*
X-42730D01*
Y87770D01*
X-33460D01*
Y93540D01*
D02*
G37*
G36*
X184230Y112040D02*
X179960D01*
Y106270D01*
X184230D01*
Y112040D01*
D02*
G37*
G36*
X135230D02*
X130960D01*
Y106270D01*
X135230D01*
Y112040D01*
D02*
G37*
G36*
X191040Y103730D02*
X186770D01*
Y97960D01*
X191040D01*
Y103730D01*
D02*
G37*
G36*
Y112040D02*
X186770D01*
Y106270D01*
X191040D01*
Y112040D01*
D02*
G37*
G36*
X45290Y169290D02*
X17270D01*
Y125320D01*
X45290D01*
Y169290D01*
D02*
G37*
G36*
X14730D02*
X-13290D01*
Y125320D01*
X14730D01*
Y169290D01*
D02*
G37*
G36*
X221270Y132524D02*
Y111270D01*
X242524D01*
X242214Y114419D01*
X240925Y118667D01*
X238832Y122583D01*
X236015Y126015D01*
X232583Y128832D01*
X228667Y130925D01*
X224419Y132214D01*
X221270Y132524D01*
D02*
G37*
G36*
X-153270Y118524D02*
X-156419Y118214D01*
X-160667Y116925D01*
X-164583Y114832D01*
X-168015Y112015D01*
X-170832Y108583D01*
X-172925Y104667D01*
X-174214Y100419D01*
X-174524Y97270D01*
X-153270D01*
Y118524D01*
D02*
G37*
G36*
X85040Y95230D02*
X77270D01*
Y89460D01*
X85040D01*
Y95230D01*
D02*
G37*
G36*
X74730D02*
X66960D01*
Y89460D01*
X74730D01*
Y95230D01*
D02*
G37*
G36*
X-150730Y118524D02*
Y97270D01*
X-129476D01*
X-129786Y100419D01*
X-131075Y104667D01*
X-133168Y108583D01*
X-135985Y112015D01*
X-139417Y114832D01*
X-143333Y116925D01*
X-147581Y118214D01*
X-150730Y118524D01*
D02*
G37*
G36*
X184230Y103730D02*
X179960D01*
Y97960D01*
X184230D01*
Y103730D01*
D02*
G37*
G36*
X85040Y103540D02*
X77270D01*
Y97770D01*
X85040D01*
Y103540D01*
D02*
G37*
G36*
X74730D02*
X66960D01*
Y97770D01*
X74730D01*
Y103540D01*
D02*
G37*
G36*
X-86460Y54230D02*
X-95730D01*
Y48460D01*
X-86460D01*
Y54230D01*
D02*
G37*
G36*
X-98270D02*
X-107540D01*
Y48460D01*
X-98270D01*
Y54230D01*
D02*
G37*
G36*
X118040Y44040D02*
X113770D01*
Y38270D01*
X118040D01*
Y44040D01*
D02*
G37*
G36*
X-72270Y54230D02*
X-81540D01*
Y48460D01*
X-72270D01*
Y54230D01*
D02*
G37*
G36*
X-33460D02*
X-42730D01*
Y48460D01*
X-33460D01*
Y54230D01*
D02*
G37*
G36*
X-45270D02*
X-54540D01*
Y48460D01*
X-45270D01*
Y54230D01*
D02*
G37*
G36*
X-60460D02*
X-69730D01*
Y48460D01*
X-60460D01*
Y54230D01*
D02*
G37*
G36*
X135460Y41680D02*
X128220D01*
Y37615D01*
X135460D01*
Y41680D01*
D02*
G37*
G36*
X242524Y58730D02*
X221270D01*
Y37476D01*
X224419Y37786D01*
X228667Y39075D01*
X232583Y41168D01*
X236015Y43985D01*
X238832Y47417D01*
X240925Y51333D01*
X242214Y55581D01*
X242524Y58730D01*
D02*
G37*
G36*
X218730D02*
X197476D01*
X197786Y55581D01*
X199075Y51333D01*
X201168Y47417D01*
X203985Y43985D01*
X207417Y41168D01*
X211333Y39075D01*
X215581Y37786D01*
X218730Y37476D01*
Y58730D01*
D02*
G37*
G36*
X145240Y41680D02*
X138000D01*
Y37615D01*
X145240D01*
Y41680D01*
D02*
G37*
G36*
X111230Y44040D02*
X106960D01*
Y38270D01*
X111230D01*
Y44040D01*
D02*
G37*
G36*
X195780Y41680D02*
X188540D01*
Y37615D01*
X195780D01*
Y41680D01*
D02*
G37*
G36*
X186000D02*
X178760D01*
Y37615D01*
X186000D01*
Y41680D01*
D02*
G37*
G36*
X-98270Y62540D02*
X-107540D01*
Y56770D01*
X-98270D01*
Y62540D01*
D02*
G37*
G36*
X-153270Y94730D02*
X-174524D01*
X-174214Y91581D01*
X-172925Y87333D01*
X-170832Y83417D01*
X-168015Y79985D01*
X-164583Y77168D01*
X-160667Y75075D01*
X-156419Y73786D01*
X-153270Y73476D01*
Y94730D01*
D02*
G37*
G36*
X86540Y74230D02*
X77270D01*
Y68460D01*
X86540D01*
Y74230D01*
D02*
G37*
G36*
X74730D02*
X65460D01*
Y68460D01*
X74730D01*
Y74230D01*
D02*
G37*
G36*
X-129476Y94730D02*
X-150730D01*
Y73476D01*
X-147581Y73786D01*
X-143333Y75075D01*
X-139417Y77168D01*
X-135985Y79985D01*
X-133168Y83417D01*
X-131075Y87333D01*
X-129786Y91581D01*
X-129476Y94730D01*
D02*
G37*
G36*
X14730Y122780D02*
X-13290D01*
Y78810D01*
X14730D01*
Y122780D01*
D02*
G37*
G36*
X86540Y82540D02*
X77270D01*
Y76770D01*
X86540D01*
Y82540D01*
D02*
G37*
G36*
X74730D02*
X65460D01*
Y76770D01*
X74730D01*
Y82540D01*
D02*
G37*
G36*
X-60460Y62540D02*
X-69730D01*
Y56770D01*
X-60460D01*
Y62540D01*
D02*
G37*
G36*
X-72270D02*
X-81540D01*
Y56770D01*
X-72270D01*
Y62540D01*
D02*
G37*
G36*
X-86460D02*
X-95730D01*
Y56770D01*
X-86460D01*
Y62540D01*
D02*
G37*
G36*
X-45270D02*
X-54540D01*
Y56770D01*
X-45270D01*
Y62540D01*
D02*
G37*
G36*
X221270Y82524D02*
Y61270D01*
X242524D01*
X242214Y64419D01*
X240925Y68667D01*
X238832Y72583D01*
X236015Y76015D01*
X232583Y78832D01*
X228667Y80925D01*
X224419Y82214D01*
X221270Y82524D01*
D02*
G37*
G36*
X218730D02*
X215581Y82214D01*
X211333Y80925D01*
X207417Y78832D01*
X203985Y76015D01*
X201168Y72583D01*
X199075Y68667D01*
X197786Y64419D01*
X197476Y61270D01*
X218730D01*
Y82524D01*
D02*
G37*
G36*
X-33460Y62540D02*
X-42730D01*
Y56770D01*
X-33460D01*
Y62540D01*
D02*
G37*
%LPD*%
D10*
X-9500Y17000D02*
D03*
X-28500D02*
D03*
X-8500Y-56000D02*
D03*
X-27500D02*
D03*
X-8500Y-29000D02*
D03*
X-27500D02*
D03*
X-8500Y-6000D02*
D03*
X-27500D02*
D03*
X34500Y-11000D02*
D03*
X53500D02*
D03*
X53500Y12000D02*
D03*
X34500D02*
D03*
D11*
X16000Y1450D02*
D03*
Y22550D02*
D03*
D12*
X108500Y-20000D02*
D03*
X127500D02*
D03*
D13*
X-117000Y-3750D02*
D03*
Y-78250D02*
D03*
D14*
X52500Y-38000D02*
D03*
X21500D02*
D03*
D15*
X-97000Y55500D02*
D03*
Y86500D02*
D03*
X-44000D02*
D03*
Y55500D02*
D03*
X-71000D02*
D03*
Y86500D02*
D03*
X76000Y75500D02*
D03*
Y44500D02*
D03*
D16*
X74500Y-19000D02*
D03*
X89500D02*
D03*
X97500Y37000D02*
D03*
X112500D02*
D03*
X136500Y105000D02*
D03*
X151500D02*
D03*
X170500D02*
D03*
X185500D02*
D03*
D17*
X106500Y-49000D02*
D03*
X75500D02*
D03*
D18*
X96000Y-92000D02*
D03*
X156000D02*
D03*
D19*
X80500Y18500D02*
D03*
Y9000D02*
D03*
Y-500D02*
D03*
X107500Y18500D02*
D03*
Y-500D02*
D03*
D20*
X76000Y115500D02*
D03*
Y96500D02*
D03*
D21*
X-22100Y51000D02*
D03*
X-9400D02*
D03*
X3300D02*
D03*
X16000D02*
D03*
X28700D02*
D03*
X41400D02*
D03*
X54100D02*
D03*
D22*
X16000Y124050D02*
D03*
D23*
X97500Y57150D02*
D03*
X116500D02*
D03*
X107000Y80850D02*
D03*
D24*
X187270Y42950D02*
D03*
Y55650D02*
D03*
Y68350D02*
D03*
Y81050D02*
D03*
X136730Y42950D02*
D03*
Y55650D02*
D03*
Y68350D02*
D03*
Y81050D02*
D03*
D25*
X186270Y35000D02*
Y42950D01*
X113770Y35000D02*
X186270D01*
X220000Y110000D02*
Y134000D01*
X213000Y141000D02*
X220000Y134000D01*
X143000Y141000D02*
X213000D01*
X136500Y134500D02*
X143000Y141000D01*
X136500Y105000D02*
Y134500D01*
X187270Y81050D02*
X190877D01*
X185500Y105000D02*
X187270Y103230D01*
Y81050D02*
Y103230D01*
X116580Y63420D02*
Y101420D01*
X102500Y115500D02*
X116580Y101420D01*
X151500Y80500D02*
X176350Y55650D01*
X151500Y80500D02*
Y105000D01*
X176350Y55650D02*
X186270D01*
X97000Y57150D02*
Y81000D01*
X170000Y105500D02*
X170500Y105000D01*
X170000Y105500D02*
Y123000D01*
X97000Y57150D02*
X97500D01*
X60250D02*
X97000D01*
X97460Y40048D02*
X97500Y40008D01*
X97000Y40508D02*
X97460Y40048D01*
X97000Y40508D02*
Y57150D01*
X97500Y37000D02*
X97500Y37000D01*
Y40008D01*
X170500Y75500D02*
Y105000D01*
Y75500D02*
X177650Y68350D01*
X186270D01*
X207320Y60000D02*
X220000D01*
X112500Y37000D02*
X133000D01*
X135730Y39730D01*
X107040Y53198D02*
Y80810D01*
X107000Y53158D02*
X107040Y53198D01*
X120230Y55650D02*
X135730D01*
X107000Y44000D02*
Y53158D01*
Y80850D02*
X107040Y80810D01*
X76000Y115500D02*
X102500D01*
X107000Y44000D02*
X112500Y38500D01*
Y37000D02*
Y38500D01*
X97460Y40048D02*
Y57110D01*
X97500Y57150D01*
X76000Y96500D02*
X99500D01*
X107000Y89000D01*
Y80850D02*
Y89000D01*
X54100Y51000D02*
X60250Y57150D01*
X220000Y-10000D02*
Y16000D01*
X217000Y19000D02*
X220000Y16000D01*
X185000Y19000D02*
X217000D01*
X180000Y14000D02*
X185000Y19000D01*
X112000Y14000D02*
X180000D01*
X109000Y17000D02*
X112000Y14000D01*
X63000Y-97000D02*
X84000D01*
X60000Y-100000D02*
X63000Y-97000D01*
X84000D02*
X86500Y-94500D01*
X69000Y-68000D02*
X76000Y-61000D01*
X69000Y-68000D02*
X73000Y-72000D01*
X96000D01*
Y-92000D02*
Y-72000D01*
X93500Y-94500D02*
X96000Y-92000D01*
X86500Y-94500D02*
X93500D01*
X76000Y-61000D02*
Y-49500D01*
X66000Y-500D02*
X80500D01*
X79960Y-13540D02*
Y-1040D01*
X89500Y-19000D02*
X91000Y-20500D01*
Y-40000D02*
Y-20500D01*
Y-40000D02*
X100000Y-49000D01*
X127500Y-46500D02*
Y-20000D01*
X119000Y-55000D02*
X127500Y-46500D01*
X112500Y-55000D02*
X119000D01*
X106500Y-49000D02*
X112500Y-55000D01*
X53500Y96500D02*
X76000D01*
X50950Y99050D02*
X53500Y96500D01*
X50950Y99050D02*
Y124050D01*
X16000D02*
X50950D01*
X-44000Y86500D02*
Y106000D01*
X-25950Y124050D01*
X16000D01*
X-152000Y96000D02*
X-120000D01*
X-110500Y86500D01*
X-97000D01*
X-71000D02*
X-44000D01*
X-97000D02*
X-71000D01*
X-66000Y-100000D02*
X10000D01*
X-87750Y-78250D02*
X-66000Y-100000D01*
X-117000Y-78250D02*
X-87750D01*
X-78000Y-29000D02*
X-27500D01*
X-103250Y-3750D02*
X-78000Y-29000D01*
X-117000Y-3750D02*
X-103250D01*
X53500Y-48500D02*
Y-36000D01*
X10000Y-92000D02*
Y-64000D01*
X52500Y-37000D02*
X53500Y-36000D01*
X46000Y-56000D02*
X53500Y-48500D01*
X31000Y-56000D02*
X46000D01*
X20000Y-67000D02*
X31000Y-56000D01*
X20000Y-82000D02*
Y-67000D01*
X10000Y-92000D02*
X20000Y-82000D01*
X10000Y-100000D02*
Y-92000D01*
X76000Y30000D02*
Y44500D01*
X41400Y27600D02*
X42000Y27000D01*
X41400Y27600D02*
Y51000D01*
X-97000Y55500D02*
X-71000D01*
X-133500D02*
X-97000D01*
X-26600D02*
X-22100Y51000D01*
X-44000Y55500D02*
X-26600D01*
X-71000D02*
X-44000D01*
X-143000Y46000D02*
X-133500Y55500D01*
X-152000Y46000D02*
X-143000D01*
X-147250Y-3750D02*
X-117000D01*
X-152000Y1000D02*
X-147250Y-3750D01*
X-152000Y1000D02*
Y46000D01*
X-40000Y-56000D02*
X-27500D01*
X16000Y-1000D02*
Y1450D01*
X-6645Y-23645D02*
X16000Y-1000D01*
X-8500Y-29000D02*
X7000D01*
X-47000Y17000D02*
X-28500D01*
X3300Y1300D02*
Y51000D01*
X108500Y-20000D02*
Y-1500D01*
X156000Y-92000D02*
X214000D01*
X220000Y-86000D01*
Y-60000D01*
X156000Y-92000D02*
Y-63000D01*
X150000Y-57000D02*
X156000Y-63000D01*
X109000Y-57000D02*
X150000D01*
X106500Y-54500D02*
X109000Y-57000D01*
X106500Y-54500D02*
Y-49000D01*
X100000D02*
X106500D01*
X88000Y9000D02*
X91540Y5460D01*
Y-5752D02*
Y5460D01*
X89500Y-7792D02*
X91540Y-5752D01*
X89500Y-19000D02*
Y-7792D01*
X79960Y-1040D02*
X80500Y-500D01*
X74500Y-19000D02*
X79960Y-13540D01*
X74500Y-48000D02*
Y-19000D01*
Y-48000D02*
X76000Y-49500D01*
X53500Y12000D02*
X66000Y-500D01*
X62000Y12000D02*
X68500Y18500D01*
X53500Y12000D02*
X62000D01*
X68500Y18500D02*
X80500D01*
X-18040Y-15002D02*
Y-8960D01*
Y-15002D02*
X-17960Y-15082D01*
Y-25040D02*
Y-15082D01*
X-14000Y-29000D02*
X-8500D01*
X-17960Y-25040D02*
X-14000Y-29000D01*
X-21000Y-6000D02*
X-18040Y-8960D01*
X-27500Y-6000D02*
X-21000D01*
X34500Y-11000D02*
Y12000D01*
X-21460Y-41540D02*
X22500D01*
X-27500Y-35500D02*
X-21460Y-41540D01*
X-27500Y-35500D02*
Y-29000D01*
X-8500Y-56000D02*
X2000D01*
X10000Y-64000D01*
X53500Y-36000D02*
Y-11000D01*
X53500Y12000D02*
X54100Y12600D01*
Y51000D01*
X16000Y124050D02*
X16500Y123550D01*
Y75500D02*
Y123550D01*
Y75500D02*
X76000D01*
Y96500D01*
X28700Y20800D02*
X34500Y15000D01*
X28700Y20800D02*
Y51000D01*
X16000Y22550D02*
Y51000D01*
X-4000Y-6000D02*
X3300Y1300D01*
X-8500Y-6000D02*
X-4000D01*
X-9400Y17100D02*
Y51000D01*
X16000D02*
Y124050D01*
D26*
X125000Y75473D02*
Y99000D01*
Y75473D02*
X132123Y68350D01*
X125000Y99000D02*
X131000Y105000D01*
X136500D01*
D27*
X132123Y68350D02*
X136730D01*
D28*
X-152000Y96000D02*
D03*
X10000Y-100000D02*
D03*
X220000Y-60000D02*
D03*
Y-10000D02*
D03*
X-152000Y46000D02*
D03*
X60000Y-100000D02*
D03*
X220000Y60000D02*
D03*
Y110000D02*
D03*
D29*
X170000Y123000D02*
D03*
X97000Y81000D02*
D03*
X76000Y30000D02*
D03*
X42000Y27000D02*
D03*
X-40000Y-56000D02*
D03*
X7000Y-29000D02*
D03*
X-47000Y17000D02*
D03*
X-2000Y94000D02*
D03*
X10000D02*
D03*
X22000D02*
D03*
X35000D02*
D03*
Y105000D02*
D03*
X22000D02*
D03*
X10000D02*
D03*
X-2000D02*
D03*
Y117000D02*
D03*
X10000D02*
D03*
X22000D02*
D03*
X35000D02*
D03*
Y129000D02*
D03*
X22000D02*
D03*
X10000D02*
D03*
X-2000D02*
D03*
Y141000D02*
D03*
Y153000D02*
D03*
X10000D02*
D03*
Y141000D02*
D03*
X22000D02*
D03*
Y153000D02*
D03*
X35000D02*
D03*
Y141000D02*
D03*
M02*
