M48
;Layer_Color=9474304
;FILE_FORMAT=2:4
INCH
;TYPE=PLATED
T1F00S00C0.0118
T2F00S00C0.0354
T3F00S00C0.0394
T4F00S00C0.0433
%
T01
X011594Y046594
X012244
X014508Y046634
X015748Y046663
X018140Y046634
X020433Y046565
X021644Y046575
X023967Y046703
X027953Y046171
X027697Y045797
X023812Y042156
X018720Y041004
X017879Y047574
X018071Y047904
X018238Y048937
Y049321
X017008Y048563
X015738Y047933
X015718Y049360
X021230Y049291
X021624Y048770
X022884Y048593
X024085Y049065
X024203Y049409
X023917Y047825
X023642Y047520
X027077Y049262
X027589Y049232
X012323Y049380
X012057Y049006
X012067Y047992
X012047Y047608
T02
X013606Y035394
X014606
Y036394
Y037394
Y038394
X013606
Y037394
Y036394
X019868Y036762
X020868
X021868
X022868
X023868
T03
X014110Y039931
X015110
Y045915
X014110
X012941Y044818
X011941
Y044055
X016110Y045915
X017110
X018110
X019110
X020110
X021110
X022110
X023110
X024110
X025110
X026110
X027110
Y039931
X026110
X025110
X024110
Y040931
X023110
X022110
Y039931
X021110
X020110
X019110
X018110
X017110
X016110
X023110
X024175Y035453
X025175
X026409Y035423
X027409
T04
X012941Y044055
M30
