G04 Layer_Color=8421504*
%FSLAX44Y44*%
%MOMM*%
G71*
G01*
G75*
%ADD10R,0.9000X0.6000*%
%ADD11R,0.4500X1.4500*%
%ADD12R,0.5000X0.6000*%
%ADD13R,0.6000X0.9000*%
D10*
X284480Y268090D02*
D03*
Y283090D02*
D03*
X358140Y294760D02*
D03*
Y309760D02*
D03*
X304800Y268090D02*
D03*
Y283090D02*
D03*
X358140Y261740D02*
D03*
Y276740D02*
D03*
X378460Y431920D02*
D03*
Y446920D02*
D03*
X284480Y317380D02*
D03*
Y302380D02*
D03*
X358140Y396120D02*
D03*
Y381120D02*
D03*
X378460Y396120D02*
D03*
Y381120D02*
D03*
X284480Y396120D02*
D03*
Y381120D02*
D03*
X302260Y426840D02*
D03*
Y441840D02*
D03*
X284480Y346830D02*
D03*
Y361830D02*
D03*
X304800Y361830D02*
D03*
Y346830D02*
D03*
Y381120D02*
D03*
Y396120D02*
D03*
X358140Y431920D02*
D03*
Y446920D02*
D03*
Y346830D02*
D03*
Y361830D02*
D03*
X303530Y466210D02*
D03*
Y481210D02*
D03*
X283210Y466210D02*
D03*
Y481210D02*
D03*
D11*
X341220Y306480D02*
D03*
X334720D02*
D03*
X328220D02*
D03*
X321720D02*
D03*
X341220Y262480D02*
D03*
X334720D02*
D03*
X328220D02*
D03*
X321720D02*
D03*
X341220Y475390D02*
D03*
X334720D02*
D03*
X328220D02*
D03*
X321720D02*
D03*
X341220Y431390D02*
D03*
X334720D02*
D03*
X328220D02*
D03*
X321720D02*
D03*
X341220Y390300D02*
D03*
X334720D02*
D03*
X328220D02*
D03*
X321720D02*
D03*
X341220Y346300D02*
D03*
X334720D02*
D03*
X328220D02*
D03*
X321720D02*
D03*
D12*
X369650Y464820D02*
D03*
X379650D02*
D03*
D13*
X315080Y501650D02*
D03*
X330080D02*
D03*
X283330D02*
D03*
X298330D02*
D03*
M02*
