G04 Layer_Physical_Order=4*
G04 Layer_Color=16711680*
%FSLAX44Y44*%
%MOMM*%
G71*
G01*
G75*
%ADD14C,0.2540*%
%ADD16R,1.5000X1.5000*%
%ADD17C,1.5000*%
%ADD18C,0.4500*%
%ADD24R,2.0000X2.0000*%
G36*
X394500Y232500D02*
X266000D01*
Y286525D01*
X267270Y286650D01*
X267449Y285752D01*
X268167Y284677D01*
X269242Y283959D01*
X270510Y283706D01*
X271778Y283959D01*
X272853Y284677D01*
X272872Y284706D01*
X320250D01*
Y277500D01*
X342250D01*
Y299500D01*
X320250D01*
Y289335D01*
X272872D01*
X272853Y289363D01*
X271778Y290081D01*
X270510Y290334D01*
X269242Y290081D01*
X268167Y289363D01*
X267449Y288288D01*
X267270Y287390D01*
X266000Y287515D01*
Y556250D01*
X266311Y557000D01*
X394500D01*
Y232500D01*
D02*
G37*
%LPC*%
G36*
X376131Y345480D02*
X372770D01*
Y342119D01*
X373369Y342238D01*
X374953Y343297D01*
X376012Y344881D01*
X376131Y345480D01*
D02*
G37*
G36*
X370230D02*
X366869D01*
X366988Y344881D01*
X368047Y343297D01*
X369631Y342238D01*
X370230Y342119D01*
Y345480D01*
D02*
G37*
G36*
Y351381D02*
X369631Y351262D01*
X368047Y350203D01*
X366988Y348619D01*
X366869Y348020D01*
X370230D01*
Y351381D01*
D02*
G37*
G36*
X317250Y405814D02*
X315982Y405561D01*
X314907Y404843D01*
X314189Y403768D01*
X313936Y402500D01*
X314189Y401232D01*
X314907Y400157D01*
X315982Y399439D01*
X317250Y399186D01*
X318518Y399439D01*
X319593Y400157D01*
X320311Y401232D01*
X320564Y402500D01*
X320311Y403768D01*
X319593Y404843D01*
X318518Y405561D01*
X317250Y405814D01*
D02*
G37*
G36*
X342250Y387000D02*
X320250D01*
Y378234D01*
X307340D01*
X306454Y378058D01*
X305703Y377557D01*
X299353Y371207D01*
X298852Y370456D01*
X298675Y369570D01*
Y319862D01*
X298647Y319843D01*
X297929Y318768D01*
X297676Y317500D01*
X297929Y316232D01*
X298647Y315157D01*
X299722Y314439D01*
X300990Y314186D01*
X302258Y314439D01*
X303333Y315157D01*
X304051Y316232D01*
X304304Y317500D01*
X304051Y318768D01*
X303333Y319843D01*
X303305Y319862D01*
Y368611D01*
X308299Y373605D01*
X320250D01*
Y365000D01*
X342250D01*
Y387000D01*
D02*
G37*
G36*
X372770Y351381D02*
Y348020D01*
X376131D01*
X376012Y348619D01*
X374953Y350203D01*
X373369Y351262D01*
X372770Y351381D01*
D02*
G37*
G36*
X375631Y260230D02*
X372270D01*
Y256869D01*
X372869Y256988D01*
X374453Y258047D01*
X375512Y259631D01*
X375631Y260230D01*
D02*
G37*
G36*
X369730D02*
X366369D01*
X366488Y259631D01*
X367547Y258047D01*
X369131Y256988D01*
X369730Y256869D01*
Y260230D01*
D02*
G37*
G36*
X318500Y523314D02*
X317232Y523061D01*
X316157Y522343D01*
X315439Y521268D01*
X315186Y520000D01*
X315439Y518732D01*
X316157Y517657D01*
X317232Y516939D01*
X318500Y516686D01*
X319768Y516939D01*
X320843Y517657D01*
X320862Y517686D01*
X344291D01*
X353186Y508791D01*
Y477612D01*
X353157Y477593D01*
X352439Y476518D01*
X352186Y475250D01*
X352439Y473982D01*
X353157Y472907D01*
X353186Y472888D01*
Y446959D01*
X333613Y427387D01*
X333112Y426636D01*
X332935Y425750D01*
Y419612D01*
X332907Y419593D01*
X332189Y418518D01*
X331936Y417250D01*
X332189Y415982D01*
X332907Y414907D01*
X332935Y414888D01*
Y405500D01*
X333112Y404614D01*
X333613Y403863D01*
X349436Y388041D01*
Y256709D01*
X344291Y251565D01*
X337112D01*
X337093Y251593D01*
X336018Y252311D01*
X334750Y252564D01*
X333482Y252311D01*
X332407Y251593D01*
X331689Y250518D01*
X331436Y249250D01*
X331689Y247982D01*
X332407Y246907D01*
X333482Y246189D01*
X334750Y245936D01*
X336018Y246189D01*
X337093Y246907D01*
X337112Y246936D01*
X345250D01*
X346136Y247112D01*
X346887Y247613D01*
X353387Y254113D01*
X353888Y254864D01*
X354064Y255750D01*
Y389000D01*
X353888Y389886D01*
X353387Y390637D01*
X337565Y406459D01*
Y414888D01*
X337593Y414907D01*
X338311Y415982D01*
X338564Y417250D01*
X338311Y418518D01*
X337593Y419593D01*
X337565Y419612D01*
Y424791D01*
X357137Y444363D01*
X357638Y445114D01*
X357814Y446000D01*
Y472888D01*
X357843Y472907D01*
X358561Y473982D01*
X358814Y475250D01*
X358561Y476518D01*
X357843Y477593D01*
X357814Y477612D01*
Y509750D01*
X357638Y510636D01*
X357137Y511387D01*
X346887Y521637D01*
X346136Y522138D01*
X345250Y522314D01*
X320862D01*
X320843Y522343D01*
X319768Y523061D01*
X318500Y523314D01*
D02*
G37*
G36*
X311150Y327164D02*
X309882Y326911D01*
X308807Y326193D01*
X308089Y325118D01*
X307836Y323850D01*
X308089Y322582D01*
X308807Y321507D01*
X309882Y320789D01*
X311150Y320536D01*
X312418Y320789D01*
X313493Y321507D01*
X314211Y322582D01*
X314464Y323850D01*
X314211Y325118D01*
X313493Y326193D01*
X312418Y326911D01*
X311150Y327164D01*
D02*
G37*
G36*
X372270Y266131D02*
Y262770D01*
X375631D01*
X375512Y263369D01*
X374453Y264953D01*
X372869Y266012D01*
X372270Y266131D01*
D02*
G37*
G36*
X369730D02*
X369131Y266012D01*
X367547Y264953D01*
X366488Y263369D01*
X366369Y262770D01*
X369730D01*
Y266131D01*
D02*
G37*
G36*
X344050Y551573D02*
X341831Y551281D01*
X339763Y550425D01*
X337988Y549062D01*
X336625Y547287D01*
X335769Y545219D01*
X335477Y543000D01*
X335769Y540781D01*
X336625Y538713D01*
X337988Y536938D01*
X339763Y535575D01*
X341831Y534719D01*
X344050Y534427D01*
X346269Y534719D01*
X348337Y535575D01*
X350112Y536938D01*
X351475Y538713D01*
X352331Y540781D01*
X352623Y543000D01*
X352331Y545219D01*
X351475Y547287D01*
X350112Y549062D01*
X348337Y550425D01*
X346269Y551281D01*
X344050Y551573D01*
D02*
G37*
G36*
X318650D02*
X316431Y551281D01*
X314363Y550425D01*
X312588Y549062D01*
X311225Y547287D01*
X310369Y545219D01*
X310077Y543000D01*
X310369Y540781D01*
X311225Y538713D01*
X312588Y536938D01*
X314363Y535575D01*
X316431Y534719D01*
X318650Y534427D01*
X320869Y534719D01*
X322937Y535575D01*
X324712Y536938D01*
X326075Y538713D01*
X326931Y540781D01*
X327223Y543000D01*
X326931Y545219D01*
X326075Y547287D01*
X324712Y549062D01*
X322937Y550425D01*
X320869Y551281D01*
X318650Y551573D01*
D02*
G37*
G36*
X379409Y541730D02*
X370720D01*
Y533041D01*
X372071Y533218D01*
X374513Y534230D01*
X376611Y535839D01*
X378220Y537937D01*
X379232Y540379D01*
X379409Y541730D01*
D02*
G37*
G36*
X370720Y552959D02*
Y544270D01*
X379409D01*
X379232Y545621D01*
X378220Y548063D01*
X376611Y550161D01*
X374513Y551770D01*
X372071Y552782D01*
X370720Y552959D01*
D02*
G37*
G36*
X368180D02*
X366829Y552782D01*
X364387Y551770D01*
X362289Y550161D01*
X360680Y548063D01*
X359668Y545621D01*
X359491Y544270D01*
X368180D01*
Y552959D01*
D02*
G37*
G36*
X301750Y551500D02*
X284750D01*
Y534500D01*
X301750D01*
Y551500D01*
D02*
G37*
G36*
X368180Y541730D02*
X359491D01*
X359668Y540379D01*
X360680Y537937D01*
X362289Y535839D01*
X364387Y534230D01*
X366829Y533218D01*
X368180Y533041D01*
Y541730D01*
D02*
G37*
G36*
X346980Y426631D02*
X346381Y426512D01*
X344797Y425453D01*
X343738Y423869D01*
X343619Y423270D01*
X346980D01*
Y426631D01*
D02*
G37*
G36*
X352881Y420730D02*
X349520D01*
Y417369D01*
X350119Y417488D01*
X351703Y418547D01*
X352762Y420131D01*
X352881Y420730D01*
D02*
G37*
G36*
X346980D02*
X343619D01*
X343738Y420131D01*
X344797Y418547D01*
X346381Y417488D01*
X346980Y417369D01*
Y420730D01*
D02*
G37*
G36*
X314960Y492264D02*
X313692Y492011D01*
X312617Y491293D01*
X311899Y490218D01*
X311646Y488950D01*
X311899Y487682D01*
X312617Y486607D01*
X313692Y485889D01*
X314960Y485636D01*
X316228Y485889D01*
X317303Y486607D01*
X318021Y487682D01*
X318274Y488950D01*
X318021Y490218D01*
X317303Y491293D01*
X316228Y492011D01*
X314960Y492264D01*
D02*
G37*
G36*
X342250Y474500D02*
X320250D01*
Y465734D01*
X293240D01*
X292354Y465558D01*
X291603Y465057D01*
X282843Y456297D01*
X282342Y455546D01*
X282166Y454660D01*
Y441782D01*
X282137Y441763D01*
X281419Y440688D01*
X281166Y439420D01*
X281419Y438152D01*
X282137Y437077D01*
X283212Y436359D01*
X284480Y436106D01*
X285748Y436359D01*
X286823Y437077D01*
X287541Y438152D01*
X287794Y439420D01*
X287541Y440688D01*
X286823Y441763D01*
X286794Y441782D01*
Y453701D01*
X294199Y461105D01*
X320250D01*
Y452500D01*
X342250D01*
Y474500D01*
D02*
G37*
G36*
X349520Y426631D02*
Y423270D01*
X352881D01*
X352762Y423869D01*
X351703Y425453D01*
X350119Y426512D01*
X349520Y426631D01*
D02*
G37*
%LPD*%
D14*
X351750Y255750D02*
Y389000D01*
X335250Y405500D02*
X351750Y389000D01*
X335250Y405500D02*
Y417250D01*
X345250Y249250D02*
X351750Y255750D01*
X334750Y249250D02*
X345250D01*
X355500Y475250D02*
Y509750D01*
X345250Y520000D02*
X355500Y509750D01*
X318500Y520000D02*
X345250D01*
X335250Y417250D02*
Y425750D01*
X355500Y446000D02*
Y475250D01*
X335250Y425750D02*
X355500Y446000D01*
X284480Y439420D02*
Y454660D01*
X293240Y463420D01*
X327530Y287020D02*
X328930Y288420D01*
X270510Y287020D02*
X327530D01*
X293240Y463420D02*
X328930D01*
X307340Y375920D02*
X328930D01*
X300990Y369570D02*
X307340Y375920D01*
X300990Y317500D02*
Y369570D01*
D16*
X293250Y543000D02*
D03*
D17*
X318650D02*
D03*
X344050D02*
D03*
X369450D02*
D03*
D18*
X334750Y249250D02*
D03*
X284480Y439420D02*
D03*
X318500Y520000D02*
D03*
X348250Y422000D02*
D03*
X335250Y417250D02*
D03*
X355500Y475250D02*
D03*
X314960Y488950D02*
D03*
X311150Y323850D02*
D03*
X270510Y287020D02*
D03*
X300990Y317500D02*
D03*
X317250Y402500D02*
D03*
X371000Y261500D02*
D03*
X371500Y346750D02*
D03*
D24*
X331250Y288500D02*
D03*
Y463500D02*
D03*
Y376000D02*
D03*
M02*
