G04 Layer_Physical_Order=4*
G04 Layer_Color=16711680*
%FSLAX44Y44*%
%MOMM*%
G71*
G01*
G75*
%ADD14C,0.2540*%
%ADD16C,1.5000*%
%ADD17R,1.5000X1.5000*%
%ADD18C,0.4500*%
%ADD24R,3.0000X3.0000*%
G36*
X394500Y232500D02*
X266000D01*
Y286525D01*
X267270Y286650D01*
X267449Y285752D01*
X268167Y284677D01*
X269242Y283959D01*
X270510Y283706D01*
X271778Y283959D01*
X272853Y284677D01*
X272872Y284706D01*
X312930D01*
Y272420D01*
X344930D01*
Y304420D01*
X312930D01*
Y289335D01*
X272872D01*
X272853Y289363D01*
X271778Y290081D01*
X270510Y290334D01*
X269242Y290081D01*
X268167Y289363D01*
X267449Y288288D01*
X267270Y287390D01*
X266000Y287515D01*
Y556250D01*
X266311Y557000D01*
X394500D01*
Y232500D01*
D02*
G37*
%LPC*%
G36*
X344930Y479420D02*
X312930D01*
Y465734D01*
X293240D01*
X292354Y465558D01*
X291603Y465057D01*
X282843Y456297D01*
X282342Y455546D01*
X282166Y454660D01*
Y441782D01*
X282137Y441763D01*
X281419Y440688D01*
X281166Y439420D01*
X281419Y438152D01*
X282137Y437077D01*
X283212Y436359D01*
X284480Y436106D01*
X285748Y436359D01*
X286823Y437077D01*
X287541Y438152D01*
X287794Y439420D01*
X287541Y440688D01*
X286823Y441763D01*
X286794Y441782D01*
Y453701D01*
X294199Y461105D01*
X312930D01*
Y447420D01*
X344930D01*
Y479420D01*
D02*
G37*
G36*
X314960Y492264D02*
X313692Y492011D01*
X312617Y491293D01*
X311899Y490218D01*
X311646Y488950D01*
X311899Y487682D01*
X312617Y486607D01*
X313692Y485889D01*
X314960Y485636D01*
X316228Y485889D01*
X317303Y486607D01*
X318021Y487682D01*
X318274Y488950D01*
X318021Y490218D01*
X317303Y491293D01*
X316228Y492011D01*
X314960Y492264D01*
D02*
G37*
G36*
X318500Y523314D02*
X317232Y523061D01*
X316157Y522343D01*
X315439Y521268D01*
X315186Y520000D01*
X315439Y518732D01*
X316157Y517657D01*
X316185Y517638D01*
Y495500D01*
X316362Y494614D01*
X316863Y493863D01*
X319363Y491363D01*
X320114Y490862D01*
X321000Y490686D01*
X350291D01*
X353186Y487791D01*
Y477612D01*
X353157Y477593D01*
X352439Y476518D01*
X352186Y475250D01*
X352439Y473982D01*
X353157Y472907D01*
X353186Y472888D01*
Y423209D01*
X349541Y419565D01*
X337612D01*
X337593Y419593D01*
X336518Y420311D01*
X335250Y420564D01*
X333982Y420311D01*
X332907Y419593D01*
X332888Y419565D01*
X313000D01*
X312114Y419388D01*
X311363Y418887D01*
X308113Y415637D01*
X307612Y414886D01*
X307435Y414000D01*
Y398750D01*
X307612Y397864D01*
X308113Y397113D01*
X310363Y394863D01*
X311114Y394362D01*
X312000Y394185D01*
X354291D01*
X362186Y386291D01*
Y253959D01*
X359791Y251565D01*
X337112D01*
X337093Y251593D01*
X336018Y252311D01*
X334750Y252564D01*
X333482Y252311D01*
X332407Y251593D01*
X331689Y250518D01*
X331436Y249250D01*
X331689Y247982D01*
X332407Y246907D01*
X333482Y246189D01*
X334750Y245936D01*
X336018Y246189D01*
X337093Y246907D01*
X337112Y246936D01*
X360750D01*
X361636Y247112D01*
X362387Y247613D01*
X366137Y251363D01*
X366638Y252114D01*
X366814Y253000D01*
Y387250D01*
X366638Y388136D01*
X366137Y388887D01*
X356887Y398137D01*
X356136Y398638D01*
X355250Y398815D01*
X319870D01*
X319485Y400084D01*
X319593Y400157D01*
X320311Y401232D01*
X320564Y402500D01*
X320311Y403768D01*
X319593Y404843D01*
X318518Y405561D01*
X317250Y405814D01*
X315982Y405561D01*
X314907Y404843D01*
X314189Y403768D01*
X313936Y402500D01*
X314189Y401232D01*
X314907Y400157D01*
X315015Y400084D01*
X314630Y398815D01*
X312959D01*
X312064Y399709D01*
Y413041D01*
X313959Y414935D01*
X332888D01*
X332907Y414907D01*
X333982Y414189D01*
X335250Y413936D01*
X336518Y414189D01*
X337593Y414907D01*
X337612Y414935D01*
X350500D01*
X351386Y415112D01*
X352137Y415613D01*
X357137Y420613D01*
X357638Y421364D01*
X357814Y422250D01*
Y472888D01*
X357843Y472907D01*
X358561Y473982D01*
X358814Y475250D01*
X358561Y476518D01*
X357843Y477593D01*
X357814Y477612D01*
Y488750D01*
X357638Y489636D01*
X357137Y490387D01*
X352887Y494637D01*
X352136Y495138D01*
X351250Y495314D01*
X321959D01*
X320815Y496459D01*
Y517638D01*
X320843Y517657D01*
X321561Y518732D01*
X321814Y520000D01*
X321561Y521268D01*
X320843Y522343D01*
X319768Y523061D01*
X318500Y523314D01*
D02*
G37*
G36*
X311150Y327164D02*
X309882Y326911D01*
X308807Y326193D01*
X308089Y325118D01*
X307836Y323850D01*
X308089Y322582D01*
X308807Y321507D01*
X309882Y320789D01*
X311150Y320536D01*
X312418Y320789D01*
X313493Y321507D01*
X314211Y322582D01*
X314464Y323850D01*
X314211Y325118D01*
X313493Y326193D01*
X312418Y326911D01*
X311150Y327164D01*
D02*
G37*
G36*
X344930Y391920D02*
X312930D01*
Y378234D01*
X307340D01*
X306454Y378058D01*
X305703Y377557D01*
X299353Y371207D01*
X298852Y370456D01*
X298675Y369570D01*
Y319862D01*
X298647Y319843D01*
X297929Y318768D01*
X297676Y317500D01*
X297929Y316232D01*
X298647Y315157D01*
X299722Y314439D01*
X300990Y314186D01*
X302258Y314439D01*
X303333Y315157D01*
X304051Y316232D01*
X304304Y317500D01*
X304051Y318768D01*
X303333Y319843D01*
X303305Y319862D01*
Y368611D01*
X308299Y373605D01*
X312930D01*
Y359920D01*
X344930D01*
Y391920D01*
D02*
G37*
G36*
X368180Y541730D02*
X359491D01*
X359668Y540379D01*
X360680Y537937D01*
X362289Y535839D01*
X364387Y534230D01*
X366829Y533218D01*
X368180Y533041D01*
Y541730D01*
D02*
G37*
G36*
X301750Y551500D02*
X284750D01*
Y534500D01*
X301750D01*
Y551500D01*
D02*
G37*
G36*
X368180Y552959D02*
X366829Y552782D01*
X364387Y551770D01*
X362289Y550161D01*
X360680Y548063D01*
X359668Y545621D01*
X359491Y544270D01*
X368180D01*
Y552959D01*
D02*
G37*
G36*
X370720D02*
Y544270D01*
X379409D01*
X379232Y545621D01*
X378220Y548063D01*
X376611Y550161D01*
X374513Y551770D01*
X372071Y552782D01*
X370720Y552959D01*
D02*
G37*
G36*
X379409Y541730D02*
X370720D01*
Y533041D01*
X372071Y533218D01*
X374513Y534230D01*
X376611Y535839D01*
X378220Y537937D01*
X379232Y540379D01*
X379409Y541730D01*
D02*
G37*
G36*
X318650Y551573D02*
X316431Y551281D01*
X314363Y550425D01*
X312588Y549062D01*
X311225Y547287D01*
X310369Y545219D01*
X310077Y543000D01*
X310369Y540781D01*
X311225Y538713D01*
X312588Y536938D01*
X314363Y535575D01*
X316431Y534719D01*
X318650Y534427D01*
X320869Y534719D01*
X322937Y535575D01*
X324712Y536938D01*
X326075Y538713D01*
X326931Y540781D01*
X327223Y543000D01*
X326931Y545219D01*
X326075Y547287D01*
X324712Y549062D01*
X322937Y550425D01*
X320869Y551281D01*
X318650Y551573D01*
D02*
G37*
G36*
X344050D02*
X341831Y551281D01*
X339763Y550425D01*
X337988Y549062D01*
X336625Y547287D01*
X335769Y545219D01*
X335477Y543000D01*
X335769Y540781D01*
X336625Y538713D01*
X337988Y536938D01*
X339763Y535575D01*
X341831Y534719D01*
X344050Y534427D01*
X346269Y534719D01*
X348337Y535575D01*
X350112Y536938D01*
X351475Y538713D01*
X352331Y540781D01*
X352623Y543000D01*
X352331Y545219D01*
X351475Y547287D01*
X350112Y549062D01*
X348337Y550425D01*
X346269Y551281D01*
X344050Y551573D01*
D02*
G37*
%LPD*%
D14*
X313000Y417250D02*
X335250D01*
X312000Y396500D02*
X355250D01*
X364500Y387250D01*
X309750Y414000D02*
X313000Y417250D01*
X309750Y398750D02*
Y414000D01*
Y398750D02*
X312000Y396500D01*
X364500Y253000D02*
Y387250D01*
X300990Y317500D02*
Y369570D01*
X307340Y375920D01*
X328930D01*
X293240Y463420D02*
X328930D01*
X270510Y287020D02*
X327530D01*
X328930Y288420D01*
X335250Y417250D02*
X350500D01*
X355500Y422250D01*
Y475250D01*
Y488750D01*
X351250Y493000D02*
X355500Y488750D01*
X321000Y493000D02*
X351250D01*
X318500Y495500D02*
X321000Y493000D01*
X318500Y495500D02*
Y520000D01*
X284480Y454660D02*
X293240Y463420D01*
X284480Y439420D02*
Y454660D01*
X360750Y249250D02*
X364500Y253000D01*
X334750Y249250D02*
X360750D01*
D16*
X369450Y543000D02*
D03*
X344050D02*
D03*
X318650D02*
D03*
D17*
X293250D02*
D03*
D18*
X371500Y346750D02*
D03*
X371000Y261500D02*
D03*
X317250Y402500D02*
D03*
X300990Y317500D02*
D03*
X270510Y287020D02*
D03*
X311150Y323850D02*
D03*
X314960Y488950D02*
D03*
X355500Y475250D02*
D03*
X335250Y417250D02*
D03*
X348250Y422000D02*
D03*
X318500Y520000D02*
D03*
X284480Y439420D02*
D03*
X334750Y249250D02*
D03*
D24*
X328930Y375920D02*
D03*
Y463420D02*
D03*
Y288420D02*
D03*
M02*
