G04 Layer_Color=8388736*
%FSLAX44Y44*%
%MOMM*%
G71*
G01*
G75*
%ADD26R,0.8032X1.1032*%
%ADD27R,1.1032X0.8032*%
%ADD28R,0.5500X1.5500*%
%ADD29R,0.7032X0.8032*%
%ADD30C,1.7032*%
%ADD31R,1.7032X1.7032*%
%ADD32C,0.6532*%
D26*
X298330Y501650D02*
D03*
X283330D02*
D03*
X330080D02*
D03*
X315080D02*
D03*
D27*
X283210Y481210D02*
D03*
Y466210D02*
D03*
X303530Y481210D02*
D03*
Y466210D02*
D03*
X358140Y361830D02*
D03*
Y346830D02*
D03*
Y446920D02*
D03*
Y431920D02*
D03*
X304800Y396120D02*
D03*
Y381120D02*
D03*
Y346830D02*
D03*
Y361830D02*
D03*
X284480Y361830D02*
D03*
Y346830D02*
D03*
X302260Y441840D02*
D03*
Y426840D02*
D03*
X284480Y381120D02*
D03*
Y396120D02*
D03*
X378460Y381120D02*
D03*
Y396120D02*
D03*
X358140Y381120D02*
D03*
Y396120D02*
D03*
X284480Y302380D02*
D03*
Y317380D02*
D03*
X378460Y446920D02*
D03*
Y431920D02*
D03*
X358140Y276740D02*
D03*
Y261740D02*
D03*
X304800Y283090D02*
D03*
Y268090D02*
D03*
X358140Y309760D02*
D03*
Y294760D02*
D03*
X284480Y283090D02*
D03*
Y268090D02*
D03*
D28*
X321720Y346300D02*
D03*
X328220D02*
D03*
X334720D02*
D03*
X341220D02*
D03*
X321720Y390300D02*
D03*
X328220D02*
D03*
X334720D02*
D03*
X341220D02*
D03*
X321720Y431390D02*
D03*
X328220D02*
D03*
X334720D02*
D03*
X341220D02*
D03*
X321720Y475390D02*
D03*
X328220D02*
D03*
X334720D02*
D03*
X341220D02*
D03*
X321720Y262480D02*
D03*
X328220D02*
D03*
X334720D02*
D03*
X341220D02*
D03*
X321720Y306480D02*
D03*
X328220D02*
D03*
X334720D02*
D03*
X341220D02*
D03*
D29*
X379650Y464820D02*
D03*
X369650D02*
D03*
D30*
X369450Y543000D02*
D03*
X344050D02*
D03*
X318650D02*
D03*
D31*
X293250D02*
D03*
D32*
X371500Y346750D02*
D03*
X371000Y261500D02*
D03*
X317250Y402500D02*
D03*
X300990Y317500D02*
D03*
X270510Y287020D02*
D03*
X311150Y323850D02*
D03*
X314960Y488950D02*
D03*
X355500Y475250D02*
D03*
X335250Y417250D02*
D03*
X348250Y422000D02*
D03*
X318500Y520000D02*
D03*
X284480Y439420D02*
D03*
X334750Y249250D02*
D03*
M02*
