G04 Layer_Physical_Order=1*
G04 Layer_Color=255*
%FSLAX44Y44*%
%MOMM*%
G71*
G01*
G75*
%ADD10R,0.9000X0.6000*%
%ADD11R,0.4500X1.4500*%
%ADD12R,0.5000X0.6000*%
%ADD13R,0.6000X0.9000*%
%ADD14C,0.2540*%
%ADD15R,0.9750X0.6750*%
%ADD16R,1.5000X1.5000*%
%ADD17C,1.5000*%
%ADD18C,0.4500*%
G36*
X395250Y231750D02*
X265500D01*
X264750Y232500D01*
Y559250D01*
X395250D01*
Y231750D01*
D02*
G37*
%LPC*%
G36*
X287330Y507150D02*
X279330D01*
Y496150D01*
X281015D01*
Y485210D01*
X277710D01*
Y477210D01*
X288710D01*
Y478895D01*
X298030D01*
Y477210D01*
X309030D01*
Y477210D01*
X310300Y477637D01*
X313916Y474021D01*
Y447040D01*
X314092Y446154D01*
X314593Y445403D01*
X319087Y440910D01*
X318636Y439640D01*
X318470D01*
Y424309D01*
X317200Y423943D01*
X314734Y426409D01*
Y438150D01*
X314558Y439036D01*
X314057Y439787D01*
X310367Y443477D01*
X309616Y443978D01*
X308730Y444155D01*
X307760D01*
Y445840D01*
X305844D01*
Y462210D01*
X309030D01*
Y470210D01*
X298030D01*
Y468525D01*
X288710D01*
Y470210D01*
X277710D01*
Y462210D01*
X288710D01*
Y463895D01*
X298030D01*
Y462210D01*
X301215D01*
Y445840D01*
X296760D01*
Y437840D01*
X307760D01*
Y437840D01*
X309030Y438267D01*
X310105Y437191D01*
Y425450D01*
X310282Y424564D01*
X310783Y423813D01*
X314863Y419733D01*
X315614Y419232D01*
X316500Y419055D01*
X326120D01*
X327006Y419232D01*
X327757Y419733D01*
X329857Y421833D01*
X330358Y422584D01*
X330382Y422702D01*
X331470Y423140D01*
X332038D01*
X332935Y422242D01*
Y419612D01*
X332907Y419593D01*
X332189Y418518D01*
X331936Y417250D01*
X332189Y415982D01*
X332621Y415335D01*
X332056Y414064D01*
X307115D01*
Y422840D01*
X307760D01*
Y430840D01*
X296760D01*
Y422840D01*
X297405D01*
Y409780D01*
X297582Y408894D01*
X298083Y408143D01*
X300843Y405383D01*
X301594Y404882D01*
X302480Y404706D01*
X313404D01*
X314122Y403436D01*
X313936Y402500D01*
X314189Y401232D01*
X314907Y400157D01*
X315584Y399705D01*
X315199Y398434D01*
X310300D01*
Y400120D01*
X299300D01*
Y392120D01*
X299300Y392120D01*
X299300D01*
X299300Y392120D01*
X299096Y390934D01*
X290184D01*
X289980Y392120D01*
X289980Y392205D01*
Y400120D01*
X286794D01*
Y437058D01*
X286823Y437077D01*
X287541Y438152D01*
X287794Y439420D01*
X287541Y440688D01*
X286823Y441763D01*
X285748Y442481D01*
X284480Y442734D01*
X283212Y442481D01*
X282137Y441763D01*
X281419Y440688D01*
X281166Y439420D01*
X281419Y438152D01*
X282137Y437077D01*
X282166Y437058D01*
Y400120D01*
X278980D01*
Y392120D01*
X287740D01*
X287865Y390850D01*
X287404Y390758D01*
X286653Y390257D01*
X282843Y386447D01*
X282342Y385696D01*
X282227Y385120D01*
X278980D01*
Y377120D01*
X289980D01*
Y385120D01*
X289980Y385120D01*
X289980D01*
X289980Y385120D01*
X290184Y386306D01*
X299096D01*
X299300Y385120D01*
X299300Y385120D01*
X299300Y385120D01*
Y377120D01*
X302486D01*
Y375609D01*
X301301Y374425D01*
X279400D01*
X278514Y374248D01*
X277763Y373747D01*
X275223Y371207D01*
X274722Y370456D01*
X274545Y369570D01*
Y355600D01*
X274722Y354714D01*
X275223Y353963D01*
X277763Y351423D01*
X278514Y350922D01*
X278980Y350829D01*
Y344363D01*
X268873Y334257D01*
X268372Y333506D01*
X268195Y332620D01*
Y289382D01*
X268167Y289363D01*
X267449Y288288D01*
X267196Y287020D01*
X267449Y285752D01*
X268167Y284677D01*
X269242Y283959D01*
X270510Y283706D01*
X271778Y283959D01*
X272853Y284677D01*
X273276Y285309D01*
X274545Y284924D01*
Y273050D01*
X274722Y272164D01*
X275223Y271413D01*
X278980Y267657D01*
Y264090D01*
X289980D01*
Y265776D01*
X299300D01*
Y264090D01*
X310300D01*
Y265776D01*
X315151D01*
X318470Y262457D01*
Y254230D01*
X323700D01*
X324970Y254230D01*
Y254230D01*
X324970D01*
X324970Y254230D01*
X331470D01*
X332435Y253495D01*
Y251612D01*
X332407Y251593D01*
X331689Y250518D01*
X331436Y249250D01*
X331689Y247982D01*
X332407Y246907D01*
X333482Y246189D01*
X334750Y245936D01*
X336018Y246189D01*
X337093Y246907D01*
X337811Y247982D01*
X338064Y249250D01*
X337811Y250518D01*
X337209Y251420D01*
X337450Y252283D01*
X337660Y252690D01*
X339950D01*
Y262480D01*
X342490D01*
Y252690D01*
X346010D01*
Y259426D01*
X351100D01*
Y256200D01*
X356870D01*
Y261740D01*
X359410D01*
Y256200D01*
X365180D01*
Y259186D01*
X366786D01*
X367547Y258047D01*
X369131Y256988D01*
X369730Y256869D01*
Y261500D01*
Y266131D01*
X369131Y266012D01*
X367547Y264953D01*
X366786Y263815D01*
X365180D01*
Y267063D01*
X365376Y267102D01*
X366127Y267603D01*
X368667Y270143D01*
X369168Y270894D01*
X369344Y271780D01*
Y293370D01*
X369168Y294256D01*
X368667Y295007D01*
X367277Y296397D01*
X366526Y296898D01*
X365640Y297075D01*
X363640D01*
Y298760D01*
X352835D01*
X352640Y298760D01*
X351564Y299230D01*
Y304999D01*
X351677Y305090D01*
X352640Y305760D01*
Y305760D01*
X352640Y305760D01*
X363640D01*
Y313760D01*
X352640D01*
Y312015D01*
X352054Y311898D01*
X351303Y311397D01*
X347613Y307707D01*
X347112Y306956D01*
X346936Y306070D01*
Y298139D01*
X344481Y295685D01*
X338779D01*
X337503Y296960D01*
X337930Y298121D01*
X338029Y298230D01*
X344470D01*
Y314730D01*
X342593D01*
X320447Y336877D01*
X320933Y338050D01*
X323700D01*
X324970Y338050D01*
Y338050D01*
X324970D01*
X324970Y338050D01*
X330200D01*
X331470Y338050D01*
Y338050D01*
X331470D01*
X331470Y338050D01*
X336430D01*
Y336510D01*
X339950D01*
Y346300D01*
Y356090D01*
X337034D01*
Y361613D01*
X338208Y362099D01*
X340113Y360193D01*
X340864Y359692D01*
X341750Y359515D01*
X352640D01*
Y357830D01*
X363640D01*
Y365830D01*
X352640D01*
Y364145D01*
X342709D01*
X330534Y376319D01*
Y381243D01*
X331470Y382050D01*
X337842Y382050D01*
X338414Y381932D01*
X339114Y381746D01*
X339583Y381043D01*
X341143Y379483D01*
X341894Y378982D01*
X342780Y378806D01*
X352640D01*
Y377120D01*
X363640D01*
Y378806D01*
X372960D01*
Y377120D01*
X383960D01*
Y385120D01*
X372960D01*
Y383434D01*
X363640D01*
Y385120D01*
X352640D01*
Y383434D01*
X344470D01*
Y398550D01*
X337970Y398550D01*
X336243Y398550D01*
X326628Y408166D01*
X327154Y409436D01*
X367500D01*
X368386Y409612D01*
X369137Y410113D01*
X372477Y413453D01*
X372978Y414204D01*
X373154Y415090D01*
Y427920D01*
X376146D01*
Y400120D01*
X372960D01*
Y398434D01*
X363640D01*
Y400120D01*
X352640D01*
Y392120D01*
X363640D01*
Y393806D01*
X372960D01*
Y392120D01*
X383960D01*
Y400120D01*
X380774D01*
Y427920D01*
X383960D01*
Y429665D01*
X384546Y429782D01*
X385297Y430283D01*
X387717Y432703D01*
X388218Y433454D01*
X388395Y434340D01*
Y473920D01*
X388218Y474806D01*
X387717Y475557D01*
X371417Y491857D01*
X370666Y492358D01*
X369780Y492534D01*
X331470D01*
X330584Y492358D01*
X329833Y491857D01*
X326583Y488606D01*
X326082Y487856D01*
X325905Y486970D01*
Y484447D01*
X324970Y483640D01*
X324034Y484447D01*
Y487270D01*
X323858Y488156D01*
X323357Y488907D01*
X321677Y490587D01*
X320926Y491088D01*
X320040Y491264D01*
X317322D01*
X317303Y491293D01*
X316228Y492011D01*
X314960Y492264D01*
X313692Y492011D01*
X312617Y491293D01*
X311899Y490218D01*
X311646Y488950D01*
X311899Y487682D01*
X312617Y486607D01*
X313692Y485889D01*
X314960Y485636D01*
X316228Y485889D01*
X317303Y486607D01*
X317322Y486636D01*
X319081D01*
X319405Y486311D01*
Y483640D01*
X318470D01*
Y477809D01*
X317200Y477283D01*
X311637Y482847D01*
X310886Y483348D01*
X310000Y483525D01*
X309030D01*
Y485210D01*
X298030D01*
Y483525D01*
X288710D01*
Y485210D01*
X285644D01*
Y496150D01*
X287330D01*
Y507150D01*
D02*
G37*
G36*
X372270Y266131D02*
Y262770D01*
X375631D01*
X375512Y263369D01*
X374453Y264953D01*
X372869Y266012D01*
X372270Y266131D01*
D02*
G37*
G36*
X372770Y351381D02*
Y348020D01*
X376131D01*
X376012Y348619D01*
X374953Y350203D01*
X373369Y351262D01*
X372770Y351381D01*
D02*
G37*
G36*
X346010Y356090D02*
X342490D01*
Y346300D01*
Y336510D01*
X346010D01*
Y343985D01*
X351100D01*
Y341290D01*
X356870D01*
Y346830D01*
Y352370D01*
X351100D01*
Y348615D01*
X346010D01*
Y356090D01*
D02*
G37*
G36*
X365180Y352370D02*
X359410D01*
Y346830D01*
Y341290D01*
X365180D01*
Y344436D01*
X367286D01*
X368047Y343297D01*
X369631Y342238D01*
X370230Y342119D01*
Y346750D01*
Y351381D01*
X369631Y351262D01*
X368047Y350203D01*
X367286Y349064D01*
X365180D01*
Y352370D01*
D02*
G37*
G36*
X376131Y345480D02*
X372770D01*
Y342119D01*
X373369Y342238D01*
X374953Y343297D01*
X376012Y344881D01*
X376131Y345480D01*
D02*
G37*
G36*
X375631Y260230D02*
X372270D01*
Y256869D01*
X372869Y256988D01*
X374453Y258047D01*
X375512Y259631D01*
X375631Y260230D01*
D02*
G37*
G36*
X301750Y551500D02*
X284750D01*
Y534500D01*
X301750D01*
Y551500D01*
D02*
G37*
G36*
X318650Y551573D02*
X316431Y551281D01*
X314363Y550425D01*
X312588Y549062D01*
X311225Y547287D01*
X310369Y545219D01*
X310077Y543000D01*
X310369Y540781D01*
X311225Y538713D01*
X312588Y536938D01*
X314363Y535575D01*
X316336Y534758D01*
Y522463D01*
X316157Y522343D01*
X315439Y521268D01*
X315186Y520000D01*
X315439Y518732D01*
X316157Y517657D01*
X317232Y516939D01*
X318500Y516686D01*
X319768Y516939D01*
X320843Y517657D01*
X321561Y518732D01*
X321814Y520000D01*
X321561Y521268D01*
X320965Y522161D01*
Y534758D01*
X322937Y535575D01*
X324712Y536938D01*
X326075Y538713D01*
X326931Y540781D01*
X327223Y543000D01*
X326931Y545219D01*
X326075Y547287D01*
X324712Y549062D01*
X322937Y550425D01*
X320869Y551281D01*
X318650Y551573D01*
D02*
G37*
G36*
X370720Y552959D02*
Y544270D01*
X379409D01*
X379232Y545621D01*
X378220Y548063D01*
X376611Y550161D01*
X374513Y551770D01*
X372071Y552782D01*
X370720Y552959D01*
D02*
G37*
G36*
X368180D02*
X366829Y552782D01*
X364387Y551770D01*
X362289Y550161D01*
X360680Y548063D01*
X359668Y545621D01*
X359491Y544270D01*
X368180D01*
Y552959D01*
D02*
G37*
G36*
X379409Y541730D02*
X359491D01*
X359668Y540379D01*
X360680Y537937D01*
X362289Y535839D01*
X364387Y534230D01*
X366829Y533218D01*
X367136Y533178D01*
Y507569D01*
X363531Y503965D01*
X335620D01*
Y508690D01*
X331350D01*
Y501650D01*
Y494610D01*
X335620D01*
Y499336D01*
X364490D01*
X365376Y499512D01*
X366127Y500013D01*
X371087Y504973D01*
X371588Y505724D01*
X371764Y506610D01*
Y533178D01*
X372071Y533218D01*
X374513Y534230D01*
X376611Y535839D01*
X378220Y537937D01*
X379232Y540379D01*
X379409Y541730D01*
D02*
G37*
G36*
X344050Y551573D02*
X341831Y551281D01*
X339763Y550425D01*
X337988Y549062D01*
X336625Y547287D01*
X335769Y545219D01*
X335477Y543000D01*
X335769Y540781D01*
X336625Y538713D01*
X337988Y536938D01*
X339763Y535575D01*
X341735Y534758D01*
Y518759D01*
X340541Y517565D01*
X326500D01*
X325614Y517388D01*
X324863Y516887D01*
X322213Y514237D01*
X321712Y513486D01*
X321535Y512600D01*
Y505149D01*
X320351Y503965D01*
X319080D01*
Y507150D01*
X311080D01*
Y503965D01*
X302330D01*
Y507150D01*
X294330D01*
Y496150D01*
X302330D01*
Y499336D01*
X311080D01*
Y496150D01*
X319080D01*
Y499336D01*
X321310D01*
X322196Y499512D01*
X322947Y500013D01*
X323367Y500434D01*
X324540Y499948D01*
Y494610D01*
X328810D01*
Y501650D01*
Y508690D01*
X326165D01*
Y511641D01*
X327459Y512935D01*
X341500D01*
X342386Y513112D01*
X343137Y513613D01*
X345687Y516163D01*
X346188Y516914D01*
X346365Y517800D01*
Y534758D01*
X348337Y535575D01*
X350112Y536938D01*
X351475Y538713D01*
X352331Y540781D01*
X352623Y543000D01*
X352331Y545219D01*
X351475Y547287D01*
X350112Y549062D01*
X348337Y550425D01*
X346269Y551281D01*
X344050Y551573D01*
D02*
G37*
%LPD*%
G36*
X299300Y342830D02*
X302486D01*
Y339090D01*
X302662Y338204D01*
X303163Y337453D01*
X305703Y334913D01*
X306454Y334412D01*
X307340Y334235D01*
X316541D01*
X334874Y315903D01*
X334388Y314730D01*
X331470D01*
Y314730D01*
X331470D01*
X331470Y314730D01*
X324970Y314730D01*
X324034Y315537D01*
Y320900D01*
X323858Y321786D01*
X323357Y322537D01*
X320407Y325487D01*
X319656Y325988D01*
X318770Y326165D01*
X313512D01*
X313493Y326193D01*
X312418Y326911D01*
X311150Y327164D01*
X309882Y326911D01*
X308807Y326193D01*
X308089Y325118D01*
X307836Y323850D01*
X308089Y322582D01*
X308807Y321507D01*
X309882Y320789D01*
X311150Y320536D01*
X312418Y320789D01*
X313493Y321507D01*
X313512Y321535D01*
X317811D01*
X319405Y319941D01*
Y314730D01*
X318470D01*
Y298230D01*
X319405D01*
Y294640D01*
X319582Y293754D01*
X320083Y293003D01*
X326509Y286578D01*
X326023Y285404D01*
X310300D01*
Y287090D01*
X299300D01*
Y285404D01*
X289980D01*
Y287090D01*
X279174D01*
Y296221D01*
X281333Y298380D01*
X289980D01*
Y306380D01*
X278980D01*
Y302573D01*
X275223Y298817D01*
X274722Y298066D01*
X274545Y297180D01*
Y290050D01*
X273276Y289479D01*
X272824Y289879D01*
Y331661D01*
X283993Y342830D01*
X289980D01*
Y350746D01*
X299300D01*
Y342830D01*
D02*
G37*
G36*
X331470Y298230D02*
X332406Y297423D01*
Y296470D01*
X332582Y295584D01*
X333083Y294833D01*
X336183Y291733D01*
X336934Y291232D01*
X337820Y291056D01*
X345440D01*
X346326Y291232D01*
X347077Y291733D01*
X350887Y295543D01*
X351388Y296294D01*
X352640Y296077D01*
Y290760D01*
X363640D01*
X363640Y290760D01*
Y290760D01*
X363640Y290760D01*
X364715Y290291D01*
Y281210D01*
X363640Y280740D01*
X363640Y280740D01*
Y280740D01*
X363640Y280740D01*
X352640D01*
Y279055D01*
X349059D01*
X339457Y288657D01*
X338706Y289158D01*
X337820Y289335D01*
X330299D01*
X324034Y295599D01*
Y297423D01*
X324970Y298230D01*
X326240Y298230D01*
X331470Y298230D01*
D02*
G37*
G36*
X299300Y279090D02*
X302547D01*
X302662Y278514D01*
X303163Y277763D01*
X306973Y273953D01*
X307724Y273452D01*
X308185Y273360D01*
X308060Y272090D01*
X299300D01*
Y270404D01*
X289980D01*
Y272090D01*
X281093D01*
X279174Y274009D01*
Y279090D01*
X289980D01*
Y280776D01*
X299300D01*
Y279090D01*
D02*
G37*
G36*
X332406Y362321D02*
Y355357D01*
X331470Y354550D01*
X330534Y355357D01*
Y356280D01*
X330358Y357166D01*
X329856Y357917D01*
X317837Y369937D01*
X317086Y370438D01*
X316200Y370615D01*
X305697D01*
X305211Y371788D01*
X306437Y373013D01*
X306938Y373764D01*
X307115Y374650D01*
Y377120D01*
X310300D01*
Y382767D01*
X311473Y383254D01*
X332406Y362321D01*
D02*
G37*
G36*
X377416Y474021D02*
Y468820D01*
X376150D01*
Y460820D01*
X377416D01*
Y450920D01*
X373154D01*
Y463630D01*
X373150Y463653D01*
Y468820D01*
X366150D01*
Y460820D01*
X368526D01*
Y416049D01*
X366541Y414064D01*
X338444D01*
X337879Y415335D01*
X338311Y415982D01*
X338564Y417250D01*
X338311Y418518D01*
X337593Y419593D01*
X337565Y419612D01*
Y421600D01*
X340377D01*
X341613Y420363D01*
X342364Y419862D01*
X343250Y419686D01*
X344036D01*
X344797Y418547D01*
X346381Y417488D01*
X346980Y417369D01*
Y422000D01*
X348250D01*
Y423270D01*
X352881D01*
X352762Y423869D01*
X351933Y425110D01*
X352372Y426236D01*
X352495Y426380D01*
X356870D01*
Y431920D01*
Y437460D01*
X351100D01*
Y434235D01*
X346010D01*
Y441180D01*
X342490D01*
Y431390D01*
X339950D01*
Y441180D01*
X336430D01*
Y440538D01*
X335532Y439640D01*
X331470Y439640D01*
X330200Y439640D01*
X324970D01*
X324034Y440447D01*
Y441550D01*
X323858Y442436D01*
X323357Y443187D01*
X318545Y447999D01*
Y467140D01*
X320266D01*
Y450850D01*
X320442Y449964D01*
X320943Y449213D01*
X324873Y445283D01*
X325624Y444782D01*
X326510Y444605D01*
X352640D01*
Y442920D01*
X363640D01*
Y450920D01*
X352640D01*
Y449235D01*
X327469D01*
X324894Y451809D01*
Y465901D01*
X324970Y467140D01*
X326240Y467140D01*
X330200D01*
X331470Y467140D01*
Y467140D01*
X331470D01*
X331470Y467140D01*
X336700D01*
X337970Y467140D01*
Y467140D01*
X337970D01*
X337970Y467140D01*
X344470D01*
Y473075D01*
X353044D01*
X353157Y472907D01*
X354232Y472189D01*
X355500Y471936D01*
X356768Y472189D01*
X357843Y472907D01*
X358561Y473982D01*
X358814Y475250D01*
X358561Y476518D01*
X357843Y477593D01*
X356768Y478311D01*
X355500Y478564D01*
X354232Y478311D01*
X353324Y477705D01*
X345368D01*
X344470Y478602D01*
Y483640D01*
X345551Y484095D01*
X367341D01*
X377416Y474021D01*
D02*
G37*
G36*
X299300Y365830D02*
Y357830D01*
X310300D01*
Y359515D01*
X316661D01*
X319405Y356771D01*
Y354550D01*
X318470D01*
Y339966D01*
X317500Y338865D01*
X308299D01*
X307115Y340049D01*
Y342830D01*
X310300D01*
Y350830D01*
X307053D01*
X306938Y351406D01*
X306437Y352157D01*
X303897Y354697D01*
X303146Y355198D01*
X302260Y355374D01*
X280359D01*
X279174Y356559D01*
Y357830D01*
X289980D01*
Y364057D01*
X291909Y365985D01*
X298094D01*
X299300Y365830D01*
D02*
G37*
%LPC*%
G36*
X365180Y437460D02*
X359410D01*
Y433190D01*
X365180D01*
Y437460D01*
D02*
G37*
G36*
Y430650D02*
X359410D01*
Y426380D01*
X365180D01*
Y430650D01*
D02*
G37*
G36*
X289980Y321380D02*
X278980D01*
Y313380D01*
X289980D01*
Y315186D01*
X298628D01*
X298647Y315157D01*
X299722Y314439D01*
X300990Y314186D01*
X302258Y314439D01*
X303333Y315157D01*
X304051Y316232D01*
X304304Y317500D01*
X304051Y318768D01*
X303333Y319843D01*
X302258Y320561D01*
X300990Y320814D01*
X299722Y320561D01*
X298647Y319843D01*
X298628Y319814D01*
X289980D01*
Y321380D01*
D02*
G37*
G36*
X352881Y420730D02*
X349520D01*
Y417369D01*
X350119Y417488D01*
X351703Y418547D01*
X352762Y420131D01*
X352881Y420730D01*
D02*
G37*
%LPD*%
D10*
X284480Y268090D02*
D03*
Y283090D02*
D03*
X358140Y294760D02*
D03*
Y309760D02*
D03*
X304800Y268090D02*
D03*
Y283090D02*
D03*
X358140Y261740D02*
D03*
Y276740D02*
D03*
X378460Y431920D02*
D03*
Y446920D02*
D03*
X284480Y317380D02*
D03*
Y302380D02*
D03*
X358140Y396120D02*
D03*
Y381120D02*
D03*
X378460Y396120D02*
D03*
Y381120D02*
D03*
X284480Y396120D02*
D03*
Y381120D02*
D03*
X302260Y426840D02*
D03*
Y441840D02*
D03*
X284480Y346830D02*
D03*
Y361830D02*
D03*
X304800Y361830D02*
D03*
Y346830D02*
D03*
Y381120D02*
D03*
Y396120D02*
D03*
X358140Y431920D02*
D03*
Y446920D02*
D03*
Y346830D02*
D03*
Y361830D02*
D03*
X303530Y466210D02*
D03*
Y481210D02*
D03*
X283210Y466210D02*
D03*
Y481210D02*
D03*
D11*
X341220Y306480D02*
D03*
X334720D02*
D03*
X328220D02*
D03*
X321720D02*
D03*
X341220Y262480D02*
D03*
X334720D02*
D03*
X328220D02*
D03*
X321720D02*
D03*
X341220Y475390D02*
D03*
X334720D02*
D03*
X328220D02*
D03*
X321720D02*
D03*
X341220Y431390D02*
D03*
X334720D02*
D03*
X328220D02*
D03*
X321720D02*
D03*
X341220Y390300D02*
D03*
X334720D02*
D03*
X328220D02*
D03*
X321720D02*
D03*
X341220Y346300D02*
D03*
X334720D02*
D03*
X328220D02*
D03*
X321720D02*
D03*
D12*
X369650Y464820D02*
D03*
X379650D02*
D03*
D13*
X315080Y501650D02*
D03*
X330080D02*
D03*
X283330D02*
D03*
X298330D02*
D03*
D14*
X334750Y249250D02*
Y262450D01*
X334720Y262480D02*
X334750Y262450D01*
X334720Y346300D02*
Y363280D01*
X309380Y388620D02*
X334720Y363280D01*
X288290Y388620D02*
X309380D01*
X328220Y375360D02*
Y390300D01*
Y375360D02*
X341750Y361830D01*
X328220Y346300D02*
Y356280D01*
X316200Y368300D02*
X328220Y356280D01*
X290950Y368300D02*
X316200D01*
X321720Y346300D02*
Y357730D01*
X317620Y361830D02*
X321720Y357730D01*
X304800Y361830D02*
X317620D01*
X386080Y434340D02*
Y473920D01*
X369780Y490220D02*
X386080Y473920D01*
X331470Y490220D02*
X369780D01*
X284480Y396120D02*
Y439420D01*
X299720Y409780D02*
X302480Y407020D01*
X299720Y409780D02*
Y424300D01*
X308730Y441840D02*
X312420Y438150D01*
Y425450D02*
Y438150D01*
Y425450D02*
X316500Y421370D01*
X326120D01*
X326510Y446920D02*
X358140D01*
X322580Y450850D02*
X326510Y446920D01*
X322580Y450850D02*
Y474530D01*
X304800Y412450D02*
Y424300D01*
Y412450D02*
X305500Y411750D01*
X302260Y441840D02*
X308730D01*
X316230Y447040D02*
Y474980D01*
Y447040D02*
X321720Y441550D01*
X303530Y443110D02*
Y466210D01*
X302260Y426840D02*
X304800Y424300D01*
X369650Y464820D02*
X370840Y463630D01*
Y415090D02*
Y463630D01*
X318500Y520000D02*
X318650Y520150D01*
Y543000D01*
X344050Y517800D02*
Y543000D01*
X341500Y515250D02*
X344050Y517800D01*
X326500Y515250D02*
X341500D01*
X323850Y512600D02*
X326500Y515250D01*
X323850Y504190D02*
Y512600D01*
X364490Y501650D02*
X369450Y506610D01*
Y543000D01*
X343250Y422000D02*
X348250D01*
X341220Y424030D02*
Y431390D01*
Y424030D02*
X343250Y422000D01*
X341220Y475390D02*
X355600D01*
X305500Y411750D02*
X367500D01*
X370840Y415090D01*
X334720Y431390D02*
X335250Y430860D01*
Y417250D02*
Y430860D01*
X324500Y407020D02*
X334720Y396800D01*
X302480Y407020D02*
X324500D01*
X323380Y402500D02*
X328220Y397660D01*
X321720Y475390D02*
Y487270D01*
X320040Y488950D02*
X321720Y487270D01*
X314960Y488950D02*
X320040D01*
X321720Y306480D02*
Y320900D01*
X318770Y323850D02*
X321720Y320900D01*
X311150Y323850D02*
X318770D01*
X270510Y287020D02*
Y332620D01*
X284480Y346590D01*
X276860Y297180D02*
X282060Y302380D01*
X276860Y273050D02*
Y297180D01*
Y273050D02*
X281820Y268090D01*
X279400Y353060D02*
X302260D01*
X276860Y355600D02*
X279400Y353060D01*
X276860Y355600D02*
Y369570D01*
X284360Y346710D02*
X284480Y346590D01*
X302260Y353060D02*
X304800Y350520D01*
X284360Y346710D02*
X284480Y346830D01*
X284360Y317500D02*
X300990D01*
X284360D02*
X284480Y317380D01*
X307340Y336550D02*
X317500D01*
X304800Y339090D02*
X307340Y336550D01*
X304800Y339090D02*
Y346830D01*
X284360Y396240D02*
X284480Y396120D01*
X341750Y431920D02*
X358140D01*
X341220Y346300D02*
X357610D01*
X341960Y261740D02*
X358140D01*
X284480Y268090D02*
X304800D01*
X316110D01*
X321720Y262480D01*
X284480Y283090D02*
X304800D01*
X321720Y294640D02*
Y306480D01*
X358140Y294760D02*
X365640D01*
X367030Y293370D01*
Y271780D02*
Y293370D01*
X364490Y269240D02*
X367030Y271780D01*
X349250Y269240D02*
X364490D01*
X335400Y283090D02*
X349250Y269240D01*
X321720Y294640D02*
X329340Y287020D01*
X337820D01*
X348100Y276740D01*
X358140D01*
X328220Y306480D02*
X334720D01*
Y296470D02*
Y306480D01*
X349250Y297180D02*
Y306070D01*
X352940Y309760D01*
X358140D01*
X334720Y296470D02*
X337820Y293370D01*
X345440D01*
X349250Y297180D01*
X317500Y336550D02*
X341220Y312830D01*
X328220Y262480D02*
X328930Y261770D01*
X304800Y283090D02*
X335400D01*
X328930Y261770D02*
Y271780D01*
X281820Y268090D02*
X284480D01*
X282060Y302380D02*
X284480D01*
Y361830D02*
X290950Y368300D01*
X341750Y361830D02*
X358140D01*
X284480Y381120D02*
Y384810D01*
X288290Y388620D01*
X304800Y346830D02*
Y350520D01*
X276860Y369570D02*
X279400Y372110D01*
X302260D01*
X304800Y374650D01*
Y381120D01*
X342780Y381120D02*
X358140D01*
X341220Y382680D02*
X342780Y381120D01*
X341220Y382680D02*
Y390300D01*
X358140Y381120D02*
X377190D01*
X303530Y481210D02*
X310000D01*
X316230Y474980D01*
X321720Y431390D02*
Y441550D01*
X328220Y423470D02*
Y431390D01*
X283210Y466210D02*
X303530D01*
X302260Y441840D02*
X303530Y443110D01*
X358140Y396120D02*
X377190D01*
X378460D02*
Y431920D01*
X334720Y475390D02*
Y483310D01*
X328220Y475390D02*
Y486970D01*
X383660Y431920D02*
X386080Y434340D01*
X378460Y431920D02*
X383660D01*
X334720Y483310D02*
X337820Y486410D01*
X368300D01*
X328220Y486970D02*
X331470Y490220D01*
X283330Y481330D02*
Y501650D01*
X283210Y481210D02*
X303530D01*
X298330Y501650D02*
X315080D01*
X330080D02*
X364490D01*
X377190Y446920D02*
X379730Y449460D01*
Y474980D01*
X368300Y486410D02*
X379730Y474980D01*
X326120Y421370D02*
X328220Y423470D01*
X325120Y275590D02*
X328930Y271780D01*
X308610Y275590D02*
X325120D01*
X304800Y279400D02*
X308610Y275590D01*
X304800Y279400D02*
Y283090D01*
X341220Y306480D02*
Y312830D01*
X315080Y501650D02*
X321310D01*
X323850Y504190D01*
X328220Y390300D02*
Y397660D01*
X334720Y390300D02*
Y396800D01*
X315900Y396120D02*
X321720Y390300D01*
X304800Y396120D02*
X315900D01*
X317250Y402500D02*
X323380D01*
X358140Y261740D02*
X359500Y260380D01*
X360620Y261500D01*
X371000D01*
X358220Y346750D02*
X371500D01*
X358140Y346830D02*
X358220Y346750D01*
D15*
X378625Y439375D02*
D03*
D16*
X293250Y543000D02*
D03*
D17*
X318650D02*
D03*
X344050D02*
D03*
X369450D02*
D03*
D18*
X334750Y249250D02*
D03*
X284480Y439420D02*
D03*
X318500Y520000D02*
D03*
X348250Y422000D02*
D03*
X335250Y417250D02*
D03*
X355500Y475250D02*
D03*
X314960Y488950D02*
D03*
X311150Y323850D02*
D03*
X270510Y287020D02*
D03*
X300990Y317500D02*
D03*
X317250Y402500D02*
D03*
X371000Y261500D02*
D03*
X371500Y346750D02*
D03*
M02*
