G04 Layer_Color=16711935*
%FSLAX44Y44*%
%MOMM*%
G71*
G01*
G75*
%ADD31R,1.1032X0.8032*%
%ADD32R,0.8032X1.1032*%
%ADD35C,1.7032*%
%ADD36R,1.7032X1.7032*%
%ADD37C,2.0532*%
%ADD38R,2.0532X2.0532*%
%ADD39R,1.7032X1.7032*%
%ADD40R,1.4032X1.4032*%
%ADD41C,1.4032*%
%ADD42O,2.7032X1.4032*%
%ADD43R,2.7032X1.4032*%
%ADD44R,1.3972X0.7622*%
%ADD45R,1.1400X0.6900*%
%ADD46R,1.1032X1.5032*%
D31*
X440000Y320500D02*
D03*
Y305500D02*
D03*
X439000Y286500D02*
D03*
Y271500D02*
D03*
D32*
X326500Y307000D02*
D03*
X341500D02*
D03*
D35*
X584000Y324800D02*
D03*
Y299400D02*
D03*
Y514800D02*
D03*
Y489400D02*
D03*
X286000Y483200D02*
D03*
Y508600D02*
D03*
Y570200D02*
D03*
Y595600D02*
D03*
X584000Y419800D02*
D03*
Y394400D02*
D03*
X312400Y705000D02*
D03*
X287000Y679600D02*
D03*
X312400D02*
D03*
X489400Y274000D02*
D03*
X514800D02*
D03*
X540200D02*
D03*
X464000Y299400D02*
D03*
X489400D02*
D03*
X514800D02*
D03*
X540200D02*
D03*
X458600Y364000D02*
D03*
X433200D02*
D03*
X407800D02*
D03*
X382400D02*
D03*
D36*
X584000Y274000D02*
D03*
Y464000D02*
D03*
X286000Y534000D02*
D03*
Y621000D02*
D03*
X584000Y369000D02*
D03*
X287000Y705000D02*
D03*
D37*
X275000Y337400D02*
D03*
Y377600D02*
D03*
D38*
Y286600D02*
D03*
Y428400D02*
D03*
D39*
X464000Y274000D02*
D03*
X484000Y364000D02*
D03*
D40*
X306500Y286000D02*
D03*
D41*
X341500D02*
D03*
D42*
X510000Y398900D02*
D03*
Y424300D02*
D03*
Y449700D02*
D03*
Y475100D02*
D03*
Y500500D02*
D03*
Y525900D02*
D03*
Y551300D02*
D03*
Y576700D02*
D03*
Y602100D02*
D03*
Y627500D02*
D03*
Y652900D02*
D03*
Y678300D02*
D03*
Y703700D02*
D03*
Y729100D02*
D03*
X358000Y398900D02*
D03*
Y424300D02*
D03*
Y449700D02*
D03*
Y475100D02*
D03*
Y500500D02*
D03*
Y525900D02*
D03*
Y551300D02*
D03*
Y576700D02*
D03*
Y602100D02*
D03*
Y627500D02*
D03*
Y652900D02*
D03*
Y678300D02*
D03*
Y703700D02*
D03*
D43*
Y729100D02*
D03*
D44*
X419270Y313050D02*
D03*
Y300350D02*
D03*
Y287650D02*
D03*
Y274950D02*
D03*
X368730Y313050D02*
D03*
Y300350D02*
D03*
Y287650D02*
D03*
Y274950D02*
D03*
D45*
X327150Y326500D02*
D03*
Y345500D02*
D03*
X350850Y336000D02*
D03*
D46*
X324500Y364000D02*
D03*
X343500D02*
D03*
M02*
