G04 Layer_Color=16711935*
%FSLAX44Y44*%
%MOMM*%
G71*
G01*
G75*
%ADD32R,0.8032X1.1032*%
%ADD33R,1.1032X0.8032*%
%ADD34C,2.0532*%
%ADD35R,1.4032X1.4032*%
%ADD36C,1.5032*%
%ADD37C,1.6032*%
%ADD38R,1.6032X1.6032*%
%ADD39C,1.7032*%
%ADD40R,1.7032X1.7032*%
%ADD41R,1.7032X1.7032*%
%ADD42C,0.6532*%
%ADD43R,1.3972X0.7622*%
%ADD44R,1.1400X0.6900*%
%ADD45R,1.1032X1.5032*%
D32*
X326500Y307000D02*
D03*
X341500D02*
D03*
D33*
X440000Y320500D02*
D03*
Y305500D02*
D03*
X439000Y286500D02*
D03*
Y271500D02*
D03*
D34*
X285300Y449000D02*
D03*
X310700D02*
D03*
X286300Y413000D02*
D03*
X311700D02*
D03*
D35*
X306500Y286000D02*
D03*
D36*
X341500D02*
D03*
D37*
X510000Y398900D02*
D03*
Y424300D02*
D03*
Y449700D02*
D03*
Y475100D02*
D03*
Y500500D02*
D03*
Y525900D02*
D03*
Y551300D02*
D03*
Y576700D02*
D03*
Y602100D02*
D03*
Y627500D02*
D03*
Y652900D02*
D03*
Y678300D02*
D03*
Y703700D02*
D03*
Y729100D02*
D03*
X358000Y398900D02*
D03*
Y424300D02*
D03*
Y449700D02*
D03*
Y475100D02*
D03*
Y500500D02*
D03*
Y525900D02*
D03*
Y551300D02*
D03*
Y576700D02*
D03*
Y602100D02*
D03*
Y627500D02*
D03*
Y652900D02*
D03*
Y678300D02*
D03*
Y703700D02*
D03*
D38*
Y729100D02*
D03*
D39*
X583000Y465800D02*
D03*
Y440400D02*
D03*
Y630800D02*
D03*
Y605400D02*
D03*
X298000Y486200D02*
D03*
Y511600D02*
D03*
Y574200D02*
D03*
Y599600D02*
D03*
X583000Y547800D02*
D03*
Y522400D02*
D03*
X489400Y274000D02*
D03*
X514800D02*
D03*
X540200D02*
D03*
X464000Y299400D02*
D03*
X489400D02*
D03*
X514800D02*
D03*
X540200D02*
D03*
X459600Y348000D02*
D03*
X434200D02*
D03*
X408800D02*
D03*
X383400D02*
D03*
D40*
X583000Y415000D02*
D03*
Y580000D02*
D03*
X298000Y537000D02*
D03*
Y625000D02*
D03*
X583000Y497000D02*
D03*
D41*
X464000Y274000D02*
D03*
X485000Y348000D02*
D03*
D42*
X399000Y322000D02*
D03*
D43*
X419270Y313050D02*
D03*
Y300350D02*
D03*
Y287650D02*
D03*
Y274950D02*
D03*
X368730Y313050D02*
D03*
Y300350D02*
D03*
Y287650D02*
D03*
Y274950D02*
D03*
D44*
X327150Y326500D02*
D03*
Y345500D02*
D03*
X350850Y336000D02*
D03*
D45*
X324500Y364000D02*
D03*
X343500D02*
D03*
M02*
