G04 Layer_Color=8388736*
%FSLAX44Y44*%
%MOMM*%
G71*
G01*
G75*
%ADD29R,1.1032X1.8032*%
%ADD30R,1.8032X1.1032*%
%ADD31R,2.0032X0.8532*%
%ADD32R,0.8032X1.1032*%
%ADD33R,1.1032X0.8032*%
%ADD34C,2.0532*%
%ADD35R,1.4032X1.4032*%
%ADD36C,1.5032*%
%ADD37C,1.6032*%
%ADD38R,1.6032X1.6032*%
%ADD39C,1.7032*%
%ADD40R,1.7032X1.7032*%
%ADD41R,1.7032X1.7032*%
%ADD42C,0.6532*%
D29*
X306500Y378000D02*
D03*
X277500D02*
D03*
D30*
X422000Y302500D02*
D03*
Y273500D02*
D03*
D31*
X309000Y338000D02*
D03*
X337000D02*
D03*
D32*
X370500Y302000D02*
D03*
X385500D02*
D03*
X371000Y275000D02*
D03*
X386000D02*
D03*
X370500Y322000D02*
D03*
X385500D02*
D03*
D33*
X277000Y338500D02*
D03*
Y353500D02*
D03*
D34*
X285300Y449000D02*
D03*
X310700D02*
D03*
X286300Y413000D02*
D03*
X311700D02*
D03*
D35*
X306500Y286000D02*
D03*
D36*
X341500D02*
D03*
D37*
X510000Y398900D02*
D03*
Y424300D02*
D03*
Y449700D02*
D03*
Y475100D02*
D03*
Y500500D02*
D03*
Y525900D02*
D03*
Y551300D02*
D03*
Y576700D02*
D03*
Y602100D02*
D03*
Y627500D02*
D03*
Y652900D02*
D03*
Y678300D02*
D03*
Y703700D02*
D03*
Y729100D02*
D03*
X358000Y398900D02*
D03*
Y424300D02*
D03*
Y449700D02*
D03*
Y475100D02*
D03*
Y500500D02*
D03*
Y525900D02*
D03*
Y551300D02*
D03*
Y576700D02*
D03*
Y602100D02*
D03*
Y627500D02*
D03*
Y652900D02*
D03*
Y678300D02*
D03*
Y703700D02*
D03*
D38*
Y729100D02*
D03*
D39*
X583000Y465800D02*
D03*
Y440400D02*
D03*
Y630800D02*
D03*
Y605400D02*
D03*
X298000Y486200D02*
D03*
Y511600D02*
D03*
Y680700D02*
D03*
Y706100D02*
D03*
X583000Y547800D02*
D03*
Y522400D02*
D03*
X489400Y274000D02*
D03*
X514800D02*
D03*
X540200D02*
D03*
X464000Y299400D02*
D03*
X489400D02*
D03*
X514800D02*
D03*
X540200D02*
D03*
X459600Y348000D02*
D03*
X434200D02*
D03*
X408800D02*
D03*
X383400D02*
D03*
X298000Y623100D02*
D03*
Y597700D02*
D03*
Y572300D02*
D03*
D40*
X583000Y415000D02*
D03*
Y580000D02*
D03*
X298000Y537000D02*
D03*
Y731500D02*
D03*
X583000Y497000D02*
D03*
X298000Y648500D02*
D03*
D41*
X464000Y274000D02*
D03*
X485000Y348000D02*
D03*
D42*
X399000Y322000D02*
D03*
M02*
