G04 Layer_Physical_Order=2*
G04 Layer_Color=16711680*
%FSLAX44Y44*%
%MOMM*%
G71*
G01*
G75*
%ADD11R,0.9000X0.6000*%
%ADD12R,0.6000X0.9000*%
%ADD15C,0.2000*%
%ADD16C,1.5000*%
%ADD17R,1.5000X1.5000*%
%ADD18C,1.8500*%
%ADD19R,1.8500X1.8500*%
%ADD20R,1.5000X1.5000*%
%ADD21R,1.2000X1.2000*%
%ADD22C,1.2000*%
%ADD23O,2.5000X1.2000*%
%ADD24R,2.5000X1.2000*%
%ADD25R,1.1940X0.5590*%
%ADD26R,1.0000X0.5500*%
%ADD27R,0.9000X1.3000*%
G36*
X257848Y375048D02*
X259019Y374265D01*
X260400Y373991D01*
X263734D01*
X264701Y371654D01*
X266591Y369191D01*
X269054Y367301D01*
X271391Y366334D01*
Y348666D01*
X269054Y347699D01*
X266591Y345809D01*
X264701Y343346D01*
X263514Y340478D01*
X263108Y337400D01*
X263514Y334322D01*
X264701Y331454D01*
X266591Y328991D01*
X269054Y327102D01*
X271922Y325914D01*
X275000Y325508D01*
X278078Y325914D01*
X280946Y327102D01*
X283409Y328991D01*
X285299Y331454D01*
X286486Y334322D01*
X286892Y337400D01*
X286486Y340478D01*
X285299Y343346D01*
X283409Y345809D01*
X280946Y347699D01*
X278609Y348666D01*
Y366334D01*
X280946Y367301D01*
X283409Y369191D01*
X285299Y371654D01*
X286266Y373991D01*
X300905D01*
X302891Y372005D01*
Y294540D01*
X297960D01*
Y277460D01*
X302891D01*
Y262500D01*
X303165Y261119D01*
X303948Y259948D01*
X306448Y257448D01*
X307619Y256665D01*
X309000Y256391D01*
X443000D01*
X444381Y256665D01*
X445552Y257448D01*
X446237Y258132D01*
X447410Y257647D01*
Y255000D01*
X256000D01*
Y375236D01*
X257173Y375722D01*
X257848Y375048D01*
D02*
G37*
G36*
X565000Y255000D02*
X450000D01*
Y261896D01*
X450552Y262448D01*
X451335Y263619D01*
X451609Y265000D01*
Y285000D01*
X451335Y286381D01*
X450552Y287552D01*
X450000Y288104D01*
Y316891D01*
X485791D01*
Y308772D01*
X484337Y308170D01*
X482239Y306561D01*
X480630Y304463D01*
X479618Y302021D01*
X479273Y299400D01*
X479618Y296779D01*
X480630Y294337D01*
X482239Y292239D01*
X484337Y290630D01*
X485791Y290028D01*
Y283372D01*
X484337Y282770D01*
X482239Y281161D01*
X480630Y279063D01*
X479618Y276621D01*
X479273Y274000D01*
X479618Y271379D01*
X480630Y268937D01*
X482239Y266839D01*
X484337Y265230D01*
X486779Y264218D01*
X489400Y263873D01*
X492021Y264218D01*
X494463Y265230D01*
X496561Y266839D01*
X498170Y268937D01*
X499182Y271379D01*
X499527Y274000D01*
X499182Y276621D01*
X498170Y279063D01*
X496561Y281161D01*
X494463Y282770D01*
X493009Y283372D01*
Y290028D01*
X494463Y290630D01*
X496561Y292239D01*
X498170Y294337D01*
X499182Y296779D01*
X499527Y299400D01*
X499182Y302021D01*
X498170Y304463D01*
X496561Y306561D01*
X494463Y308170D01*
X493009Y308772D01*
Y318600D01*
X492735Y319981D01*
X491952Y321152D01*
X490052Y323052D01*
X488881Y323835D01*
X487500Y324109D01*
X450000D01*
Y332931D01*
X565000D01*
Y255000D01*
D02*
G37*
G36*
X435586Y327310D02*
X435060Y326040D01*
X432960D01*
Y314960D01*
X447040D01*
X447410Y313843D01*
Y312157D01*
X447040Y311040D01*
X446140Y311040D01*
X432960D01*
Y303959D01*
X427780D01*
Y305685D01*
X410760D01*
Y295015D01*
X427780D01*
Y296741D01*
X438350D01*
X439731Y297015D01*
X440902Y297798D01*
X442552Y299448D01*
X442894Y299960D01*
X447040Y299960D01*
X447410Y298843D01*
Y292132D01*
X446140Y291327D01*
X446040Y291375D01*
Y292040D01*
X431960D01*
Y290109D01*
X427780D01*
Y292985D01*
X410760D01*
Y282315D01*
X427780D01*
Y282891D01*
X431960D01*
Y280960D01*
X444391D01*
Y277040D01*
X440270D01*
Y271500D01*
Y265960D01*
X442196D01*
X442682Y264787D01*
X441505Y263609D01*
X310495D01*
X310109Y263995D01*
Y277460D01*
X315040D01*
Y281391D01*
X325000D01*
X326381Y281665D01*
X327552Y282448D01*
X329052Y283948D01*
X329835Y285119D01*
X330109Y286500D01*
Y299960D01*
X332040D01*
Y314040D01*
X330759D01*
Y321210D01*
X334690D01*
Y325410D01*
X335960Y325936D01*
X337448Y324448D01*
X338619Y323665D01*
X340000Y323391D01*
X375391D01*
Y318385D01*
X370000D01*
Y313050D01*
Y307715D01*
X375391D01*
Y305685D01*
X360220D01*
Y295015D01*
X377240D01*
Y296741D01*
X377350D01*
X378731Y297015D01*
X379121Y297276D01*
X380391Y296597D01*
Y291259D01*
X377240D01*
Y292985D01*
X360220D01*
Y282315D01*
X377240D01*
Y284041D01*
X382650D01*
X384031Y284315D01*
X385202Y285098D01*
X386552Y286448D01*
X387335Y287619D01*
X387609Y289000D01*
Y326505D01*
X389495Y328391D01*
X434505D01*
X435586Y327310D01*
D02*
G37*
G36*
X500547Y737121D02*
X499193Y736560D01*
X497409Y735191D01*
X496040Y733407D01*
X495180Y731329D01*
X494886Y729100D01*
X495180Y726871D01*
X496040Y724793D01*
X497409Y723009D01*
X499193Y721640D01*
X501271Y720780D01*
X503500Y720486D01*
X516500D01*
X518729Y720780D01*
X520807Y721640D01*
X522591Y723009D01*
X523960Y724793D01*
X524249Y725491D01*
X596391D01*
Y493495D01*
X595905Y493009D01*
X593372D01*
X592770Y494463D01*
X591161Y496561D01*
X589063Y498170D01*
X586621Y499182D01*
X584000Y499527D01*
X581379Y499182D01*
X578937Y498170D01*
X576839Y496561D01*
X575230Y494463D01*
X574218Y492021D01*
X573873Y489400D01*
X574218Y486779D01*
X575230Y484337D01*
X576839Y482239D01*
X578937Y480630D01*
X581379Y479618D01*
X584000Y479273D01*
X586621Y479618D01*
X589063Y480630D01*
X591161Y482239D01*
X592044Y483391D01*
X595505D01*
X596391Y482505D01*
Y398495D01*
X595905Y398009D01*
X593372D01*
X592770Y399463D01*
X591161Y401561D01*
X589063Y403170D01*
X586621Y404182D01*
X584000Y404527D01*
X581379Y404182D01*
X578937Y403170D01*
X576839Y401561D01*
X575230Y399463D01*
X574218Y397021D01*
X573873Y394400D01*
X574218Y391779D01*
X575230Y389337D01*
X576839Y387239D01*
X578937Y385630D01*
X581379Y384618D01*
X584000Y384273D01*
X586621Y384618D01*
X589063Y385630D01*
X591161Y387239D01*
X592044Y388391D01*
X595505D01*
X596391Y387505D01*
Y303495D01*
X595905Y303009D01*
X593372D01*
X592770Y304463D01*
X591161Y306561D01*
X589063Y308170D01*
X586621Y309182D01*
X584000Y309527D01*
X581379Y309182D01*
X578937Y308170D01*
X576839Y306561D01*
X575230Y304463D01*
X574218Y302021D01*
X573873Y299400D01*
X574218Y296779D01*
X575230Y294337D01*
X576839Y292239D01*
X578937Y290630D01*
X581379Y289618D01*
X584000Y289273D01*
X586621Y289618D01*
X589063Y290630D01*
X591161Y292239D01*
X592770Y294337D01*
X593372Y295791D01*
X597400D01*
X598781Y296065D01*
X599952Y296848D01*
X601730Y298626D01*
X603000Y298100D01*
Y255000D01*
X567590D01*
Y332931D01*
X567393Y333922D01*
X566831Y334762D01*
X565991Y335323D01*
X565000Y335520D01*
X450000D01*
X449009Y335323D01*
X448169Y334762D01*
X447607Y333922D01*
X447410Y332931D01*
Y327157D01*
X447040Y326040D01*
X443609D01*
Y328000D01*
X443335Y329381D01*
X442552Y330552D01*
X438552Y334552D01*
X437381Y335335D01*
X436000Y335609D01*
X388000D01*
X386619Y335335D01*
X385448Y334552D01*
X381448Y330552D01*
X381007Y329893D01*
X379685Y329583D01*
X379425Y329637D01*
X378381Y330335D01*
X377000Y330609D01*
X359618D01*
X358390Y330710D01*
X358390Y331879D01*
Y334730D01*
X343310D01*
X343310Y331955D01*
X342040Y331343D01*
X341609Y331686D01*
Y342000D01*
X341335Y343381D01*
X340552Y344552D01*
X337052Y348052D01*
X335881Y348835D01*
X334690Y349072D01*
Y350790D01*
X328314D01*
X328109Y350995D01*
Y354960D01*
X331540D01*
Y373040D01*
X317460D01*
Y354960D01*
X320891D01*
Y350790D01*
X319610D01*
Y340210D01*
X334391D01*
Y331790D01*
X319610D01*
Y321210D01*
X323541D01*
Y314040D01*
X320960D01*
Y299960D01*
X322891D01*
Y288609D01*
X315040D01*
Y294540D01*
X310109D01*
Y373500D01*
X309835Y374881D01*
X309052Y376052D01*
X305552Y379552D01*
X305193Y379793D01*
X304952Y380152D01*
X303781Y380935D01*
X302400Y381209D01*
X286266D01*
X285299Y383546D01*
X283409Y386009D01*
X280946Y387898D01*
X278078Y389086D01*
X275000Y389492D01*
X271922Y389086D01*
X269054Y387898D01*
X266591Y386009D01*
X264701Y383546D01*
X263734Y381209D01*
X261895D01*
X261609Y381495D01*
Y503391D01*
X277342D01*
X278839Y501439D01*
X280937Y499830D01*
X283379Y498818D01*
X286000Y498473D01*
X288621Y498818D01*
X291063Y499830D01*
X293161Y501439D01*
X294770Y503537D01*
X295782Y505979D01*
X296127Y508600D01*
X295782Y511221D01*
X294770Y513663D01*
X293161Y515761D01*
X291063Y517370D01*
X288621Y518382D01*
X286000Y518727D01*
X283379Y518382D01*
X280937Y517370D01*
X278839Y515761D01*
X277956Y514609D01*
X261609D01*
Y590391D01*
X277342D01*
X278839Y588439D01*
X280937Y586830D01*
X283379Y585818D01*
X286000Y585473D01*
X288621Y585818D01*
X291063Y586830D01*
X293161Y588439D01*
X294770Y590537D01*
X295782Y592979D01*
X296127Y595600D01*
X295782Y598221D01*
X294770Y600663D01*
X293161Y602761D01*
X291063Y604370D01*
X288621Y605382D01*
X286000Y605727D01*
X283379Y605382D01*
X280937Y604370D01*
X278839Y602761D01*
X277956Y601609D01*
X262495D01*
X261609Y602495D01*
Y698505D01*
X262495Y699391D01*
X276960D01*
Y694960D01*
X297040D01*
Y715040D01*
X290609D01*
Y737505D01*
X291495Y738391D01*
X342001D01*
X342960Y737640D01*
X342960Y737121D01*
Y730370D01*
X373040D01*
Y737121D01*
X373040Y737640D01*
X373999Y738391D01*
X500295D01*
X500547Y737121D01*
D02*
G37*
G36*
X603000Y730900D02*
X601730Y730374D01*
X600452Y731652D01*
X599281Y732435D01*
X597900Y732709D01*
X524249D01*
X523960Y733407D01*
X522591Y735191D01*
X520807Y736560D01*
X518729Y737420D01*
X516500Y737714D01*
X513609D01*
Y740000D01*
X513335Y741381D01*
X512552Y742552D01*
X510552Y744552D01*
X509381Y745335D01*
X508000Y745609D01*
X290000D01*
X288619Y745335D01*
X287448Y744552D01*
X284448Y741552D01*
X283665Y740381D01*
X283391Y739000D01*
Y715040D01*
X276960D01*
Y706609D01*
X261000D01*
X259619Y706335D01*
X258448Y705552D01*
X257173Y704278D01*
X256000Y704764D01*
Y752000D01*
X603000D01*
Y730900D01*
D02*
G37*
%LPC*%
G36*
X582730Y323530D02*
X574041D01*
X574218Y322179D01*
X575230Y319737D01*
X576839Y317639D01*
X578937Y316030D01*
X581379Y315018D01*
X582730Y314841D01*
Y323530D01*
D02*
G37*
G36*
X593959D02*
X585270D01*
Y314841D01*
X586621Y315018D01*
X589063Y316030D01*
X591161Y317639D01*
X592770Y319737D01*
X593782Y322179D01*
X593959Y323530D01*
D02*
G37*
G36*
X582730Y513530D02*
X574041D01*
X574218Y512179D01*
X575230Y509737D01*
X576839Y507639D01*
X578937Y506030D01*
X581379Y505018D01*
X582730Y504841D01*
Y513530D01*
D02*
G37*
G36*
X287270Y493159D02*
Y484470D01*
X295959D01*
X295782Y485821D01*
X294770Y488263D01*
X293161Y490361D01*
X291063Y491970D01*
X288621Y492982D01*
X287270Y493159D01*
D02*
G37*
G36*
X284730D02*
X283379Y492982D01*
X280937Y491970D01*
X278839Y490361D01*
X277230Y488263D01*
X276218Y485821D01*
X276041Y484470D01*
X284730D01*
Y493159D01*
D02*
G37*
G36*
X585270Y334759D02*
Y326070D01*
X593959D01*
X593782Y327421D01*
X592770Y329863D01*
X591161Y331961D01*
X589063Y333570D01*
X586621Y334582D01*
X585270Y334759D01*
D02*
G37*
G36*
X582730D02*
X581379Y334582D01*
X578937Y333570D01*
X576839Y331961D01*
X575230Y329863D01*
X574218Y327421D01*
X574041Y326070D01*
X582730D01*
Y334759D01*
D02*
G37*
G36*
X349580Y341290D02*
X343310D01*
Y337270D01*
X349580D01*
Y341290D01*
D02*
G37*
G36*
X593959Y513530D02*
X585270D01*
Y504841D01*
X586621Y505018D01*
X589063Y506030D01*
X591161Y507639D01*
X592770Y509737D01*
X593782Y512179D01*
X593959Y513530D01*
D02*
G37*
G36*
X296040Y544040D02*
X275960D01*
Y523960D01*
X296040D01*
Y544040D01*
D02*
G37*
G36*
X340230Y314040D02*
X335960D01*
Y308270D01*
X340230D01*
Y314040D01*
D02*
G37*
G36*
X367460Y311780D02*
X360220D01*
Y307715D01*
X367460D01*
Y311780D01*
D02*
G37*
G36*
X427780Y318385D02*
X410760D01*
Y307715D01*
X427780D01*
Y318385D01*
D02*
G37*
G36*
X585270Y524759D02*
Y516070D01*
X593959D01*
X593782Y517421D01*
X592770Y519863D01*
X591161Y521961D01*
X589063Y523570D01*
X586621Y524582D01*
X585270Y524759D01*
D02*
G37*
G36*
X582730D02*
X581379Y524582D01*
X578937Y523570D01*
X576839Y521961D01*
X575230Y519863D01*
X574218Y517421D01*
X574041Y516070D01*
X582730D01*
Y524759D01*
D02*
G37*
G36*
X347040Y314040D02*
X342770D01*
Y308270D01*
X347040D01*
Y314040D01*
D02*
G37*
G36*
X367460Y318385D02*
X360220D01*
Y314320D01*
X367460D01*
Y318385D01*
D02*
G37*
G36*
X350540Y362730D02*
X344770D01*
Y354960D01*
X350540D01*
Y362730D01*
D02*
G37*
G36*
X593959Y418530D02*
X585270D01*
Y409841D01*
X586621Y410018D01*
X589063Y411030D01*
X591161Y412639D01*
X592770Y414737D01*
X593782Y417179D01*
X593959Y418530D01*
D02*
G37*
G36*
X286790Y440190D02*
X263210D01*
Y416610D01*
X286790D01*
Y440190D01*
D02*
G37*
G36*
X342230Y362730D02*
X336460D01*
Y354960D01*
X342230D01*
Y362730D01*
D02*
G37*
G36*
X582730Y418530D02*
X574041D01*
X574218Y417179D01*
X575230Y414737D01*
X576839Y412639D01*
X578937Y411030D01*
X581379Y410018D01*
X582730Y409841D01*
Y418530D01*
D02*
G37*
G36*
X409070Y373959D02*
Y365270D01*
X417759D01*
X417582Y366621D01*
X416570Y369063D01*
X414961Y371161D01*
X412863Y372770D01*
X410421Y373782D01*
X409070Y373959D01*
D02*
G37*
G36*
X406530D02*
X405179Y373782D01*
X402737Y372770D01*
X400639Y371161D01*
X399030Y369063D01*
X398018Y366621D01*
X397841Y365270D01*
X406530D01*
Y373959D01*
D02*
G37*
G36*
X342230Y373040D02*
X336460D01*
Y365270D01*
X342230D01*
Y373040D01*
D02*
G37*
G36*
X350540D02*
X344770D01*
Y365270D01*
X350540D01*
Y373040D01*
D02*
G37*
G36*
X295959Y481930D02*
X287270D01*
Y473241D01*
X288621Y473418D01*
X291063Y474430D01*
X293161Y476039D01*
X294770Y478137D01*
X295782Y480579D01*
X295959Y481930D01*
D02*
G37*
G36*
X284730D02*
X276041D01*
X276218Y480579D01*
X277230Y478137D01*
X278839Y476039D01*
X280937Y474430D01*
X283379Y473418D01*
X284730Y473241D01*
Y481930D01*
D02*
G37*
G36*
X358390Y341290D02*
X352120D01*
Y337270D01*
X358390D01*
Y341290D01*
D02*
G37*
G36*
X382400Y374127D02*
X379779Y373782D01*
X377337Y372770D01*
X375239Y371161D01*
X373630Y369063D01*
X372618Y366621D01*
X372273Y364000D01*
X372618Y361379D01*
X373630Y358937D01*
X375239Y356839D01*
X377337Y355230D01*
X379779Y354218D01*
X382400Y353873D01*
X385021Y354218D01*
X387463Y355230D01*
X389561Y356839D01*
X391170Y358937D01*
X392182Y361379D01*
X392527Y364000D01*
X392182Y366621D01*
X391170Y369063D01*
X389561Y371161D01*
X387463Y372770D01*
X385021Y373782D01*
X382400Y374127D01*
D02*
G37*
G36*
X433200D02*
X430579Y373782D01*
X428137Y372770D01*
X426039Y371161D01*
X424430Y369063D01*
X423418Y366621D01*
X423073Y364000D01*
X423418Y361379D01*
X424430Y358937D01*
X426039Y356839D01*
X428137Y355230D01*
X430579Y354218D01*
X433200Y353873D01*
X435821Y354218D01*
X438263Y355230D01*
X440361Y356839D01*
X441970Y358937D01*
X442982Y361379D01*
X443327Y364000D01*
X442982Y366621D01*
X441970Y369063D01*
X440361Y371161D01*
X438263Y372770D01*
X435821Y373782D01*
X433200Y374127D01*
D02*
G37*
G36*
X585270Y429759D02*
Y421070D01*
X593959D01*
X593782Y422421D01*
X592770Y424863D01*
X591161Y426961D01*
X589063Y428570D01*
X586621Y429582D01*
X585270Y429759D01*
D02*
G37*
G36*
X582730D02*
X581379Y429582D01*
X578937Y428570D01*
X576839Y426961D01*
X575230Y424863D01*
X574218Y422421D01*
X574041Y421070D01*
X582730D01*
Y429759D01*
D02*
G37*
G36*
X406530Y362730D02*
X397841D01*
X398018Y361379D01*
X399030Y358937D01*
X400639Y356839D01*
X402737Y355230D01*
X405179Y354218D01*
X406530Y354041D01*
Y362730D01*
D02*
G37*
G36*
X417759D02*
X409070D01*
Y354041D01*
X410421Y354218D01*
X412863Y355230D01*
X414961Y356839D01*
X416570Y358937D01*
X417582Y361379D01*
X417759Y362730D01*
D02*
G37*
G36*
X541470Y309359D02*
Y300670D01*
X550159D01*
X549982Y302021D01*
X548970Y304463D01*
X547361Y306561D01*
X545263Y308170D01*
X542821Y309182D01*
X541470Y309359D01*
D02*
G37*
G36*
X285730Y678330D02*
X277041D01*
X277218Y676979D01*
X278230Y674537D01*
X279839Y672439D01*
X281937Y670830D01*
X284379Y669818D01*
X285730Y669641D01*
Y678330D01*
D02*
G37*
G36*
X437730Y270230D02*
X431960D01*
Y265960D01*
X437730D01*
Y270230D01*
D02*
G37*
G36*
X550159Y272730D02*
X541470D01*
Y264041D01*
X542821Y264218D01*
X545263Y265230D01*
X547361Y266839D01*
X548970Y268937D01*
X549982Y271379D01*
X550159Y272730D01*
D02*
G37*
G36*
X296959Y678330D02*
X288270D01*
Y669641D01*
X289621Y669818D01*
X292063Y670830D01*
X294161Y672439D01*
X295770Y674537D01*
X296782Y676979D01*
X296959Y678330D01*
D02*
G37*
G36*
X437730Y277040D02*
X431960D01*
Y272770D01*
X437730D01*
Y277040D01*
D02*
G37*
G36*
X286790Y298390D02*
X263210D01*
Y274810D01*
X286790D01*
Y298390D01*
D02*
G37*
G36*
X377240Y280285D02*
X360220D01*
Y269615D01*
X377240D01*
Y280285D01*
D02*
G37*
G36*
X427780D02*
X410760D01*
Y269615D01*
X427780D01*
Y280285D01*
D02*
G37*
G36*
X538930Y272730D02*
X530241D01*
X530418Y271379D01*
X531430Y268937D01*
X533039Y266839D01*
X535137Y265230D01*
X537579Y264218D01*
X538930Y264041D01*
Y272730D01*
D02*
G37*
G36*
X564586Y715590D02*
X519683D01*
X519432Y715540D01*
X519177D01*
X518942Y715442D01*
X518691Y715393D01*
X518479Y715251D01*
X518244Y715153D01*
X518063Y714973D01*
X517851Y714831D01*
X517710Y714619D01*
X517529Y714439D01*
X517432Y714203D01*
X517290Y713991D01*
X517240Y713741D01*
X517143Y713505D01*
X516895Y712262D01*
X516500Y712314D01*
X503500D01*
X503105Y712262D01*
X502857Y713505D01*
X502760Y713741D01*
X502710Y713991D01*
X502568Y714203D01*
X502471Y714439D01*
X502290Y714619D01*
X502149Y714831D01*
X501937Y714973D01*
X501756Y715153D01*
X501521Y715251D01*
X501309Y715393D01*
X501058Y715442D01*
X500823Y715540D01*
X500568D01*
X500317Y715590D01*
X367683D01*
X367433Y715540D01*
X367177D01*
X366942Y715442D01*
X366692Y715393D01*
X366479Y715251D01*
X366244Y715153D01*
X366063Y714973D01*
X365851Y714831D01*
X365710Y714619D01*
X365529Y714439D01*
X365432Y714203D01*
X365290Y713991D01*
X365240Y713741D01*
X365143Y713505D01*
X364895Y712262D01*
X364500Y712314D01*
X351500D01*
X351105Y712262D01*
X350857Y713505D01*
X350760Y713741D01*
X350710Y713991D01*
X350568Y714203D01*
X350471Y714439D01*
X350290Y714619D01*
X350149Y714831D01*
X349937Y714973D01*
X349756Y715153D01*
X349521Y715251D01*
X349309Y715393D01*
X349058Y715442D01*
X348823Y715540D01*
X348568D01*
X348317Y715590D01*
X325000D01*
X324009Y715393D01*
X323169Y714831D01*
X322169Y713831D01*
X321607Y712991D01*
X321410Y712000D01*
Y711836D01*
X320140Y711405D01*
X319561Y712161D01*
X317463Y713770D01*
X315021Y714782D01*
X312400Y715127D01*
X309779Y714782D01*
X307337Y713770D01*
X305239Y712161D01*
X303630Y710063D01*
X302618Y707621D01*
X302273Y705000D01*
X302618Y702379D01*
X303630Y699937D01*
X305239Y697839D01*
X307337Y696230D01*
X309779Y695218D01*
X312400Y694873D01*
X315021Y695218D01*
X317463Y696230D01*
X319561Y697839D01*
X320140Y698595D01*
X321410Y698164D01*
Y686436D01*
X320140Y686005D01*
X319561Y686761D01*
X317463Y688370D01*
X315021Y689382D01*
X312400Y689727D01*
X309779Y689382D01*
X307337Y688370D01*
X305239Y686761D01*
X303630Y684663D01*
X302618Y682221D01*
X302273Y679600D01*
X302618Y676979D01*
X303630Y674537D01*
X305239Y672439D01*
X307337Y670830D01*
X309779Y669818D01*
X312400Y669473D01*
X315021Y669818D01*
X317463Y670830D01*
X319561Y672439D01*
X320140Y673195D01*
X321410Y672764D01*
Y600671D01*
X321435Y600545D01*
X321423Y600418D01*
X321533Y600053D01*
X321607Y599680D01*
X321679Y599574D01*
X321716Y599450D01*
X321958Y599156D01*
X322169Y598840D01*
X322276Y598769D01*
X322357Y598669D01*
X322693Y598490D01*
X323009Y598279D01*
X323135Y598254D01*
X323248Y598193D01*
X324391Y597847D01*
Y388000D01*
X324665Y386619D01*
X325448Y385448D01*
X331448Y379448D01*
X332619Y378665D01*
X334000Y378391D01*
X334000Y378391D01*
X447410D01*
Y371260D01*
X447427Y371176D01*
X447416Y371091D01*
X447525Y370683D01*
X447607Y370269D01*
X447655Y370198D01*
X447677Y370115D01*
X447934Y369780D01*
X448169Y369429D01*
X448240Y369381D01*
X448292Y369313D01*
X448658Y369102D01*
X449009Y368868D01*
X449260Y367688D01*
X448818Y366621D01*
X448473Y364000D01*
X448818Y361379D01*
X449260Y360312D01*
X449009Y359132D01*
X448658Y358898D01*
X448292Y358687D01*
X448240Y358619D01*
X448169Y358571D01*
X447934Y358220D01*
X447677Y357885D01*
X447655Y357802D01*
X447607Y357731D01*
X447525Y357317D01*
X447416Y356909D01*
X447427Y356824D01*
X447410Y356740D01*
Y340149D01*
X447607Y339158D01*
X448169Y338318D01*
X449009Y337757D01*
X450000Y337560D01*
X565000D01*
X565991Y337757D01*
X566831Y338318D01*
X567393Y339158D01*
X567590Y340149D01*
Y365391D01*
X573960D01*
Y358960D01*
X594040D01*
Y379040D01*
X573960D01*
Y372609D01*
X567590D01*
Y460391D01*
X573960D01*
Y453960D01*
X594040D01*
Y474040D01*
X573960D01*
Y467609D01*
X566848D01*
X565943Y468614D01*
X566142Y469835D01*
X566221Y469877D01*
X566515Y470118D01*
X566831Y470329D01*
X566903Y470436D01*
X567002Y470518D01*
X567181Y470853D01*
X567393Y471170D01*
X567418Y471296D01*
X567478Y471409D01*
X567515Y471787D01*
X567590Y472161D01*
Y712000D01*
X567393Y712991D01*
X566978Y713991D01*
X566417Y714831D01*
X565577Y715393D01*
X564586Y715590D01*
D02*
G37*
G36*
X288270Y689559D02*
Y680870D01*
X296959D01*
X296782Y682221D01*
X295770Y684663D01*
X294161Y686761D01*
X292063Y688370D01*
X289621Y689382D01*
X288270Y689559D01*
D02*
G37*
G36*
X373040Y727830D02*
X359270D01*
Y720560D01*
X373040D01*
Y727830D01*
D02*
G37*
G36*
X356730D02*
X342960D01*
Y720560D01*
X356730D01*
Y727830D01*
D02*
G37*
G36*
X464000Y309527D02*
X461379Y309182D01*
X458937Y308170D01*
X456839Y306561D01*
X455230Y304463D01*
X454218Y302021D01*
X453873Y299400D01*
X454218Y296779D01*
X455230Y294337D01*
X456839Y292239D01*
X458937Y290630D01*
X460391Y290028D01*
Y284040D01*
X453960D01*
Y263960D01*
X474040D01*
Y284040D01*
X467609D01*
Y290028D01*
X469063Y290630D01*
X471161Y292239D01*
X472770Y294337D01*
X473782Y296779D01*
X474127Y299400D01*
X473782Y302021D01*
X472770Y304463D01*
X471161Y306561D01*
X469063Y308170D01*
X466621Y309182D01*
X464000Y309527D01*
D02*
G37*
G36*
X594040Y284040D02*
X573960D01*
Y263960D01*
X594040D01*
Y284040D01*
D02*
G37*
G36*
X285730Y689559D02*
X284379Y689382D01*
X281937Y688370D01*
X279839Y686761D01*
X278230Y684663D01*
X277218Y682221D01*
X277041Y680870D01*
X285730D01*
Y689559D01*
D02*
G37*
G36*
X514800Y284127D02*
X512179Y283782D01*
X509737Y282770D01*
X507639Y281161D01*
X506030Y279063D01*
X505018Y276621D01*
X504673Y274000D01*
X505018Y271379D01*
X506030Y268937D01*
X507639Y266839D01*
X509737Y265230D01*
X512179Y264218D01*
X514800Y263873D01*
X517421Y264218D01*
X519863Y265230D01*
X521961Y266839D01*
X523570Y268937D01*
X524582Y271379D01*
X524927Y274000D01*
X524582Y276621D01*
X523570Y279063D01*
X521961Y281161D01*
X519863Y282770D01*
X517421Y283782D01*
X514800Y284127D01*
D02*
G37*
G36*
X340230Y305730D02*
X335960D01*
Y299960D01*
X340230D01*
Y305730D01*
D02*
G37*
G36*
X287270Y580159D02*
Y571470D01*
X295959D01*
X295782Y572821D01*
X294770Y575263D01*
X293161Y577361D01*
X291063Y578970D01*
X288621Y579982D01*
X287270Y580159D01*
D02*
G37*
G36*
X538930Y298130D02*
X530241D01*
X530418Y296779D01*
X531430Y294337D01*
X533039Y292239D01*
X535137Y290630D01*
X537579Y289618D01*
X538930Y289441D01*
Y298130D01*
D02*
G37*
G36*
X550159D02*
X541470D01*
Y289441D01*
X542821Y289618D01*
X545263Y290630D01*
X547361Y292239D01*
X548970Y294337D01*
X549982Y296779D01*
X550159Y298130D01*
D02*
G37*
G36*
X284730Y580159D02*
X283379Y579982D01*
X280937Y578970D01*
X278839Y577361D01*
X277230Y575263D01*
X276218Y572821D01*
X276041Y571470D01*
X284730D01*
Y580159D01*
D02*
G37*
G36*
X347040Y305730D02*
X342770D01*
Y299960D01*
X347040D01*
Y305730D01*
D02*
G37*
G36*
X538930Y309359D02*
X537579Y309182D01*
X535137Y308170D01*
X533039Y306561D01*
X531430Y304463D01*
X530418Y302021D01*
X530241Y300670D01*
X538930D01*
Y309359D01*
D02*
G37*
G36*
X295959Y568930D02*
X287270D01*
Y560241D01*
X288621Y560418D01*
X291063Y561430D01*
X293161Y563039D01*
X294770Y565137D01*
X295782Y567579D01*
X295959Y568930D01*
D02*
G37*
G36*
X284730D02*
X276041D01*
X276218Y567579D01*
X277230Y565137D01*
X278839Y563039D01*
X280937Y561430D01*
X283379Y560418D01*
X284730Y560241D01*
Y568930D01*
D02*
G37*
G36*
X514800Y309527D02*
X512179Y309182D01*
X509737Y308170D01*
X507639Y306561D01*
X506030Y304463D01*
X505018Y302021D01*
X504673Y299400D01*
X505018Y296779D01*
X506030Y294337D01*
X507639Y292239D01*
X509737Y290630D01*
X512179Y289618D01*
X514800Y289273D01*
X517421Y289618D01*
X519863Y290630D01*
X521961Y292239D01*
X523570Y294337D01*
X524582Y296779D01*
X524927Y299400D01*
X524582Y302021D01*
X523570Y304463D01*
X521961Y306561D01*
X519863Y308170D01*
X517421Y309182D01*
X514800Y309527D01*
D02*
G37*
G36*
X340230Y284730D02*
X333054D01*
X333180Y283771D01*
X334040Y281693D01*
X335409Y279909D01*
X337193Y278540D01*
X339271Y277680D01*
X340230Y277554D01*
Y284730D01*
D02*
G37*
G36*
X349947D02*
X342770D01*
Y277554D01*
X343729Y277680D01*
X345807Y278540D01*
X347591Y279909D01*
X348960Y281693D01*
X349820Y283771D01*
X349947Y284730D01*
D02*
G37*
G36*
X538930Y283959D02*
X537579Y283782D01*
X535137Y282770D01*
X533039Y281161D01*
X531430Y279063D01*
X530418Y276621D01*
X530241Y275270D01*
X538930D01*
Y283959D01*
D02*
G37*
G36*
X541470D02*
Y275270D01*
X550159D01*
X549982Y276621D01*
X548970Y279063D01*
X547361Y281161D01*
X545263Y282770D01*
X542821Y283782D01*
X541470Y283959D01*
D02*
G37*
G36*
X340230Y294447D02*
X339271Y294320D01*
X337193Y293460D01*
X335409Y292091D01*
X334040Y290307D01*
X333180Y288229D01*
X333054Y287270D01*
X340230D01*
Y294447D01*
D02*
G37*
G36*
X342770D02*
Y287270D01*
X349947D01*
X349820Y288229D01*
X348960Y290307D01*
X347591Y292091D01*
X345807Y293460D01*
X343729Y294320D01*
X342770Y294447D01*
D02*
G37*
G36*
X296040Y631040D02*
X275960D01*
Y610960D01*
X296040D01*
Y631040D01*
D02*
G37*
%LPD*%
G36*
X552448Y366448D02*
X553619Y365665D01*
X555000Y365391D01*
X565000D01*
Y340149D01*
X450000D01*
Y356740D01*
X451203Y357148D01*
X451439Y356839D01*
X453537Y355230D01*
X455979Y354218D01*
X458600Y353873D01*
X461221Y354218D01*
X463663Y355230D01*
X465761Y356839D01*
X467370Y358937D01*
X468382Y361379D01*
X468727Y364000D01*
X468382Y366621D01*
X467370Y369063D01*
X465761Y371161D01*
X463663Y372770D01*
X461221Y373782D01*
X458600Y374127D01*
X455979Y373782D01*
X453537Y372770D01*
X451439Y371161D01*
X451203Y370852D01*
X450000Y371260D01*
Y378391D01*
X540505D01*
X552448Y366448D01*
D02*
G37*
G36*
X565000Y712000D02*
Y472161D01*
X563730Y471482D01*
X563609Y471562D01*
Y556000D01*
X563335Y557381D01*
X562552Y558552D01*
X554552Y566552D01*
X553381Y567335D01*
X552000Y567609D01*
X520188D01*
X519935Y568879D01*
X520807Y569240D01*
X522591Y570609D01*
X523960Y572393D01*
X524820Y574471D01*
X524947Y575430D01*
X495053D01*
X495180Y574471D01*
X496040Y572393D01*
X497409Y570609D01*
X499193Y569240D01*
X500065Y568879D01*
X499812Y567609D01*
X494495D01*
X482852Y579252D01*
X481681Y580035D01*
X480300Y580309D01*
X372249D01*
X371960Y581007D01*
X370591Y582791D01*
X368807Y584160D01*
X366729Y585020D01*
X364500Y585314D01*
X351500D01*
X349271Y585020D01*
X347193Y584160D01*
X345409Y582791D01*
X344040Y581007D01*
X343180Y578929D01*
X342886Y576700D01*
X343180Y574471D01*
X344040Y572393D01*
X345409Y570609D01*
X347193Y569240D01*
X349271Y568380D01*
X351500Y568086D01*
X364500D01*
X366729Y568380D01*
X368807Y569240D01*
X370591Y570609D01*
X371960Y572393D01*
X372249Y573091D01*
X478805D01*
X490448Y561448D01*
X491619Y560665D01*
X493000Y560391D01*
X499812D01*
X500065Y559121D01*
X499193Y558760D01*
X497409Y557391D01*
X496040Y555607D01*
X495180Y553529D01*
X495053Y552570D01*
X524947D01*
X524820Y553529D01*
X523960Y555607D01*
X522591Y557391D01*
X520807Y558760D01*
X519935Y559121D01*
X520188Y560391D01*
X550505D01*
X556391Y554505D01*
Y469000D01*
X556665Y467619D01*
X557448Y466448D01*
X562448Y461448D01*
X563619Y460665D01*
X565000Y460391D01*
Y372609D01*
X556495D01*
X544552Y384552D01*
X543381Y385335D01*
X542000Y385609D01*
X335495D01*
X331609Y389495D01*
Y596505D01*
X333595Y598491D01*
X343751D01*
X344040Y597793D01*
X345409Y596009D01*
X347193Y594640D01*
X349271Y593780D01*
X351500Y593486D01*
X364500D01*
X366729Y593780D01*
X368807Y594640D01*
X370591Y596009D01*
X371960Y597793D01*
X372820Y599871D01*
X373114Y602100D01*
X372820Y604329D01*
X371960Y606407D01*
X370591Y608191D01*
X368807Y609560D01*
X366729Y610420D01*
X364500Y610714D01*
X351500D01*
X349271Y610420D01*
X347193Y609560D01*
X345409Y608191D01*
X344040Y606407D01*
X343751Y605709D01*
X332100D01*
X330719Y605435D01*
X329548Y604652D01*
X325448Y600552D01*
X325270Y600286D01*
X324000Y600671D01*
Y712000D01*
X325000Y713000D01*
X348317D01*
X348570Y711730D01*
X347193Y711160D01*
X345409Y709791D01*
X344040Y708007D01*
X343180Y705929D01*
X342886Y703700D01*
X343180Y701471D01*
X344040Y699393D01*
X345409Y697609D01*
X347193Y696240D01*
X349271Y695380D01*
X351500Y695086D01*
X364500D01*
X366729Y695380D01*
X368807Y696240D01*
X370591Y697609D01*
X371960Y699393D01*
X372820Y701471D01*
X373114Y703700D01*
X372820Y705929D01*
X371960Y708007D01*
X370591Y709791D01*
X368807Y711160D01*
X367430Y711730D01*
X367683Y713000D01*
X500317D01*
X500570Y711730D01*
X499193Y711160D01*
X497409Y709791D01*
X496040Y708007D01*
X495180Y705929D01*
X495053Y704970D01*
X524947D01*
X524820Y705929D01*
X523960Y708007D01*
X522591Y709791D01*
X520807Y711160D01*
X519430Y711730D01*
X519683Y713000D01*
X564586D01*
X565000Y712000D01*
D02*
G37*
%LPC*%
G36*
X494040Y374040D02*
X473960D01*
Y353960D01*
X494040D01*
Y374040D01*
D02*
G37*
G36*
X508730Y626230D02*
X495053D01*
X495180Y625271D01*
X496040Y623193D01*
X497409Y621409D01*
X499193Y620040D01*
X501271Y619180D01*
X503500Y618886D01*
X508730D01*
Y626230D01*
D02*
G37*
G36*
X364500Y636114D02*
X351500D01*
X349271Y635820D01*
X347193Y634960D01*
X345409Y633591D01*
X344040Y631807D01*
X343180Y629729D01*
X342886Y627500D01*
X343180Y625271D01*
X344040Y623193D01*
X345409Y621409D01*
X347193Y620040D01*
X349271Y619180D01*
X351500Y618886D01*
X364500D01*
X366729Y619180D01*
X368807Y620040D01*
X370591Y621409D01*
X371960Y623193D01*
X372820Y625271D01*
X373114Y627500D01*
X372820Y629729D01*
X371960Y631807D01*
X370591Y633591D01*
X368807Y634960D01*
X366729Y635820D01*
X364500Y636114D01*
D02*
G37*
G36*
X524947Y626230D02*
X511270D01*
Y618886D01*
X516500D01*
X518729Y619180D01*
X520807Y620040D01*
X522591Y621409D01*
X523960Y623193D01*
X524820Y625271D01*
X524947Y626230D01*
D02*
G37*
G36*
X516500Y636114D02*
X511270D01*
Y628770D01*
X524947D01*
X524820Y629729D01*
X523960Y631807D01*
X522591Y633591D01*
X520807Y634960D01*
X518729Y635820D01*
X516500Y636114D01*
D02*
G37*
G36*
X508730D02*
X503500D01*
X501271Y635820D01*
X499193Y634960D01*
X497409Y633591D01*
X496040Y631807D01*
X495180Y629729D01*
X495053Y628770D01*
X508730D01*
Y636114D01*
D02*
G37*
G36*
X516500Y610714D02*
X511270D01*
Y603370D01*
X524947D01*
X524820Y604329D01*
X523960Y606407D01*
X522591Y608191D01*
X520807Y609560D01*
X518729Y610420D01*
X516500Y610714D01*
D02*
G37*
G36*
Y585314D02*
X511270D01*
Y577970D01*
X524947D01*
X524820Y578929D01*
X523960Y581007D01*
X522591Y582791D01*
X520807Y584160D01*
X518729Y585020D01*
X516500Y585314D01*
D02*
G37*
G36*
X508730D02*
X503500D01*
X501271Y585020D01*
X499193Y584160D01*
X497409Y582791D01*
X496040Y581007D01*
X495180Y578929D01*
X495053Y577970D01*
X508730D01*
Y585314D01*
D02*
G37*
G36*
Y600830D02*
X495053D01*
X495180Y599871D01*
X496040Y597793D01*
X497409Y596009D01*
X499193Y594640D01*
X501271Y593780D01*
X503500Y593486D01*
X508730D01*
Y600830D01*
D02*
G37*
G36*
Y610714D02*
X503500D01*
X501271Y610420D01*
X499193Y609560D01*
X497409Y608191D01*
X496040Y606407D01*
X495180Y604329D01*
X495053Y603370D01*
X508730D01*
Y610714D01*
D02*
G37*
G36*
X524947Y600830D02*
X511270D01*
Y593486D01*
X516500D01*
X518729Y593780D01*
X520807Y594640D01*
X522591Y596009D01*
X523960Y597793D01*
X524820Y599871D01*
X524947Y600830D01*
D02*
G37*
G36*
X364500Y661514D02*
X351500D01*
X349271Y661220D01*
X347193Y660360D01*
X345409Y658991D01*
X344040Y657207D01*
X343180Y655129D01*
X342886Y652900D01*
X343180Y650671D01*
X344040Y648593D01*
X345409Y646809D01*
X347193Y645440D01*
X349271Y644580D01*
X351500Y644286D01*
X364500D01*
X366729Y644580D01*
X368807Y645440D01*
X370591Y646809D01*
X371960Y648593D01*
X372820Y650671D01*
X373114Y652900D01*
X372820Y655129D01*
X371960Y657207D01*
X370591Y658991D01*
X368807Y660360D01*
X366729Y661220D01*
X364500Y661514D01*
D02*
G37*
G36*
X508730Y686914D02*
X503500D01*
X501271Y686620D01*
X499193Y685760D01*
X497409Y684391D01*
X496040Y682607D01*
X495180Y680529D01*
X495053Y679570D01*
X508730D01*
Y686914D01*
D02*
G37*
G36*
X524947Y677030D02*
X511270D01*
Y669686D01*
X516500D01*
X518729Y669980D01*
X520807Y670840D01*
X522591Y672209D01*
X523960Y673993D01*
X524820Y676071D01*
X524947Y677030D01*
D02*
G37*
G36*
X516500Y686914D02*
X511270D01*
Y679570D01*
X524947D01*
X524820Y680529D01*
X523960Y682607D01*
X522591Y684391D01*
X520807Y685760D01*
X518729Y686620D01*
X516500Y686914D01*
D02*
G37*
G36*
X524947Y702430D02*
X511270D01*
Y695086D01*
X516500D01*
X518729Y695380D01*
X520807Y696240D01*
X522591Y697609D01*
X523960Y699393D01*
X524820Y701471D01*
X524947Y702430D01*
D02*
G37*
G36*
X508730D02*
X495053D01*
X495180Y701471D01*
X496040Y699393D01*
X497409Y697609D01*
X499193Y696240D01*
X501271Y695380D01*
X503500Y695086D01*
X508730D01*
Y702430D01*
D02*
G37*
G36*
Y677030D02*
X495053D01*
X495180Y676071D01*
X496040Y673993D01*
X497409Y672209D01*
X499193Y670840D01*
X501271Y669980D01*
X503500Y669686D01*
X508730D01*
Y677030D01*
D02*
G37*
G36*
X524947Y651630D02*
X511270D01*
Y644286D01*
X516500D01*
X518729Y644580D01*
X520807Y645440D01*
X522591Y646809D01*
X523960Y648593D01*
X524820Y650671D01*
X524947Y651630D01*
D02*
G37*
G36*
X508730D02*
X495053D01*
X495180Y650671D01*
X496040Y648593D01*
X497409Y646809D01*
X499193Y645440D01*
X501271Y644580D01*
X503500Y644286D01*
X508730D01*
Y651630D01*
D02*
G37*
G36*
Y661514D02*
X503500D01*
X501271Y661220D01*
X499193Y660360D01*
X497409Y658991D01*
X496040Y657207D01*
X495180Y655129D01*
X495053Y654170D01*
X508730D01*
Y661514D01*
D02*
G37*
G36*
X364500Y686914D02*
X351500D01*
X349271Y686620D01*
X347193Y685760D01*
X345409Y684391D01*
X344040Y682607D01*
X343180Y680529D01*
X342886Y678300D01*
X343180Y676071D01*
X344040Y673993D01*
X345409Y672209D01*
X347193Y670840D01*
X349271Y669980D01*
X351500Y669686D01*
X364500D01*
X366729Y669980D01*
X368807Y670840D01*
X370591Y672209D01*
X371960Y673993D01*
X372820Y676071D01*
X373114Y678300D01*
X372820Y680529D01*
X371960Y682607D01*
X370591Y684391D01*
X368807Y685760D01*
X366729Y686620D01*
X364500Y686914D01*
D02*
G37*
G36*
X516500Y661514D02*
X511270D01*
Y654170D01*
X524947D01*
X524820Y655129D01*
X523960Y657207D01*
X522591Y658991D01*
X520807Y660360D01*
X518729Y661220D01*
X516500Y661514D01*
D02*
G37*
G36*
X524947Y550030D02*
X511270D01*
Y542686D01*
X516500D01*
X518729Y542980D01*
X520807Y543840D01*
X522591Y545209D01*
X523960Y546993D01*
X524820Y549071D01*
X524947Y550030D01*
D02*
G37*
G36*
X508730Y473830D02*
X495053D01*
X495180Y472871D01*
X496040Y470793D01*
X497409Y469009D01*
X499193Y467640D01*
X501271Y466780D01*
X503500Y466486D01*
X508730D01*
Y473830D01*
D02*
G37*
G36*
X364500Y483714D02*
X351500D01*
X349271Y483420D01*
X347193Y482560D01*
X345409Y481191D01*
X344040Y479407D01*
X343180Y477329D01*
X342886Y475100D01*
X343180Y472871D01*
X344040Y470793D01*
X345409Y469009D01*
X347193Y467640D01*
X349271Y466780D01*
X351500Y466486D01*
X364500D01*
X366729Y466780D01*
X368807Y467640D01*
X370591Y469009D01*
X371960Y470793D01*
X372820Y472871D01*
X373114Y475100D01*
X372820Y477329D01*
X371960Y479407D01*
X370591Y481191D01*
X368807Y482560D01*
X366729Y483420D01*
X364500Y483714D01*
D02*
G37*
G36*
X524947Y473830D02*
X511270D01*
Y466486D01*
X516500D01*
X518729Y466780D01*
X520807Y467640D01*
X522591Y469009D01*
X523960Y470793D01*
X524820Y472871D01*
X524947Y473830D01*
D02*
G37*
G36*
X516500Y483714D02*
X511270D01*
Y476370D01*
X524947D01*
X524820Y477329D01*
X523960Y479407D01*
X522591Y481191D01*
X520807Y482560D01*
X518729Y483420D01*
X516500Y483714D01*
D02*
G37*
G36*
X508730D02*
X503500D01*
X501271Y483420D01*
X499193Y482560D01*
X497409Y481191D01*
X496040Y479407D01*
X495180Y477329D01*
X495053Y476370D01*
X508730D01*
Y483714D01*
D02*
G37*
G36*
X516500Y458314D02*
X503500D01*
X501271Y458020D01*
X499193Y457160D01*
X497409Y455791D01*
X496040Y454007D01*
X495180Y451929D01*
X494886Y449700D01*
X495180Y447471D01*
X496040Y445393D01*
X497409Y443609D01*
X499193Y442240D01*
X501271Y441380D01*
X503500Y441086D01*
X516500D01*
X518729Y441380D01*
X520807Y442240D01*
X522591Y443609D01*
X523960Y445393D01*
X524820Y447471D01*
X525114Y449700D01*
X524820Y451929D01*
X523960Y454007D01*
X522591Y455791D01*
X520807Y457160D01*
X518729Y458020D01*
X516500Y458314D01*
D02*
G37*
G36*
Y407514D02*
X503500D01*
X501271Y407220D01*
X499193Y406360D01*
X497409Y404991D01*
X496040Y403207D01*
X495180Y401129D01*
X494886Y398900D01*
X495180Y396671D01*
X496040Y394593D01*
X497409Y392809D01*
X499193Y391440D01*
X501271Y390580D01*
X503500Y390286D01*
X516500D01*
X518729Y390580D01*
X520807Y391440D01*
X522591Y392809D01*
X523960Y394593D01*
X524820Y396671D01*
X525114Y398900D01*
X524820Y401129D01*
X523960Y403207D01*
X522591Y404991D01*
X520807Y406360D01*
X518729Y407220D01*
X516500Y407514D01*
D02*
G37*
G36*
X364500D02*
X351500D01*
X349271Y407220D01*
X347193Y406360D01*
X345409Y404991D01*
X344040Y403207D01*
X343180Y401129D01*
X342886Y398900D01*
X343180Y396671D01*
X344040Y394593D01*
X345409Y392809D01*
X347193Y391440D01*
X349271Y390580D01*
X351500Y390286D01*
X364500D01*
X366729Y390580D01*
X368807Y391440D01*
X370591Y392809D01*
X371960Y394593D01*
X372820Y396671D01*
X373114Y398900D01*
X372820Y401129D01*
X371960Y403207D01*
X370591Y404991D01*
X368807Y406360D01*
X366729Y407220D01*
X364500Y407514D01*
D02*
G37*
G36*
Y432914D02*
X351500D01*
X349271Y432620D01*
X347193Y431760D01*
X345409Y430391D01*
X344040Y428607D01*
X343180Y426529D01*
X342886Y424300D01*
X343180Y422071D01*
X344040Y419993D01*
X345409Y418209D01*
X347193Y416840D01*
X349271Y415980D01*
X351500Y415686D01*
X364500D01*
X366729Y415980D01*
X368807Y416840D01*
X370591Y418209D01*
X371960Y419993D01*
X372820Y422071D01*
X373114Y424300D01*
X372820Y426529D01*
X371960Y428607D01*
X370591Y430391D01*
X368807Y431760D01*
X366729Y432620D01*
X364500Y432914D01*
D02*
G37*
G36*
Y458314D02*
X351500D01*
X349271Y458020D01*
X347193Y457160D01*
X345409Y455791D01*
X344040Y454007D01*
X343180Y451929D01*
X342886Y449700D01*
X343180Y447471D01*
X344040Y445393D01*
X345409Y443609D01*
X347193Y442240D01*
X349271Y441380D01*
X351500Y441086D01*
X364500D01*
X366729Y441380D01*
X368807Y442240D01*
X370591Y443609D01*
X371960Y445393D01*
X372820Y447471D01*
X373114Y449700D01*
X372820Y451929D01*
X371960Y454007D01*
X370591Y455791D01*
X368807Y457160D01*
X366729Y458020D01*
X364500Y458314D01*
D02*
G37*
G36*
X516500Y432914D02*
X503500D01*
X501271Y432620D01*
X499193Y431760D01*
X497409Y430391D01*
X496040Y428607D01*
X495180Y426529D01*
X494886Y424300D01*
X495180Y422071D01*
X496040Y419993D01*
X497409Y418209D01*
X499193Y416840D01*
X501271Y415980D01*
X503500Y415686D01*
X516500D01*
X518729Y415980D01*
X520807Y416840D01*
X522591Y418209D01*
X523960Y419993D01*
X524820Y422071D01*
X525114Y424300D01*
X524820Y426529D01*
X523960Y428607D01*
X522591Y430391D01*
X520807Y431760D01*
X518729Y432620D01*
X516500Y432914D01*
D02*
G37*
G36*
X364500Y509114D02*
X351500D01*
X349271Y508820D01*
X347193Y507960D01*
X345409Y506591D01*
X344040Y504807D01*
X343180Y502729D01*
X342886Y500500D01*
X343180Y498271D01*
X344040Y496193D01*
X345409Y494409D01*
X347193Y493040D01*
X349271Y492180D01*
X351500Y491886D01*
X364500D01*
X366729Y492180D01*
X368807Y493040D01*
X370591Y494409D01*
X371960Y496193D01*
X372820Y498271D01*
X373114Y500500D01*
X372820Y502729D01*
X371960Y504807D01*
X370591Y506591D01*
X368807Y507960D01*
X366729Y508820D01*
X364500Y509114D01*
D02*
G37*
G36*
X508730Y534514D02*
X503500D01*
X501271Y534220D01*
X499193Y533360D01*
X497409Y531991D01*
X496040Y530207D01*
X495180Y528129D01*
X495053Y527170D01*
X508730D01*
Y534514D01*
D02*
G37*
G36*
X524947Y524630D02*
X511270D01*
Y517286D01*
X516500D01*
X518729Y517580D01*
X520807Y518440D01*
X522591Y519809D01*
X523960Y521593D01*
X524820Y523671D01*
X524947Y524630D01*
D02*
G37*
G36*
X516500Y534514D02*
X511270D01*
Y527170D01*
X524947D01*
X524820Y528129D01*
X523960Y530207D01*
X522591Y531991D01*
X520807Y533360D01*
X518729Y534220D01*
X516500Y534514D01*
D02*
G37*
G36*
X508730Y550030D02*
X495053D01*
X495180Y549071D01*
X496040Y546993D01*
X497409Y545209D01*
X499193Y543840D01*
X501271Y542980D01*
X503500Y542686D01*
X508730D01*
Y550030D01*
D02*
G37*
G36*
X364500Y559914D02*
X351500D01*
X349271Y559620D01*
X347193Y558760D01*
X345409Y557391D01*
X344040Y555607D01*
X343180Y553529D01*
X342886Y551300D01*
X343180Y549071D01*
X344040Y546993D01*
X345409Y545209D01*
X347193Y543840D01*
X349271Y542980D01*
X351500Y542686D01*
X364500D01*
X366729Y542980D01*
X368807Y543840D01*
X370591Y545209D01*
X371960Y546993D01*
X372820Y549071D01*
X373114Y551300D01*
X372820Y553529D01*
X371960Y555607D01*
X370591Y557391D01*
X368807Y558760D01*
X366729Y559620D01*
X364500Y559914D01*
D02*
G37*
G36*
X508730Y524630D02*
X495053D01*
X495180Y523671D01*
X496040Y521593D01*
X497409Y519809D01*
X499193Y518440D01*
X501271Y517580D01*
X503500Y517286D01*
X508730D01*
Y524630D01*
D02*
G37*
G36*
X524947Y499230D02*
X511270D01*
Y491886D01*
X516500D01*
X518729Y492180D01*
X520807Y493040D01*
X522591Y494409D01*
X523960Y496193D01*
X524820Y498271D01*
X524947Y499230D01*
D02*
G37*
G36*
X508730D02*
X495053D01*
X495180Y498271D01*
X496040Y496193D01*
X497409Y494409D01*
X499193Y493040D01*
X501271Y492180D01*
X503500Y491886D01*
X508730D01*
Y499230D01*
D02*
G37*
G36*
Y509114D02*
X503500D01*
X501271Y508820D01*
X499193Y507960D01*
X497409Y506591D01*
X496040Y504807D01*
X495180Y502729D01*
X495053Y501770D01*
X508730D01*
Y509114D01*
D02*
G37*
G36*
X364500Y534514D02*
X351500D01*
X349271Y534220D01*
X347193Y533360D01*
X345409Y531991D01*
X344040Y530207D01*
X343180Y528129D01*
X342886Y525900D01*
X343180Y523671D01*
X344040Y521593D01*
X345409Y519809D01*
X347193Y518440D01*
X349271Y517580D01*
X351500Y517286D01*
X364500D01*
X366729Y517580D01*
X368807Y518440D01*
X370591Y519809D01*
X371960Y521593D01*
X372820Y523671D01*
X373114Y525900D01*
X372820Y528129D01*
X371960Y530207D01*
X370591Y531991D01*
X368807Y533360D01*
X366729Y534220D01*
X364500Y534514D01*
D02*
G37*
G36*
X516500Y509114D02*
X511270D01*
Y501770D01*
X524947D01*
X524820Y502729D01*
X523960Y504807D01*
X522591Y506591D01*
X520807Y507960D01*
X518729Y508820D01*
X516500Y509114D01*
D02*
G37*
%LPD*%
D11*
X440000Y320500D02*
D03*
Y305500D02*
D03*
X439000Y286500D02*
D03*
Y271500D02*
D03*
D12*
X326500Y307000D02*
D03*
X341500D02*
D03*
D15*
X290000Y742000D02*
X508000D01*
X287000Y739000D02*
X290000Y742000D01*
X287000Y705000D02*
Y739000D01*
X508000Y742000D02*
X510000Y740000D01*
Y729100D02*
Y740000D01*
X565000Y464000D02*
X584000D01*
X560000Y469000D02*
X565000Y464000D01*
X560000Y469000D02*
Y556000D01*
X552000Y564000D02*
X560000Y556000D01*
X493000Y564000D02*
X552000D01*
X480300Y576700D02*
X493000Y564000D01*
X358000Y576700D02*
X480300D01*
X334000Y382000D02*
X542000D01*
X328000Y388000D02*
X334000Y382000D01*
X328000Y388000D02*
Y598000D01*
X542000Y382000D02*
X555000Y369000D01*
X332100Y602100D02*
X358000D01*
X328000Y598000D02*
X332100Y602100D01*
X555000Y369000D02*
X584000D01*
X600000Y492000D02*
Y727000D01*
X597900Y729100D02*
X600000Y727000D01*
X510000Y729100D02*
X597900D01*
X597400Y489400D02*
X600000Y492000D01*
X584000Y489400D02*
X597400D01*
X597000Y487000D02*
X600000Y484000D01*
Y397000D02*
Y484000D01*
X597400Y394400D02*
X600000Y397000D01*
X584000Y394400D02*
X597400D01*
X586400Y487000D02*
X597000D01*
X584000Y489400D02*
X586400Y487000D01*
X597000Y392000D02*
X600000Y389000D01*
X586400Y392000D02*
X597000D01*
X584000Y394400D02*
X586400Y392000D01*
X600000Y302000D02*
Y389000D01*
X597400Y299400D02*
X600000Y302000D01*
X584000Y299400D02*
X597400D01*
X285000Y703000D02*
X287000Y705000D01*
X261000Y703000D02*
X285000D01*
X258000Y700000D02*
X261000Y703000D01*
X258000Y601000D02*
Y700000D01*
Y601000D02*
X261000Y598000D01*
X283600D01*
X286000Y595600D01*
X284400Y594000D02*
X286000Y595600D01*
X260000Y594000D02*
X284400D01*
X258000Y592000D02*
X260000Y594000D01*
X258000Y513000D02*
Y592000D01*
X260000Y507000D02*
X284400D01*
X258000Y505000D02*
X260000Y507000D01*
X258000Y380000D02*
Y505000D01*
Y513000D02*
X260000Y511000D01*
X283600D01*
X286000Y508600D01*
X284400Y507000D02*
X286000Y508600D01*
X260400Y377600D02*
X275000D01*
X258000Y380000D02*
X260400Y377600D01*
X275000Y337400D02*
Y377600D01*
X581860Y336540D02*
X584000Y334400D01*
X411460Y336540D02*
X581860D01*
X410000Y338000D02*
X411460Y336540D01*
X436000Y332000D02*
X440000Y328000D01*
X388000Y332000D02*
X436000D01*
X410000Y338000D02*
Y361800D01*
X351390Y336540D02*
X404540D01*
X350850Y336000D02*
X351390Y336540D01*
X404540D02*
X406000Y338000D01*
X384000Y328000D02*
X388000Y332000D01*
X406000Y338000D02*
Y362200D01*
X327150Y345500D02*
X334500D01*
X338000Y342000D01*
Y329000D02*
Y342000D01*
Y329000D02*
X340000Y327000D01*
X377000D01*
X379000Y325000D01*
Y302000D02*
Y325000D01*
X377350Y300350D02*
X379000Y302000D01*
X368730Y300350D02*
X377350D01*
X384000Y289000D02*
Y328000D01*
X382650Y287650D02*
X384000Y289000D01*
X540200Y274000D02*
Y299400D01*
X464000Y274000D02*
Y299400D01*
X489400Y274000D02*
Y299400D01*
Y318600D01*
X487500Y320500D02*
X489400Y318600D01*
X440000Y320500D02*
X487500D01*
X368730Y287650D02*
X382650D01*
X440000Y320500D02*
Y328000D01*
X344000Y265000D02*
X437000D01*
X341500Y267500D02*
X344000Y265000D01*
X341500Y267500D02*
Y286000D01*
X407800Y364000D02*
X410000Y361800D01*
X584000Y324800D02*
Y334400D01*
X406000Y362200D02*
X407800Y364000D01*
X440000Y302000D02*
Y305500D01*
X438350Y300350D02*
X440000Y302000D01*
X419270Y300350D02*
X438350D01*
X350850Y336000D02*
Y362150D01*
X349000Y364000D02*
X350850Y362150D01*
X343500Y364000D02*
X349000D01*
X306500Y286000D02*
Y373500D01*
X303000Y377000D02*
X306500Y373500D01*
X343050Y313050D02*
X368730D01*
X341500Y311500D02*
X343050Y313050D01*
X327150Y345500D02*
Y346850D01*
X324500Y349500D02*
X327150Y346850D01*
X324500Y349500D02*
Y364000D01*
X437000Y265000D02*
X439000Y267000D01*
Y271500D01*
X341500Y286000D02*
Y311500D01*
X439000Y286500D02*
X446500D01*
X419270Y287650D02*
X420420Y286500D01*
X439000D01*
X306500Y286000D02*
X307500Y285000D01*
X325000D01*
X326500Y286500D01*
Y307000D01*
X327150Y307650D01*
Y326500D01*
X306500Y262500D02*
X309000Y260000D01*
X306500Y262500D02*
Y286000D01*
X446500Y286500D02*
X448000Y285000D01*
X309000Y260000D02*
X443000D01*
X448000Y265000D01*
Y285000D01*
X275000Y377600D02*
X302400D01*
D16*
X584000Y324800D02*
D03*
Y299400D02*
D03*
Y514800D02*
D03*
Y489400D02*
D03*
X286000Y483200D02*
D03*
Y508600D02*
D03*
Y570200D02*
D03*
Y595600D02*
D03*
X584000Y419800D02*
D03*
Y394400D02*
D03*
X312400Y705000D02*
D03*
X287000Y679600D02*
D03*
X312400D02*
D03*
X489400Y274000D02*
D03*
X514800D02*
D03*
X540200D02*
D03*
X464000Y299400D02*
D03*
X489400D02*
D03*
X514800D02*
D03*
X540200D02*
D03*
X458600Y364000D02*
D03*
X433200D02*
D03*
X407800D02*
D03*
X382400D02*
D03*
D17*
X584000Y274000D02*
D03*
Y464000D02*
D03*
X286000Y534000D02*
D03*
Y621000D02*
D03*
X584000Y369000D02*
D03*
X287000Y705000D02*
D03*
D18*
X275000Y337400D02*
D03*
Y377600D02*
D03*
D19*
Y286600D02*
D03*
Y428400D02*
D03*
D20*
X464000Y274000D02*
D03*
X484000Y364000D02*
D03*
D21*
X306500Y286000D02*
D03*
D22*
X341500D02*
D03*
D23*
X510000Y398900D02*
D03*
Y424300D02*
D03*
Y449700D02*
D03*
Y475100D02*
D03*
Y500500D02*
D03*
Y525900D02*
D03*
Y551300D02*
D03*
Y576700D02*
D03*
Y602100D02*
D03*
Y627500D02*
D03*
Y652900D02*
D03*
Y678300D02*
D03*
Y703700D02*
D03*
Y729100D02*
D03*
X358000Y398900D02*
D03*
Y424300D02*
D03*
Y449700D02*
D03*
Y475100D02*
D03*
Y500500D02*
D03*
Y525900D02*
D03*
Y551300D02*
D03*
Y576700D02*
D03*
Y602100D02*
D03*
Y627500D02*
D03*
Y652900D02*
D03*
Y678300D02*
D03*
Y703700D02*
D03*
D24*
Y729100D02*
D03*
D25*
X419270Y313050D02*
D03*
Y300350D02*
D03*
Y287650D02*
D03*
Y274950D02*
D03*
X368730Y313050D02*
D03*
Y300350D02*
D03*
Y287650D02*
D03*
Y274950D02*
D03*
D26*
X327150Y326500D02*
D03*
Y345500D02*
D03*
X350850Y336000D02*
D03*
D27*
X324500Y364000D02*
D03*
X343500D02*
D03*
M02*
