G04 Layer_Physical_Order=2*
G04 Layer_Color=16711680*
%FSLAX44Y44*%
%MOMM*%
G71*
G01*
G75*
%ADD13R,0.6000X0.9000*%
%ADD14R,0.9000X0.6000*%
%ADD15C,0.2000*%
%ADD16C,1.8500*%
%ADD17R,1.2000X1.2000*%
%ADD18C,1.3000*%
%ADD19C,1.4000*%
%ADD20R,1.4000X1.4000*%
%ADD21C,1.5000*%
%ADD22R,1.5000X1.5000*%
%ADD23R,1.5000X1.5000*%
%ADD24C,0.4500*%
%ADD25R,1.1940X0.5590*%
%ADD26R,1.0000X0.5500*%
%ADD27R,0.9000X1.3000*%
G36*
X604000Y754000D02*
Y254000D01*
X254000D01*
X254000Y254000D01*
Y754000D01*
X604000D01*
X604000Y754000D01*
D02*
G37*
%LPC*%
G36*
X358000Y484722D02*
X355510Y484394D01*
X353189Y483433D01*
X351196Y481904D01*
X349667Y479911D01*
X348706Y477590D01*
X348378Y475100D01*
X348706Y472609D01*
X349667Y470289D01*
X351196Y468296D01*
X353189Y466767D01*
X355510Y465806D01*
X358000Y465478D01*
X360490Y465806D01*
X362811Y466767D01*
X364804Y468296D01*
X366333Y470289D01*
X367294Y472609D01*
X367622Y475100D01*
X367294Y477590D01*
X366333Y479911D01*
X364804Y481904D01*
X362811Y483433D01*
X360490Y484394D01*
X358000Y484722D01*
D02*
G37*
G36*
X583000Y475927D02*
X580379Y475582D01*
X577937Y474570D01*
X575839Y472961D01*
X574230Y470863D01*
X573218Y468421D01*
X572873Y465800D01*
X573218Y463179D01*
X574230Y460737D01*
X575839Y458639D01*
X577937Y457030D01*
X580379Y456018D01*
X583000Y455673D01*
X585621Y456018D01*
X588063Y457030D01*
X590161Y458639D01*
X591770Y460737D01*
X592782Y463179D01*
X593127Y465800D01*
X592782Y468421D01*
X591770Y470863D01*
X590161Y472961D01*
X588063Y474570D01*
X585621Y475582D01*
X583000Y475927D01*
D02*
G37*
G36*
X519455Y473830D02*
X511270D01*
Y465645D01*
X512490Y465806D01*
X514811Y466767D01*
X516804Y468296D01*
X518333Y470289D01*
X519294Y472609D01*
X519455Y473830D01*
D02*
G37*
G36*
X508730D02*
X500545D01*
X500706Y472609D01*
X501667Y470289D01*
X503196Y468296D01*
X505189Y466767D01*
X507510Y465806D01*
X508730Y465645D01*
Y473830D01*
D02*
G37*
G36*
X358000Y459322D02*
X355510Y458994D01*
X353189Y458033D01*
X351196Y456504D01*
X349667Y454511D01*
X348706Y452190D01*
X348378Y449700D01*
X348706Y447210D01*
X349667Y444889D01*
X351196Y442896D01*
X353189Y441367D01*
X355510Y440406D01*
X358000Y440078D01*
X360490Y440406D01*
X362811Y441367D01*
X364804Y442896D01*
X366333Y444889D01*
X367294Y447210D01*
X367622Y449700D01*
X367294Y452190D01*
X366333Y454511D01*
X364804Y456504D01*
X362811Y458033D01*
X360490Y458994D01*
X358000Y459322D01*
D02*
G37*
G36*
X583000Y450527D02*
X580379Y450182D01*
X577937Y449170D01*
X575839Y447561D01*
X574230Y445463D01*
X573218Y443021D01*
X572873Y440400D01*
X573218Y437779D01*
X574230Y435337D01*
X575839Y433239D01*
X577937Y431630D01*
X580379Y430618D01*
X583000Y430273D01*
X585621Y430618D01*
X588063Y431630D01*
X590161Y433239D01*
X591770Y435337D01*
X592782Y437779D01*
X593127Y440400D01*
X592782Y443021D01*
X591770Y445463D01*
X590161Y447561D01*
X588063Y449170D01*
X585621Y450182D01*
X583000Y450527D01*
D02*
G37*
G36*
X358000Y433922D02*
X355510Y433594D01*
X353189Y432633D01*
X351196Y431104D01*
X349667Y429111D01*
X348706Y426790D01*
X348378Y424300D01*
X348706Y421810D01*
X349667Y419489D01*
X351196Y417496D01*
X353189Y415967D01*
X355510Y415005D01*
X358000Y414678D01*
X360490Y415005D01*
X362811Y415967D01*
X364804Y417496D01*
X366333Y419489D01*
X367294Y421810D01*
X367622Y424300D01*
X367294Y426790D01*
X366333Y429111D01*
X364804Y431104D01*
X362811Y432633D01*
X360490Y433594D01*
X358000Y433922D01*
D02*
G37*
G36*
X310700Y460892D02*
X307622Y460486D01*
X304754Y459299D01*
X302291Y457409D01*
X300401Y454946D01*
X299214Y452078D01*
X298808Y449000D01*
X299214Y445922D01*
X300401Y443054D01*
X302291Y440591D01*
X304754Y438702D01*
X307622Y437514D01*
X310700Y437108D01*
X313778Y437514D01*
X316646Y438702D01*
X319109Y440591D01*
X320998Y443054D01*
X322187Y445922D01*
X322592Y449000D01*
X322187Y452078D01*
X320998Y454946D01*
X319109Y457409D01*
X316646Y459299D01*
X313778Y460486D01*
X310700Y460892D01*
D02*
G37*
G36*
X285300D02*
X282222Y460486D01*
X279354Y459299D01*
X276891Y457409D01*
X275002Y454946D01*
X273813Y452078D01*
X273408Y449000D01*
X273813Y445922D01*
X275002Y443054D01*
X276891Y440591D01*
X279354Y438702D01*
X282222Y437514D01*
X285300Y437108D01*
X288378Y437514D01*
X291246Y438702D01*
X293709Y440591D01*
X295599Y443054D01*
X296786Y445922D01*
X297192Y449000D01*
X296786Y452078D01*
X295599Y454946D01*
X293709Y457409D01*
X291246Y459299D01*
X288378Y460486D01*
X285300Y460892D01*
D02*
G37*
G36*
X298000Y496327D02*
X295379Y495982D01*
X292937Y494970D01*
X290839Y493361D01*
X289230Y491263D01*
X288218Y488821D01*
X287873Y486200D01*
X288218Y483579D01*
X289230Y481137D01*
X290839Y479039D01*
X292937Y477430D01*
X295379Y476418D01*
X298000Y476073D01*
X300621Y476418D01*
X303063Y477430D01*
X305161Y479039D01*
X306770Y481137D01*
X307782Y483579D01*
X308127Y486200D01*
X307782Y488821D01*
X306770Y491263D01*
X305161Y493361D01*
X303063Y494970D01*
X300621Y495982D01*
X298000Y496327D01*
D02*
G37*
G36*
X508730Y509955D02*
X507510Y509794D01*
X505189Y508833D01*
X503196Y507304D01*
X501667Y505311D01*
X500706Y502990D01*
X500545Y501770D01*
X508730D01*
Y509955D01*
D02*
G37*
G36*
X519455Y499230D02*
X511270D01*
Y491045D01*
X512490Y491205D01*
X514811Y492167D01*
X516804Y493696D01*
X518333Y495689D01*
X519294Y498009D01*
X519455Y499230D01*
D02*
G37*
G36*
X583000Y532527D02*
X580379Y532182D01*
X577937Y531170D01*
X575839Y529561D01*
X574230Y527463D01*
X573218Y525021D01*
X572873Y522400D01*
X573218Y519779D01*
X574230Y517337D01*
X575839Y515239D01*
X577937Y513630D01*
X580379Y512618D01*
X583000Y512273D01*
X585621Y512618D01*
X588063Y513630D01*
X590161Y515239D01*
X591770Y517337D01*
X592782Y519779D01*
X593127Y522400D01*
X592782Y525021D01*
X591770Y527463D01*
X590161Y529561D01*
X588063Y531170D01*
X585621Y532182D01*
X583000Y532527D01*
D02*
G37*
G36*
X511270Y509955D02*
Y501770D01*
X519455D01*
X519294Y502990D01*
X518333Y505311D01*
X516804Y507304D01*
X514811Y508833D01*
X512490Y509794D01*
X511270Y509955D01*
D02*
G37*
G36*
X508730Y499230D02*
X500545D01*
X500706Y498009D01*
X501667Y495689D01*
X503196Y493696D01*
X505189Y492167D01*
X507510Y491205D01*
X508730Y491045D01*
Y499230D01*
D02*
G37*
G36*
X511270Y484555D02*
Y476370D01*
X519455D01*
X519294Y477590D01*
X518333Y479911D01*
X516804Y481904D01*
X514811Y483433D01*
X512490Y484394D01*
X511270Y484555D01*
D02*
G37*
G36*
X508730D02*
X507510Y484394D01*
X505189Y483433D01*
X503196Y481904D01*
X501667Y479911D01*
X500706Y477590D01*
X500545Y476370D01*
X508730D01*
Y484555D01*
D02*
G37*
G36*
X358000Y510122D02*
X355510Y509794D01*
X353189Y508833D01*
X351196Y507304D01*
X349667Y505311D01*
X348706Y502990D01*
X348378Y500500D01*
X348706Y498009D01*
X349667Y495689D01*
X351196Y493696D01*
X353189Y492167D01*
X355510Y491205D01*
X358000Y490878D01*
X360490Y491205D01*
X362811Y492167D01*
X364804Y493696D01*
X366333Y495689D01*
X367294Y498009D01*
X367622Y500500D01*
X367294Y502990D01*
X366333Y505311D01*
X364804Y507304D01*
X362811Y508833D01*
X360490Y509794D01*
X358000Y510122D01*
D02*
G37*
G36*
X593040Y507040D02*
X572960D01*
Y486960D01*
X593040D01*
Y507040D01*
D02*
G37*
G36*
Y425040D02*
X572960D01*
Y404960D01*
X593040D01*
Y425040D01*
D02*
G37*
G36*
X427780Y318385D02*
X410760D01*
Y307715D01*
X427780D01*
Y318385D01*
D02*
G37*
G36*
X510000Y433922D02*
X507510Y433594D01*
X505189Y432633D01*
X503196Y431104D01*
X501667Y429111D01*
X500706Y426790D01*
X500378Y424300D01*
X500706Y421810D01*
X501667Y419489D01*
X503196Y417496D01*
X505189Y415967D01*
X507510Y415005D01*
X510000Y414678D01*
X512490Y415005D01*
X514811Y415967D01*
X516804Y417496D01*
X518333Y419489D01*
X518831Y420691D01*
X523391D01*
Y306672D01*
X522188Y306264D01*
X521961Y306561D01*
X519863Y308170D01*
X517421Y309182D01*
X514800Y309527D01*
X512179Y309182D01*
X509737Y308170D01*
X507639Y306561D01*
X506030Y304463D01*
X505018Y302021D01*
X504673Y299400D01*
X505018Y296779D01*
X506030Y294337D01*
X507639Y292239D01*
X509737Y290630D01*
X512179Y289618D01*
X514800Y289273D01*
X517421Y289618D01*
X519863Y290630D01*
X521961Y292239D01*
X523570Y294337D01*
X524172Y295791D01*
X525400D01*
X526781Y296065D01*
X527952Y296848D01*
X528992Y297887D01*
X530332Y297432D01*
X530418Y296779D01*
X531430Y294337D01*
X533039Y292239D01*
X535137Y290630D01*
X537579Y289618D01*
X538930Y289441D01*
Y299400D01*
Y309359D01*
X537579Y309182D01*
X535137Y308170D01*
X533039Y306561D01*
X531879Y305049D01*
X530609Y305480D01*
Y423000D01*
X530335Y424381D01*
X529552Y425552D01*
X528252Y426852D01*
X527081Y427635D01*
X525700Y427909D01*
X518831D01*
X518333Y429111D01*
X516804Y431104D01*
X514811Y432633D01*
X512490Y433594D01*
X510000Y433922D01*
D02*
G37*
G36*
X403631Y320730D02*
X400270D01*
Y317369D01*
X400869Y317488D01*
X402453Y318547D01*
X403512Y320131D01*
X403631Y320730D01*
D02*
G37*
G36*
X397730D02*
X394369D01*
X394488Y320131D01*
X395547Y318547D01*
X397131Y317488D01*
X397730Y317369D01*
Y320730D01*
D02*
G37*
G36*
X510000Y459322D02*
X507510Y458994D01*
X505189Y458033D01*
X503196Y456504D01*
X501667Y454511D01*
X500706Y452190D01*
X500378Y449700D01*
X500706Y447210D01*
X501667Y444889D01*
X503196Y442896D01*
X505189Y441367D01*
X507510Y440406D01*
X510000Y440078D01*
X512490Y440406D01*
X514811Y441367D01*
X516804Y442896D01*
X518333Y444889D01*
X518955Y446391D01*
X544505D01*
X549391Y441505D01*
Y306001D01*
X548121Y305570D01*
X547361Y306561D01*
X545263Y308170D01*
X542821Y309182D01*
X541470Y309359D01*
Y299400D01*
Y289441D01*
X542821Y289618D01*
X545263Y290630D01*
X547361Y292239D01*
X548121Y293230D01*
X549391Y292799D01*
Y280601D01*
X548121Y280170D01*
X547361Y281161D01*
X545263Y282770D01*
X542821Y283782D01*
X541470Y283959D01*
Y274000D01*
Y264041D01*
X542821Y264218D01*
X545263Y265230D01*
X547361Y266839D01*
X548121Y267830D01*
X549391Y267399D01*
Y262609D01*
X518495D01*
X518409Y262695D01*
Y264628D01*
X519863Y265230D01*
X521961Y266839D01*
X523570Y268937D01*
X524582Y271379D01*
X524927Y274000D01*
X524582Y276621D01*
X523570Y279063D01*
X521961Y281161D01*
X519863Y282770D01*
X517421Y283782D01*
X514800Y284127D01*
X512179Y283782D01*
X509737Y282770D01*
X507639Y281161D01*
X506030Y279063D01*
X505018Y276621D01*
X504673Y274000D01*
X505018Y271379D01*
X506030Y268937D01*
X507639Y266839D01*
X509737Y265230D01*
X511191Y264628D01*
Y261200D01*
X511465Y259819D01*
X512248Y258648D01*
X514448Y256448D01*
X515619Y255665D01*
X517000Y255391D01*
X551000D01*
X552381Y255665D01*
X553552Y256448D01*
X555552Y258448D01*
X556335Y259619D01*
X556609Y261000D01*
Y443000D01*
X556335Y444381D01*
X555552Y445552D01*
X548552Y452552D01*
X547381Y453335D01*
X546000Y453609D01*
X518707D01*
X518333Y454511D01*
X516804Y456504D01*
X514811Y458033D01*
X512490Y458994D01*
X510000Y459322D01*
D02*
G37*
G36*
X538930Y272730D02*
X530241D01*
X530418Y271379D01*
X531430Y268937D01*
X533039Y266839D01*
X535137Y265230D01*
X537579Y264218D01*
X538930Y264041D01*
Y272730D01*
D02*
G37*
G36*
X464000Y309527D02*
X461379Y309182D01*
X458937Y308170D01*
X456839Y306561D01*
X455230Y304463D01*
X454218Y302021D01*
X453873Y299400D01*
X454218Y296779D01*
X455230Y294337D01*
X456839Y292239D01*
X458937Y290630D01*
X460391Y290028D01*
Y284040D01*
X453960D01*
Y263960D01*
X474040D01*
Y284040D01*
X467609D01*
Y290028D01*
X469063Y290630D01*
X471161Y292239D01*
X472770Y294337D01*
X473782Y296779D01*
X474127Y299400D01*
X473782Y302021D01*
X472770Y304463D01*
X471161Y306561D01*
X469063Y308170D01*
X466621Y309182D01*
X464000Y309527D01*
D02*
G37*
G36*
X447040Y311040D02*
X432960D01*
Y303959D01*
X427780D01*
Y305685D01*
X410760D01*
Y295015D01*
X427780D01*
Y296741D01*
X438350D01*
X439731Y297015D01*
X440902Y297798D01*
X442552Y299448D01*
X442894Y299960D01*
X447040D01*
Y311040D01*
D02*
G37*
G36*
X538930Y283959D02*
X537579Y283782D01*
X535137Y282770D01*
X533039Y281161D01*
X531430Y279063D01*
X530418Y276621D01*
X530241Y275270D01*
X538930D01*
Y283959D01*
D02*
G37*
G36*
X397730Y326631D02*
X397131Y326512D01*
X395547Y325453D01*
X394488Y323869D01*
X394369Y323270D01*
X397730D01*
Y326631D01*
D02*
G37*
G36*
X510000Y408522D02*
X507510Y408194D01*
X505189Y407233D01*
X503196Y405704D01*
X501667Y403711D01*
X500706Y401390D01*
X500378Y398900D01*
X500706Y396409D01*
X501667Y394089D01*
X503196Y392096D01*
X505189Y390567D01*
X507510Y389605D01*
X510000Y389278D01*
X512490Y389605D01*
X514811Y390567D01*
X516804Y392096D01*
X518333Y394089D01*
X519294Y396409D01*
X519622Y398900D01*
X519294Y401390D01*
X518333Y403711D01*
X516804Y405704D01*
X514811Y407233D01*
X512490Y408194D01*
X510000Y408522D01*
D02*
G37*
G36*
X358000D02*
X355510Y408194D01*
X353189Y407233D01*
X351196Y405704D01*
X349667Y403711D01*
X348706Y401390D01*
X348378Y398900D01*
X348706Y396409D01*
X349667Y394089D01*
X351196Y392096D01*
X353189Y390567D01*
X355510Y389605D01*
X358000Y389278D01*
X360490Y389605D01*
X362811Y390567D01*
X364804Y392096D01*
X366333Y394089D01*
X367294Y396409D01*
X367622Y398900D01*
X367294Y401390D01*
X366333Y403711D01*
X364804Y405704D01*
X362811Y407233D01*
X360490Y408194D01*
X358000Y408522D01*
D02*
G37*
G36*
X311700Y424892D02*
X308622Y424487D01*
X305754Y423298D01*
X303291Y421409D01*
X301402Y418946D01*
X300214Y416078D01*
X299808Y413000D01*
X300214Y409922D01*
X301402Y407054D01*
X303291Y404591D01*
X305754Y402701D01*
X308622Y401513D01*
X311700Y401108D01*
X314778Y401513D01*
X317646Y402701D01*
X320109Y404591D01*
X321998Y407054D01*
X323186Y409922D01*
X323592Y413000D01*
X323186Y416078D01*
X321998Y418946D01*
X320109Y421409D01*
X317646Y423298D01*
X314778Y424487D01*
X311700Y424892D01*
D02*
G37*
G36*
X286300D02*
X283222Y424487D01*
X280354Y423298D01*
X277891Y421409D01*
X276001Y418946D01*
X274813Y416078D01*
X274408Y413000D01*
X274813Y409922D01*
X276001Y407054D01*
X277891Y404591D01*
X280354Y402701D01*
X283222Y401513D01*
X286300Y401108D01*
X289378Y401513D01*
X292246Y402701D01*
X294709Y404591D01*
X296598Y407054D01*
X297787Y409922D01*
X298192Y413000D01*
X297787Y416078D01*
X296598Y418946D01*
X294709Y421409D01*
X292246Y423298D01*
X289378Y424487D01*
X286300Y424892D01*
D02*
G37*
G36*
X495040Y358040D02*
X474960D01*
Y337960D01*
X495040D01*
Y358040D01*
D02*
G37*
G36*
X350540Y373040D02*
X336460D01*
Y354960D01*
X347241D01*
Y341290D01*
X343310D01*
Y331955D01*
X342040Y331343D01*
X341609Y331686D01*
Y342000D01*
X341335Y343381D01*
X340552Y344552D01*
X337052Y348052D01*
X335881Y348835D01*
X334690Y349072D01*
Y350790D01*
X328314D01*
X328109Y350995D01*
Y354960D01*
X331540D01*
Y373040D01*
X317460D01*
Y354960D01*
X320891D01*
Y350790D01*
X319610D01*
Y340210D01*
X334391D01*
Y331790D01*
X319610D01*
Y321210D01*
X323541D01*
Y314040D01*
X320960D01*
Y299960D01*
X322891D01*
Y288609D01*
X315040D01*
Y294540D01*
X297960D01*
Y277460D01*
X302891D01*
Y262500D01*
X303165Y261119D01*
X303948Y259948D01*
X306448Y257448D01*
X307619Y256665D01*
X309000Y256391D01*
X443000D01*
X444381Y256665D01*
X445552Y257448D01*
X450552Y262448D01*
X451335Y263619D01*
X451609Y265000D01*
Y285000D01*
X451335Y286381D01*
X450552Y287552D01*
X449052Y289052D01*
X447881Y289835D01*
X446500Y290109D01*
X446040D01*
Y292040D01*
X431960D01*
Y290109D01*
X427780D01*
Y292985D01*
X410760D01*
Y282315D01*
X427780D01*
Y282891D01*
X431960D01*
Y280960D01*
X444391D01*
Y277040D01*
X431960D01*
Y268609D01*
X428418D01*
X427780Y269615D01*
X427780Y269879D01*
Y280285D01*
X410760D01*
Y269879D01*
X410760Y269615D01*
X410122Y268609D01*
X377878D01*
X377240Y269615D01*
X377240Y269879D01*
Y280285D01*
X360220D01*
Y269879D01*
X360220Y269615D01*
X359582Y268609D01*
X345495D01*
X345109Y268995D01*
Y277710D01*
X346059Y278104D01*
X347947Y279553D01*
X349396Y281441D01*
X350307Y283640D01*
X350618Y286000D01*
X350307Y288360D01*
X349396Y290559D01*
X347947Y292447D01*
X346059Y293896D01*
X345109Y294290D01*
Y299960D01*
X347040D01*
Y309441D01*
X360220D01*
Y307715D01*
X375391D01*
Y305685D01*
X360220D01*
Y295015D01*
X377240D01*
Y296741D01*
X377350D01*
X378731Y297015D01*
X379121Y297276D01*
X380391Y296597D01*
Y291259D01*
X377240D01*
Y292985D01*
X360220D01*
Y282315D01*
X377240D01*
Y284041D01*
X382650D01*
X384031Y284315D01*
X385202Y285098D01*
X386552Y286448D01*
X387335Y287619D01*
X387609Y289000D01*
Y326505D01*
X389495Y328391D01*
X434505D01*
X435586Y327310D01*
X435060Y326040D01*
X432960D01*
Y314960D01*
X447040D01*
Y316891D01*
X485791D01*
Y308772D01*
X484337Y308170D01*
X482239Y306561D01*
X480630Y304463D01*
X479618Y302021D01*
X479273Y299400D01*
X479618Y296779D01*
X480630Y294337D01*
X482239Y292239D01*
X484337Y290630D01*
X485791Y290028D01*
Y283372D01*
X484337Y282770D01*
X482239Y281161D01*
X480630Y279063D01*
X479618Y276621D01*
X479273Y274000D01*
X479618Y271379D01*
X480630Y268937D01*
X482239Y266839D01*
X484337Y265230D01*
X486779Y264218D01*
X489400Y263873D01*
X492021Y264218D01*
X494463Y265230D01*
X496561Y266839D01*
X498170Y268937D01*
X499182Y271379D01*
X499527Y274000D01*
X499182Y276621D01*
X498170Y279063D01*
X496561Y281161D01*
X494463Y282770D01*
X493009Y283372D01*
Y290028D01*
X494463Y290630D01*
X496561Y292239D01*
X498170Y294337D01*
X499182Y296779D01*
X499527Y299400D01*
X499182Y302021D01*
X498170Y304463D01*
X496561Y306561D01*
X494463Y308170D01*
X493009Y308772D01*
Y318600D01*
X492735Y319981D01*
X491952Y321152D01*
X490052Y323052D01*
X488881Y323835D01*
X487500Y324109D01*
X447040D01*
Y326040D01*
X443609D01*
Y328000D01*
X443335Y329381D01*
X442552Y330552D01*
X438552Y334552D01*
X437381Y335335D01*
X436000Y335609D01*
X410071D01*
X409422Y336814D01*
X409854Y338012D01*
X411421Y338218D01*
X413863Y339230D01*
X415961Y340839D01*
X417570Y342937D01*
X418582Y345379D01*
X418927Y348000D01*
X418582Y350621D01*
X417570Y353063D01*
X415961Y355161D01*
X413863Y356770D01*
X411421Y357782D01*
X408800Y358127D01*
X406179Y357782D01*
X403737Y356770D01*
X401639Y355161D01*
X400030Y353063D01*
X399018Y350621D01*
X398673Y348000D01*
X399018Y345379D01*
X400030Y342937D01*
X401194Y341419D01*
X400568Y340149D01*
X391632D01*
X391006Y341419D01*
X392170Y342937D01*
X393182Y345379D01*
X393527Y348000D01*
X393182Y350621D01*
X392170Y353063D01*
X390561Y355161D01*
X388463Y356770D01*
X386021Y357782D01*
X383400Y358127D01*
X380779Y357782D01*
X378337Y356770D01*
X376239Y355161D01*
X374630Y353063D01*
X373618Y350621D01*
X373273Y348000D01*
X373618Y345379D01*
X374630Y342937D01*
X375794Y341419D01*
X375168Y340149D01*
X358390D01*
Y341290D01*
X354459D01*
Y362150D01*
X354185Y363531D01*
X353402Y364702D01*
X351552Y366552D01*
X350540Y367229D01*
Y373040D01*
D02*
G37*
G36*
X400270Y326631D02*
Y323270D01*
X403631D01*
X403512Y323869D01*
X402453Y325453D01*
X400869Y326512D01*
X400270Y326631D01*
D02*
G37*
G36*
X459600Y358127D02*
X456979Y357782D01*
X454537Y356770D01*
X452439Y355161D01*
X450830Y353063D01*
X449818Y350621D01*
X449473Y348000D01*
X449818Y345379D01*
X450830Y342937D01*
X452439Y340839D01*
X454537Y339230D01*
X456979Y338218D01*
X459600Y337873D01*
X462221Y338218D01*
X464663Y339230D01*
X466761Y340839D01*
X468370Y342937D01*
X469382Y345379D01*
X469727Y348000D01*
X469382Y350621D01*
X468370Y353063D01*
X466761Y355161D01*
X464663Y356770D01*
X462221Y357782D01*
X459600Y358127D01*
D02*
G37*
G36*
X434200D02*
X431579Y357782D01*
X429137Y356770D01*
X427039Y355161D01*
X425430Y353063D01*
X424418Y350621D01*
X424073Y348000D01*
X424418Y345379D01*
X425430Y342937D01*
X427039Y340839D01*
X429137Y339230D01*
X431579Y338218D01*
X434200Y337873D01*
X436821Y338218D01*
X439263Y339230D01*
X441361Y340839D01*
X442970Y342937D01*
X443982Y345379D01*
X444327Y348000D01*
X443982Y350621D01*
X442970Y353063D01*
X441361Y355161D01*
X439263Y356770D01*
X436821Y357782D01*
X434200Y358127D01*
D02*
G37*
G36*
X308040Y635040D02*
X287960D01*
Y614960D01*
X308040D01*
Y635040D01*
D02*
G37*
G36*
X511270Y611555D02*
Y603370D01*
X519455D01*
X519294Y604590D01*
X518333Y606911D01*
X516804Y608904D01*
X514811Y610433D01*
X512490Y611394D01*
X511270Y611555D01*
D02*
G37*
G36*
X510000Y637122D02*
X507510Y636794D01*
X505189Y635833D01*
X503196Y634304D01*
X501667Y632311D01*
X500706Y629990D01*
X500378Y627500D01*
X500706Y625009D01*
X501667Y622689D01*
X503196Y620696D01*
X505189Y619167D01*
X507510Y618205D01*
X510000Y617878D01*
X512490Y618205D01*
X514811Y619167D01*
X516804Y620696D01*
X518333Y622689D01*
X519294Y625009D01*
X519622Y627500D01*
X519294Y629990D01*
X518333Y632311D01*
X516804Y634304D01*
X514811Y635833D01*
X512490Y636794D01*
X510000Y637122D01*
D02*
G37*
G36*
X358000Y662522D02*
X355510Y662194D01*
X353189Y661233D01*
X351196Y659704D01*
X349667Y657711D01*
X348706Y655390D01*
X348378Y652900D01*
X348706Y650409D01*
X349667Y648089D01*
X351196Y646096D01*
X353189Y644567D01*
X355510Y643605D01*
X358000Y643278D01*
X360490Y643605D01*
X362811Y644567D01*
X364804Y646096D01*
X366333Y648089D01*
X367294Y650409D01*
X367622Y652900D01*
X367294Y655390D01*
X366333Y657711D01*
X364804Y659704D01*
X362811Y661233D01*
X360490Y662194D01*
X358000Y662522D01*
D02*
G37*
G36*
X583000Y640927D02*
X580379Y640582D01*
X577937Y639570D01*
X575839Y637961D01*
X574230Y635863D01*
X573218Y633421D01*
X572873Y630800D01*
X573218Y628179D01*
X574230Y625737D01*
X575839Y623639D01*
X577937Y622030D01*
X580379Y621018D01*
X583000Y620673D01*
X585621Y621018D01*
X588063Y622030D01*
X590161Y623639D01*
X591770Y625737D01*
X592782Y628179D01*
X593127Y630800D01*
X592782Y633421D01*
X591770Y635863D01*
X590161Y637961D01*
X588063Y639570D01*
X585621Y640582D01*
X583000Y640927D01*
D02*
G37*
G36*
X508730Y600830D02*
X500545D01*
X500706Y599609D01*
X501667Y597289D01*
X503196Y595296D01*
X505189Y593767D01*
X507510Y592805D01*
X508730Y592645D01*
Y600830D01*
D02*
G37*
G36*
X358000Y611722D02*
X355510Y611394D01*
X353189Y610433D01*
X351196Y608904D01*
X349667Y606911D01*
X348706Y604590D01*
X348378Y602100D01*
X348706Y599609D01*
X349667Y597289D01*
X351196Y595296D01*
X353189Y593767D01*
X355510Y592805D01*
X358000Y592478D01*
X360490Y592805D01*
X362811Y593767D01*
X364804Y595296D01*
X366333Y597289D01*
X367294Y599609D01*
X367622Y602100D01*
X367294Y604590D01*
X366333Y606911D01*
X364804Y608904D01*
X362811Y610433D01*
X360490Y611394D01*
X358000Y611722D01*
D02*
G37*
G36*
X519455Y600830D02*
X511270D01*
Y592645D01*
X512490Y592805D01*
X514811Y593767D01*
X516804Y595296D01*
X518333Y597289D01*
X519294Y599609D01*
X519455Y600830D01*
D02*
G37*
G36*
X508730Y611555D02*
X507510Y611394D01*
X505189Y610433D01*
X503196Y608904D01*
X501667Y606911D01*
X500706Y604590D01*
X500545Y603370D01*
X508730D01*
Y611555D01*
D02*
G37*
G36*
X583000Y615527D02*
X580379Y615182D01*
X577937Y614170D01*
X575839Y612561D01*
X574230Y610463D01*
X573218Y608021D01*
X572873Y605400D01*
X573218Y602779D01*
X574230Y600337D01*
X575839Y598239D01*
X577937Y596630D01*
X580379Y595618D01*
X583000Y595273D01*
X585621Y595618D01*
X588063Y596630D01*
X590161Y598239D01*
X591770Y600337D01*
X592782Y602779D01*
X593127Y605400D01*
X592782Y608021D01*
X591770Y610463D01*
X590161Y612561D01*
X588063Y614170D01*
X585621Y615182D01*
X583000Y615527D01*
D02*
G37*
G36*
X508730Y713155D02*
X507510Y712994D01*
X505189Y712033D01*
X503196Y710504D01*
X501667Y708511D01*
X500706Y706190D01*
X500545Y704970D01*
X508730D01*
Y713155D01*
D02*
G37*
G36*
X519455Y702430D02*
X511270D01*
Y694245D01*
X512490Y694406D01*
X514811Y695367D01*
X516804Y696896D01*
X518333Y698889D01*
X519294Y701209D01*
X519455Y702430D01*
D02*
G37*
G36*
X511270Y713155D02*
Y704970D01*
X519455D01*
X519294Y706190D01*
X518333Y708511D01*
X516804Y710504D01*
X514811Y712033D01*
X512490Y712994D01*
X511270Y713155D01*
D02*
G37*
G36*
X367540Y738640D02*
X348460D01*
Y719560D01*
X367540D01*
Y738640D01*
D02*
G37*
G36*
X510000Y738722D02*
X507510Y738394D01*
X505189Y737433D01*
X503196Y735904D01*
X501667Y733911D01*
X500706Y731590D01*
X500378Y729100D01*
X500706Y726609D01*
X501667Y724289D01*
X503196Y722296D01*
X505189Y720767D01*
X507510Y719806D01*
X510000Y719478D01*
X512490Y719806D01*
X514811Y720767D01*
X516804Y722296D01*
X518333Y724289D01*
X519294Y726609D01*
X519622Y729100D01*
X519294Y731590D01*
X518333Y733911D01*
X516804Y735904D01*
X514811Y737433D01*
X512490Y738394D01*
X510000Y738722D01*
D02*
G37*
G36*
X358000Y687922D02*
X355510Y687594D01*
X353189Y686633D01*
X351196Y685104D01*
X349667Y683111D01*
X348706Y680790D01*
X348378Y678300D01*
X348706Y675809D01*
X349667Y673489D01*
X351196Y671496D01*
X353189Y669967D01*
X355510Y669006D01*
X358000Y668678D01*
X360490Y669006D01*
X362811Y669967D01*
X364804Y671496D01*
X366333Y673489D01*
X367294Y675809D01*
X367622Y678300D01*
X367294Y680790D01*
X366333Y683111D01*
X364804Y685104D01*
X362811Y686633D01*
X360490Y687594D01*
X358000Y687922D01*
D02*
G37*
G36*
X510000Y662522D02*
X507510Y662194D01*
X505189Y661233D01*
X503196Y659704D01*
X501667Y657711D01*
X500706Y655390D01*
X500378Y652900D01*
X500706Y650409D01*
X501667Y648089D01*
X503196Y646096D01*
X505189Y644567D01*
X507510Y643605D01*
X510000Y643278D01*
X512490Y643605D01*
X514811Y644567D01*
X516804Y646096D01*
X518333Y648089D01*
X519294Y650409D01*
X519622Y652900D01*
X519294Y655390D01*
X518333Y657711D01*
X516804Y659704D01*
X514811Y661233D01*
X512490Y662194D01*
X510000Y662522D01*
D02*
G37*
G36*
Y687922D02*
X507510Y687594D01*
X505189Y686633D01*
X503196Y685104D01*
X501667Y683111D01*
X500706Y680790D01*
X500378Y678300D01*
X500706Y675809D01*
X501667Y673489D01*
X503196Y671496D01*
X505189Y669967D01*
X507510Y669006D01*
X510000Y668678D01*
X512490Y669006D01*
X514811Y669967D01*
X516804Y671496D01*
X518333Y673489D01*
X519294Y675809D01*
X519622Y678300D01*
X519294Y680790D01*
X518333Y683111D01*
X516804Y685104D01*
X514811Y686633D01*
X512490Y687594D01*
X510000Y687922D01*
D02*
G37*
G36*
X508730Y702430D02*
X500545D01*
X500706Y701209D01*
X501667Y698889D01*
X503196Y696896D01*
X505189Y695367D01*
X507510Y694406D01*
X508730Y694245D01*
Y702430D01*
D02*
G37*
G36*
X358000Y713322D02*
X355510Y712994D01*
X353189Y712033D01*
X351196Y710504D01*
X349667Y708511D01*
X348706Y706190D01*
X348378Y703700D01*
X348706Y701209D01*
X349667Y698889D01*
X351196Y696896D01*
X353189Y695367D01*
X355510Y694406D01*
X358000Y694078D01*
X360490Y694406D01*
X362811Y695367D01*
X364804Y696896D01*
X366333Y698889D01*
X367294Y701209D01*
X367622Y703700D01*
X367294Y706190D01*
X366333Y708511D01*
X364804Y710504D01*
X362811Y712033D01*
X360490Y712994D01*
X358000Y713322D01*
D02*
G37*
G36*
X583000Y557927D02*
X580379Y557582D01*
X577937Y556570D01*
X575839Y554961D01*
X574230Y552863D01*
X573218Y550421D01*
X572873Y547800D01*
X573218Y545179D01*
X574230Y542737D01*
X575839Y540639D01*
X577937Y539030D01*
X580379Y538018D01*
X583000Y537673D01*
X585621Y538018D01*
X588063Y539030D01*
X590161Y540639D01*
X591770Y542737D01*
X592782Y545179D01*
X593127Y547800D01*
X592782Y550421D01*
X591770Y552863D01*
X590161Y554961D01*
X588063Y556570D01*
X585621Y557582D01*
X583000Y557927D01*
D02*
G37*
G36*
X511270Y535355D02*
Y527170D01*
X519455D01*
X519294Y528390D01*
X518333Y530711D01*
X516804Y532704D01*
X514811Y534233D01*
X512490Y535194D01*
X511270Y535355D01*
D02*
G37*
G36*
X358000Y560922D02*
X355510Y560594D01*
X353189Y559633D01*
X351196Y558104D01*
X349667Y556111D01*
X348706Y553790D01*
X348378Y551300D01*
X348706Y548810D01*
X349667Y546489D01*
X351196Y544496D01*
X353189Y542967D01*
X355510Y542006D01*
X358000Y541678D01*
X360490Y542006D01*
X362811Y542967D01*
X364804Y544496D01*
X366333Y546489D01*
X367294Y548810D01*
X367622Y551300D01*
X367294Y553790D01*
X366333Y556111D01*
X364804Y558104D01*
X362811Y559633D01*
X360490Y560594D01*
X358000Y560922D01*
D02*
G37*
G36*
X519455Y550030D02*
X511270D01*
Y541845D01*
X512490Y542006D01*
X514811Y542967D01*
X516804Y544496D01*
X518333Y546489D01*
X519294Y548810D01*
X519455Y550030D01*
D02*
G37*
G36*
X508730D02*
X500545D01*
X500706Y548810D01*
X501667Y546489D01*
X503196Y544496D01*
X505189Y542967D01*
X507510Y542006D01*
X508730Y541845D01*
Y550030D01*
D02*
G37*
G36*
Y524630D02*
X500545D01*
X500706Y523410D01*
X501667Y521089D01*
X503196Y519096D01*
X505189Y517567D01*
X507510Y516605D01*
X508730Y516445D01*
Y524630D01*
D02*
G37*
G36*
X358000Y535522D02*
X355510Y535194D01*
X353189Y534233D01*
X351196Y532704D01*
X349667Y530711D01*
X348706Y528390D01*
X348378Y525900D01*
X348706Y523410D01*
X349667Y521089D01*
X351196Y519096D01*
X353189Y517567D01*
X355510Y516605D01*
X358000Y516278D01*
X360490Y516605D01*
X362811Y517567D01*
X364804Y519096D01*
X366333Y521089D01*
X367294Y523410D01*
X367622Y525900D01*
X367294Y528390D01*
X366333Y530711D01*
X364804Y532704D01*
X362811Y534233D01*
X360490Y535194D01*
X358000Y535522D01*
D02*
G37*
G36*
X519455Y524630D02*
X511270D01*
Y516445D01*
X512490Y516605D01*
X514811Y517567D01*
X516804Y519096D01*
X518333Y521089D01*
X519294Y523410D01*
X519455Y524630D01*
D02*
G37*
G36*
X508730Y535355D02*
X507510Y535194D01*
X505189Y534233D01*
X503196Y532704D01*
X501667Y530711D01*
X500706Y528390D01*
X500545Y527170D01*
X508730D01*
Y535355D01*
D02*
G37*
G36*
X308040Y547040D02*
X287960D01*
Y526960D01*
X308040D01*
Y547040D01*
D02*
G37*
G36*
X508730Y560755D02*
X507510Y560594D01*
X505189Y559633D01*
X503196Y558104D01*
X501667Y556111D01*
X500706Y553790D01*
X500545Y552570D01*
X508730D01*
Y560755D01*
D02*
G37*
G36*
X536000Y748109D02*
X346500D01*
X345119Y747835D01*
X343948Y747052D01*
X340948Y744052D01*
X340165Y742881D01*
X339891Y741500D01*
Y630500D01*
X340165Y629119D01*
X340948Y627948D01*
X343948Y624948D01*
X345119Y624165D01*
X346500Y623891D01*
X349169D01*
X349667Y622689D01*
X351196Y620696D01*
X353189Y619167D01*
X355510Y618205D01*
X358000Y617878D01*
X360490Y618205D01*
X362811Y619167D01*
X364804Y620696D01*
X366333Y622689D01*
X367294Y625009D01*
X367622Y627500D01*
X367294Y629990D01*
X366333Y632311D01*
X364804Y634304D01*
X362811Y635833D01*
X360490Y636794D01*
X358000Y637122D01*
X355510Y636794D01*
X353189Y635833D01*
X351196Y634304D01*
X349667Y632311D01*
X349169Y631109D01*
X347995D01*
X347109Y631995D01*
Y740005D01*
X347995Y740891D01*
X534505D01*
X535141Y740255D01*
Y583000D01*
X535415Y581619D01*
X536198Y580448D01*
X539198Y577448D01*
X540369Y576665D01*
X541750Y576391D01*
X572960D01*
Y569960D01*
X593040D01*
Y590040D01*
X572960D01*
Y583609D01*
X543245D01*
X542359Y584495D01*
Y741750D01*
X542085Y743131D01*
X541302Y744302D01*
X538552Y747052D01*
X537381Y747835D01*
X536000Y748109D01*
D02*
G37*
G36*
X519455Y575430D02*
X511270D01*
Y567245D01*
X512490Y567406D01*
X514811Y568367D01*
X516804Y569896D01*
X518333Y571889D01*
X519294Y574210D01*
X519455Y575430D01*
D02*
G37*
G36*
X508730Y586155D02*
X507510Y585994D01*
X505189Y585033D01*
X503196Y583504D01*
X501667Y581511D01*
X500706Y579190D01*
X500545Y577970D01*
X508730D01*
Y586155D01*
D02*
G37*
G36*
X298000Y609727D02*
X295379Y609382D01*
X292937Y608370D01*
X290839Y606761D01*
X289230Y604663D01*
X288628Y603209D01*
X283350D01*
X281969Y602935D01*
X280798Y602152D01*
X278198Y599552D01*
X277415Y598381D01*
X277141Y597000D01*
Y514000D01*
X277415Y512619D01*
X278198Y511448D01*
X280598Y509048D01*
X281769Y508265D01*
X283150Y507991D01*
X288628D01*
X289230Y506537D01*
X290839Y504439D01*
X292937Y502830D01*
X295379Y501818D01*
X298000Y501473D01*
X300621Y501818D01*
X303063Y502830D01*
X305161Y504439D01*
X306770Y506537D01*
X307782Y508979D01*
X308127Y511600D01*
X307782Y514221D01*
X306770Y516663D01*
X305161Y518761D01*
X303063Y520370D01*
X300621Y521382D01*
X298000Y521727D01*
X295379Y521382D01*
X292937Y520370D01*
X290839Y518761D01*
X289230Y516663D01*
X288628Y515209D01*
X284645D01*
X284359Y515495D01*
Y595505D01*
X284845Y595991D01*
X288628D01*
X289230Y594537D01*
X290839Y592439D01*
X292937Y590830D01*
X295379Y589818D01*
X298000Y589473D01*
X300621Y589818D01*
X303063Y590830D01*
X305161Y592439D01*
X306770Y594537D01*
X307782Y596979D01*
X308127Y599600D01*
X307782Y602221D01*
X306770Y604663D01*
X305161Y606761D01*
X303063Y608370D01*
X300621Y609382D01*
X298000Y609727D01*
D02*
G37*
G36*
X511270Y586155D02*
Y577970D01*
X519455D01*
X519294Y579190D01*
X518333Y581511D01*
X516804Y583504D01*
X514811Y585033D01*
X512490Y585994D01*
X511270Y586155D01*
D02*
G37*
G36*
X298000Y584327D02*
X295379Y583982D01*
X292937Y582970D01*
X290839Y581361D01*
X289230Y579263D01*
X288218Y576821D01*
X287873Y574200D01*
X288218Y571579D01*
X289230Y569137D01*
X290839Y567039D01*
X292937Y565430D01*
X295379Y564418D01*
X298000Y564073D01*
X300621Y564418D01*
X303063Y565430D01*
X305161Y567039D01*
X306770Y569137D01*
X307782Y571579D01*
X308127Y574200D01*
X307782Y576821D01*
X306770Y579263D01*
X305161Y581361D01*
X303063Y582970D01*
X300621Y583982D01*
X298000Y584327D01*
D02*
G37*
G36*
X511270Y560755D02*
Y552570D01*
X519455D01*
X519294Y553790D01*
X518333Y556111D01*
X516804Y558104D01*
X514811Y559633D01*
X512490Y560594D01*
X511270Y560755D01*
D02*
G37*
G36*
X358000Y586322D02*
X355510Y585994D01*
X353189Y585033D01*
X351196Y583504D01*
X349667Y581511D01*
X348706Y579190D01*
X348378Y576700D01*
X348706Y574210D01*
X349667Y571889D01*
X351196Y569896D01*
X353189Y568367D01*
X355510Y567406D01*
X358000Y567078D01*
X360490Y567406D01*
X362811Y568367D01*
X364804Y569896D01*
X366333Y571889D01*
X367294Y574210D01*
X367622Y576700D01*
X367294Y579190D01*
X366333Y581511D01*
X364804Y583504D01*
X362811Y585033D01*
X360490Y585994D01*
X358000Y586322D01*
D02*
G37*
G36*
X508730Y575430D02*
X500545D01*
X500706Y574210D01*
X501667Y571889D01*
X503196Y569896D01*
X505189Y568367D01*
X507510Y567406D01*
X508730Y567245D01*
Y575430D01*
D02*
G37*
%LPD*%
G36*
X337448Y324448D02*
X338619Y323665D01*
X340000Y323391D01*
X375391D01*
Y318385D01*
X360220D01*
Y316659D01*
X343050D01*
X341669Y316385D01*
X340498Y315602D01*
X338948Y314052D01*
X338940Y314040D01*
X335960D01*
Y299960D01*
X337891D01*
Y294290D01*
X336941Y293896D01*
X335053Y292447D01*
X333604Y290559D01*
X332693Y288360D01*
X332382Y286000D01*
X332693Y283640D01*
X333604Y281441D01*
X335053Y279553D01*
X336941Y278104D01*
X337891Y277710D01*
Y267500D01*
X338165Y266119D01*
X338948Y264948D01*
X339113Y264783D01*
X338627Y263609D01*
X310495D01*
X310109Y263995D01*
Y277460D01*
X315040D01*
Y281391D01*
X325000D01*
X326381Y281665D01*
X327552Y282448D01*
X329052Y283948D01*
X329835Y285119D01*
X330109Y286500D01*
Y299960D01*
X332040D01*
Y314040D01*
X330759D01*
Y321210D01*
X334690D01*
Y325410D01*
X335960Y325936D01*
X337448Y324448D01*
D02*
G37*
G36*
X440270Y265960D02*
X442060D01*
X442586Y264690D01*
X441505Y263609D01*
X342764D01*
X342205Y264028D01*
X341703Y264783D01*
X341506Y265774D01*
X341109Y266367D01*
X341101Y266387D01*
X340605Y267129D01*
X340500Y267657D01*
Y269500D01*
X340750Y269750D01*
X342520D01*
Y268995D01*
X342717Y268004D01*
X343278Y267164D01*
X343664Y266778D01*
X344504Y266217D01*
X345495Y266020D01*
X359582D01*
X359862Y266075D01*
X360147Y266082D01*
X360353Y266173D01*
X360573Y266217D01*
X360810Y266375D01*
X361071Y266491D01*
X361226Y266653D01*
X361413Y266778D01*
X361572Y267015D01*
X361768Y267222D01*
X362407Y268227D01*
X362488Y268437D01*
X362612Y268624D01*
X362668Y268904D01*
X362771Y269170D01*
X363951Y269615D01*
X373509D01*
X374689Y269170D01*
X374792Y268904D01*
X374847Y268624D01*
X374972Y268437D01*
X375053Y268228D01*
X375691Y267222D01*
X375888Y267015D01*
X376047Y266778D01*
X376234Y266653D01*
X376389Y266491D01*
X376650Y266375D01*
X376887Y266217D01*
X377108Y266173D01*
X377313Y266082D01*
X377598Y266075D01*
X377878Y266020D01*
X410122D01*
X410402Y266075D01*
X410687Y266082D01*
X410892Y266173D01*
X411113Y266217D01*
X411350Y266375D01*
X411611Y266491D01*
X411766Y266653D01*
X411953Y266778D01*
X412112Y267015D01*
X412309Y267222D01*
X412947Y268227D01*
X413028Y268437D01*
X413153Y268624D01*
X413208Y268904D01*
X413311Y269170D01*
X414491Y269615D01*
X424049D01*
X425229Y269170D01*
X425332Y268904D01*
X425387Y268624D01*
X425512Y268437D01*
X425593Y268228D01*
X426231Y267222D01*
X426428Y267015D01*
X426587Y266778D01*
X426774Y266653D01*
X426929Y266491D01*
X427190Y266375D01*
X427427Y266217D01*
X427648Y266173D01*
X427853Y266082D01*
X428138Y266075D01*
X428418Y266020D01*
X431960D01*
Y265960D01*
X437730D01*
Y271500D01*
X440270D01*
Y265960D01*
D02*
G37*
G36*
X380779Y338218D02*
X383400Y337873D01*
X386021Y338218D01*
X388463Y339230D01*
X388898Y339114D01*
X389633Y338569D01*
X389801Y338318D01*
X389872Y338270D01*
X389924Y338202D01*
X390290Y337991D01*
X390641Y337757D01*
X390725Y337740D01*
X390799Y337697D01*
X391218Y337642D01*
X391632Y337560D01*
X400568D01*
X400982Y337642D01*
X401400Y337697D01*
X401475Y337740D01*
X401559Y337757D01*
X401910Y337991D01*
X402276Y338202D01*
X402328Y338270D01*
X402399Y338318D01*
X402567Y338569D01*
X402980Y338876D01*
X403840Y338563D01*
X404250Y338145D01*
Y335609D01*
X388000D01*
X386619Y335335D01*
X385448Y334552D01*
X381448Y330552D01*
X381007Y329893D01*
X379685Y329583D01*
X379425Y329637D01*
X378381Y330335D01*
X377000Y330609D01*
X359618D01*
X358390Y330710D01*
Y334730D01*
X350850D01*
Y337270D01*
X358390D01*
Y337560D01*
X375168D01*
X375582Y337642D01*
X376001Y337697D01*
X376075Y337740D01*
X376159Y337757D01*
X376510Y337991D01*
X376876Y338202D01*
X376928Y338270D01*
X376999Y338318D01*
X377167Y338569D01*
X377901Y339114D01*
X378337Y339230D01*
X380779Y338218D01*
D02*
G37*
D13*
X326500Y307000D02*
D03*
X341500D02*
D03*
D14*
X440000Y320500D02*
D03*
Y305500D02*
D03*
X439000Y286500D02*
D03*
Y271500D02*
D03*
D15*
X351390Y336540D02*
X404540D01*
X350850Y336000D02*
X351390Y336540D01*
X388000Y332000D02*
X436000D01*
X384000Y328000D02*
X388000Y332000D01*
X283350Y599600D02*
X298000D01*
X280750Y597000D02*
X283350Y599600D01*
X280750Y514000D02*
Y597000D01*
Y514000D02*
X283150Y511600D01*
X298000D01*
X408800Y348000D02*
X410000Y346800D01*
X406000Y345200D02*
X408800Y348000D01*
X406000Y338000D02*
Y345200D01*
X436000Y332000D02*
X440000Y328000D01*
X404540Y336540D02*
X406000Y338000D01*
X327150Y345500D02*
X334500D01*
X338000Y342000D01*
Y329000D02*
Y342000D01*
Y329000D02*
X340000Y327000D01*
X377000D01*
X379000Y325000D01*
Y302000D02*
Y325000D01*
X377350Y300350D02*
X379000Y302000D01*
X368730Y300350D02*
X377350D01*
X384000Y289000D02*
Y328000D01*
X382650Y287650D02*
X384000Y289000D01*
X540200Y274000D02*
Y299400D01*
X464000Y274000D02*
Y299400D01*
X489400Y274000D02*
Y299400D01*
Y318600D01*
X487500Y320500D02*
X489400Y318600D01*
X440000Y320500D02*
X487500D01*
X368730Y287650D02*
X382650D01*
X440000Y320500D02*
Y328000D01*
X344000Y265000D02*
X437000D01*
X341500Y267500D02*
X344000Y265000D01*
X341500Y267500D02*
Y286000D01*
X440000Y302000D02*
Y305500D01*
X438350Y300350D02*
X440000Y302000D01*
X419270Y300350D02*
X438350D01*
X350850Y336000D02*
Y362150D01*
X349000Y364000D02*
X350850Y362150D01*
X343500Y364000D02*
X349000D01*
X343050Y313050D02*
X368730D01*
X341500Y311500D02*
X343050Y313050D01*
X327150Y345500D02*
Y346850D01*
X324500Y349500D02*
X327150Y346850D01*
X324500Y349500D02*
Y364000D01*
X437000Y265000D02*
X439000Y267000D01*
Y271500D01*
Y286500D02*
X446500D01*
X419270Y287650D02*
X420420Y286500D01*
X439000D01*
X306500Y286000D02*
X307500Y285000D01*
X325000D01*
X326500Y286500D01*
Y307000D01*
X327150Y307650D01*
Y326500D01*
X306500Y262500D02*
X309000Y260000D01*
X306500Y262500D02*
Y286000D01*
X446500Y286500D02*
X448000Y285000D01*
X309000Y260000D02*
X443000D01*
X448000Y265000D01*
Y285000D01*
X514800Y299400D02*
X525400D01*
X510000Y424300D02*
X525700D01*
X527000Y423000D01*
X525400Y299400D02*
X527000Y301000D01*
Y423000D01*
X551000Y259000D02*
X553000Y261000D01*
Y443000D01*
X546000Y450000D02*
X553000Y443000D01*
X510300Y450000D02*
X546000D01*
X510000Y449700D02*
X510300Y450000D01*
X514800Y261200D02*
Y274000D01*
Y261200D02*
X517000Y259000D01*
X551000D01*
X341500Y286000D02*
Y311500D01*
X346500Y627500D02*
X358000D01*
X343500Y630500D02*
X346500Y627500D01*
X343500Y630500D02*
Y741500D01*
X346500Y744500D01*
X536000D01*
X538750Y741750D01*
Y583000D02*
Y741750D01*
Y583000D02*
X541750Y580000D01*
X583000D01*
D16*
X285300Y449000D02*
D03*
X310700D02*
D03*
X286300Y413000D02*
D03*
X311700D02*
D03*
D17*
X306500Y286000D02*
D03*
D18*
X341500D02*
D03*
D19*
X510000Y398900D02*
D03*
Y424300D02*
D03*
Y449700D02*
D03*
Y475100D02*
D03*
Y500500D02*
D03*
Y525900D02*
D03*
Y551300D02*
D03*
Y576700D02*
D03*
Y602100D02*
D03*
Y627500D02*
D03*
Y652900D02*
D03*
Y678300D02*
D03*
Y703700D02*
D03*
Y729100D02*
D03*
X358000Y398900D02*
D03*
Y424300D02*
D03*
Y449700D02*
D03*
Y475100D02*
D03*
Y500500D02*
D03*
Y525900D02*
D03*
Y551300D02*
D03*
Y576700D02*
D03*
Y602100D02*
D03*
Y627500D02*
D03*
Y652900D02*
D03*
Y678300D02*
D03*
Y703700D02*
D03*
D20*
Y729100D02*
D03*
D21*
X583000Y465800D02*
D03*
Y440400D02*
D03*
Y630800D02*
D03*
Y605400D02*
D03*
X298000Y486200D02*
D03*
Y511600D02*
D03*
Y574200D02*
D03*
Y599600D02*
D03*
X583000Y547800D02*
D03*
Y522400D02*
D03*
X489400Y274000D02*
D03*
X514800D02*
D03*
X540200D02*
D03*
X464000Y299400D02*
D03*
X489400D02*
D03*
X514800D02*
D03*
X540200D02*
D03*
X459600Y348000D02*
D03*
X434200D02*
D03*
X408800D02*
D03*
X383400D02*
D03*
D22*
X583000Y415000D02*
D03*
Y580000D02*
D03*
X298000Y537000D02*
D03*
Y625000D02*
D03*
X583000Y497000D02*
D03*
D23*
X464000Y274000D02*
D03*
X485000Y348000D02*
D03*
D24*
X399000Y322000D02*
D03*
D25*
X419270Y313050D02*
D03*
Y300350D02*
D03*
Y287650D02*
D03*
Y274950D02*
D03*
X368730Y313050D02*
D03*
Y300350D02*
D03*
Y287650D02*
D03*
Y274950D02*
D03*
D26*
X327150Y326500D02*
D03*
Y345500D02*
D03*
X350850Y336000D02*
D03*
D27*
X324500Y364000D02*
D03*
X343500D02*
D03*
M02*
