G04 Layer_Color=65535*
%FSLAX44Y44*%
%MOMM*%
G71*
G01*
G75*
%ADD15C,0.2000*%
%ADD28C,0.2540*%
D15*
X427650Y741800D02*
G03*
X440350Y741800I6350J0D01*
G01*
X296750Y311000D02*
X351250D01*
X296750Y261000D02*
X351250D01*
X296750D02*
Y311000D01*
X351250Y261000D02*
Y311000D01*
X378850Y386200D02*
Y741800D01*
Y386200D02*
X489150D01*
Y741800D01*
X440350D02*
X489150D01*
X378850D02*
X427650D01*
X270000Y389000D02*
X314250D01*
X270000Y367000D02*
Y389000D01*
X314250Y368500D02*
Y389000D01*
X312750Y367000D02*
X314250Y368500D01*
X270000Y367000D02*
X312750D01*
X411000Y266000D02*
Y310250D01*
Y266000D02*
X433000D01*
X411000Y310250D02*
X431500D01*
X433000Y308750D01*
Y266000D02*
Y308750D01*
X301500Y316500D02*
X344500D01*
Y348000D02*
Y359500D01*
Y316500D02*
Y328000D01*
X301500Y316500D02*
Y328000D01*
Y348000D02*
Y355500D01*
X305500Y359500D01*
X344590D01*
X570300Y402300D02*
X595700D01*
X570300D02*
Y478500D01*
X595700D01*
Y402300D02*
Y478500D01*
X570300Y567300D02*
X595700D01*
X570300D02*
Y643500D01*
X595700D01*
Y567300D02*
Y643500D01*
X285300Y549700D02*
X310700D01*
Y473500D02*
Y549700D01*
X285300Y473500D02*
X310700D01*
X285300D02*
Y549700D01*
Y744200D02*
X310700D01*
Y668000D02*
Y744200D01*
X285300Y668000D02*
X310700D01*
X285300D02*
Y744200D01*
X570300Y484300D02*
X595700D01*
X570300D02*
Y560500D01*
X595700D01*
Y484300D02*
Y560500D01*
X552900Y261300D02*
Y312100D01*
X451300D02*
X552900D01*
X451300Y261300D02*
Y312100D01*
Y261300D02*
X552900D01*
X364750Y294750D02*
X391250D01*
Y309250D01*
X364750D02*
X391250D01*
X364750Y294750D02*
Y309250D01*
X391500Y268000D02*
Y282000D01*
X365500Y268000D02*
X391500D01*
X365500D02*
Y282000D01*
X391500D01*
X270000Y359000D02*
X284000D01*
Y333000D02*
Y359000D01*
X270000Y333000D02*
X284000D01*
X270000D02*
Y359000D01*
X364750Y314750D02*
X391250D01*
Y329250D01*
X364750D02*
X391250D01*
X364750Y314750D02*
Y329250D01*
X370700Y335300D02*
Y360700D01*
X497700D01*
X370700Y335300D02*
X497700D01*
Y360700D01*
X285300Y559600D02*
X310700D01*
X285300D02*
Y661200D01*
X310700Y559600D02*
Y661200D01*
X285300D02*
X310700D01*
D28*
X323000Y436500D02*
Y461500D01*
X273000D02*
X323000D01*
X273000Y436500D02*
Y461500D01*
Y436500D02*
X323000D01*
X324000Y400500D02*
Y425500D01*
X274000D02*
X324000D01*
X274000Y400500D02*
Y425500D01*
Y400500D02*
X324000D01*
X534804Y352157D02*
X532265Y349618D01*
Y344539D01*
X534804Y342000D01*
X544961D01*
X547500Y344539D01*
Y349618D01*
X544961Y352157D01*
X539883D01*
Y347078D01*
X537343Y359774D02*
Y364853D01*
X539883Y367392D01*
X547500D01*
Y359774D01*
X544961Y357235D01*
X542422Y359774D01*
Y367392D01*
X547500Y372470D02*
Y377548D01*
Y375009D01*
X532265D01*
Y372470D01*
X547500Y385166D02*
Y390244D01*
Y387705D01*
X537343D01*
Y385166D01*
X547500Y397862D02*
Y402940D01*
Y400401D01*
X532265D01*
Y397862D01*
X547500Y418175D02*
Y413097D01*
X544961Y410558D01*
X539883D01*
X537343Y413097D01*
Y418175D01*
X539883Y420714D01*
X542422D01*
Y410558D01*
X547500Y428332D02*
Y433410D01*
X544961Y435950D01*
X539883D01*
X537343Y433410D01*
Y428332D01*
X539883Y425793D01*
X544961D01*
X547500Y428332D01*
X532265Y456263D02*
X547500D01*
X539883D01*
Y466420D01*
X532265D01*
X547500D01*
X537343Y474037D02*
Y479116D01*
X539883Y481655D01*
X547500D01*
Y474037D01*
X544961Y471498D01*
X542422Y474037D01*
Y481655D01*
X547500Y486733D02*
X537343D01*
Y494351D01*
X539883Y496890D01*
X547500D01*
X532265Y512125D02*
X547500D01*
Y504507D01*
X544961Y501968D01*
X539883D01*
X537343Y504507D01*
Y512125D01*
X534804Y542595D02*
X532265Y540056D01*
Y534978D01*
X534804Y532438D01*
X544961D01*
X547500Y534978D01*
Y540056D01*
X544961Y542595D01*
X547500Y550213D02*
Y555291D01*
X544961Y557830D01*
X539883D01*
X537343Y555291D01*
Y550213D01*
X539883Y547673D01*
X544961D01*
X547500Y550213D01*
Y562909D02*
X537343D01*
Y570526D01*
X539883Y573065D01*
X547500D01*
X534804Y580683D02*
X537343D01*
Y578144D01*
Y583222D01*
Y580683D01*
X544961D01*
X547500Y583222D01*
X537343Y590840D02*
X547500D01*
X542422D01*
X539883Y593379D01*
X537343Y595918D01*
Y598457D01*
X547500Y608614D02*
Y613692D01*
X544961Y616231D01*
X539883D01*
X537343Y613692D01*
Y608614D01*
X539883Y606075D01*
X544961D01*
X547500Y608614D01*
Y621310D02*
Y626388D01*
Y623849D01*
X532265D01*
Y621310D01*
Y649241D02*
X547500D01*
Y656858D01*
X544961Y659397D01*
X542422D01*
X539883Y656858D01*
Y649241D01*
Y656858D01*
X537343Y659397D01*
X534804D01*
X532265Y656858D01*
Y649241D01*
X547500Y667015D02*
Y672093D01*
X544961Y674632D01*
X539883D01*
X537343Y672093D01*
Y667015D01*
X539883Y664476D01*
X544961D01*
X547500Y667015D01*
X537343Y682250D02*
Y687328D01*
X539883Y689867D01*
X547500D01*
Y682250D01*
X544961Y679711D01*
X542422Y682250D01*
Y689867D01*
X537343Y694946D02*
X547500D01*
X542422D01*
X539883Y697485D01*
X537343Y700024D01*
Y702563D01*
X532265Y720338D02*
X547500D01*
Y712720D01*
X544961Y710181D01*
X539883D01*
X537343Y712720D01*
Y720338D01*
X591000Y661000D02*
X577005D01*
Y667998D01*
X579337Y670330D01*
X584002D01*
X586335Y667998D01*
Y661000D01*
Y665665D02*
X591000Y670330D01*
X577005Y684326D02*
Y674995D01*
X591000D01*
Y684326D01*
X584002Y674995D02*
Y679661D01*
X577005Y688991D02*
X586335D01*
X591000Y693656D01*
X586335Y698321D01*
X577005D01*
X591000Y702987D02*
X581670D01*
X577005Y707652D01*
X581670Y712317D01*
X591000D01*
X584002D01*
Y702987D01*
X591000Y716982D02*
Y721647D01*
Y719314D01*
X577005D01*
X579337Y716982D01*
M02*
