G04 Layer_Color=65535*
%FSLAX44Y44*%
%MOMM*%
G71*
G01*
G75*
%ADD15C,0.2000*%
%ADD28C,0.2500*%
%ADD29C,0.2540*%
D15*
X427650Y741800D02*
G03*
X440350Y741800I6350J0D01*
G01*
X571300Y261300D02*
X596700D01*
X571300D02*
Y337500D01*
X596700D01*
Y261300D02*
Y337500D01*
X571300Y451300D02*
X596700D01*
X571300D02*
Y527500D01*
X596700D01*
Y451300D02*
Y527500D01*
X273300Y546700D02*
X298700D01*
Y470500D02*
Y546700D01*
X273300Y470500D02*
X298700D01*
X273300D02*
Y546700D01*
Y633700D02*
X298700D01*
Y557500D02*
Y633700D01*
X273300Y557500D02*
X298700D01*
X273300D02*
Y633700D01*
X571300Y356300D02*
X596700D01*
X571300D02*
Y432500D01*
X596700D01*
Y356300D02*
Y432500D01*
X262300Y269200D02*
X287700D01*
Y354800D01*
X262300D02*
X287700D01*
X262300Y269200D02*
Y354800D01*
Y445800D02*
X287700D01*
X262300Y360200D02*
Y445800D01*
Y360200D02*
X287700D01*
Y445800D01*
X274300Y666900D02*
Y717700D01*
Y666900D02*
X325100D01*
X274300Y717700D02*
X325100D01*
Y666900D02*
Y717700D01*
X552900Y261300D02*
Y312100D01*
X451300D02*
X552900D01*
X451300Y261300D02*
Y312100D01*
Y261300D02*
X552900D01*
X303500Y359500D02*
X342590D01*
X299500Y355500D02*
X303500Y359500D01*
X299500Y348000D02*
Y355500D01*
Y316500D02*
Y328000D01*
X342500Y316500D02*
Y328000D01*
Y348000D02*
Y359500D01*
X299500Y316500D02*
X342500D01*
X297000Y311000D02*
X350750D01*
X297000Y261000D02*
X350750D01*
X297000D02*
Y311000D01*
X351000Y261000D02*
Y311000D01*
X378850Y386200D02*
Y741800D01*
Y386200D02*
X489150D01*
Y741800D01*
X440350D02*
X489150D01*
X378850D02*
X427650D01*
X388750Y279750D02*
Y306250D01*
Y279750D02*
X403250D01*
Y306250D01*
X388750D02*
X403250D01*
X383000Y258000D02*
Y272000D01*
X409000D01*
Y258000D02*
Y272000D01*
X383000Y258000D02*
X409000D01*
X357000Y333000D02*
X401250D01*
X357000Y311000D02*
Y333000D01*
X401250Y312500D02*
Y333000D01*
X399750Y311000D02*
X401250Y312500D01*
X357000Y311000D02*
X399750D01*
X412000Y285000D02*
Y329250D01*
Y285000D02*
X434000D01*
X412000Y329250D02*
X432500D01*
X434000Y327750D01*
Y285000D02*
Y327750D01*
X358000Y291000D02*
Y305000D01*
X384000D01*
Y291000D02*
Y305000D01*
X358000Y291000D02*
X384000D01*
X303750Y391750D02*
X330250D01*
Y406250D01*
X303750D02*
X330250D01*
X303750Y391750D02*
Y406250D01*
Y416750D02*
X330250D01*
Y431250D01*
X303750D02*
X330250D01*
X303750Y416750D02*
Y431250D01*
X357750Y257750D02*
Y284250D01*
Y257750D02*
X372250D01*
Y284250D01*
X357750D02*
X372250D01*
X369700Y351300D02*
Y376700D01*
X496700D01*
X369700Y351300D02*
X496700D01*
Y376700D01*
D28*
X276260Y264390D02*
G03*
X276260Y264390I-1250J0D01*
G01*
X276240Y450610D02*
G03*
X276240Y450610I-1250J0D01*
G01*
D29*
X540304Y364157D02*
X537765Y361618D01*
Y356539D01*
X540304Y354000D01*
X550461D01*
X553000Y356539D01*
Y361618D01*
X550461Y364157D01*
X545382D01*
Y359078D01*
X542843Y371774D02*
Y376853D01*
X545382Y379392D01*
X553000D01*
Y371774D01*
X550461Y369235D01*
X547922Y371774D01*
Y379392D01*
X553000Y384470D02*
Y389548D01*
Y387009D01*
X537765D01*
Y384470D01*
X553000Y397166D02*
Y402244D01*
Y399705D01*
X542843D01*
Y397166D01*
X553000Y409862D02*
Y414940D01*
Y412401D01*
X537765D01*
Y409862D01*
X553000Y430175D02*
Y425097D01*
X550461Y422558D01*
X545382D01*
X542843Y425097D01*
Y430175D01*
X545382Y432715D01*
X547922D01*
Y422558D01*
X553000Y440332D02*
Y445410D01*
X550461Y447950D01*
X545382D01*
X542843Y445410D01*
Y440332D01*
X545382Y437793D01*
X550461D01*
X553000Y440332D01*
X537765Y468263D02*
X553000D01*
X545382D01*
Y478420D01*
X537765D01*
X553000D01*
X542843Y486037D02*
Y491116D01*
X545382Y493655D01*
X553000D01*
Y486037D01*
X550461Y483498D01*
X547922Y486037D01*
Y493655D01*
X553000Y498733D02*
X542843D01*
Y506351D01*
X545382Y508890D01*
X553000D01*
X537765Y524125D02*
X553000D01*
Y516507D01*
X550461Y513968D01*
X545382D01*
X542843Y516507D01*
Y524125D01*
X540304Y554595D02*
X537765Y552056D01*
Y546978D01*
X540304Y544438D01*
X550461D01*
X553000Y546978D01*
Y552056D01*
X550461Y554595D01*
X553000Y562213D02*
Y567291D01*
X550461Y569830D01*
X545382D01*
X542843Y567291D01*
Y562213D01*
X545382Y559674D01*
X550461D01*
X553000Y562213D01*
Y574908D02*
X542843D01*
Y582526D01*
X545382Y585065D01*
X553000D01*
X540304Y592683D02*
X542843D01*
Y590144D01*
Y595222D01*
Y592683D01*
X550461D01*
X553000Y595222D01*
X542843Y602840D02*
X553000D01*
X547922D01*
X545382Y605379D01*
X542843Y607918D01*
Y610457D01*
X553000Y620614D02*
Y625692D01*
X550461Y628231D01*
X545382D01*
X542843Y625692D01*
Y620614D01*
X545382Y618075D01*
X550461D01*
X553000Y620614D01*
Y633310D02*
Y638388D01*
Y635849D01*
X537765D01*
Y633310D01*
Y661241D02*
X553000D01*
Y668858D01*
X550461Y671397D01*
X547922D01*
X545382Y668858D01*
Y661241D01*
Y668858D01*
X542843Y671397D01*
X540304D01*
X537765Y668858D01*
Y661241D01*
X553000Y679015D02*
Y684093D01*
X550461Y686632D01*
X545382D01*
X542843Y684093D01*
Y679015D01*
X545382Y676476D01*
X550461D01*
X553000Y679015D01*
X542843Y694250D02*
Y699328D01*
X545382Y701868D01*
X553000D01*
Y694250D01*
X550461Y691711D01*
X547922Y694250D01*
Y701868D01*
X542843Y706946D02*
X553000D01*
X547922D01*
X545382Y709485D01*
X542843Y712024D01*
Y714563D01*
X537765Y732338D02*
X553000D01*
Y724720D01*
X550461Y722181D01*
X545382D01*
X542843Y724720D01*
Y732338D01*
X589000Y545000D02*
X575005D01*
Y551998D01*
X577337Y554330D01*
X582002D01*
X584335Y551998D01*
Y545000D01*
Y549665D02*
X589000Y554330D01*
X575005Y568326D02*
Y558996D01*
X589000D01*
Y568326D01*
X582002Y558996D02*
Y563661D01*
X575005Y572991D02*
X584335D01*
X589000Y577656D01*
X584335Y582321D01*
X575005D01*
X589000Y586986D02*
X579670D01*
X575005Y591652D01*
X579670Y596317D01*
X589000D01*
X582002D01*
Y586986D01*
X589000Y600982D02*
Y605647D01*
Y603315D01*
X575005D01*
X577337Y600982D01*
X589000Y626640D02*
Y631305D01*
Y628973D01*
X575005D01*
X577337Y626640D01*
Y638303D02*
X575005Y640636D01*
Y645301D01*
X577337Y647634D01*
X586667D01*
X589000Y645301D01*
Y640636D01*
X586667Y638303D01*
X577337D01*
X589000Y652299D02*
X579670Y661629D01*
X577337Y666294D02*
X575005Y668627D01*
Y673292D01*
X577337Y675624D01*
X586667D01*
X589000Y673292D01*
Y668627D01*
X586667Y666294D01*
X577337D01*
X589000Y689620D02*
Y680290D01*
X579670Y689620D01*
X577337D01*
X575005Y687287D01*
Y682622D01*
X577337Y680290D01*
X589000Y694285D02*
X579670Y703615D01*
X589000Y708280D02*
Y712946D01*
Y710613D01*
X575005D01*
X577337Y708280D01*
X575005Y729274D02*
X577337Y724609D01*
X582002Y719943D01*
X586667D01*
X589000Y722276D01*
Y726941D01*
X586667Y729274D01*
X584335D01*
X582002Y726941D01*
Y719943D01*
M02*
