G04 Layer_Physical_Order=1*
G04 Layer_Color=255*
%FSLAX44Y44*%
%MOMM*%
G71*
G01*
G75*
%ADD10R,1.8000X0.6500*%
%ADD11R,0.9000X0.6000*%
%ADD12R,0.6000X0.9000*%
%ADD13R,0.9000X1.6000*%
%ADD14R,1.6000X0.9000*%
%ADD15C,0.2000*%
%ADD16C,1.5000*%
%ADD17R,1.5000X1.5000*%
%ADD18C,1.8500*%
%ADD19R,1.8500X1.8500*%
%ADD20R,1.5000X1.5000*%
%ADD21R,1.2000X1.2000*%
%ADD22C,1.2000*%
%ADD23O,2.5000X1.2000*%
%ADD24R,2.5000X1.2000*%
G36*
X334410Y382255D02*
X334460Y382005D01*
X334460Y381750D01*
X334484Y381691D01*
X334488Y381627D01*
X334488Y381627D01*
X334570Y381453D01*
X334607Y381264D01*
X334628Y381232D01*
X334639Y381207D01*
X334639Y381206D01*
X334639Y381206D01*
X334760Y381026D01*
X334846Y380816D01*
X334868Y380785D01*
X334901Y380751D01*
X334919Y380713D01*
X334969Y380668D01*
X335059Y380578D01*
X335200Y380366D01*
X335201Y380366D01*
X335201Y380366D01*
X335275Y380292D01*
X335321Y380261D01*
X335392Y380190D01*
X335429Y380165D01*
X335456Y380129D01*
X335595Y380042D01*
X335667Y379970D01*
X335714Y379939D01*
X335784Y379868D01*
X335816Y379847D01*
X336051Y379749D01*
X336232Y379628D01*
X336233Y379628D01*
X336264Y379607D01*
X336311Y379598D01*
X336314Y379596D01*
X336314Y379596D01*
X336349Y379590D01*
X336514Y379558D01*
X336749Y379460D01*
X337005Y379460D01*
X337255Y379410D01*
X428693D01*
X429591Y378673D01*
Y373372D01*
X428137Y372770D01*
X426039Y371161D01*
X424430Y369063D01*
X423418Y366621D01*
X423073Y364000D01*
X423418Y361379D01*
X424430Y358937D01*
X426039Y356839D01*
X428137Y355230D01*
X430579Y354218D01*
X433200Y353873D01*
X435821Y354218D01*
X438263Y355230D01*
X440361Y356839D01*
X441970Y358937D01*
X442982Y361379D01*
X443327Y364000D01*
X442982Y366621D01*
X441970Y369063D01*
X440361Y371161D01*
X438263Y372770D01*
X436809Y373372D01*
Y379410D01*
X454991D01*
Y373372D01*
X453537Y372770D01*
X451439Y371161D01*
X449830Y369063D01*
X448818Y366621D01*
X448473Y364000D01*
X448818Y361379D01*
X449830Y358937D01*
X451439Y356839D01*
X453537Y355230D01*
X455979Y354218D01*
X458600Y353873D01*
X461221Y354218D01*
X463663Y355230D01*
X465761Y356839D01*
X467370Y358937D01*
X468382Y361379D01*
X468727Y364000D01*
X468382Y366621D01*
X467370Y369063D01*
X465761Y371161D01*
X463663Y372770D01*
X462209Y373372D01*
Y379410D01*
X501410D01*
Y343590D01*
X487380D01*
X486827Y344860D01*
X487335Y345619D01*
X487609Y347000D01*
Y353960D01*
X494040D01*
Y374040D01*
X473960D01*
Y353960D01*
X480391D01*
Y348609D01*
X398000D01*
X396619Y348335D01*
X395448Y347552D01*
X394000Y346104D01*
X392552Y347552D01*
X391381Y348335D01*
X390000Y348609D01*
X309000D01*
X307619Y348335D01*
X306448Y347552D01*
X304448Y345552D01*
X303665Y344381D01*
X303548Y343790D01*
X295460D01*
Y341009D01*
X286266D01*
X285299Y343346D01*
X284797Y344000D01*
X283409Y345809D01*
X280946Y347699D01*
X278609Y348666D01*
Y366334D01*
X280946Y367301D01*
X283409Y369191D01*
X285299Y371654D01*
X286486Y374522D01*
X286892Y377600D01*
X286486Y380678D01*
X285299Y383546D01*
X283791Y385511D01*
X284417Y386781D01*
X322000D01*
X323381Y387055D01*
X324552Y387838D01*
X327052Y390338D01*
X327835Y391509D01*
X327924Y391960D01*
X330040D01*
Y394391D01*
X334410D01*
Y382255D01*
D02*
G37*
G36*
X269054Y367301D02*
X271922Y366114D01*
X275000Y365708D01*
X275065Y365717D01*
X276020Y364879D01*
Y350121D01*
X275065Y349283D01*
X275000Y349292D01*
X271922Y348886D01*
X269054Y347699D01*
X266879Y346030D01*
X265609Y346455D01*
Y368545D01*
X266879Y368970D01*
X269054Y367301D01*
D02*
G37*
G36*
X546492Y715999D02*
X546746D01*
X546757Y715992D01*
X547166Y715822D01*
X547179Y715820D01*
X547182Y715818D01*
X547361Y715638D01*
X547362Y715638D01*
X551639Y711361D01*
X551639Y711361D01*
X551640Y711360D01*
X551640Y711360D01*
X551820Y711180D01*
X551823Y711166D01*
X551992Y710757D01*
X552000Y710745D01*
X552000Y710745D01*
X552000Y710491D01*
X552000Y710490D01*
Y710490D01*
X552000Y710489D01*
Y618609D01*
X520671D01*
X520418Y619879D01*
X520807Y620040D01*
X522591Y621409D01*
X523960Y623193D01*
X524820Y625271D01*
X524947Y626230D01*
X495053D01*
X495112Y625789D01*
X493909Y625196D01*
X489052Y630052D01*
X487881Y630835D01*
X486500Y631109D01*
X372249D01*
X371960Y631807D01*
X370591Y633591D01*
X368807Y634960D01*
X366729Y635820D01*
X364500Y636114D01*
X351500D01*
X349271Y635820D01*
X347193Y634960D01*
X345409Y633591D01*
X344040Y631807D01*
X343180Y629729D01*
X342886Y627500D01*
X343180Y625271D01*
X344040Y623193D01*
X345409Y621409D01*
X347193Y620040D01*
X349271Y619180D01*
X351500Y618886D01*
X364500D01*
X366729Y619180D01*
X368807Y620040D01*
X370591Y621409D01*
X371960Y623193D01*
X372249Y623891D01*
X485005D01*
X496448Y612448D01*
X497619Y611665D01*
X499000Y611391D01*
X500295D01*
X500547Y610121D01*
X499193Y609560D01*
X497409Y608191D01*
X496040Y606407D01*
X495180Y604329D01*
X495053Y603370D01*
X524947D01*
X524820Y604329D01*
X523960Y606407D01*
X522591Y608191D01*
X520807Y609560D01*
X519453Y610121D01*
X519705Y611391D01*
X551102D01*
X552000Y610493D01*
X552000Y271647D01*
Y262396D01*
X551957Y262200D01*
X551956Y262174D01*
X551946Y262149D01*
X551907Y261952D01*
X551748Y261588D01*
X551633Y261424D01*
X551616Y261384D01*
X551575Y261366D01*
X551411Y261252D01*
X551048Y261093D01*
X550850Y261054D01*
X550826Y261044D01*
X550800Y261043D01*
X550603Y261000D01*
X545047D01*
X544833Y260957D01*
X544614Y260963D01*
X543599Y260791D01*
X543576Y260782D01*
X543552Y260783D01*
X543549Y260782D01*
X543367Y260709D01*
X543361D01*
X543359Y260708D01*
X543357Y260707D01*
X543354D01*
X543350Y260706D01*
X543350Y260706D01*
X543349D01*
X543282Y260679D01*
X543039Y260630D01*
X542871Y260560D01*
X542868Y260559D01*
X542864Y260558D01*
X542863Y260558D01*
X542752Y260483D01*
X542682Y260464D01*
X542610Y260408D01*
X542471Y260355D01*
X542447Y260333D01*
X542425Y260323D01*
X542425Y260323D01*
X542416Y260320D01*
X542416Y260319D01*
X542416Y260319D01*
X542407Y260313D01*
X542226Y260133D01*
X542061Y260029D01*
X542048Y260011D01*
X542031Y259999D01*
X542030Y259998D01*
X542024Y259995D01*
X541967Y259909D01*
X541884Y259844D01*
X541831Y259751D01*
X541735Y259661D01*
X541732Y259656D01*
X541731Y259654D01*
X541729Y259652D01*
X541715Y259622D01*
X541692Y259599D01*
X541622Y259428D01*
X541612Y259419D01*
X541590Y259365D01*
X541476Y259204D01*
X541469Y259188D01*
X541469Y259188D01*
X541469Y259188D01*
X541401Y259036D01*
X541386Y258971D01*
X541384Y258966D01*
X541383Y258966D01*
X541381Y258950D01*
X541347Y258799D01*
X541318Y258734D01*
X541318Y258732D01*
X541317Y258729D01*
X541315Y258722D01*
X541315Y258700D01*
X541226Y258485D01*
X541145Y258079D01*
X541051Y257853D01*
X541051Y257853D01*
X540953Y257617D01*
X540928Y257579D01*
X540872Y257535D01*
X540836Y257495D01*
X540756Y257353D01*
X540641Y257239D01*
X540633Y257227D01*
X540521Y256958D01*
X540435Y256830D01*
X540425Y256778D01*
X540331Y256614D01*
X540309Y256448D01*
X540245Y256294D01*
X540245Y255952D01*
X540201Y255613D01*
X540224Y255270D01*
X539226Y254052D01*
X539081Y254000D01*
X418000Y254000D01*
X409000D01*
Y257960D01*
X409040D01*
Y262960D01*
Y272040D01*
X409000D01*
Y315896D01*
X410995Y317891D01*
X412460D01*
Y314460D01*
X433540D01*
Y317891D01*
X456005D01*
X460391Y313505D01*
Y308772D01*
X458937Y308170D01*
X456839Y306561D01*
X455230Y304463D01*
X454218Y302021D01*
X453873Y299400D01*
X454218Y296779D01*
X455230Y294337D01*
X456839Y292239D01*
X458937Y290630D01*
X460391Y290028D01*
Y284040D01*
X453960D01*
Y263960D01*
X474040D01*
Y284040D01*
X467609D01*
Y290028D01*
X469063Y290630D01*
X471161Y292239D01*
X472770Y294337D01*
X473782Y296779D01*
X474127Y299400D01*
X473782Y302021D01*
X472770Y304463D01*
X471161Y306561D01*
X469063Y308170D01*
X467609Y308772D01*
Y315000D01*
X467335Y316381D01*
X466552Y317552D01*
X460052Y324052D01*
X458881Y324835D01*
X457500Y325109D01*
X433540D01*
Y328540D01*
X412460D01*
Y325109D01*
X409500D01*
X409000Y325520D01*
Y325010D01*
X408119Y324835D01*
X406948Y324052D01*
X402448Y319552D01*
X401810Y318598D01*
X400804Y318708D01*
X400540Y318809D01*
Y332540D01*
X399609D01*
Y341000D01*
X504000D01*
Y382000D01*
X462209D01*
Y516400D01*
X461935Y517781D01*
X461152Y518952D01*
X451652Y528452D01*
X450481Y529235D01*
X449100Y529509D01*
X372249D01*
X371960Y530207D01*
X370591Y531991D01*
X368807Y533360D01*
X366729Y534220D01*
X364500Y534514D01*
X351500D01*
X349271Y534220D01*
X347193Y533360D01*
X345409Y531991D01*
X344040Y530207D01*
X343180Y528129D01*
X342886Y525900D01*
X343180Y523671D01*
X344040Y521593D01*
X345409Y519809D01*
X347193Y518440D01*
X349271Y517580D01*
X351500Y517286D01*
X364500D01*
X366729Y517580D01*
X368807Y518440D01*
X370591Y519809D01*
X371960Y521593D01*
X372249Y522291D01*
X447605D01*
X454991Y514905D01*
Y382000D01*
X436809D01*
Y494800D01*
X436535Y496181D01*
X435752Y497352D01*
X430052Y503052D01*
X428881Y503835D01*
X427500Y504109D01*
X372249D01*
X371960Y504807D01*
X370591Y506591D01*
X368807Y507960D01*
X366729Y508820D01*
X364500Y509114D01*
X351500D01*
X349271Y508820D01*
X347193Y507960D01*
X345409Y506591D01*
X344040Y504807D01*
X343180Y502729D01*
X342886Y500500D01*
X343180Y498271D01*
X344040Y496193D01*
X345409Y494409D01*
X347193Y493040D01*
X349271Y492180D01*
X351500Y491886D01*
X364500D01*
X366729Y492180D01*
X368807Y493040D01*
X370591Y494409D01*
X371960Y496193D01*
X372249Y496891D01*
X426005D01*
X429591Y493305D01*
Y382000D01*
X337510D01*
X337510Y382000D01*
X337000Y383164D01*
Y394391D01*
X344196D01*
X345409Y392809D01*
X347193Y391440D01*
X349271Y390580D01*
X351500Y390286D01*
X364500D01*
X366729Y390580D01*
X368807Y391440D01*
X370591Y392809D01*
X371960Y394593D01*
X372820Y396671D01*
X373114Y398900D01*
X372820Y401129D01*
X371960Y403207D01*
X370591Y404991D01*
X368807Y406360D01*
X366729Y407220D01*
X364500Y407514D01*
X351500D01*
X349271Y407220D01*
X347193Y406360D01*
X345409Y404991D01*
X344040Y403207D01*
X343379Y401609D01*
X337000D01*
Y420391D01*
X343876D01*
X344040Y419993D01*
X345409Y418209D01*
X347193Y416840D01*
X349271Y415980D01*
X351500Y415686D01*
X364500D01*
X366729Y415980D01*
X368807Y416840D01*
X370591Y418209D01*
X371960Y419993D01*
X372820Y422071D01*
X373114Y424300D01*
X372820Y426529D01*
X371960Y428607D01*
X370591Y430391D01*
X368807Y431760D01*
X366729Y432620D01*
X364500Y432914D01*
X351500D01*
X349271Y432620D01*
X347193Y431760D01*
X345409Y430391D01*
X344040Y428607D01*
X343627Y427609D01*
X337000D01*
Y471491D01*
X343751D01*
X344040Y470793D01*
X345409Y469009D01*
X347193Y467640D01*
X349271Y466780D01*
X351500Y466486D01*
X364500D01*
X366729Y466780D01*
X368807Y467640D01*
X370591Y469009D01*
X371960Y470793D01*
X372820Y472871D01*
X373114Y475100D01*
X372820Y477329D01*
X371960Y479407D01*
X370591Y481191D01*
X368807Y482560D01*
X366729Y483420D01*
X364500Y483714D01*
X351500D01*
X349271Y483420D01*
X347193Y482560D01*
X345409Y481191D01*
X344040Y479407D01*
X343751Y478709D01*
X337000D01*
Y547691D01*
X343751D01*
X344040Y546993D01*
X345409Y545209D01*
X347193Y543840D01*
X349271Y542980D01*
X351500Y542686D01*
X364500D01*
X366729Y542980D01*
X368807Y543840D01*
X370591Y545209D01*
X371960Y546993D01*
X372820Y549071D01*
X373114Y551300D01*
X372820Y553529D01*
X371960Y555607D01*
X370591Y557391D01*
X368807Y558760D01*
X366729Y559620D01*
X364500Y559914D01*
X351500D01*
X349271Y559620D01*
X347193Y558760D01*
X345409Y557391D01*
X344040Y555607D01*
X343751Y554909D01*
X337000D01*
Y675991D01*
X343213D01*
X344040Y673993D01*
X345409Y672209D01*
X347193Y670840D01*
X349271Y669980D01*
X351500Y669686D01*
X364500D01*
X366729Y669980D01*
X368807Y670840D01*
X370591Y672209D01*
X371960Y673993D01*
X372820Y676071D01*
X373114Y678300D01*
X372820Y680529D01*
X371960Y682607D01*
X370591Y684391D01*
X368807Y685760D01*
X366729Y686620D01*
X364500Y686914D01*
X351500D01*
X349271Y686620D01*
X347193Y685760D01*
X345409Y684391D01*
X344503Y683209D01*
X337000D01*
Y700091D01*
X343751D01*
X344040Y699393D01*
X345409Y697609D01*
X347193Y696240D01*
X349271Y695380D01*
X351500Y695086D01*
X364500D01*
X366729Y695380D01*
X368807Y696240D01*
X370591Y697609D01*
X371960Y699393D01*
X372820Y701471D01*
X373114Y703700D01*
X372820Y705929D01*
X371960Y708007D01*
X370591Y709791D01*
X368807Y711160D01*
X366729Y712020D01*
X364500Y712314D01*
X351500D01*
X349271Y712020D01*
X347193Y711160D01*
X345409Y709791D01*
X344040Y708007D01*
X343751Y707309D01*
X337000D01*
Y715490D01*
X337000Y715490D01*
X338164Y716000D01*
X546488D01*
X546492Y715999D01*
D02*
G37*
G36*
X604000Y753102D02*
Y254000D01*
X604000Y254000D01*
X543491D01*
X543402Y254044D01*
X543191Y254161D01*
X543175Y254174D01*
X543112Y254240D01*
X542864Y254603D01*
X542785Y255786D01*
X542793Y255798D01*
X542828Y255839D01*
X542984Y255995D01*
X543107Y256178D01*
X543204Y256414D01*
X543346Y256626D01*
X543537Y257088D01*
X543587Y257338D01*
X543685Y257574D01*
X543766Y257980D01*
X543833Y258131D01*
X543840Y258147D01*
X543840Y258147D01*
X543842Y258155D01*
X543846Y258160D01*
X543855Y258166D01*
X543859Y258167D01*
X543860Y258167D01*
X543861Y258168D01*
X544030Y258237D01*
X544033Y258238D01*
X545047Y258410D01*
X550835D01*
X550861Y258415D01*
X550886Y258411D01*
X551356Y258514D01*
X551827Y258607D01*
X551848Y258622D01*
X551873Y258627D01*
X552683Y258982D01*
X553056Y259242D01*
X553439Y259487D01*
X553469Y259530D01*
X553512Y259559D01*
X553757Y259943D01*
X554017Y260315D01*
X554372Y261126D01*
X554378Y261151D01*
X554393Y261173D01*
X554486Y261644D01*
X554589Y262113D01*
X554585Y262139D01*
X554590Y262164D01*
Y271647D01*
X555763Y272133D01*
X556448Y271448D01*
X557619Y270665D01*
X559000Y270391D01*
X573960D01*
Y263960D01*
X594040D01*
Y284040D01*
X573960D01*
Y277609D01*
X560609D01*
Y612000D01*
X560335Y613381D01*
X559552Y614552D01*
X556552Y617552D01*
X555381Y618335D01*
X554567Y618497D01*
X554590Y618609D01*
Y710490D01*
X554590Y710491D01*
X554590Y710745D01*
X554540Y710995D01*
X554540Y711249D01*
X554529Y711277D01*
X554528Y711307D01*
X554528Y711307D01*
X554437Y711514D01*
X554393Y711736D01*
X554384Y711748D01*
X554384Y711748D01*
X554215Y712157D01*
X554215Y712157D01*
X554212Y712171D01*
X554105Y712331D01*
X554040Y712512D01*
X554040Y712513D01*
X553997Y712560D01*
X553973Y712619D01*
X553793Y712799D01*
X553651Y713011D01*
X553471Y713191D01*
X553471Y713191D01*
X553470Y713192D01*
X549013Y717649D01*
X548800Y717792D01*
X548619Y717973D01*
X548617Y717974D01*
X548391Y718067D01*
X548189Y718204D01*
X548187Y718205D01*
X548179Y718207D01*
X548173Y718211D01*
X548160Y718213D01*
X548157Y718215D01*
X547748Y718384D01*
X547746Y718385D01*
X547735Y718393D01*
X547726Y718394D01*
X547718Y718400D01*
X547717Y718400D01*
X547482Y718445D01*
X547262Y718537D01*
X547261Y718538D01*
X547255Y718538D01*
X547251Y718539D01*
X546997D01*
X546744Y718590D01*
X337255D01*
X337005Y718540D01*
X336750Y718540D01*
X336691Y718515D01*
X336627Y718512D01*
X336627Y718512D01*
X336453Y718430D01*
X336264Y718393D01*
X336232Y718372D01*
X336207Y718361D01*
X336206Y718361D01*
X336206Y718361D01*
X336026Y718240D01*
X335816Y718154D01*
X335785Y718132D01*
X335751Y718099D01*
X335713Y718081D01*
X335668Y718031D01*
X335578Y717941D01*
X335366Y717800D01*
X335366Y717799D01*
X335366Y717799D01*
X335292Y717725D01*
X335261Y717679D01*
X335190Y717608D01*
X335165Y717571D01*
X335129Y717544D01*
X335042Y717405D01*
X334970Y717333D01*
X334939Y717286D01*
X334868Y717216D01*
X334847Y717184D01*
X334749Y716948D01*
X334628Y716768D01*
X334628Y716767D01*
X334607Y716736D01*
X334598Y716689D01*
X334596Y716686D01*
X334596Y716686D01*
X334590Y716651D01*
X334558Y716486D01*
X334460Y716251D01*
X334460Y715995D01*
X334410Y715745D01*
Y708207D01*
X333673Y707309D01*
X322223D01*
X322182Y707621D01*
X321170Y710063D01*
X319561Y712161D01*
X317463Y713770D01*
X315021Y714782D01*
X312400Y715127D01*
X309779Y714782D01*
X307337Y713770D01*
X305239Y712161D01*
X303630Y710063D01*
X302618Y707621D01*
X302273Y705000D01*
X302618Y702379D01*
X303630Y699937D01*
X305239Y697839D01*
X307337Y696230D01*
X309779Y695218D01*
X312400Y694873D01*
X315021Y695218D01*
X317463Y696230D01*
X319561Y697839D01*
X321170Y699937D01*
X321234Y700091D01*
X334410D01*
Y683209D01*
X321772D01*
X321170Y684663D01*
X319561Y686761D01*
X317463Y688370D01*
X315021Y689382D01*
X312400Y689727D01*
X309779Y689382D01*
X307337Y688370D01*
X305239Y686761D01*
X303630Y684663D01*
X302618Y682221D01*
X302273Y679600D01*
X302618Y676979D01*
X303630Y674537D01*
X305239Y672439D01*
X307337Y670830D01*
X309779Y669818D01*
X312400Y669473D01*
X315021Y669818D01*
X317463Y670830D01*
X319561Y672439D01*
X321170Y674537D01*
X321772Y675991D01*
X334410D01*
Y554909D01*
X307609D01*
Y619000D01*
X307335Y620381D01*
X306552Y621552D01*
X304552Y623552D01*
X303381Y624335D01*
X302000Y624609D01*
X296040D01*
Y631040D01*
X275960D01*
Y610960D01*
X296040D01*
Y617391D01*
X300391D01*
Y553000D01*
X300665Y551619D01*
X301448Y550448D01*
X303148Y548748D01*
X304319Y547965D01*
X305700Y547691D01*
X334410D01*
Y478709D01*
X320395D01*
X314609Y484495D01*
Y531000D01*
X314335Y532381D01*
X313552Y533552D01*
X310552Y536552D01*
X309381Y537335D01*
X308000Y537609D01*
X296040D01*
Y544040D01*
X275960D01*
Y523960D01*
X296040D01*
Y530391D01*
X306505D01*
X307391Y529505D01*
Y483000D01*
X307665Y481619D01*
X308448Y480448D01*
X316348Y472548D01*
X317519Y471765D01*
X318900Y471491D01*
X334410D01*
Y427609D01*
X330040D01*
Y431040D01*
X327609D01*
Y439000D01*
X327335Y440381D01*
X326552Y441552D01*
X323552Y444552D01*
X322381Y445335D01*
X321000Y445609D01*
X278000D01*
X276619Y445335D01*
X275448Y444552D01*
X272448Y441552D01*
X271665Y440381D01*
X271627Y440190D01*
X263210D01*
Y416610D01*
X286790D01*
Y438391D01*
X319505D01*
X320391Y437505D01*
Y431040D01*
X318960D01*
Y416960D01*
X330040D01*
Y420391D01*
X334410D01*
Y401609D01*
X330040D01*
Y406040D01*
X318960D01*
Y393999D01*
X315040D01*
Y397730D01*
X303960D01*
Y393999D01*
X265390D01*
X264009Y393725D01*
X262838Y392942D01*
X259448Y389552D01*
X258665Y388381D01*
X258391Y387000D01*
Y344000D01*
Y289000D01*
X258665Y287619D01*
X259448Y286448D01*
X261848Y284048D01*
X263019Y283265D01*
X263210Y283227D01*
Y274810D01*
X286790D01*
Y298390D01*
X265609D01*
Y328345D01*
X266879Y328770D01*
X269054Y327102D01*
X271922Y325914D01*
X275000Y325508D01*
X278078Y325914D01*
X280946Y327102D01*
X283409Y328991D01*
X285299Y331454D01*
X286266Y333791D01*
X295460D01*
Y332210D01*
X303391D01*
Y294540D01*
X297960D01*
Y277460D01*
X315040D01*
Y294540D01*
X310609D01*
Y332210D01*
X318540D01*
Y341391D01*
X323460D01*
Y339270D01*
X346540D01*
Y341391D01*
X388391D01*
Y332540D01*
X386460D01*
Y311460D01*
X391391D01*
Y306040D01*
X388960D01*
Y304109D01*
X384040D01*
Y305040D01*
X372960D01*
Y290960D01*
X384040D01*
Y296891D01*
X388960D01*
Y294960D01*
X401391D01*
Y291040D01*
X388960D01*
Y279960D01*
X398391D01*
Y272040D01*
X397960D01*
Y260569D01*
X394040D01*
Y272040D01*
X382960D01*
Y267109D01*
X372040D01*
Y269040D01*
X357960D01*
Y257960D01*
X372040D01*
Y259891D01*
X382960D01*
Y257960D01*
X384998D01*
X385165Y257119D01*
X385948Y255948D01*
X386626Y255270D01*
X386100Y254000D01*
X254898D01*
X254000Y254898D01*
Y754000D01*
X254000Y754000D01*
X603102D01*
X604000Y753102D01*
D02*
G37*
%LPC*%
G36*
X406530Y373959D02*
X405179Y373782D01*
X402737Y372770D01*
X400639Y371161D01*
X399030Y369063D01*
X398018Y366621D01*
X397841Y365270D01*
X406530D01*
Y373959D01*
D02*
G37*
G36*
X315040Y406040D02*
X310770D01*
Y400270D01*
X315040D01*
Y406040D01*
D02*
G37*
G36*
X594040Y379040D02*
X573960D01*
Y358960D01*
X594040D01*
Y379040D01*
D02*
G37*
G36*
X584000Y404527D02*
X581379Y404182D01*
X578937Y403170D01*
X576839Y401561D01*
X575230Y399463D01*
X574218Y397021D01*
X573873Y394400D01*
X574218Y391779D01*
X575230Y389337D01*
X576839Y387239D01*
X578937Y385630D01*
X581379Y384618D01*
X584000Y384273D01*
X586621Y384618D01*
X589063Y385630D01*
X591161Y387239D01*
X592770Y389337D01*
X593782Y391779D01*
X594127Y394400D01*
X593782Y397021D01*
X592770Y399463D01*
X591161Y401561D01*
X589063Y403170D01*
X586621Y404182D01*
X584000Y404527D01*
D02*
G37*
G36*
X308230Y406040D02*
X303960D01*
Y400270D01*
X308230D01*
Y406040D01*
D02*
G37*
G36*
X409070Y373959D02*
Y365270D01*
X417759D01*
X417582Y366621D01*
X416570Y369063D01*
X414961Y371161D01*
X412863Y372770D01*
X410421Y373782D01*
X409070Y373959D01*
D02*
G37*
G36*
X346540Y336730D02*
X336270D01*
Y332210D01*
X346540D01*
Y336730D01*
D02*
G37*
G36*
X333730D02*
X323460D01*
Y332210D01*
X333730D01*
Y336730D01*
D02*
G37*
G36*
X585270Y334759D02*
Y326070D01*
X593959D01*
X593782Y327421D01*
X592770Y329863D01*
X591161Y331961D01*
X589063Y333570D01*
X586621Y334582D01*
X585270Y334759D01*
D02*
G37*
G36*
X417759Y362730D02*
X409070D01*
Y354041D01*
X410421Y354218D01*
X412863Y355230D01*
X414961Y356839D01*
X416570Y358937D01*
X417582Y361379D01*
X417759Y362730D01*
D02*
G37*
G36*
X406530D02*
X397841D01*
X398018Y361379D01*
X399030Y358937D01*
X400639Y356839D01*
X402737Y355230D01*
X405179Y354218D01*
X406530Y354041D01*
Y362730D01*
D02*
G37*
G36*
X382400Y374127D02*
X379779Y373782D01*
X377337Y372770D01*
X375239Y371161D01*
X373630Y369063D01*
X372618Y366621D01*
X372273Y364000D01*
X372618Y361379D01*
X373630Y358937D01*
X375239Y356839D01*
X377337Y355230D01*
X379779Y354218D01*
X382400Y353873D01*
X385021Y354218D01*
X387463Y355230D01*
X389561Y356839D01*
X391170Y358937D01*
X392182Y361379D01*
X392527Y364000D01*
X392182Y366621D01*
X391170Y369063D01*
X389561Y371161D01*
X387463Y372770D01*
X385021Y373782D01*
X382400Y374127D01*
D02*
G37*
G36*
X582730Y418530D02*
X574041D01*
X574218Y417179D01*
X575230Y414737D01*
X576839Y412639D01*
X578937Y411030D01*
X581379Y410018D01*
X582730Y409841D01*
Y418530D01*
D02*
G37*
G36*
X594040Y474040D02*
X573960D01*
Y453960D01*
X594040D01*
Y474040D01*
D02*
G37*
G36*
X364500Y458314D02*
X351500D01*
X349271Y458020D01*
X347193Y457160D01*
X345409Y455791D01*
X344040Y454007D01*
X343180Y451929D01*
X342886Y449700D01*
X343180Y447471D01*
X344040Y445393D01*
X345409Y443609D01*
X347193Y442240D01*
X349271Y441380D01*
X351500Y441086D01*
X364500D01*
X366729Y441380D01*
X368807Y442240D01*
X370591Y443609D01*
X371960Y445393D01*
X372820Y447471D01*
X373114Y449700D01*
X372820Y451929D01*
X371960Y454007D01*
X370591Y455791D01*
X368807Y457160D01*
X366729Y458020D01*
X364500Y458314D01*
D02*
G37*
G36*
X516500D02*
X503500D01*
X501271Y458020D01*
X499193Y457160D01*
X497409Y455791D01*
X496040Y454007D01*
X495180Y451929D01*
X494886Y449700D01*
X495180Y447471D01*
X496040Y445393D01*
X497409Y443609D01*
X499193Y442240D01*
X501271Y441380D01*
X503500Y441086D01*
X516500D01*
X518729Y441380D01*
X520807Y442240D01*
X522591Y443609D01*
X523960Y445393D01*
X524249Y446091D01*
X525805D01*
X527391Y444505D01*
Y427324D01*
X526999Y427162D01*
X526121Y426940D01*
X525081Y427635D01*
X524298Y427790D01*
X523960Y428607D01*
X522591Y430391D01*
X520807Y431760D01*
X518729Y432620D01*
X516500Y432914D01*
X503500D01*
X501271Y432620D01*
X499193Y431760D01*
X497409Y430391D01*
X496040Y428607D01*
X495180Y426529D01*
X494886Y424300D01*
X495180Y422071D01*
X496040Y419993D01*
X497409Y418209D01*
X499193Y416840D01*
X501271Y415980D01*
X503500Y415686D01*
X516500D01*
X518729Y415980D01*
X520807Y416840D01*
X521292Y417212D01*
X522431Y416651D01*
Y406549D01*
X521292Y405988D01*
X520807Y406360D01*
X518729Y407220D01*
X516500Y407514D01*
X503500D01*
X501271Y407220D01*
X499193Y406360D01*
X497409Y404991D01*
X496040Y403207D01*
X495180Y401129D01*
X494886Y398900D01*
X495180Y396671D01*
X496040Y394593D01*
X497409Y392809D01*
X499193Y391440D01*
X501271Y390580D01*
X503500Y390286D01*
X516500D01*
X518729Y390580D01*
X520807Y391440D01*
X521292Y391812D01*
X522431Y391251D01*
Y309535D01*
X520544Y307648D01*
X519863Y308170D01*
X517421Y309182D01*
X514800Y309527D01*
X512179Y309182D01*
X509737Y308170D01*
X507639Y306561D01*
X506030Y304463D01*
X505018Y302021D01*
X504673Y299400D01*
X505018Y296779D01*
X506030Y294337D01*
X507639Y292239D01*
X509737Y290630D01*
X512179Y289618D01*
X514800Y289273D01*
X517421Y289618D01*
X519863Y290630D01*
X521961Y292239D01*
X523570Y294337D01*
X524281Y296052D01*
X525551Y295800D01*
Y279846D01*
X524596Y279030D01*
X523391Y279296D01*
X521961Y281161D01*
X519863Y282770D01*
X517421Y283782D01*
X514800Y284127D01*
X512179Y283782D01*
X509737Y282770D01*
X507639Y281161D01*
X506030Y279063D01*
X505018Y276621D01*
X504673Y274000D01*
X505018Y271379D01*
X506030Y268937D01*
X507639Y266839D01*
X509737Y265230D01*
X512179Y264218D01*
X514800Y263873D01*
X517421Y264218D01*
X519863Y265230D01*
X521961Y266839D01*
X523570Y268937D01*
X524172Y270391D01*
X525000D01*
X526381Y270665D01*
X527552Y271448D01*
X529062Y272957D01*
X530264Y272549D01*
X530418Y271379D01*
X531430Y268937D01*
X533039Y266839D01*
X535137Y265230D01*
X537579Y264218D01*
X538930Y264041D01*
Y274000D01*
Y283959D01*
X537579Y283782D01*
X535137Y282770D01*
X534039Y281928D01*
X532769Y282554D01*
Y290846D01*
X534039Y291472D01*
X535137Y290630D01*
X537579Y289618D01*
X538930Y289441D01*
Y299400D01*
Y309359D01*
X537579Y309182D01*
X535879Y308477D01*
X534609Y309302D01*
Y446000D01*
X534335Y447381D01*
X533552Y448552D01*
X529852Y452252D01*
X528681Y453035D01*
X527300Y453309D01*
X524249D01*
X523960Y454007D01*
X522591Y455791D01*
X520807Y457160D01*
X518729Y458020D01*
X516500Y458314D01*
D02*
G37*
G36*
X508730Y473830D02*
X495053D01*
X495180Y472871D01*
X496040Y470793D01*
X497409Y469009D01*
X499193Y467640D01*
X501271Y466780D01*
X503500Y466486D01*
X508730D01*
Y473830D01*
D02*
G37*
G36*
X295959Y481930D02*
X287270D01*
Y473241D01*
X288621Y473418D01*
X291063Y474430D01*
X293161Y476039D01*
X294770Y478137D01*
X295782Y480579D01*
X295959Y481930D01*
D02*
G37*
G36*
X284730D02*
X276041D01*
X276218Y480579D01*
X277230Y478137D01*
X278839Y476039D01*
X280937Y474430D01*
X283379Y473418D01*
X284730Y473241D01*
Y481930D01*
D02*
G37*
G36*
X524947Y473830D02*
X511270D01*
Y466486D01*
X516500D01*
X518729Y466780D01*
X520807Y467640D01*
X522591Y469009D01*
X523960Y470793D01*
X524820Y472871D01*
X524947Y473830D01*
D02*
G37*
G36*
X315040Y422730D02*
X310770D01*
Y416960D01*
X315040D01*
Y422730D01*
D02*
G37*
G36*
X308230D02*
X303960D01*
Y416960D01*
X308230D01*
Y422730D01*
D02*
G37*
G36*
X593959Y418530D02*
X585270D01*
Y409841D01*
X586621Y410018D01*
X589063Y411030D01*
X591161Y412639D01*
X592770Y414737D01*
X593782Y417179D01*
X593959Y418530D01*
D02*
G37*
G36*
X582730Y429759D02*
X581379Y429582D01*
X578937Y428570D01*
X576839Y426961D01*
X575230Y424863D01*
X574218Y422421D01*
X574041Y421070D01*
X582730D01*
Y429759D01*
D02*
G37*
G36*
X315040Y431040D02*
X310770D01*
Y425270D01*
X315040D01*
Y431040D01*
D02*
G37*
G36*
X308230D02*
X303960D01*
Y425270D01*
X308230D01*
Y431040D01*
D02*
G37*
G36*
X585270Y429759D02*
Y421070D01*
X593959D01*
X593782Y422421D01*
X592770Y424863D01*
X591161Y426961D01*
X589063Y428570D01*
X586621Y429582D01*
X585270Y429759D01*
D02*
G37*
G36*
X421730Y291230D02*
X412460D01*
Y285460D01*
X421730D01*
Y291230D01*
D02*
G37*
G36*
X372040Y284040D02*
X366270D01*
Y279770D01*
X372040D01*
Y284040D01*
D02*
G37*
G36*
X363730D02*
X357960D01*
Y279770D01*
X363730D01*
Y284040D01*
D02*
G37*
G36*
X433540Y291230D02*
X424270D01*
Y285460D01*
X433540D01*
Y291230D01*
D02*
G37*
G36*
X584000Y309527D02*
X581379Y309182D01*
X578937Y308170D01*
X576839Y306561D01*
X575230Y304463D01*
X574218Y302021D01*
X573873Y299400D01*
X574218Y296779D01*
X575230Y294337D01*
X576839Y292239D01*
X578937Y290630D01*
X581379Y289618D01*
X584000Y289273D01*
X586621Y289618D01*
X589063Y290630D01*
X591161Y292239D01*
X592770Y294337D01*
X593782Y296779D01*
X594127Y299400D01*
X593782Y302021D01*
X592770Y304463D01*
X591161Y306561D01*
X589063Y308170D01*
X586621Y309182D01*
X584000Y309527D01*
D02*
G37*
G36*
X342770Y294447D02*
Y287270D01*
X349947D01*
X349820Y288229D01*
X348960Y290307D01*
X347591Y292091D01*
X345807Y293460D01*
X343729Y294320D01*
X342770Y294447D01*
D02*
G37*
G36*
X340230D02*
X339271Y294320D01*
X337193Y293460D01*
X335409Y292091D01*
X334040Y290307D01*
X333180Y288229D01*
X333054Y287270D01*
X340230D01*
Y294447D01*
D02*
G37*
G36*
X363730Y277230D02*
X357960D01*
Y272960D01*
X363730D01*
Y277230D01*
D02*
G37*
G36*
X550159Y272730D02*
X541470D01*
Y264041D01*
X542821Y264218D01*
X545263Y265230D01*
X547361Y266839D01*
X548970Y268937D01*
X549982Y271379D01*
X550159Y272730D01*
D02*
G37*
G36*
X489400Y309527D02*
X486779Y309182D01*
X484337Y308170D01*
X482239Y306561D01*
X480630Y304463D01*
X479618Y302021D01*
X479273Y299400D01*
X479618Y296779D01*
X480630Y294337D01*
X482239Y292239D01*
X484337Y290630D01*
X485791Y290028D01*
Y283372D01*
X484337Y282770D01*
X482239Y281161D01*
X480630Y279063D01*
X479618Y276621D01*
X479273Y274000D01*
X479618Y271379D01*
X480630Y268937D01*
X482239Y266839D01*
X484337Y265230D01*
X486779Y264218D01*
X489400Y263873D01*
X492021Y264218D01*
X494463Y265230D01*
X496561Y266839D01*
X498170Y268937D01*
X499182Y271379D01*
X499527Y274000D01*
X499182Y276621D01*
X498170Y279063D01*
X496561Y281161D01*
X494463Y282770D01*
X493009Y283372D01*
Y290028D01*
X494463Y290630D01*
X496561Y292239D01*
X498170Y294337D01*
X499182Y296779D01*
X499527Y299400D01*
X499182Y302021D01*
X498170Y304463D01*
X496561Y306561D01*
X494463Y308170D01*
X492021Y309182D01*
X489400Y309527D01*
D02*
G37*
G36*
X372040Y277230D02*
X366270D01*
Y272960D01*
X372040D01*
Y277230D01*
D02*
G37*
G36*
X349947Y284730D02*
X342770D01*
Y277554D01*
X343729Y277680D01*
X345807Y278540D01*
X347591Y279909D01*
X348960Y281693D01*
X349820Y283771D01*
X349947Y284730D01*
D02*
G37*
G36*
X340230D02*
X333054D01*
X333180Y283771D01*
X334040Y281693D01*
X335409Y279909D01*
X337193Y278540D01*
X339271Y277680D01*
X340230Y277554D01*
Y284730D01*
D02*
G37*
G36*
X541470Y283959D02*
Y275270D01*
X550159D01*
X549982Y276621D01*
X548970Y279063D01*
X547361Y281161D01*
X545263Y282770D01*
X542821Y283782D01*
X541470Y283959D01*
D02*
G37*
G36*
X550159Y298130D02*
X541470D01*
Y289441D01*
X542821Y289618D01*
X545263Y290630D01*
X547361Y292239D01*
X548970Y294337D01*
X549982Y296779D01*
X550159Y298130D01*
D02*
G37*
G36*
X582730Y323530D02*
X574041D01*
X574218Y322179D01*
X575230Y319737D01*
X576839Y317639D01*
X578937Y316030D01*
X581379Y315018D01*
X582730Y314841D01*
Y323530D01*
D02*
G37*
G36*
X371540Y320730D02*
X365770D01*
Y311460D01*
X371540D01*
Y320730D01*
D02*
G37*
G36*
X363230D02*
X357460D01*
Y311460D01*
X363230D01*
Y320730D01*
D02*
G37*
G36*
X593959Y323530D02*
X585270D01*
Y314841D01*
X586621Y315018D01*
X589063Y316030D01*
X591161Y317639D01*
X592770Y319737D01*
X593782Y322179D01*
X593959Y323530D01*
D02*
G37*
G36*
X582730Y334759D02*
X581379Y334582D01*
X578937Y333570D01*
X576839Y331961D01*
X575230Y329863D01*
X574218Y327421D01*
X574041Y326070D01*
X582730D01*
Y334759D01*
D02*
G37*
G36*
X371540Y332540D02*
X365770D01*
Y323270D01*
X371540D01*
Y332540D01*
D02*
G37*
G36*
X363230D02*
X357460D01*
Y323270D01*
X363230D01*
Y332540D01*
D02*
G37*
G36*
X421730Y299540D02*
X412460D01*
Y293770D01*
X421730D01*
Y299540D01*
D02*
G37*
G36*
X369040Y296730D02*
X364770D01*
Y290960D01*
X369040D01*
Y296730D01*
D02*
G37*
G36*
X362230D02*
X357960D01*
Y290960D01*
X362230D01*
Y296730D01*
D02*
G37*
G36*
X433540Y299540D02*
X424270D01*
Y293770D01*
X433540D01*
Y299540D01*
D02*
G37*
G36*
X541470Y309359D02*
Y300670D01*
X550159D01*
X549982Y302021D01*
X548970Y304463D01*
X547361Y306561D01*
X545263Y308170D01*
X542821Y309182D01*
X541470Y309359D01*
D02*
G37*
G36*
X369040Y305040D02*
X364770D01*
Y299270D01*
X369040D01*
Y305040D01*
D02*
G37*
G36*
X362230D02*
X357960D01*
Y299270D01*
X362230D01*
Y305040D01*
D02*
G37*
G36*
X508730Y483714D02*
X503500D01*
X501271Y483420D01*
X499193Y482560D01*
X497409Y481191D01*
X496040Y479407D01*
X495180Y477329D01*
X495053Y476370D01*
X508730D01*
Y483714D01*
D02*
G37*
G36*
Y661514D02*
X503500D01*
X501271Y661220D01*
X499193Y660360D01*
X497409Y658991D01*
X496040Y657207D01*
X495180Y655129D01*
X495053Y654170D01*
X508730D01*
Y661514D01*
D02*
G37*
G36*
X524947Y651630D02*
X511270D01*
Y644286D01*
X516500D01*
X518729Y644580D01*
X520807Y645440D01*
X522591Y646809D01*
X523960Y648593D01*
X524820Y650671D01*
X524947Y651630D01*
D02*
G37*
G36*
X508730D02*
X495053D01*
X495180Y650671D01*
X496040Y648593D01*
X497409Y646809D01*
X499193Y645440D01*
X501271Y644580D01*
X503500Y644286D01*
X508730D01*
Y651630D01*
D02*
G37*
G36*
X516500Y661514D02*
X511270D01*
Y654170D01*
X524947D01*
X524820Y655129D01*
X523960Y657207D01*
X522591Y658991D01*
X520807Y660360D01*
X518729Y661220D01*
X516500Y661514D01*
D02*
G37*
G36*
X508730Y677030D02*
X495053D01*
X495180Y676071D01*
X496040Y673993D01*
X497409Y672209D01*
X499193Y670840D01*
X501271Y669980D01*
X503500Y669686D01*
X508730D01*
Y677030D01*
D02*
G37*
G36*
X296959Y678330D02*
X288270D01*
Y669641D01*
X289621Y669818D01*
X292063Y670830D01*
X294161Y672439D01*
X295770Y674537D01*
X296782Y676979D01*
X296959Y678330D01*
D02*
G37*
G36*
X285730D02*
X277041D01*
X277218Y676979D01*
X278230Y674537D01*
X279839Y672439D01*
X281937Y670830D01*
X284379Y669818D01*
X285730Y669641D01*
Y678330D01*
D02*
G37*
G36*
X508730Y600830D02*
X495053D01*
X495180Y599871D01*
X496040Y597793D01*
X497409Y596009D01*
X499193Y594640D01*
X501271Y593780D01*
X503500Y593486D01*
X508730D01*
Y600830D01*
D02*
G37*
G36*
X364500Y610714D02*
X351500D01*
X349271Y610420D01*
X347193Y609560D01*
X345409Y608191D01*
X344040Y606407D01*
X343180Y604329D01*
X342886Y602100D01*
X343180Y599871D01*
X344040Y597793D01*
X345409Y596009D01*
X347193Y594640D01*
X349271Y593780D01*
X351500Y593486D01*
X364500D01*
X366729Y593780D01*
X368807Y594640D01*
X370591Y596009D01*
X371960Y597793D01*
X372820Y599871D01*
X373114Y602100D01*
X372820Y604329D01*
X371960Y606407D01*
X370591Y608191D01*
X368807Y609560D01*
X366729Y610420D01*
X364500Y610714D01*
D02*
G37*
G36*
X286000Y605727D02*
X283379Y605382D01*
X280937Y604370D01*
X278839Y602761D01*
X277230Y600663D01*
X276218Y598221D01*
X275873Y595600D01*
X276218Y592979D01*
X277230Y590537D01*
X278839Y588439D01*
X280937Y586830D01*
X283379Y585818D01*
X286000Y585473D01*
X288621Y585818D01*
X291063Y586830D01*
X293161Y588439D01*
X294770Y590537D01*
X295782Y592979D01*
X296127Y595600D01*
X295782Y598221D01*
X294770Y600663D01*
X293161Y602761D01*
X291063Y604370D01*
X288621Y605382D01*
X286000Y605727D01*
D02*
G37*
G36*
X524947Y600830D02*
X511270D01*
Y593486D01*
X516500D01*
X518729Y593780D01*
X520807Y594640D01*
X522591Y596009D01*
X523960Y597793D01*
X524820Y599871D01*
X524947Y600830D01*
D02*
G37*
G36*
X364500Y661514D02*
X351500D01*
X349271Y661220D01*
X347193Y660360D01*
X345409Y658991D01*
X344040Y657207D01*
X343180Y655129D01*
X342886Y652900D01*
X343180Y650671D01*
X344040Y648593D01*
X345409Y646809D01*
X347193Y645440D01*
X349271Y644580D01*
X351500Y644286D01*
X364500D01*
X366729Y644580D01*
X368807Y645440D01*
X370591Y646809D01*
X371960Y648593D01*
X372820Y650671D01*
X373114Y652900D01*
X372820Y655129D01*
X371960Y657207D01*
X370591Y658991D01*
X368807Y660360D01*
X366729Y661220D01*
X364500Y661514D01*
D02*
G37*
G36*
X516500Y636114D02*
X511270D01*
Y628770D01*
X524947D01*
X524820Y629729D01*
X523960Y631807D01*
X522591Y633591D01*
X520807Y634960D01*
X518729Y635820D01*
X516500Y636114D01*
D02*
G37*
G36*
X508730D02*
X503500D01*
X501271Y635820D01*
X499193Y634960D01*
X497409Y633591D01*
X496040Y631807D01*
X495180Y629729D01*
X495053Y628770D01*
X508730D01*
Y636114D01*
D02*
G37*
G36*
X524947Y677030D02*
X511270D01*
Y669686D01*
X516500D01*
X518729Y669980D01*
X520807Y670840D01*
X522591Y672209D01*
X523960Y673993D01*
X524820Y676071D01*
X524947Y677030D01*
D02*
G37*
G36*
X516500Y737714D02*
X503500D01*
X501271Y737420D01*
X499193Y736560D01*
X497409Y735191D01*
X496040Y733407D01*
X495180Y731329D01*
X494886Y729100D01*
X495180Y726871D01*
X496040Y724793D01*
X497409Y723009D01*
X499193Y721640D01*
X501271Y720780D01*
X503500Y720486D01*
X516500D01*
X518729Y720780D01*
X520807Y721640D01*
X522591Y723009D01*
X523960Y724793D01*
X524820Y726871D01*
X525114Y729100D01*
X524820Y731329D01*
X523960Y733407D01*
X522591Y735191D01*
X520807Y736560D01*
X518729Y737420D01*
X516500Y737714D01*
D02*
G37*
G36*
Y712314D02*
X511270D01*
Y704970D01*
X524947D01*
X524820Y705929D01*
X523960Y708007D01*
X522591Y709791D01*
X520807Y711160D01*
X518729Y712020D01*
X516500Y712314D01*
D02*
G37*
G36*
X508730D02*
X503500D01*
X501271Y712020D01*
X499193Y711160D01*
X497409Y709791D01*
X496040Y708007D01*
X495180Y705929D01*
X495053Y704970D01*
X508730D01*
Y712314D01*
D02*
G37*
G36*
X356730Y727830D02*
X342960D01*
Y720560D01*
X356730D01*
Y727830D01*
D02*
G37*
G36*
X373040Y737640D02*
X359270D01*
Y730370D01*
X373040D01*
Y737640D01*
D02*
G37*
G36*
X356730D02*
X342960D01*
Y730370D01*
X356730D01*
Y737640D01*
D02*
G37*
G36*
X373040Y727830D02*
X359270D01*
Y720560D01*
X373040D01*
Y727830D01*
D02*
G37*
G36*
X285730Y689559D02*
X284379Y689382D01*
X281937Y688370D01*
X279839Y686761D01*
X278230Y684663D01*
X277218Y682221D01*
X277041Y680870D01*
X285730D01*
Y689559D01*
D02*
G37*
G36*
X516500Y686914D02*
X511270D01*
Y679570D01*
X524947D01*
X524820Y680529D01*
X523960Y682607D01*
X522591Y684391D01*
X520807Y685760D01*
X518729Y686620D01*
X516500Y686914D01*
D02*
G37*
G36*
X508730D02*
X503500D01*
X501271Y686620D01*
X499193Y685760D01*
X497409Y684391D01*
X496040Y682607D01*
X495180Y680529D01*
X495053Y679570D01*
X508730D01*
Y686914D01*
D02*
G37*
G36*
X288270Y689559D02*
Y680870D01*
X296959D01*
X296782Y682221D01*
X295770Y684663D01*
X294161Y686761D01*
X292063Y688370D01*
X289621Y689382D01*
X288270Y689559D01*
D02*
G37*
G36*
X524947Y702430D02*
X511270D01*
Y695086D01*
X516500D01*
X518729Y695380D01*
X520807Y696240D01*
X522591Y697609D01*
X523960Y699393D01*
X524820Y701471D01*
X524947Y702430D01*
D02*
G37*
G36*
X508730D02*
X495053D01*
X495180Y701471D01*
X496040Y699393D01*
X497409Y697609D01*
X499193Y696240D01*
X501271Y695380D01*
X503500Y695086D01*
X508730D01*
Y702430D01*
D02*
G37*
G36*
X297040Y715040D02*
X276960D01*
Y694960D01*
X297040D01*
Y715040D01*
D02*
G37*
G36*
X516500Y585314D02*
X511270D01*
Y577970D01*
X524947D01*
X524820Y578929D01*
X523960Y581007D01*
X522591Y582791D01*
X520807Y584160D01*
X518729Y585020D01*
X516500Y585314D01*
D02*
G37*
G36*
X582730Y513530D02*
X574041D01*
X574218Y512179D01*
X575230Y509737D01*
X576839Y507639D01*
X578937Y506030D01*
X581379Y505018D01*
X582730Y504841D01*
Y513530D01*
D02*
G37*
G36*
X516500Y509114D02*
X511270D01*
Y501770D01*
X524947D01*
X524820Y502729D01*
X523960Y504807D01*
X522591Y506591D01*
X520807Y507960D01*
X518729Y508820D01*
X516500Y509114D01*
D02*
G37*
G36*
X508730D02*
X503500D01*
X501271Y508820D01*
X499193Y507960D01*
X497409Y506591D01*
X496040Y504807D01*
X495180Y502729D01*
X495053Y501770D01*
X508730D01*
Y509114D01*
D02*
G37*
G36*
X593959Y513530D02*
X585270D01*
Y504841D01*
X586621Y505018D01*
X589063Y506030D01*
X591161Y507639D01*
X592770Y509737D01*
X593782Y512179D01*
X593959Y513530D01*
D02*
G37*
G36*
X508730Y524630D02*
X495053D01*
X495180Y523671D01*
X496040Y521593D01*
X497409Y519809D01*
X499193Y518440D01*
X501271Y517580D01*
X503500Y517286D01*
X508730D01*
Y524630D01*
D02*
G37*
G36*
X585270Y524759D02*
Y516070D01*
X593959D01*
X593782Y517421D01*
X592770Y519863D01*
X591161Y521961D01*
X589063Y523570D01*
X586621Y524582D01*
X585270Y524759D01*
D02*
G37*
G36*
X582730D02*
X581379Y524582D01*
X578937Y523570D01*
X576839Y521961D01*
X575230Y519863D01*
X574218Y517421D01*
X574041Y516070D01*
X582730D01*
Y524759D01*
D02*
G37*
G36*
X284730Y493159D02*
X283379Y492982D01*
X280937Y491970D01*
X278839Y490361D01*
X277230Y488263D01*
X276218Y485821D01*
X276041Y484470D01*
X284730D01*
Y493159D01*
D02*
G37*
G36*
X584000Y499527D02*
X581379Y499182D01*
X578937Y498170D01*
X576839Y496561D01*
X575230Y494463D01*
X574218Y492021D01*
X573873Y489400D01*
X574218Y486779D01*
X575230Y484337D01*
X576839Y482239D01*
X578937Y480630D01*
X581379Y479618D01*
X584000Y479273D01*
X586621Y479618D01*
X589063Y480630D01*
X591161Y482239D01*
X592770Y484337D01*
X593782Y486779D01*
X594127Y489400D01*
X593782Y492021D01*
X592770Y494463D01*
X591161Y496561D01*
X589063Y498170D01*
X586621Y499182D01*
X584000Y499527D01*
D02*
G37*
G36*
X516500Y483714D02*
X511270D01*
Y476370D01*
X524947D01*
X524820Y477329D01*
X523960Y479407D01*
X522591Y481191D01*
X520807Y482560D01*
X518729Y483420D01*
X516500Y483714D01*
D02*
G37*
G36*
X287270Y493159D02*
Y484470D01*
X295959D01*
X295782Y485821D01*
X294770Y488263D01*
X293161Y490361D01*
X291063Y491970D01*
X288621Y492982D01*
X287270Y493159D01*
D02*
G37*
G36*
X286000Y518727D02*
X283379Y518382D01*
X280937Y517370D01*
X278839Y515761D01*
X277230Y513663D01*
X276218Y511221D01*
X275873Y508600D01*
X276218Y505979D01*
X277230Y503537D01*
X278839Y501439D01*
X280937Y499830D01*
X283379Y498818D01*
X286000Y498473D01*
X288621Y498818D01*
X291063Y499830D01*
X293161Y501439D01*
X294770Y503537D01*
X295782Y505979D01*
X296127Y508600D01*
X295782Y511221D01*
X294770Y513663D01*
X293161Y515761D01*
X291063Y517370D01*
X288621Y518382D01*
X286000Y518727D01*
D02*
G37*
G36*
X524947Y499230D02*
X511270D01*
Y491886D01*
X516500D01*
X518729Y492180D01*
X520807Y493040D01*
X522591Y494409D01*
X523960Y496193D01*
X524820Y498271D01*
X524947Y499230D01*
D02*
G37*
G36*
X508730D02*
X495053D01*
X495180Y498271D01*
X496040Y496193D01*
X497409Y494409D01*
X499193Y493040D01*
X501271Y492180D01*
X503500Y491886D01*
X508730D01*
Y499230D01*
D02*
G37*
G36*
X524947Y524630D02*
X511270D01*
Y517286D01*
X516500D01*
X518729Y517580D01*
X520807Y518440D01*
X522591Y519809D01*
X523960Y521593D01*
X524820Y523671D01*
X524947Y524630D01*
D02*
G37*
G36*
X508730Y575430D02*
X495053D01*
X495180Y574471D01*
X496040Y572393D01*
X497409Y570609D01*
X499193Y569240D01*
X501271Y568380D01*
X503500Y568086D01*
X508730D01*
Y575430D01*
D02*
G37*
G36*
X364500Y585314D02*
X351500D01*
X349271Y585020D01*
X347193Y584160D01*
X345409Y582791D01*
X344040Y581007D01*
X343180Y578929D01*
X342886Y576700D01*
X343180Y574471D01*
X344040Y572393D01*
X345409Y570609D01*
X347193Y569240D01*
X349271Y568380D01*
X351500Y568086D01*
X364500D01*
X366729Y568380D01*
X368807Y569240D01*
X370591Y570609D01*
X371960Y572393D01*
X372820Y574471D01*
X373114Y576700D01*
X372820Y578929D01*
X371960Y581007D01*
X370591Y582791D01*
X368807Y584160D01*
X366729Y585020D01*
X364500Y585314D01*
D02*
G37*
G36*
X295959Y568930D02*
X287270D01*
Y560241D01*
X288621Y560418D01*
X291063Y561430D01*
X293161Y563039D01*
X294770Y565137D01*
X295782Y567579D01*
X295959Y568930D01*
D02*
G37*
G36*
X524947Y575430D02*
X511270D01*
Y568086D01*
X516500D01*
X518729Y568380D01*
X520807Y569240D01*
X522591Y570609D01*
X523960Y572393D01*
X524820Y574471D01*
X524947Y575430D01*
D02*
G37*
G36*
X508730Y585314D02*
X503500D01*
X501271Y585020D01*
X499193Y584160D01*
X497409Y582791D01*
X496040Y581007D01*
X495180Y578929D01*
X495053Y577970D01*
X508730D01*
Y585314D01*
D02*
G37*
G36*
X287270Y580159D02*
Y571470D01*
X295959D01*
X295782Y572821D01*
X294770Y575263D01*
X293161Y577361D01*
X291063Y578970D01*
X288621Y579982D01*
X287270Y580159D01*
D02*
G37*
G36*
X284730D02*
X283379Y579982D01*
X280937Y578970D01*
X278839Y577361D01*
X277230Y575263D01*
X276218Y572821D01*
X276041Y571470D01*
X284730D01*
Y580159D01*
D02*
G37*
G36*
X508730Y550030D02*
X495053D01*
X495180Y549071D01*
X496040Y546993D01*
X497409Y545209D01*
X499193Y543840D01*
X501271Y542980D01*
X503500Y542686D01*
X508730D01*
Y550030D01*
D02*
G37*
G36*
X516500Y534514D02*
X511270D01*
Y527170D01*
X524947D01*
X524820Y528129D01*
X523960Y530207D01*
X522591Y531991D01*
X520807Y533360D01*
X518729Y534220D01*
X516500Y534514D01*
D02*
G37*
G36*
X508730D02*
X503500D01*
X501271Y534220D01*
X499193Y533360D01*
X497409Y531991D01*
X496040Y530207D01*
X495180Y528129D01*
X495053Y527170D01*
X508730D01*
Y534514D01*
D02*
G37*
G36*
X524947Y550030D02*
X511270D01*
Y542686D01*
X516500D01*
X518729Y542980D01*
X520807Y543840D01*
X522591Y545209D01*
X523960Y546993D01*
X524820Y549071D01*
X524947Y550030D01*
D02*
G37*
G36*
X284730Y568930D02*
X276041D01*
X276218Y567579D01*
X277230Y565137D01*
X278839Y563039D01*
X280937Y561430D01*
X283379Y560418D01*
X284730Y560241D01*
Y568930D01*
D02*
G37*
G36*
X516500Y559914D02*
X511270D01*
Y552570D01*
X524947D01*
X524820Y553529D01*
X523960Y555607D01*
X522591Y557391D01*
X520807Y558760D01*
X518729Y559620D01*
X516500Y559914D01*
D02*
G37*
G36*
X508730D02*
X503500D01*
X501271Y559620D01*
X499193Y558760D01*
X497409Y557391D01*
X496040Y555607D01*
X495180Y553529D01*
X495053Y552570D01*
X508730D01*
Y559914D01*
D02*
G37*
%LPD*%
D10*
X335000Y338000D02*
D03*
X307000D02*
D03*
D11*
X396000Y300500D02*
D03*
Y285500D02*
D03*
X365000Y278500D02*
D03*
Y263500D02*
D03*
D12*
X403500Y265000D02*
D03*
X388500D02*
D03*
X378500Y298000D02*
D03*
X363500D02*
D03*
X309500Y399000D02*
D03*
X324500D02*
D03*
X309500Y424000D02*
D03*
X324500D02*
D03*
D13*
X393500Y322000D02*
D03*
X364500D02*
D03*
D14*
X423000Y321500D02*
D03*
Y292500D02*
D03*
D15*
X341500Y286000D02*
Y295716D01*
X335000Y302216D02*
X341500Y295716D01*
X335000Y302216D02*
Y338000D01*
X405000Y317000D02*
X409500Y321500D01*
X405000Y266500D02*
Y317000D01*
X403500Y265000D02*
X405000Y266500D01*
X409500Y321500D02*
X423000D01*
X398000Y345000D02*
X482000D01*
X396000Y343000D02*
X398000Y345000D01*
X400500Y285500D02*
X402000Y284000D01*
Y266500D02*
Y284000D01*
Y266500D02*
X403500Y265000D01*
X458600Y364000D02*
Y516400D01*
X449100Y525900D02*
X458600Y516400D01*
X358000Y525900D02*
X449100D01*
X433200Y364000D02*
Y494800D01*
X427500Y500500D02*
X433200Y494800D01*
X358000Y500500D02*
X427500D01*
X482000Y345000D02*
X484000Y347000D01*
X420000Y260000D02*
Y289500D01*
X417000Y257000D02*
X420000Y260000D01*
X408006Y257000D02*
X417000D01*
X424800Y261200D02*
X540200D01*
X423000Y263000D02*
X424800Y261200D01*
X423000Y263000D02*
Y292500D01*
X540200Y261200D02*
Y274000D01*
X557000Y276000D02*
Y612000D01*
X554000Y615000D02*
X557000Y612000D01*
X499000Y615000D02*
X554000D01*
X559000Y274000D02*
X584000D01*
X557000Y276000D02*
X559000Y274000D01*
X598000Y517000D02*
X601000Y520000D01*
X586200Y517000D02*
X598000D01*
X584000Y514800D02*
X596200D01*
X600000Y511000D01*
X596200Y419800D02*
X600000Y416000D01*
X584000Y419800D02*
X596200D01*
X601000Y520000D02*
Y743000D01*
X600000Y328000D02*
Y416000D01*
X597000Y747000D02*
X601000Y743000D01*
X486500Y627500D02*
X499000Y615000D01*
X358000Y627500D02*
X486500D01*
X489400Y274000D02*
Y299400D01*
X529160Y278160D02*
Y304739D01*
X525000Y274000D02*
X529160Y278160D01*
X514800Y274000D02*
X525000D01*
X531000Y306579D02*
Y446000D01*
X529160Y304739D02*
X531000Y306579D01*
X526040Y308040D02*
Y421960D01*
X517400Y299400D02*
X526040Y308040D01*
X514800Y299400D02*
X517400D01*
X523700Y424300D02*
X526040Y421960D01*
X510000Y424300D02*
X523700D01*
X510000Y449700D02*
X527300D01*
X531000Y446000D01*
X305700Y551300D02*
X358000D01*
X304000Y553000D02*
X305700Y551300D01*
X304000Y553000D02*
Y619000D01*
X302000Y621000D02*
X304000Y619000D01*
X286000Y621000D02*
X302000D01*
X308000Y534000D02*
X311000Y531000D01*
X286000Y534000D02*
X308000D01*
X311000Y483000D02*
Y531000D01*
Y483000D02*
X318900Y475100D01*
X584000Y324800D02*
X596800D01*
X600000Y328000D01*
X584000Y419800D02*
X586200Y422000D01*
X596000D01*
X600000Y426000D01*
Y511000D01*
X358000Y747000D02*
X597000D01*
X584000Y514800D02*
X586200Y517000D01*
X358000Y729100D02*
Y747000D01*
X261000Y682000D02*
X284600D01*
X257000Y686000D02*
X261000Y682000D01*
X257000Y686000D02*
Y725000D01*
X284600Y682000D02*
X287000Y679600D01*
X261100Y729100D02*
X358000D01*
X257000Y725000D02*
X261100Y729100D01*
X262000Y678000D02*
X285400D01*
X257000Y673000D02*
X262000Y678000D01*
X257000Y575000D02*
Y673000D01*
X285400Y678000D02*
X287000Y679600D01*
X284200Y572000D02*
X286000Y570200D01*
X260000Y572000D02*
X284200D01*
X257000Y575000D02*
X260000Y572000D01*
X262000Y568000D02*
X283800D01*
X258000Y564000D02*
X262000Y568000D01*
X258000Y488000D02*
Y564000D01*
X283800Y568000D02*
X286000Y570200D01*
X258000Y488000D02*
X261000Y485000D01*
X284200D02*
X286000Y483200D01*
X261000Y485000D02*
X284200D01*
X283800Y481000D02*
X286000Y483200D01*
X262000Y481000D02*
X283800D01*
X258000Y477000D02*
X262000Y481000D01*
X318900Y475100D02*
X358000D01*
X364500Y322000D02*
Y334500D01*
X363500Y298000D02*
Y321000D01*
X364500Y322000D01*
X363500Y280000D02*
X365000Y278500D01*
X363500Y280000D02*
Y298000D01*
X387000Y263500D02*
X388500Y265000D01*
X365000Y263500D02*
X387000D01*
X388500Y258500D02*
Y265000D01*
Y258500D02*
X390040Y256960D01*
X407966D01*
X408006Y257000D01*
X397000Y285500D02*
X400500D01*
X381000Y300500D02*
X397000D01*
X378500Y298000D02*
X381000Y300500D01*
X335000Y338000D02*
X361000D01*
X364500Y334500D01*
X392000Y323500D02*
X393500Y322000D01*
X392000Y323500D02*
Y343000D01*
X390000Y345000D02*
X392000Y343000D01*
X464000Y274000D02*
Y299400D01*
X423000Y321500D02*
X457500D01*
X464000Y315000D01*
Y299400D02*
Y315000D01*
X420000Y289500D02*
X423000Y292500D01*
X540200Y274000D02*
Y299400D01*
X354100Y606000D02*
X358000Y602100D01*
X313700Y703700D02*
X358000D01*
X312400Y679600D02*
X356700D01*
X307000Y338000D02*
Y343000D01*
X309000Y345000D01*
X390000D01*
X306400Y337400D02*
X307000Y338000D01*
X341500Y264500D02*
Y286000D01*
X338000Y261000D02*
X341500Y264500D01*
X263000Y261000D02*
X338000D01*
X264400Y286600D02*
X275000D01*
Y337400D02*
X306400D01*
X275000D02*
Y377600D01*
X257460Y266540D02*
X263000Y261000D01*
X262000Y289000D02*
X264400Y286600D01*
X322000Y390390D02*
X324500Y392890D01*
Y398000D01*
Y399000D01*
Y398000D02*
X357100D01*
X262000Y289000D02*
Y387000D01*
X265390Y390390D01*
X322000D01*
X324500Y424000D02*
X357700D01*
X358000Y424300D01*
X275000Y428400D02*
Y439000D01*
X278000Y442000D01*
X309500Y424000D02*
X311000Y422500D01*
X307500Y401000D02*
X309500Y399000D01*
X307500Y401000D02*
Y424000D01*
X309100Y398200D02*
X311500Y397000D01*
X257460Y266540D02*
Y393460D01*
X261000Y397000D01*
X311500D01*
X258000Y405000D02*
Y477000D01*
Y405000D02*
X262000Y401000D01*
X307500D01*
X393500Y322000D02*
X396000Y324500D01*
Y343000D01*
X484000Y347000D02*
Y364000D01*
X278000Y442000D02*
X321000D01*
X324000Y424500D02*
X324500Y424000D01*
X321000Y442000D02*
X324000Y439000D01*
Y424500D02*
Y439000D01*
X275000Y377600D02*
X275600Y377000D01*
X395000Y302500D02*
X397000Y300500D01*
X395000Y302500D02*
Y320500D01*
X393500Y322000D02*
X395000Y320500D01*
X307000Y286500D02*
Y338000D01*
X306500Y286000D02*
X307000Y286500D01*
D16*
X584000Y324800D02*
D03*
Y299400D02*
D03*
Y514800D02*
D03*
Y489400D02*
D03*
X286000Y483200D02*
D03*
Y508600D02*
D03*
Y570200D02*
D03*
Y595600D02*
D03*
X584000Y419800D02*
D03*
Y394400D02*
D03*
X312400Y705000D02*
D03*
X287000Y679600D02*
D03*
X312400D02*
D03*
X489400Y274000D02*
D03*
X514800D02*
D03*
X540200D02*
D03*
X464000Y299400D02*
D03*
X489400D02*
D03*
X514800D02*
D03*
X540200D02*
D03*
X458600Y364000D02*
D03*
X433200D02*
D03*
X407800D02*
D03*
X382400D02*
D03*
D17*
X584000Y274000D02*
D03*
Y464000D02*
D03*
X286000Y534000D02*
D03*
Y621000D02*
D03*
X584000Y369000D02*
D03*
X287000Y705000D02*
D03*
D18*
X275000Y337400D02*
D03*
Y377600D02*
D03*
D19*
Y286600D02*
D03*
Y428400D02*
D03*
D20*
X464000Y274000D02*
D03*
X484000Y364000D02*
D03*
D21*
X306500Y286000D02*
D03*
D22*
X341500D02*
D03*
D23*
X510000Y398900D02*
D03*
Y424300D02*
D03*
Y449700D02*
D03*
Y475100D02*
D03*
Y500500D02*
D03*
Y525900D02*
D03*
Y551300D02*
D03*
Y576700D02*
D03*
Y602100D02*
D03*
Y627500D02*
D03*
Y652900D02*
D03*
Y678300D02*
D03*
Y703700D02*
D03*
Y729100D02*
D03*
X358000Y398900D02*
D03*
Y424300D02*
D03*
Y449700D02*
D03*
Y475100D02*
D03*
Y500500D02*
D03*
Y525900D02*
D03*
Y551300D02*
D03*
Y576700D02*
D03*
Y602100D02*
D03*
Y627500D02*
D03*
Y652900D02*
D03*
Y678300D02*
D03*
Y703700D02*
D03*
D24*
Y729100D02*
D03*
M02*
