G04 Layer_Color=16711935*
%FSLAX25Y25*%
%MOIN*%
G70*
G01*
G75*
%ADD41C,0.06693*%
%ADD42R,0.06693X0.06693*%
%ADD43R,0.06693X0.06693*%
%ADD44C,0.02953*%
%ADD45R,0.12598X0.06693*%
%ADD46R,0.06693X0.12598*%
D41*
X119410Y448183D02*
D03*
X129410D02*
D03*
X146063Y363937D02*
D03*
Y373937D02*
D03*
Y383937D02*
D03*
X136063Y353937D02*
D03*
Y363937D02*
D03*
Y373937D02*
D03*
Y383937D02*
D03*
X228681Y367618D02*
D03*
X218681D02*
D03*
X208681D02*
D03*
X198681D02*
D03*
X241102Y409311D02*
D03*
X231102D02*
D03*
X221102D02*
D03*
X141102Y399311D02*
D03*
X151102D02*
D03*
X161102D02*
D03*
X171102D02*
D03*
X181102D02*
D03*
X191102D02*
D03*
X201102D02*
D03*
X211102D02*
D03*
X221102D02*
D03*
X231102D02*
D03*
X241102D02*
D03*
X251102D02*
D03*
X261102D02*
D03*
X271102D02*
D03*
X141102Y459154D02*
D03*
X151102D02*
D03*
X161102D02*
D03*
X171102D02*
D03*
X181102D02*
D03*
X191102D02*
D03*
X201102D02*
D03*
X211102D02*
D03*
X221102D02*
D03*
X231102D02*
D03*
X241102D02*
D03*
X251102D02*
D03*
X261102D02*
D03*
X251752Y354528D02*
D03*
X119410Y440551D02*
D03*
X129410D02*
D03*
X274094Y354232D02*
D03*
D42*
X146063Y353937D02*
D03*
X271102Y459154D02*
D03*
D43*
X238681Y367618D02*
D03*
X241752Y354528D02*
D03*
X264094Y354232D02*
D03*
D44*
X238120Y421555D02*
D03*
X187205Y410039D02*
D03*
X228839Y485925D02*
D03*
X120571Y490059D02*
D03*
X123228Y493799D02*
D03*
X242028Y494095D02*
D03*
X182382Y493209D02*
D03*
X170079Y485630D02*
D03*
X115945Y465945D02*
D03*
X212303Y492913D02*
D03*
X204331Y465650D02*
D03*
X275886Y492323D02*
D03*
X279528Y461713D02*
D03*
X276969Y457972D02*
D03*
X240846Y490650D02*
D03*
X181398Y466339D02*
D03*
X270768Y492618D02*
D03*
X239173Y478248D02*
D03*
X236417Y475197D02*
D03*
X239665Y467028D02*
D03*
X182382Y489370D02*
D03*
X120669Y479921D02*
D03*
X178789Y475738D02*
D03*
X157382Y479331D02*
D03*
X157185Y493602D02*
D03*
X120472Y476083D02*
D03*
X122441Y465945D02*
D03*
X157480Y466634D02*
D03*
X145079Y466339D02*
D03*
X180709Y479035D02*
D03*
X216240Y487697D02*
D03*
X216437Y465748D02*
D03*
D45*
X111811Y479921D02*
D03*
Y493701D02*
D03*
D46*
X263484Y489468D02*
D03*
X249705D02*
D03*
X221654D02*
D03*
X235433D02*
D03*
X203346D02*
D03*
X189567D02*
D03*
X163091D02*
D03*
X176870D02*
D03*
X145669D02*
D03*
X131890D02*
D03*
M02*
