G04 Layer_Physical_Order=2*
G04 Layer_Color=16711680*
%FSLAX25Y25*%
%MOIN*%
G70*
G01*
G75*
%ADD20C,0.01000*%
%ADD22C,0.05906*%
%ADD23R,0.05906X0.05906*%
%ADD24R,0.05906X0.05906*%
%ADD25C,0.02165*%
%ADD26R,0.11811X0.05906*%
%ADD27R,0.05906X0.11811*%
G36*
X283857Y499646D02*
X283465Y339961D01*
X283169Y339665D01*
X135630D01*
Y339764D01*
X126378Y349016D01*
X100787Y469587D01*
X100398Y499644D01*
X100750Y500000D01*
X228218D01*
X228425Y499500D01*
X226127Y497202D01*
X225930Y496906D01*
X225860Y496558D01*
Y484941D01*
X225930Y484592D01*
X226127Y484297D01*
X228399Y482025D01*
X228695Y481827D01*
X229043Y481758D01*
X238756D01*
X239105Y481827D01*
X239400Y482025D01*
X244247Y486871D01*
X244444Y487167D01*
X244514Y487516D01*
Y492520D01*
X244444Y492868D01*
X244247Y493164D01*
X243497Y493914D01*
X243533Y494095D01*
X243418Y494670D01*
X243092Y495159D01*
X242604Y495485D01*
X242028Y495600D01*
X241452Y495485D01*
X240963Y495159D01*
X240637Y494670D01*
X240522Y494095D01*
X240637Y493518D01*
X240963Y493030D01*
X241452Y492704D01*
X242028Y492589D01*
X242208Y492625D01*
X242691Y492142D01*
Y491378D01*
X242471Y491304D01*
X242191Y491294D01*
X241911Y491714D01*
X241423Y492040D01*
X240846Y492155D01*
X240270Y492040D01*
X239782Y491714D01*
X239680Y491561D01*
X238779D01*
Y495768D01*
X232087D01*
Y483580D01*
X229421D01*
X229049Y483952D01*
X229214Y484494D01*
X229415Y484535D01*
X229903Y484861D01*
X230229Y485349D01*
X230344Y485925D01*
X230229Y486501D01*
X229903Y486990D01*
X229750Y487092D01*
Y496276D01*
X230480Y497006D01*
X255399D01*
X255590Y496544D01*
X255458Y496412D01*
X255260Y496116D01*
X255191Y495768D01*
Y481379D01*
X251078Y477266D01*
X250616Y477457D01*
Y483169D01*
X253051D01*
Y495768D01*
X246358D01*
Y483169D01*
X248794D01*
Y476952D01*
X247949Y476108D01*
X237584D01*
X237482Y476261D01*
X236993Y476588D01*
X236417Y476702D01*
X235841Y476588D01*
X235353Y476261D01*
X235027Y475773D01*
X234912Y475197D01*
X235027Y474621D01*
X235353Y474132D01*
X235841Y473806D01*
X235960Y473782D01*
X236125Y473240D01*
X230464Y467580D01*
X230267Y467284D01*
X230197Y466935D01*
Y462401D01*
X229415Y462077D01*
X228716Y461540D01*
X228179Y460841D01*
X227842Y460027D01*
X227727Y459154D01*
X227842Y458280D01*
X228179Y457466D01*
X228716Y456767D01*
X229415Y456230D01*
X230229Y455893D01*
X231102Y455778D01*
X231976Y455893D01*
X232790Y456230D01*
X233489Y456767D01*
X234025Y457466D01*
X234363Y458280D01*
X234478Y459154D01*
X234363Y460027D01*
X234025Y460841D01*
X233489Y461540D01*
X232790Y462077D01*
X232020Y462396D01*
Y466558D01*
X238173Y472711D01*
X248723D01*
X249072Y472780D01*
X249367Y472978D01*
X256747Y480357D01*
X256944Y480653D01*
X257014Y481002D01*
Y495390D01*
X257169Y495545D01*
X260138D01*
Y483169D01*
X262573D01*
Y472326D01*
X258528Y468281D01*
X240446D01*
X240241Y468418D01*
X239665Y468533D01*
X239089Y468418D01*
X238601Y468092D01*
X238275Y467604D01*
X238160Y467028D01*
X238275Y466452D01*
X238601Y465963D01*
X239089Y465637D01*
X239665Y465522D01*
X240241Y465637D01*
X240730Y465963D01*
X241056Y466452D01*
X241057Y466459D01*
X246472D01*
X246663Y465997D01*
X242757Y462090D01*
X241976Y462414D01*
X241102Y462529D01*
X240229Y462414D01*
X239415Y462077D01*
X238716Y461540D01*
X238179Y460841D01*
X237842Y460027D01*
X237727Y459154D01*
X237842Y458280D01*
X238179Y457466D01*
X238716Y456767D01*
X239415Y456230D01*
X240229Y455893D01*
X241102Y455778D01*
X241976Y455893D01*
X242790Y456230D01*
X243489Y456767D01*
X244025Y457466D01*
X244363Y458280D01*
X244478Y459154D01*
X244363Y460027D01*
X244043Y460799D01*
X248309Y465065D01*
X257510D01*
X257702Y464603D01*
X254671Y461572D01*
X254473Y461276D01*
X254436Y461092D01*
X253925Y460974D01*
X253923Y460975D01*
X253489Y461540D01*
X252790Y462077D01*
X251976Y462414D01*
X251102Y462529D01*
X250229Y462414D01*
X249415Y462077D01*
X248716Y461540D01*
X248179Y460841D01*
X247842Y460027D01*
X247727Y459154D01*
X247842Y458280D01*
X248179Y457466D01*
X248716Y456767D01*
X249415Y456230D01*
X250197Y455906D01*
Y453405D01*
X215891Y419099D01*
X215694Y418803D01*
X215624Y418455D01*
Y377067D01*
X215694Y376718D01*
X215891Y376423D01*
X217770Y374544D01*
Y370863D01*
X216993Y370541D01*
X216295Y370005D01*
X215758Y369306D01*
X215421Y368492D01*
X215306Y367618D01*
X215421Y366745D01*
X215758Y365931D01*
X216295Y365231D01*
X216993Y364695D01*
X217808Y364358D01*
X218681Y364243D01*
X219555Y364358D01*
X220369Y364695D01*
X221068Y365231D01*
X221604Y365931D01*
X221941Y366745D01*
X222057Y367618D01*
X221941Y368492D01*
X221604Y369306D01*
X221068Y370005D01*
X220369Y370541D01*
X219592Y370863D01*
Y374921D01*
X219523Y375270D01*
X219325Y375566D01*
X217447Y377444D01*
Y398085D01*
X217947Y398185D01*
X218179Y397623D01*
X218716Y396924D01*
X219415Y396388D01*
X220229Y396051D01*
X221102Y395936D01*
X221976Y396051D01*
X222790Y396388D01*
X223489Y396924D01*
X224025Y397623D01*
X224363Y398437D01*
X224478Y399311D01*
X224363Y400185D01*
X224025Y400999D01*
X223489Y401698D01*
X222790Y402234D01*
X222185Y402485D01*
X222119Y403015D01*
X225103Y406000D01*
X225565Y405808D01*
Y377067D01*
X225635Y376718D01*
X225832Y376423D01*
X227770Y374485D01*
Y370863D01*
X226993Y370541D01*
X226294Y370005D01*
X225758Y369306D01*
X225421Y368492D01*
X225306Y367618D01*
X225421Y366745D01*
X225758Y365931D01*
X226294Y365231D01*
X226993Y364695D01*
X227808Y364358D01*
X228681Y364243D01*
X229555Y364358D01*
X230369Y364695D01*
X231068Y365231D01*
X231604Y365931D01*
X231942Y366745D01*
X232056Y367618D01*
X231942Y368492D01*
X231604Y369306D01*
X231068Y370005D01*
X230369Y370541D01*
X229592Y370863D01*
Y374862D01*
X229523Y375211D01*
X229326Y375506D01*
X227388Y377444D01*
Y398228D01*
X227888Y398327D01*
X228179Y397623D01*
X228716Y396924D01*
X229415Y396388D01*
X230229Y396051D01*
X231102Y395936D01*
X231976Y396051D01*
X232790Y396388D01*
X233489Y396924D01*
X234025Y397623D01*
X234363Y398437D01*
X234478Y399311D01*
X234363Y400185D01*
X234025Y400999D01*
X233489Y401698D01*
X232790Y402234D01*
X232351Y402416D01*
X232243Y403002D01*
X235479Y406238D01*
X235677Y406533D01*
X235746Y406882D01*
Y407302D01*
X235791Y407369D01*
X235860Y407718D01*
Y428469D01*
X236746Y429355D01*
X237208Y429164D01*
Y422722D01*
X237055Y422619D01*
X236729Y422131D01*
X236614Y421555D01*
X236729Y420979D01*
X237055Y420491D01*
X237543Y420164D01*
X238120Y420050D01*
X238696Y420164D01*
X239184Y420491D01*
X239510Y420979D01*
X239625Y421555D01*
X239510Y422131D01*
X239184Y422619D01*
X239031Y422722D01*
Y429573D01*
X262271Y452813D01*
X275878D01*
X276227Y452883D01*
X276522Y453080D01*
X282239Y458797D01*
X282436Y459092D01*
X282506Y459441D01*
Y494001D01*
X282436Y494350D01*
X282239Y494645D01*
X277384Y499500D01*
X277591Y500000D01*
X283504D01*
X283857Y499646D01*
D02*
G37*
%LPC*%
G36*
X198681Y370993D02*
X197808Y370879D01*
X196994Y370541D01*
X196294Y370005D01*
X195758Y369306D01*
X195421Y368492D01*
X195306Y367618D01*
X195421Y366745D01*
X195758Y365931D01*
X196294Y365231D01*
X196994Y364695D01*
X197808Y364358D01*
X198681Y364243D01*
X199555Y364358D01*
X200369Y364695D01*
X201068Y365231D01*
X201604Y365931D01*
X201941Y366745D01*
X202057Y367618D01*
X201941Y368492D01*
X201604Y369306D01*
X201068Y370005D01*
X200369Y370541D01*
X199555Y370879D01*
X198681Y370993D01*
D02*
G37*
G36*
X171102Y402686D02*
X170229Y402571D01*
X169415Y402234D01*
X168716Y401698D01*
X168179Y400999D01*
X167842Y400185D01*
X167727Y399311D01*
X167842Y398437D01*
X168179Y397623D01*
X168716Y396924D01*
X169415Y396388D01*
X170197Y396064D01*
Y367057D01*
X167989Y364848D01*
X149308D01*
X148986Y365625D01*
X148450Y366324D01*
X147751Y366860D01*
X146937Y367197D01*
X146063Y367312D01*
X145189Y367197D01*
X144375Y366860D01*
X143676Y366324D01*
X143140Y365625D01*
X142803Y364811D01*
X142688Y363937D01*
X142803Y363063D01*
X143140Y362249D01*
X143676Y361550D01*
X144375Y361014D01*
X145189Y360677D01*
X146063Y360562D01*
X146937Y360677D01*
X147751Y361014D01*
X148450Y361550D01*
X148986Y362249D01*
X149308Y363026D01*
X168366D01*
X168715Y363095D01*
X169010Y363293D01*
X171753Y366035D01*
X171950Y366331D01*
X172020Y366680D01*
Y396069D01*
X172790Y396388D01*
X173489Y396924D01*
X174025Y397623D01*
X174363Y398437D01*
X174478Y399311D01*
X174363Y400185D01*
X174025Y400999D01*
X173489Y401698D01*
X172790Y402234D01*
X171976Y402571D01*
X171102Y402686D01*
D02*
G37*
G36*
X212602Y367118D02*
X209181D01*
Y363697D01*
X209713Y363767D01*
X210675Y364165D01*
X211500Y364799D01*
X212134Y365625D01*
X212532Y366586D01*
X212602Y367118D01*
D02*
G37*
G36*
X208181D02*
X204760D01*
X204830Y366586D01*
X205228Y365625D01*
X205862Y364799D01*
X206688Y364165D01*
X207649Y363767D01*
X208181Y363697D01*
Y367118D01*
D02*
G37*
G36*
Y371539D02*
X207649Y371469D01*
X206688Y371071D01*
X205862Y370437D01*
X205228Y369612D01*
X204830Y368650D01*
X204760Y368118D01*
X208181D01*
Y371539D01*
D02*
G37*
G36*
X146063Y377312D02*
X145189Y377197D01*
X144375Y376860D01*
X143676Y376324D01*
X143140Y375625D01*
X142803Y374811D01*
X142688Y373937D01*
X142803Y373063D01*
X143140Y372249D01*
X143676Y371550D01*
X144375Y371014D01*
X145189Y370677D01*
X146063Y370562D01*
X146937Y370677D01*
X147751Y371014D01*
X148450Y371550D01*
X148986Y372249D01*
X149323Y373063D01*
X149438Y373937D01*
X149323Y374811D01*
X148986Y375625D01*
X148450Y376324D01*
X147751Y376860D01*
X146937Y377197D01*
X146063Y377312D01*
D02*
G37*
G36*
X136063Y387312D02*
X135189Y387197D01*
X134375Y386860D01*
X133676Y386324D01*
X133140Y385625D01*
X132803Y384811D01*
X132688Y383937D01*
X132803Y383063D01*
X133140Y382249D01*
X133676Y381550D01*
X134375Y381014D01*
X135189Y380677D01*
X136063Y380562D01*
X136937Y380677D01*
X137751Y381014D01*
X138450Y381550D01*
X138986Y382249D01*
X139323Y383063D01*
X139438Y383937D01*
X139323Y384811D01*
X138986Y385625D01*
X138450Y386324D01*
X137751Y386860D01*
X136937Y387197D01*
X136063Y387312D01*
D02*
G37*
G36*
X209181Y371539D02*
Y368118D01*
X212602D01*
X212532Y368650D01*
X212134Y369612D01*
X211500Y370437D01*
X210675Y371071D01*
X209713Y371469D01*
X209181Y371539D01*
D02*
G37*
G36*
X136063Y377312D02*
X135189Y377197D01*
X134375Y376860D01*
X133676Y376324D01*
X133140Y375625D01*
X132803Y374811D01*
X132688Y373937D01*
X132803Y373063D01*
X133140Y372249D01*
X133676Y371550D01*
X134375Y371014D01*
X135189Y370677D01*
X136063Y370562D01*
X136937Y370677D01*
X137751Y371014D01*
X138450Y371550D01*
X138986Y372249D01*
X139323Y373063D01*
X139438Y373937D01*
X139323Y374811D01*
X138986Y375625D01*
X138450Y376324D01*
X137751Y376860D01*
X136937Y377197D01*
X136063Y377312D01*
D02*
G37*
G36*
Y367312D02*
X135189Y367197D01*
X134375Y366860D01*
X133676Y366324D01*
X133140Y365625D01*
X132803Y364811D01*
X132688Y363937D01*
X132803Y363063D01*
X133140Y362249D01*
X133676Y361550D01*
X134375Y361014D01*
X135189Y360677D01*
X136063Y360562D01*
X136937Y360677D01*
X137751Y361014D01*
X138450Y361550D01*
X138986Y362249D01*
X139323Y363063D01*
X139438Y363937D01*
X139323Y364811D01*
X138986Y365625D01*
X138450Y366324D01*
X137751Y366860D01*
X136937Y367197D01*
X136063Y367312D01*
D02*
G37*
G36*
X278015Y353732D02*
X274594D01*
Y350311D01*
X275126Y350381D01*
X276088Y350780D01*
X276913Y351413D01*
X277547Y352239D01*
X277945Y353200D01*
X278015Y353732D01*
D02*
G37*
G36*
X136063Y357312D02*
X135189Y357197D01*
X134375Y356860D01*
X133676Y356324D01*
X133140Y355625D01*
X132803Y354811D01*
X132688Y353937D01*
X132803Y353063D01*
X133140Y352249D01*
X133676Y351550D01*
X134375Y351014D01*
X135189Y350677D01*
X136063Y350562D01*
X136937Y350677D01*
X137751Y351014D01*
X138450Y351550D01*
X138986Y352249D01*
X139323Y353063D01*
X139438Y353937D01*
X139323Y354811D01*
X138986Y355625D01*
X138450Y356324D01*
X137751Y356860D01*
X136937Y357197D01*
X136063Y357312D01*
D02*
G37*
G36*
X242028Y370965D02*
X235335D01*
Y364272D01*
X236589D01*
Y351181D01*
X236658Y350832D01*
X236856Y350537D01*
X238037Y349356D01*
X238332Y349158D01*
X238681Y349089D01*
X263090D01*
X263439Y349158D01*
X263735Y349356D01*
X264739Y350360D01*
X264936Y350655D01*
X264982Y350886D01*
X267441D01*
Y357579D01*
X260748D01*
Y350911D01*
X254353D01*
X254184Y351411D01*
X254571Y351709D01*
X255205Y352534D01*
X255603Y353496D01*
X255673Y354028D01*
X247831D01*
X247901Y353496D01*
X248299Y352534D01*
X248933Y351709D01*
X249320Y351411D01*
X249150Y350911D01*
X245487D01*
X245098Y351181D01*
Y357874D01*
X238411D01*
Y364272D01*
X242028D01*
Y370965D01*
D02*
G37*
G36*
X273594Y353732D02*
X270173D01*
X270243Y353200D01*
X270642Y352239D01*
X271275Y351413D01*
X272101Y350780D01*
X273062Y350381D01*
X273594Y350311D01*
Y353732D01*
D02*
G37*
G36*
X149409Y357283D02*
X142717D01*
Y350590D01*
X149409D01*
Y357283D01*
D02*
G37*
G36*
X251252Y358449D02*
X250720Y358379D01*
X249759Y357980D01*
X248933Y357347D01*
X248299Y356521D01*
X247901Y355559D01*
X247831Y355028D01*
X251252D01*
Y358449D01*
D02*
G37*
G36*
X252252D02*
Y355028D01*
X255673D01*
X255603Y355559D01*
X255205Y356521D01*
X254571Y357347D01*
X253745Y357980D01*
X252784Y358379D01*
X252252Y358449D01*
D02*
G37*
G36*
X273594Y358153D02*
X273062Y358083D01*
X272101Y357685D01*
X271275Y357051D01*
X270642Y356226D01*
X270243Y355264D01*
X270173Y354732D01*
X273594D01*
Y358153D01*
D02*
G37*
G36*
X274594D02*
Y354732D01*
X278015D01*
X277945Y355264D01*
X277547Y356226D01*
X276913Y357051D01*
X276088Y357685D01*
X275126Y358083D01*
X274594Y358153D01*
D02*
G37*
G36*
X146063Y387312D02*
X145189Y387197D01*
X144375Y386860D01*
X143676Y386324D01*
X143140Y385625D01*
X142803Y384811D01*
X142688Y383937D01*
X142803Y383063D01*
X143140Y382249D01*
X143676Y381550D01*
X144375Y381014D01*
X145189Y380677D01*
X146063Y380562D01*
X146937Y380677D01*
X147751Y381014D01*
X148450Y381550D01*
X148986Y382249D01*
X149323Y383063D01*
X149438Y383937D01*
X149323Y384811D01*
X148986Y385625D01*
X148450Y386324D01*
X147751Y386860D01*
X146937Y387197D01*
X146063Y387312D01*
D02*
G37*
G36*
X219980Y470596D02*
X205610D01*
X205261Y470527D01*
X204966Y470329D01*
X203686Y469050D01*
X203489Y468754D01*
X203419Y468405D01*
Y466816D01*
X203266Y466714D01*
X202940Y466226D01*
X202825Y465650D01*
X202940Y465074D01*
X203266Y464585D01*
X203755Y464259D01*
X204331Y464144D01*
X204907Y464259D01*
X205395Y464585D01*
X205721Y465074D01*
X205836Y465650D01*
X205721Y466226D01*
X205395Y466714D01*
X205242Y466816D01*
Y468028D01*
X205988Y468774D01*
X219603D01*
X220197Y468179D01*
Y462401D01*
X219415Y462077D01*
X218716Y461540D01*
X218179Y460841D01*
X217842Y460027D01*
X217727Y459154D01*
X217842Y458280D01*
X218179Y457466D01*
X218716Y456767D01*
X219415Y456230D01*
X220229Y455893D01*
X221102Y455778D01*
X221976Y455893D01*
X222790Y456230D01*
X223489Y456767D01*
X224025Y457466D01*
X224363Y458280D01*
X224478Y459154D01*
X224363Y460027D01*
X224025Y460841D01*
X223489Y461540D01*
X222790Y462077D01*
X222020Y462396D01*
Y468557D01*
X221951Y468905D01*
X221753Y469201D01*
X220625Y470329D01*
X220329Y470527D01*
X219980Y470596D01*
D02*
G37*
G36*
X216437Y467253D02*
X215861Y467139D01*
X215373Y466812D01*
X215270Y466659D01*
X213189D01*
X212840Y466590D01*
X212545Y466392D01*
X210464Y464312D01*
X210267Y464016D01*
X210197Y463668D01*
Y462401D01*
X209415Y462077D01*
X208716Y461540D01*
X208179Y460841D01*
X207842Y460027D01*
X207727Y459154D01*
X207842Y458280D01*
X208179Y457466D01*
X208716Y456767D01*
X209415Y456230D01*
X210229Y455893D01*
X211102Y455778D01*
X211976Y455893D01*
X212790Y456230D01*
X213489Y456767D01*
X214025Y457466D01*
X214363Y458280D01*
X214478Y459154D01*
X214363Y460027D01*
X214025Y460841D01*
X213489Y461540D01*
X212790Y462077D01*
X212020Y462396D01*
Y463290D01*
X213566Y464837D01*
X215270D01*
X215373Y464684D01*
X215861Y464357D01*
X216437Y464243D01*
X217013Y464357D01*
X217501Y464684D01*
X217828Y465172D01*
X217942Y465748D01*
X217828Y466324D01*
X217501Y466812D01*
X217013Y467139D01*
X216437Y467253D01*
D02*
G37*
G36*
X119410Y451558D02*
X118536Y451443D01*
X117722Y451106D01*
X117023Y450570D01*
X116487Y449871D01*
X116149Y449057D01*
X116034Y448183D01*
X116149Y447309D01*
X116487Y446495D01*
X117023Y445796D01*
X117722Y445260D01*
X118536Y444923D01*
X119410Y444808D01*
X120283Y444923D01*
X121097Y445260D01*
X121796Y445796D01*
X122333Y446495D01*
X122670Y447309D01*
X122785Y448183D01*
X122670Y449057D01*
X122333Y449871D01*
X121796Y450570D01*
X121097Y451106D01*
X120283Y451443D01*
X119410Y451558D01*
D02*
G37*
G36*
X129410D02*
X128536Y451443D01*
X127722Y451106D01*
X127023Y450570D01*
X126487Y449871D01*
X126149Y449057D01*
X126034Y448183D01*
X126149Y447309D01*
X126487Y446495D01*
X127023Y445796D01*
X127722Y445260D01*
X128536Y444923D01*
X129410Y444808D01*
X130283Y444923D01*
X131097Y445260D01*
X131796Y445796D01*
X132333Y446495D01*
X132670Y447309D01*
X132785Y448183D01*
X132670Y449057D01*
X132333Y449871D01*
X131796Y450570D01*
X131097Y451106D01*
X130283Y451443D01*
X129410Y451558D01*
D02*
G37*
G36*
X210138Y499140D02*
X171555D01*
X171206Y499070D01*
X170911Y498873D01*
X169434Y497396D01*
X169237Y497101D01*
X169167Y496752D01*
Y486797D01*
X169014Y486694D01*
X168688Y486206D01*
X168573Y485630D01*
X168688Y485054D01*
X169014Y484565D01*
X169503Y484239D01*
X170079Y484125D01*
X170655Y484239D01*
X171143Y484565D01*
X171469Y485054D01*
X171584Y485630D01*
X171469Y486206D01*
X171143Y486694D01*
X170990Y486797D01*
Y496375D01*
X171933Y497317D01*
X181891D01*
X182082Y496855D01*
X181738Y496511D01*
X181540Y496215D01*
X181471Y495866D01*
Y494375D01*
X181317Y494273D01*
X180991Y493785D01*
X180877Y493209D01*
X180991Y492633D01*
X181317Y492144D01*
X181398Y492091D01*
X181202Y491620D01*
X181004Y491659D01*
X180217D01*
Y495768D01*
X173524D01*
Y483169D01*
X180217D01*
Y489302D01*
X180653Y489481D01*
X180890Y489302D01*
X180991Y488794D01*
X181317Y488306D01*
X181806Y487979D01*
X182382Y487865D01*
X182958Y487979D01*
X183446Y488306D01*
X183773Y488794D01*
X183887Y489370D01*
X183773Y489946D01*
X183446Y490435D01*
X182958Y490761D01*
X182382Y490875D01*
X182201Y490839D01*
X181714Y491326D01*
X181785Y491582D01*
X181937Y491792D01*
X182382Y491703D01*
X182958Y491818D01*
X183446Y492144D01*
X183773Y492633D01*
X183887Y493209D01*
X183773Y493785D01*
X183446Y494273D01*
X183293Y494375D01*
Y495489D01*
X183728Y495923D01*
X185785D01*
X186221Y495768D01*
X186221Y495423D01*
Y483169D01*
X188656D01*
Y478822D01*
X186483Y476649D01*
X179956D01*
X179854Y476803D01*
X179365Y477129D01*
X178789Y477244D01*
X178213Y477129D01*
X177725Y476803D01*
X177399Y476314D01*
X177284Y475738D01*
X177399Y475162D01*
X177725Y474674D01*
X178213Y474347D01*
X178789Y474233D01*
X179365Y474347D01*
X179854Y474674D01*
X179956Y474827D01*
X186860D01*
X187209Y474896D01*
X187505Y475094D01*
X190211Y477801D01*
X190409Y478096D01*
X190478Y478445D01*
Y483169D01*
X192913D01*
Y495423D01*
X192913Y495768D01*
X193349Y495923D01*
X199565D01*
X200000Y495768D01*
Y483169D01*
X202435D01*
Y480397D01*
X189288Y467250D01*
X182564D01*
X182462Y467403D01*
X181974Y467729D01*
X181398Y467844D01*
X180822Y467729D01*
X180333Y467403D01*
X180007Y466915D01*
X179892Y466339D01*
X179976Y465917D01*
X179515Y465671D01*
X172199Y472987D01*
X171904Y473184D01*
X171555Y473254D01*
X164748D01*
X158851Y479150D01*
X158887Y479331D01*
X158773Y479907D01*
X158446Y480395D01*
X157958Y480721D01*
X157382Y480836D01*
X156806Y480721D01*
X156317Y480395D01*
X155991Y479907D01*
X155877Y479331D01*
X155991Y478755D01*
X156317Y478266D01*
X156806Y477940D01*
X157382Y477825D01*
X157563Y477861D01*
X163726Y471698D01*
X164021Y471501D01*
X164370Y471431D01*
X171178D01*
X179572Y463037D01*
X179868Y462839D01*
X179923Y462828D01*
X179974Y462308D01*
X179457Y462094D01*
X172206Y469345D01*
X171910Y469543D01*
X171561Y469612D01*
X147441D01*
X147092Y469543D01*
X146797Y469345D01*
X145259Y467808D01*
X145079Y467844D01*
X144503Y467729D01*
X144128Y467479D01*
X143735Y467618D01*
X143628Y467700D01*
Y474623D01*
X157829Y488824D01*
X158027Y489120D01*
X158096Y489468D01*
Y492436D01*
X158249Y492538D01*
X158576Y493026D01*
X158690Y493602D01*
X158576Y494178D01*
X158249Y494667D01*
X157761Y494993D01*
X157185Y495108D01*
X156609Y494993D01*
X156121Y494667D01*
X155794Y494178D01*
X155680Y493602D01*
X155794Y493026D01*
X156121Y492538D01*
X156274Y492436D01*
Y489846D01*
X149519Y483091D01*
X149428Y483084D01*
X149016Y483414D01*
X149016Y483617D01*
Y495768D01*
X142323D01*
Y483169D01*
X144758D01*
Y480397D01*
X140679Y476318D01*
X140481Y476022D01*
X140412Y475673D01*
Y467685D01*
X138894Y466167D01*
X123902D01*
X123832Y466521D01*
X123505Y467009D01*
X123017Y467336D01*
X122441Y467450D01*
X121865Y467336D01*
X121377Y467009D01*
X121050Y466521D01*
X120936Y465945D01*
X121050Y465369D01*
X121235Y465092D01*
X120976Y464592D01*
X118586D01*
X117414Y465764D01*
X117450Y465945D01*
X117336Y466521D01*
X117009Y467009D01*
X116521Y467336D01*
X115945Y467450D01*
X115369Y467336D01*
X114881Y467009D01*
X114554Y466521D01*
X114465Y466074D01*
X114101Y465897D01*
X113955Y465877D01*
X105734Y474098D01*
Y476575D01*
X118110D01*
Y479010D01*
X119502D01*
X119605Y478857D01*
X120093Y478531D01*
X120669Y478416D01*
X121245Y478531D01*
X121734Y478857D01*
X122060Y479345D01*
X122175Y479921D01*
X122060Y480497D01*
X121734Y480986D01*
X121245Y481312D01*
X120669Y481427D01*
X120093Y481312D01*
X119605Y480986D01*
X119502Y480832D01*
X118110D01*
Y483268D01*
X105734D01*
Y486434D01*
X105889Y486589D01*
X118012D01*
X118360Y486658D01*
X118656Y486856D01*
X120390Y488590D01*
X120571Y488554D01*
X121147Y488668D01*
X121635Y488995D01*
X121962Y489483D01*
X122076Y490059D01*
X121962Y490635D01*
X121635Y491123D01*
X121147Y491450D01*
X120571Y491564D01*
X119995Y491450D01*
X119507Y491123D01*
X119180Y490635D01*
X119066Y490059D01*
X119102Y489878D01*
X117634Y488411D01*
X105512D01*
X105163Y488342D01*
X104867Y488144D01*
X104179Y487455D01*
X103981Y487160D01*
X103912Y486811D01*
Y473721D01*
X103981Y473372D01*
X104179Y473076D01*
X115612Y461643D01*
X115907Y461446D01*
X116256Y461376D01*
X133669D01*
X134605Y460440D01*
Y457001D01*
X134674Y456653D01*
X134871Y456357D01*
X138723Y452505D01*
X139019Y452308D01*
X139368Y452238D01*
X179642D01*
X180979Y450902D01*
Y402670D01*
X180229Y402571D01*
X179415Y402234D01*
X178716Y401698D01*
X178179Y400999D01*
X177842Y400185D01*
X177727Y399311D01*
X177842Y398437D01*
X178179Y397623D01*
X178716Y396924D01*
X179415Y396388D01*
X180229Y396051D01*
X181102Y395936D01*
X181976Y396051D01*
X182790Y396388D01*
X183489Y396924D01*
X184025Y397623D01*
X184363Y398437D01*
X184478Y399311D01*
X184363Y400185D01*
X184025Y400999D01*
X183489Y401698D01*
X182801Y402226D01*
Y409647D01*
X183263Y409838D01*
X185970Y407131D01*
X186266Y406934D01*
X186614Y406864D01*
X190174D01*
X190197Y406841D01*
Y402558D01*
X189415Y402234D01*
X188716Y401698D01*
X188179Y400999D01*
X187842Y400185D01*
X187727Y399311D01*
X187842Y398437D01*
X188179Y397623D01*
X188716Y396924D01*
X189415Y396388D01*
X190229Y396051D01*
X191102Y395936D01*
X191976Y396051D01*
X192790Y396388D01*
X193489Y396924D01*
X194025Y397623D01*
X194363Y398437D01*
X194478Y399311D01*
X194363Y400185D01*
X194025Y400999D01*
X193489Y401698D01*
X192790Y402234D01*
X192020Y402553D01*
Y406458D01*
X192482Y406649D01*
X198166Y400965D01*
X197842Y400185D01*
X197727Y399311D01*
X197842Y398437D01*
X198179Y397623D01*
X198716Y396924D01*
X199415Y396388D01*
X200229Y396051D01*
X201102Y395936D01*
X201976Y396051D01*
X202790Y396388D01*
X203489Y396924D01*
X204025Y397623D01*
X204363Y398437D01*
X204478Y399311D01*
X204363Y400185D01*
X204025Y400999D01*
X203489Y401698D01*
X203051Y402034D01*
X203221Y402534D01*
X208984D01*
X209153Y402034D01*
X208716Y401698D01*
X208179Y400999D01*
X207842Y400185D01*
X207727Y399311D01*
X207842Y398437D01*
X208179Y397623D01*
X208716Y396924D01*
X209415Y396388D01*
X210229Y396051D01*
X211102Y395936D01*
X211976Y396051D01*
X212790Y396388D01*
X213489Y396924D01*
X214025Y397623D01*
X214363Y398437D01*
X214478Y399311D01*
X214363Y400185D01*
X214025Y400999D01*
X213489Y401698D01*
X212790Y402234D01*
X212001Y402561D01*
X211950Y402814D01*
X211753Y403109D01*
X210773Y404089D01*
X210477Y404287D01*
X210129Y404356D01*
X199393D01*
X188608Y415141D01*
Y453363D01*
X189354Y454108D01*
X192815D01*
X193164Y454178D01*
X193459Y454375D01*
X196707Y457623D01*
X196905Y457919D01*
X196974Y458268D01*
Y466259D01*
X199735Y469020D01*
X200197Y468829D01*
Y462401D01*
X199415Y462077D01*
X198716Y461540D01*
X198179Y460841D01*
X197842Y460027D01*
X197727Y459154D01*
X197842Y458280D01*
X198179Y457466D01*
X198716Y456767D01*
X199415Y456230D01*
X200229Y455893D01*
X201102Y455778D01*
X201976Y455893D01*
X202790Y456230D01*
X203489Y456767D01*
X204025Y457466D01*
X204363Y458280D01*
X204478Y459154D01*
X204363Y460027D01*
X204025Y460841D01*
X203489Y461540D01*
X202790Y462077D01*
X202020Y462396D01*
Y469334D01*
X216884Y484198D01*
X217082Y484494D01*
X217151Y484842D01*
Y486530D01*
X217305Y486632D01*
X217631Y487121D01*
X217745Y487697D01*
X217631Y488273D01*
X217305Y488761D01*
X216816Y489088D01*
X216240Y489202D01*
X215664Y489088D01*
X215176Y488761D01*
X214849Y488273D01*
X214735Y487697D01*
X214849Y487121D01*
X215176Y486632D01*
X215329Y486530D01*
Y485220D01*
X211806Y481697D01*
X211344Y481889D01*
Y487812D01*
X214924Y491391D01*
X215121Y491687D01*
X215191Y492035D01*
Y494087D01*
X215121Y494435D01*
X214924Y494731D01*
X210782Y498873D01*
X210487Y499070D01*
X210138Y499140D01*
D02*
G37*
G36*
X166437Y495768D02*
X159744D01*
Y483169D01*
X162179D01*
Y482677D01*
X162249Y482329D01*
X162446Y482033D01*
X166088Y478391D01*
X166384Y478194D01*
X166732Y478124D01*
X179542D01*
X179644Y477971D01*
X180133Y477645D01*
X180709Y477530D01*
X181285Y477645D01*
X181773Y477971D01*
X182099Y478459D01*
X182214Y479035D01*
X182099Y479611D01*
X181773Y480100D01*
X181285Y480426D01*
X180709Y480541D01*
X180133Y480426D01*
X179644Y480100D01*
X179542Y479947D01*
X167110D01*
X164387Y482669D01*
X164594Y483169D01*
X166437D01*
Y495768D01*
D02*
G37*
G36*
X118110Y497047D02*
X105512D01*
Y490354D01*
X118110D01*
Y492790D01*
X122127D01*
X122164Y492735D01*
X122652Y492409D01*
X123228Y492294D01*
X123804Y492409D01*
X124293Y492735D01*
X124619Y493223D01*
X124734Y493799D01*
X124619Y494375D01*
X124293Y494864D01*
X123804Y495190D01*
X123228Y495304D01*
X122652Y495190D01*
X122164Y494864D01*
X121996Y494612D01*
X118110D01*
Y497047D01*
D02*
G37*
G36*
X225000Y495768D02*
X218307D01*
Y483169D01*
X220644D01*
Y479823D01*
X220713Y479474D01*
X220911Y479178D01*
X222486Y477604D01*
X222781Y477406D01*
X223130Y477337D01*
X238006D01*
X238109Y477184D01*
X238597Y476857D01*
X239173Y476743D01*
X239749Y476857D01*
X240238Y477184D01*
X240564Y477672D01*
X240679Y478248D01*
X240564Y478824D01*
X240238Y479312D01*
X239749Y479639D01*
X239173Y479753D01*
X238597Y479639D01*
X238109Y479312D01*
X238006Y479159D01*
X223507D01*
X222466Y480200D01*
Y483169D01*
X225000D01*
Y495768D01*
D02*
G37*
G36*
X135236D02*
X128543D01*
Y483169D01*
X130979D01*
Y479118D01*
X128855Y476994D01*
X121639D01*
X121537Y477147D01*
X121048Y477473D01*
X120472Y477588D01*
X119896Y477473D01*
X119408Y477147D01*
X119082Y476659D01*
X118967Y476083D01*
X119082Y475507D01*
X119408Y475018D01*
X119896Y474692D01*
X120472Y474577D01*
X121048Y474692D01*
X121537Y475018D01*
X121639Y475172D01*
X129232D01*
X129581Y475241D01*
X129877Y475438D01*
X132534Y478096D01*
X132732Y478392D01*
X132801Y478740D01*
Y483169D01*
X135236D01*
Y495768D01*
D02*
G37*
G36*
X129410Y443926D02*
X128536Y443812D01*
X127722Y443474D01*
X127023Y442938D01*
X126487Y442239D01*
X126149Y441425D01*
X126034Y440551D01*
X126149Y439678D01*
X126487Y438864D01*
X127023Y438165D01*
X127722Y437628D01*
X128536Y437291D01*
X129410Y437176D01*
X130283Y437291D01*
X131097Y437628D01*
X131796Y438165D01*
X132333Y438864D01*
X132670Y439678D01*
X132785Y440551D01*
X132670Y441425D01*
X132333Y442239D01*
X131796Y442938D01*
X131097Y443474D01*
X130283Y443812D01*
X129410Y443926D01*
D02*
G37*
G36*
X161102Y402686D02*
X160229Y402571D01*
X159415Y402234D01*
X158716Y401698D01*
X158179Y400999D01*
X157842Y400185D01*
X157727Y399311D01*
X157842Y398437D01*
X158179Y397623D01*
X158716Y396924D01*
X159415Y396388D01*
X160229Y396051D01*
X161102Y395936D01*
X161976Y396051D01*
X162790Y396388D01*
X163489Y396924D01*
X164025Y397623D01*
X164363Y398437D01*
X164478Y399311D01*
X164363Y400185D01*
X164025Y400999D01*
X163489Y401698D01*
X162790Y402234D01*
X161976Y402571D01*
X161102Y402686D01*
D02*
G37*
G36*
X241102D02*
X240229Y402571D01*
X239415Y402234D01*
X238716Y401698D01*
X238179Y400999D01*
X237842Y400185D01*
X237727Y399311D01*
X237842Y398437D01*
X238179Y397623D01*
X238716Y396924D01*
X239415Y396388D01*
X240229Y396051D01*
X241102Y395936D01*
X241976Y396051D01*
X242790Y396388D01*
X243489Y396924D01*
X244025Y397623D01*
X244363Y398437D01*
X244478Y399311D01*
X244363Y400185D01*
X244025Y400999D01*
X243489Y401698D01*
X242790Y402234D01*
X241976Y402571D01*
X241102Y402686D01*
D02*
G37*
G36*
X141102D02*
X140229Y402571D01*
X139415Y402234D01*
X138716Y401698D01*
X138179Y400999D01*
X137842Y400185D01*
X137727Y399311D01*
X137842Y398437D01*
X138179Y397623D01*
X138716Y396924D01*
X139415Y396388D01*
X140229Y396051D01*
X141102Y395936D01*
X141976Y396051D01*
X142790Y396388D01*
X143489Y396924D01*
X144025Y397623D01*
X144363Y398437D01*
X144478Y399311D01*
X144363Y400185D01*
X144025Y400999D01*
X143489Y401698D01*
X142790Y402234D01*
X141976Y402571D01*
X141102Y402686D01*
D02*
G37*
G36*
X151102D02*
X150229Y402571D01*
X149415Y402234D01*
X148716Y401698D01*
X148179Y400999D01*
X147842Y400185D01*
X147727Y399311D01*
X147842Y398437D01*
X148179Y397623D01*
X148716Y396924D01*
X149415Y396388D01*
X150229Y396051D01*
X151102Y395936D01*
X151976Y396051D01*
X152790Y396388D01*
X153489Y396924D01*
X154025Y397623D01*
X154363Y398437D01*
X154478Y399311D01*
X154363Y400185D01*
X154025Y400999D01*
X153489Y401698D01*
X152790Y402234D01*
X151976Y402571D01*
X151102Y402686D01*
D02*
G37*
G36*
X251102D02*
X250229Y402571D01*
X249415Y402234D01*
X248716Y401698D01*
X248179Y400999D01*
X247842Y400185D01*
X247727Y399311D01*
X247842Y398437D01*
X248179Y397623D01*
X248716Y396924D01*
X249415Y396388D01*
X250229Y396051D01*
X251102Y395936D01*
X251976Y396051D01*
X252790Y396388D01*
X253489Y396924D01*
X254025Y397623D01*
X254363Y398437D01*
X254478Y399311D01*
X254363Y400185D01*
X254025Y400999D01*
X253489Y401698D01*
X252790Y402234D01*
X251976Y402571D01*
X251102Y402686D01*
D02*
G37*
G36*
X241102Y412686D02*
X240229Y412571D01*
X239415Y412234D01*
X238716Y411698D01*
X238179Y410999D01*
X237842Y410185D01*
X237727Y409311D01*
X237842Y408437D01*
X238179Y407623D01*
X238716Y406924D01*
X239415Y406388D01*
X240229Y406051D01*
X241102Y405936D01*
X241976Y406051D01*
X242790Y406388D01*
X243489Y406924D01*
X244025Y407623D01*
X244363Y408437D01*
X244478Y409311D01*
X244363Y410185D01*
X244025Y410999D01*
X243489Y411698D01*
X242790Y412234D01*
X241976Y412571D01*
X241102Y412686D01*
D02*
G37*
G36*
X119410Y443926D02*
X118536Y443812D01*
X117722Y443474D01*
X117023Y442938D01*
X116487Y442239D01*
X116149Y441425D01*
X116034Y440551D01*
X116149Y439678D01*
X116487Y438864D01*
X117023Y438165D01*
X117722Y437628D01*
X118536Y437291D01*
X119410Y437176D01*
X120283Y437291D01*
X121097Y437628D01*
X121796Y438165D01*
X122333Y438864D01*
X122670Y439678D01*
X122785Y440551D01*
X122670Y441425D01*
X122333Y442239D01*
X121796Y442938D01*
X121097Y443474D01*
X120283Y443812D01*
X119410Y443926D01*
D02*
G37*
G36*
X261102Y402686D02*
X260229Y402571D01*
X259415Y402234D01*
X258716Y401698D01*
X258179Y400999D01*
X257842Y400185D01*
X257727Y399311D01*
X257842Y398437D01*
X258179Y397623D01*
X258716Y396924D01*
X259415Y396388D01*
X260229Y396051D01*
X261102Y395936D01*
X261976Y396051D01*
X262790Y396388D01*
X263489Y396924D01*
X264025Y397623D01*
X264363Y398437D01*
X264478Y399311D01*
X264363Y400185D01*
X264025Y400999D01*
X263489Y401698D01*
X262790Y402234D01*
X261976Y402571D01*
X261102Y402686D01*
D02*
G37*
G36*
X271102D02*
X270229Y402571D01*
X269415Y402234D01*
X268716Y401698D01*
X268179Y400999D01*
X267842Y400185D01*
X267727Y399311D01*
X267842Y398437D01*
X268179Y397623D01*
X268716Y396924D01*
X269415Y396388D01*
X270229Y396051D01*
X271102Y395936D01*
X271976Y396051D01*
X272790Y396388D01*
X273489Y396924D01*
X274025Y397623D01*
X274363Y398437D01*
X274478Y399311D01*
X274363Y400185D01*
X274025Y400999D01*
X273489Y401698D01*
X272790Y402234D01*
X271976Y402571D01*
X271102Y402686D01*
D02*
G37*
%LPD*%
D20*
X238120Y421555D02*
Y429950D01*
X276285Y499311D02*
X281594Y494001D01*
Y459441D02*
Y494001D01*
X275878Y453724D02*
X281594Y459441D01*
X139272Y465256D02*
X141323Y467307D01*
X123130Y465256D02*
X139272D01*
X122441Y465945D02*
X123130Y465256D01*
X134941Y463681D02*
X136909Y461713D01*
X118209Y463681D02*
X134941D01*
X134046Y462287D02*
X135516Y460818D01*
X116256Y462287D02*
X134046D01*
X115945Y465945D02*
X118209Y463681D01*
X104823Y473721D02*
X116256Y462287D01*
X136909Y457579D02*
Y461713D01*
X135516Y457001D02*
Y460818D01*
X210138Y498228D02*
X214280Y494087D01*
X210433Y488189D02*
X214280Y492035D01*
Y494087D01*
X229043Y482669D02*
X238756D01*
X226772Y484941D02*
X229043Y482669D01*
X226772Y484941D02*
Y496558D01*
X229525Y499311D01*
X237795Y473622D02*
X248723D01*
X231109Y466935D02*
X237795Y473622D01*
X231109Y459154D02*
Y466935D01*
X242028Y494095D02*
X243602Y492520D01*
Y487516D02*
Y492520D01*
X238756Y482669D02*
X243602Y487516D01*
X139368Y453150D02*
X180020D01*
X135516Y457001D02*
X139368Y453150D01*
X139945Y454543D02*
X180597D01*
X136909Y457579D02*
X139945Y454543D01*
X184949Y457560D02*
Y461417D01*
X186343Y460858D02*
X207480Y481996D01*
X186343Y456983D02*
Y460858D01*
X186236Y456877D02*
X186343Y456983D01*
X186236Y414183D02*
Y456877D01*
X184843Y457454D02*
X184949Y457560D01*
X184843Y412402D02*
Y457454D01*
X186236Y414183D02*
X201109Y399311D01*
X184843Y412402D02*
X187205Y410039D01*
X196063Y458268D02*
Y466636D01*
X192815Y455020D02*
X196063Y458268D01*
X188976Y455020D02*
X192815D01*
X187697Y453740D02*
X188976Y455020D01*
X276668Y464583D02*
X278756D01*
X256890Y460532D02*
X259547Y463189D01*
X256890Y454729D02*
Y460532D01*
X255315Y460928D02*
X258970Y464583D01*
X255315Y455217D02*
Y460928D01*
X221109Y421010D02*
X255315Y455217D01*
X225083Y422922D02*
X256890Y454729D01*
X276969Y457850D02*
Y457972D01*
X274236Y455118D02*
X276969Y457850D01*
X261221Y455118D02*
X274236D01*
X261894Y453724D02*
X275878D01*
X238120Y429950D02*
X261894Y453724D01*
X234949Y428846D02*
X261221Y455118D01*
X241109Y459154D02*
X247931Y465976D01*
X269224D01*
X240008Y467370D02*
X258906D01*
X239665Y467028D02*
X240008Y467370D01*
X258906D02*
X263484Y471949D01*
X269224Y465976D02*
X270768Y467520D01*
X258970Y464583D02*
X276668D01*
X276091Y463189D02*
X277567Y461713D01*
X259547Y463189D02*
X276091D01*
X234835Y407604D02*
X234949Y407718D01*
X234835Y406882D02*
Y407604D01*
X231109Y403156D02*
X234835Y406882D01*
X234949Y407718D02*
Y428846D01*
X261109Y456975D02*
Y459154D01*
X261032Y456898D02*
X261109Y456975D01*
X261029Y456898D02*
X261032D01*
X226476Y422345D02*
X261029Y456898D01*
X251109Y453028D02*
Y459154D01*
X216535Y418455D02*
X251109Y453028D01*
X231109Y399311D02*
Y403156D01*
X111811Y493701D02*
X123130D01*
X109350D02*
X111811D01*
Y479921D02*
X120669D01*
X109350D02*
X111811D01*
X270768Y467520D02*
Y492618D01*
X279823Y465650D02*
Y493802D01*
X278756Y464583D02*
X279823Y465650D01*
X275707Y497917D02*
X279823Y493802D01*
X147441Y468701D02*
X171561D01*
X145079Y466339D02*
X147441Y468701D01*
X159646Y463779D02*
X161109Y462317D01*
X144390Y463779D02*
X159646D01*
X142717Y465453D02*
X144390Y463779D01*
X142717Y465453D02*
Y475000D01*
X141323Y467307D02*
Y475673D01*
X145669Y480020D01*
Y489468D01*
X142717Y475000D02*
X157185Y489468D01*
Y493602D01*
X180020Y453150D02*
X181890Y451279D01*
Y400092D02*
Y451279D01*
X181109Y399311D02*
X181890Y400092D01*
X104823Y473721D02*
Y486811D01*
X105512Y487500D02*
X118012D01*
X104823Y486811D02*
X105512Y487500D01*
X183366Y411024D02*
Y451774D01*
X180597Y454543D02*
X183366Y451774D01*
Y411024D02*
X186614Y407776D01*
X190551D01*
X187697Y414764D02*
Y453740D01*
Y414764D02*
X199016Y403445D01*
X190551Y407776D02*
X191109Y407218D01*
X248723Y473622D02*
X256102Y481002D01*
Y495768D01*
X249705Y476575D02*
Y489468D01*
X248327Y475197D02*
X249705Y476575D01*
X236417Y475197D02*
X248327D01*
X171555Y498228D02*
X210138D01*
X207480Y481996D02*
Y496063D01*
X206709Y496835D02*
X207480Y496063D01*
X183350Y496835D02*
X206709D01*
X210433Y481006D02*
Y488189D01*
X196063Y466636D02*
X210433Y481006D01*
X210138Y492913D02*
X212303D01*
X208957Y491732D02*
X210138Y492913D01*
X208957Y481501D02*
Y491732D01*
X191109Y463653D02*
X208957Y481501D01*
X216240Y484842D02*
Y487697D01*
X201109Y469711D02*
X216240Y484842D01*
X203346Y480020D02*
Y489468D01*
X189665Y466339D02*
X203346Y480020D01*
X181398Y466339D02*
X189665D01*
X226476Y377067D02*
Y422345D01*
X225083Y407268D02*
Y422922D01*
X277567Y461713D02*
X279528D01*
X276703Y457972D02*
X276969D01*
X216535Y377067D02*
Y418455D01*
X199016Y403445D02*
X210129D01*
X211109Y402465D01*
X182579Y463681D02*
X184843Y461417D01*
X237500Y366437D02*
X238681Y367618D01*
X230102Y497917D02*
X275707D01*
X228839Y496654D02*
X230102Y497917D01*
X229525Y499311D02*
X276285D01*
X275197Y496457D02*
X275886Y495768D01*
X256791Y496457D02*
X275197D01*
X256102Y495768D02*
X256791Y496457D01*
X228839Y485925D02*
Y496654D01*
X182382Y495866D02*
X183350Y496835D01*
X170079Y496752D02*
X171555Y498228D01*
X182382Y493209D02*
Y495866D01*
X170079Y485630D02*
Y496752D01*
X180217Y463681D02*
X182579D01*
X118012Y487500D02*
X120571Y490059D01*
X123130Y493701D02*
X123228Y493799D01*
X171555Y472342D02*
X180217Y463681D01*
X164370Y472342D02*
X171555D01*
X157382Y479331D02*
X164370Y472342D01*
X168307Y466634D02*
X171109Y463832D01*
X157480Y466634D02*
X168307D01*
X205610Y469685D02*
X219980D01*
X204331Y468405D02*
X205610Y469685D01*
X204331Y465650D02*
Y468405D01*
X275886Y492323D02*
Y495768D01*
X213189Y465748D02*
X216437D01*
X211109Y463668D02*
X213189Y465748D01*
X219980Y469685D02*
X221109Y468557D01*
Y403294D02*
X225083Y407268D01*
X221555Y479823D02*
X223130Y478248D01*
X239173D01*
X186860Y475738D02*
X189567Y478445D01*
X178789Y475738D02*
X186860D01*
X181004Y490748D02*
X182382Y489370D01*
X166732Y479035D02*
X180709D01*
X163091Y482677D02*
X166732Y479035D01*
X129232Y476083D02*
X131890Y478740D01*
X120472Y476083D02*
X129232D01*
X273031Y358957D02*
X274094Y357894D01*
X252658Y358957D02*
X273031D01*
X251752Y358051D02*
X252658Y358957D01*
X274094Y354232D02*
Y357894D01*
X251752Y354528D02*
Y358051D01*
X168366Y363937D02*
X171109Y366680D01*
X146063Y363937D02*
X168366D01*
X238681Y350000D02*
X263090D01*
X237500Y351181D02*
X238681Y350000D01*
X237500Y351181D02*
Y366437D01*
X264094Y351004D02*
Y354232D01*
X263090Y350000D02*
X264094Y351004D01*
X228681Y367618D02*
Y374862D01*
X226476Y377067D02*
X228681Y374862D01*
X218681Y367618D02*
Y374921D01*
X216535Y377067D02*
X218681Y374921D01*
X145669Y489468D02*
Y490748D01*
X131890Y478740D02*
Y489468D01*
Y490748D01*
X163091Y482677D02*
Y489468D01*
Y490748D01*
X203346Y489468D02*
Y490748D01*
X189567Y478445D02*
Y489468D01*
Y490748D01*
X263484Y471949D02*
Y489468D01*
Y490748D01*
X249705Y489468D02*
Y490748D01*
X171109Y366680D02*
Y399311D01*
X191109D02*
Y407218D01*
X211109Y399311D02*
Y402465D01*
X161109Y459154D02*
Y462317D01*
X171561Y468701D02*
X181109Y459154D01*
X171109D02*
Y463832D01*
X221109Y409311D02*
Y421010D01*
X176870Y490748D02*
X181004D01*
X234842Y490650D02*
X240846D01*
X221555Y479823D02*
Y490354D01*
X191109Y459154D02*
Y463653D01*
X201109Y459154D02*
Y469711D01*
X221109Y459154D02*
Y468557D01*
X211109Y459154D02*
Y463668D01*
X221109Y399311D02*
Y403294D01*
D22*
X119410Y448183D02*
D03*
X129410D02*
D03*
X146063Y363937D02*
D03*
Y373937D02*
D03*
Y383937D02*
D03*
X136063Y353937D02*
D03*
Y363937D02*
D03*
Y373937D02*
D03*
Y383937D02*
D03*
X228681Y367618D02*
D03*
X218681D02*
D03*
X208681D02*
D03*
X198681D02*
D03*
X241102Y409311D02*
D03*
X231102D02*
D03*
X221102D02*
D03*
X141102Y399311D02*
D03*
X151102D02*
D03*
X161102D02*
D03*
X171102D02*
D03*
X181102D02*
D03*
X191102D02*
D03*
X201102D02*
D03*
X211102D02*
D03*
X221102D02*
D03*
X231102D02*
D03*
X241102D02*
D03*
X251102D02*
D03*
X261102D02*
D03*
X271102D02*
D03*
X141102Y459154D02*
D03*
X151102D02*
D03*
X161102D02*
D03*
X171102D02*
D03*
X181102D02*
D03*
X191102D02*
D03*
X201102D02*
D03*
X211102D02*
D03*
X221102D02*
D03*
X231102D02*
D03*
X241102D02*
D03*
X251102D02*
D03*
X261102D02*
D03*
X251752Y354528D02*
D03*
X119410Y440551D02*
D03*
X129410D02*
D03*
X274094Y354232D02*
D03*
D23*
X146063Y353937D02*
D03*
X271102Y459154D02*
D03*
D24*
X238681Y367618D02*
D03*
X241752Y354528D02*
D03*
X264094Y354232D02*
D03*
D25*
X238120Y421555D02*
D03*
X187205Y410039D02*
D03*
X228839Y485925D02*
D03*
X120571Y490059D02*
D03*
X123228Y493799D02*
D03*
X242028Y494095D02*
D03*
X182382Y493209D02*
D03*
X170079Y485630D02*
D03*
X115945Y465945D02*
D03*
X212303Y492913D02*
D03*
X204331Y465650D02*
D03*
X275886Y492323D02*
D03*
X279528Y461713D02*
D03*
X276969Y457972D02*
D03*
X240846Y490650D02*
D03*
X181398Y466339D02*
D03*
X270768Y492618D02*
D03*
X239173Y478248D02*
D03*
X236417Y475197D02*
D03*
X239665Y467028D02*
D03*
X182382Y489370D02*
D03*
X120669Y479921D02*
D03*
X178789Y475738D02*
D03*
X157382Y479331D02*
D03*
X157185Y493602D02*
D03*
X120472Y476083D02*
D03*
X122441Y465945D02*
D03*
X157480Y466634D02*
D03*
X145079Y466339D02*
D03*
X180709Y479035D02*
D03*
X216240Y487697D02*
D03*
X216437Y465748D02*
D03*
D26*
X111811Y479921D02*
D03*
Y493701D02*
D03*
D27*
X263484Y489468D02*
D03*
X249705D02*
D03*
X221654D02*
D03*
X235433D02*
D03*
X203346D02*
D03*
X189567D02*
D03*
X163091D02*
D03*
X176870D02*
D03*
X145669D02*
D03*
X131890D02*
D03*
M02*
