G04 Layer_Color=255*
%FSLAX25Y25*%
%MOIN*%
G70*
G01*
G75*
%ADD10R,0.06299X0.03543*%
%ADD11R,0.02362X0.03543*%
%ADD12R,0.03937X0.02165*%
%ADD13R,0.09095X0.09685*%
%ADD14R,0.06299X0.01378*%
%ADD15R,0.04701X0.02201*%
%ADD16R,0.07087X0.02559*%
%ADD17R,0.05118X0.03543*%
%ADD18R,0.03543X0.02362*%
%ADD19R,0.03543X0.06299*%
%ADD22C,0.05906*%
%ADD23R,0.05906X0.05906*%
%ADD24R,0.05906X0.05906*%
D10*
X232579Y354724D02*
D03*
Y343307D02*
D03*
X234153Y469783D02*
D03*
Y481201D02*
D03*
X159252Y374606D02*
D03*
Y386024D02*
D03*
X175394Y470276D02*
D03*
Y481693D02*
D03*
D11*
X240650Y343209D02*
D03*
X246555D02*
D03*
X247441Y493209D02*
D03*
X253346D02*
D03*
X271457Y389370D02*
D03*
X277362D02*
D03*
X113878Y459055D02*
D03*
X119783D02*
D03*
X132193D02*
D03*
X126287D02*
D03*
X177461Y381398D02*
D03*
X171555D02*
D03*
X177461Y373622D02*
D03*
X171555D02*
D03*
X149311Y493110D02*
D03*
X143406D02*
D03*
X205217Y493209D02*
D03*
X199311D02*
D03*
X265453Y493110D02*
D03*
X259547D02*
D03*
X161319Y470276D02*
D03*
X167225D02*
D03*
X167224Y477953D02*
D03*
X161319D02*
D03*
X219783Y470177D02*
D03*
X225689D02*
D03*
X225689Y478642D02*
D03*
X219783D02*
D03*
X131004Y493209D02*
D03*
X136910D02*
D03*
X187002D02*
D03*
X192907D02*
D03*
D12*
X204390Y356496D02*
D03*
Y349016D02*
D03*
X213721Y352756D02*
D03*
D13*
X256693Y476575D02*
D03*
X139862Y477362D02*
D03*
X198917Y477067D02*
D03*
D14*
X245669Y485532D02*
D03*
Y482972D02*
D03*
Y480413D02*
D03*
Y477854D02*
D03*
Y475295D02*
D03*
Y472736D02*
D03*
Y470177D02*
D03*
Y467618D02*
D03*
X267717Y485532D02*
D03*
Y482972D02*
D03*
Y480413D02*
D03*
Y477854D02*
D03*
Y475295D02*
D03*
Y472736D02*
D03*
Y470177D02*
D03*
Y467618D02*
D03*
X128839Y486319D02*
D03*
Y483760D02*
D03*
Y481201D02*
D03*
Y478642D02*
D03*
Y476083D02*
D03*
Y473524D02*
D03*
Y470965D02*
D03*
Y468405D02*
D03*
X150886Y486319D02*
D03*
Y483760D02*
D03*
Y481201D02*
D03*
Y478642D02*
D03*
Y476083D02*
D03*
Y473524D02*
D03*
Y470965D02*
D03*
Y468405D02*
D03*
X209941Y468110D02*
D03*
Y470669D02*
D03*
Y473228D02*
D03*
Y475787D02*
D03*
Y478346D02*
D03*
Y480905D02*
D03*
Y483465D02*
D03*
Y486024D02*
D03*
X187894Y468110D02*
D03*
Y470669D02*
D03*
Y473228D02*
D03*
Y475787D02*
D03*
Y478346D02*
D03*
Y480905D02*
D03*
Y483465D02*
D03*
Y486024D02*
D03*
D15*
X187311Y351063D02*
D03*
Y356063D02*
D03*
Y361063D02*
D03*
Y366063D02*
D03*
X167413Y351063D02*
D03*
Y356063D02*
D03*
Y361063D02*
D03*
Y366063D02*
D03*
D16*
X263583Y375984D02*
D03*
X274606D02*
D03*
D17*
X158563Y358957D02*
D03*
Y351476D02*
D03*
D18*
X278839Y486811D02*
D03*
Y480905D02*
D03*
X196654Y355807D02*
D03*
Y349902D02*
D03*
X187008Y379725D02*
D03*
Y373819D02*
D03*
X249705Y370472D02*
D03*
Y364567D02*
D03*
X221260Y355906D02*
D03*
Y350000D02*
D03*
X278839Y468897D02*
D03*
Y474803D02*
D03*
D19*
X238091Y380020D02*
D03*
X249508D02*
D03*
X104626Y485433D02*
D03*
X116043D02*
D03*
X165354Y491634D02*
D03*
X176771D02*
D03*
X224114Y491929D02*
D03*
X235531D02*
D03*
X104626Y474803D02*
D03*
X116043D02*
D03*
D22*
X119410Y448183D02*
D03*
X129410D02*
D03*
X146063Y363937D02*
D03*
Y373937D02*
D03*
Y383937D02*
D03*
X136063Y353937D02*
D03*
Y363937D02*
D03*
Y373937D02*
D03*
Y383937D02*
D03*
X228681Y367618D02*
D03*
X218681D02*
D03*
X208681D02*
D03*
X198681D02*
D03*
X241102Y409311D02*
D03*
X231102D02*
D03*
X221102D02*
D03*
X141102Y399311D02*
D03*
X151102D02*
D03*
X161102D02*
D03*
X171102D02*
D03*
X181102D02*
D03*
X191102D02*
D03*
X201102D02*
D03*
X211102D02*
D03*
X221102D02*
D03*
X231102D02*
D03*
X241102D02*
D03*
X251102D02*
D03*
X261102D02*
D03*
X271102D02*
D03*
X141102Y459154D02*
D03*
X151102D02*
D03*
X161102D02*
D03*
X171102D02*
D03*
X181102D02*
D03*
X191102D02*
D03*
X201102D02*
D03*
X211102D02*
D03*
X221102D02*
D03*
X231102D02*
D03*
X241102D02*
D03*
X251102D02*
D03*
X261102D02*
D03*
X251752Y354528D02*
D03*
X119410Y440551D02*
D03*
X129410D02*
D03*
X274094Y354232D02*
D03*
D23*
X146063Y353937D02*
D03*
X271102Y459154D02*
D03*
D24*
X238681Y367618D02*
D03*
X241752Y354528D02*
D03*
X264094Y354232D02*
D03*
M02*
