G04 Layer_Color=255*
%FSLAX25Y25*%
%MOIN*%
G70*
G01*
G75*
%ADD22C,0.05906*%
%ADD23R,0.05906X0.05906*%
%ADD24R,0.05906X0.05906*%
%ADD26R,0.11811X0.05906*%
%ADD27R,0.05906X0.11811*%
D22*
X119410Y448183D02*
D03*
X129410D02*
D03*
X146063Y363937D02*
D03*
Y373937D02*
D03*
Y383937D02*
D03*
X136063Y353937D02*
D03*
Y363937D02*
D03*
Y373937D02*
D03*
Y383937D02*
D03*
X228681Y367618D02*
D03*
X218681D02*
D03*
X208681D02*
D03*
X198681D02*
D03*
X241102Y409311D02*
D03*
X231102D02*
D03*
X221102D02*
D03*
X141102Y399311D02*
D03*
X151102D02*
D03*
X161102D02*
D03*
X171102D02*
D03*
X181102D02*
D03*
X191102D02*
D03*
X201102D02*
D03*
X211102D02*
D03*
X221102D02*
D03*
X231102D02*
D03*
X241102D02*
D03*
X251102D02*
D03*
X261102D02*
D03*
X271102D02*
D03*
X141102Y459154D02*
D03*
X151102D02*
D03*
X161102D02*
D03*
X171102D02*
D03*
X181102D02*
D03*
X191102D02*
D03*
X201102D02*
D03*
X211102D02*
D03*
X221102D02*
D03*
X231102D02*
D03*
X241102D02*
D03*
X251102D02*
D03*
X261102D02*
D03*
X251752Y354528D02*
D03*
X119410Y440551D02*
D03*
X129410D02*
D03*
X274094Y354232D02*
D03*
D23*
X146063Y353937D02*
D03*
X271102Y459154D02*
D03*
D24*
X238681Y367618D02*
D03*
X241752Y354528D02*
D03*
X264094Y354232D02*
D03*
D26*
X111811Y479921D02*
D03*
Y493701D02*
D03*
D27*
X263484Y489468D02*
D03*
X249705D02*
D03*
X221654D02*
D03*
X235433D02*
D03*
X203346D02*
D03*
X189567D02*
D03*
X163091D02*
D03*
X176870D02*
D03*
X145669D02*
D03*
X131890D02*
D03*
M02*
